<svg xmlns="http://www.w3.org/2000/svg" xml:space="preserve" style="fill-rule:evenodd;clip-rule:evenodd;stroke-linejoin:round;stroke-miterlimit:2" viewBox="0 0 525 261" preserveAspectRatio="none"><path d="m515.2 255.1.1-1v-1.9c-.2-.3-.1-.8-.1-1.2v-6.3c.1-.7.3-1.4.7-2v-.3c0-.8 0-1.6.2-2.3v-.4a2 2 0 0 1 .1-1.3v-1c.3-.5.2-1 .2-1.5 0-.3.5-.6.5-.9 0-.3 0-.6.2-.8v-.3c0-1.4-.5-2.8-.5-4.2l-.2-.5c.3-.3 0-.4 0-.6v-.8l-.2-.9v-1l-.1-.7v-1.4l-.2-.7v-.8c0-.2-.5-.5-.6-.7v1.6l.2.4c-.2.2-.2.6-.2 1 0 .2 0 .4.2.5v.3c-.1.5-.2 1.1-.1 1.7v.8l-.2.4c-.1.2-.2.5-.5.4v-.6l-.2-.5c0-.2 0-.4-.2-.5v-1.3c-.2-.3-.2-.7-.2-1V222l-.1-.4v-.6c.2-.2.2-.5.2-.7v-4.2c0-.3 0-.6-.2-.8v-.8c-.1-.4.2-1-.1-1.4v-2l-.2-1.2v-1.2c-.2-.2-.2-.5-.2-.8v-.9c.1-.6.1-1.2-.1-1.8v-.5c.1-.6 0-1.2-.1-1.8v-1c0-.3 0-.6-.2-.8v-14.7l.2-.8v-1.7c0-.1-.1-.2-.3-.2v-.4c.3-.4.3-.8.3-1.2v-2.5l.1-.6-.1-.5v-3.7c.1-.2 0-.2 0-.2v-.5l.1-.3v-.2c-.2-.2-.2-.4-.2-.6v-1.5c0-.3-.2-.4 0-.5v-.4l-.1-.3-.1-.1v-1.1c-.2-.4-.7-.7-.7-1 0-.2.1-.5-.1-.7v-.2c0-.6 0-1.2-.2-1.8v-.3c.1-.6 0-1.3-.1-2v-1.6c-.2-.3-.2-.6-.2-.9v-3c.1-.6-.7-1.2-.4-1.8-.3-.2 0-.5 0-.7-.1-.2.5-.5.5-.8l.2-.6v-.2l-.1-.2v-.1l.1-1.8c.2-.5.3-1.1.1-1.7 0-.4.3-.6.3-1v-1l.1-.6c0-.2.7-.3.7-.4l.1-.6.1-.5v-2.1c.2-.3.2-.6.2-1v-2.3c.1-.1.1-.2 0-.2v-.4c0-.4.3-.7 0-1v-2.5c0-.2-.2-.3-.1-.5l.1-.6v-.7l-.2-.4v-.2l.1-.3v-.5l-.1-.7v-.7c-.1-.3.2-.4.2-.6v-1.3l.2-.1h.1c.2.1.2.1.2.5v4.1c.2.4.2.7.2 1-.1.4.1.9-.2 1.3v1.8c.3.4.2.8.2 1.2v6.3c-.1.7-.4 1.4-.7 2v.4a7 7 0 0 1-.2 2.3v.4c.1.4 0 .8-.1 1.2v1.2c-.3.4-.2.9-.2 1.4 0 .3-.6.6-.6.9.1.3 0 .6-.1.8v.3c0 1.4.5 2.8.5 4.2l.2.5c-.3.2 0 .4 0 .6v.7l.1 1v1l.2.6v1.5c0 .2.2.3.2.7v.7c0 .3.5.5.5.8v-1.6l-.1-.4c.2-.3.1-.7.1-1 .1-.2 0-.4-.1-.6v-.2a4 4 0 0 0 .1-1.7l-.1-.3v-.5c.1-.1.3-.3.3-.5.1-.1.2-.5.5-.3v.6c.1.2.2.2.2.5l.1.5v1.3c.2.3.2.7.2 1v2.7l.1.5v.6l-.1.7v4.2c0 .3-.1.6.1.8l.1.8c0 .4-.2.9 0 1.3v2.1l.2 1.2v1.2c.2.2.2.5.2.7v1c-.1.6 0 1.2.1 1.7v.5c0 .7 0 1.3.2 1.9v.9c-.1.3 0 .6.1.9V204l-.1.9v1.7l.2.1v.5a2 2 0 0 0-.3 1.1v2.5l-.1.6.1.6v4.5l-.1.2v.2c.2.2.2.4.2.6v1.6c0 .2.2.3.1.5l-.1.3c0 .1 0 .3.2.3v1.2c.2.4.7.7.7 1 0 .3-.1.6.1.7v.3c-.1.5 0 1.1.2 1.7v.3c-.1.7 0 1.4.1 2.1v1.5l.2 1v2.9c0 .6.8 1.3.4 1.8.4.3 0 .5 0 .7.1.3-.5.6-.5.8 0 .2 0 .4-.2.6v.2l.2.3c-.2.6-.2 1.3-.2 1.9-.1.5-.2 1-.1 1.6l-.2 1v1l-.2.6c.1.2-.6.3-.6.5-.2.1-.1.4-.2.6v2.5c-.2.3-.2.6-.2 1v2.9c0 .3-.4.6 0 1l.1 1.3v1.9c.3 0 .7.1.9.3l.4-.1c.4-.2.9-.2 1.3-.2h.7c.3 0 .5-.1.7-.3.2.1.4.3.7.3.9.2 1.8 0 2.6-.3l.7.1c.3.2 0 .5-.2.5-1-.1-1.5.3-2.3.3H518a6 6 0 0 0-2.1.1v.3l.2.4v.3l-.1.2v.6l.1 1.3c.1.3-.1.4-.1.7v1.1c0 .3-.3.3-.4.3-.2-.1-.3-.1-.3-.5h.1v-2.9l-.1-.6v-1l-.4-.1-.6-.2-.5.1c-.7.3-1.4.3-2.1 0h-.2c-1 .3-1.9.4-2.8.2h-10.1c-.4 0-1 0-1.3.2-.6.2-1.2.2-1.8.2H492a4 4 0 0 1-1.8-.3c-.5-.2-1.2-.2-1.7 0-1 .5-2.2.5-3.3 0h-1c-1-.1-1.9 0-2.8.2l-.4-.1a10 10 0 0 0-2.7-.1 3 3 0 0 1-2 .3h-7.6c-.4 0-.9 0-1.3-.3a1 1 0 0 0-.6 0c-.7.2-1.5.4-2.3.3H463l-.1-.1h.1-12.5c-.7 0-1.5 0-2.1-.4H443c-.7 0-1.4 0-2-.2a5 5 0 0 0-2.1-.1h-7.2a11 11 0 0 0-2.2-.3h-7.9c-.7 0-1.5 0-2.2-.3a2 2 0 0 0-.8.1 1 1 0 0 1-.5.2h-.5c-.4-.3-1-.4-1.4-.4H407c-.8.2-1.5 0-2.2-.3h-35c-.9.2-1.7 0-2.5-.2h-9.9c-.4 0-1 0-1.3.3-.5-.5-1.4-.3-2.2-.3h-1.3l-.7.2h-.2c-1-.3-1.9-.4-2.8-.2h-19.1c-.6.1-1.2 0-1.7-.3-.5.2-1 .3-1.6.3h-7.1a3 3 0 0 0-2 .3h-.7c-.6.1-1.1 0-1.6-.1a3 3 0 0 0-1.4-.1 4 4 0 0 1-1.7.3c-.4 0-.9 0-1.3-.3H306c-.5.4-1.2.4-1.7 0h-4.7l-1.8-.5v-.3c.2-.2.6-.2 1-.2h6.1c.4 0 .7 0 1 .2.4.2.9.2 1.3.2h8.6a5 5 0 0 0 2.4-.4l.7.2h.4c.5-.2 1-.2 1.4-.2h5.9a3 3 0 0 0 2-.3h.8c.5 0 1 0 1.5.2l1.2.1h7.3a5 5 0 0 1 2.4.3h1.8c.4-.2.9-.3 1.4-.3h3.7c.4.4.6.2 1 0H368c.8-.1 1.7 0 2.5.3h9.1a4 4 0 0 0 2.2-.3h1.8c.5.3 1.1.4 1.7.3h5.1c.6.1 1.2 0 1.7-.3h.2c.7.3 1.6.4 2.4.3h13.6c.7-.1 1.4 0 2 .3h10.2c.5 0 1.1 0 1.7.3.3 0 .4-.3 1-.3.7 0 1.5 0 2.2.3.3-.4.6-.2 1 0h4.7a3 3 0 0 1 1.7.3h.8c.5-.2 1-.3 1.6-.2h.7c.6.3 1.4.4 2 .3h7.1c1-.2 2 0 2.9.3h20.5c.7 0 1.4 0 2-.4h.3c.5 0 .7.5 1.3.4.3-.1.6-.3 1-.3l.7.1c.3.2.3.2.5 0l1.4-.2c.5 0 1 0 1.4.3h.8l.9-.3c.3 0 .6.1.8.3h.4l.4-.2.4.1c.2.2.6.2.9.2h.5c.6-.5 1.5-.4 2.2-.3h.8c.7-.1 1.4 0 2.1.3h.7c.6 0 1.2 0 1.6-.2.3-.1.6-.1.8 0l1.4.2h3.3c.5 0 1 0 1.3.3h.6c.2 0 .3 0 .5-.2.1-.1.2-.1.4 0l.8.2h3.4c.4 0 .8 0 1.1-.2l.8-.1c.3 0 .6 0 .9.2h.4c1-.5 1.8 0 2.7.1h.6c.7-.2 1.5-.3 2.2-.3h2.5l.5-.2h.8l.7.2Zm-504.6-6v-.2c.2-.4-.1-1 .2-1.4v-1.8c-.3-.3-.1-.8-.1-1.2v-6.3c.1-.7.3-1.4.7-2v-.3l.1-2.3v-.4c0-.4 0-.8.2-1.3v-1.1c.3-.4.2-1 .2-1.4 0-.4.5-.7.5-1 0-.2 0-.5.2-.8v-.2c0-1.4-.5-2.8-.5-4.2l-.2-.5c.3-.3 0-.4 0-.6v-.8l-.2-.9v-1l-.1-.7v-1.4l-.2-.7v-.8c0-.2-.5-.5-.5-.7v2c-.2.2 0 .6 0 1v.8c-.1.5-.2 1.1 0 1.7v.8l-.3.4c-.1.2-.2.5-.4.4v-.6l-.2-.5c0-.2 0-.4-.2-.5v-1.3l-.1-1v-2.8l-.2-.4v-.6c.2-.2.2-.5.2-.7v-4.2c0-.3.1-.6-.2-.8v-.8c0-.4.2-1-.1-1.4v-2c.1-.5-.2-.8-.2-1.2v-1.2l-.1-.8v-.9c0-.6 0-1.2-.2-1.8v-.5c.1-.6 0-1.2-.1-1.8v-.9c0-.4 0-.6-.2-.9v-13.1l.2-.9v-1.7l-.2-.1-.1-.2v-.3c.3-.3.3-.7.3-1.1v-1.3l.1-.6-.1-.4v-.2c.2-.2.2-.4.2-.6l-.2-.6v-4.1l.1-.3v-.4l-.2-.6V166l.1-.3-.2-.3v-.2c.1-.3 0-.7-.1-1-.1-.4-.6-.7-.6-1 0-.3 0-.6-.2-.7v-.3c.1-.5.1-1.1-.1-1.7v-.3a5 5 0 0 0-.2-2.1v-1.5c0-.4-.2-.6-.1-1v-2.9c0-.6-.8-1.3-.5-1.8-.3-.3 0-.5 0-.7 0-.3.6-.6.6-.8l.1-.6v-.2l-.1-.3.1-1.9c.2-.5.2-1 .2-1.6l.2-1v-1l.1-.6c0-.2.7-.3.7-.5l.1-.6.1-.4v-2.1c.2-.3.2-.6.2-1v-2.5l-.1-.5c0-.3.4-.6 0-1v-2.4c0-.3-.2-.4 0-.5v-1.3l-.1-.4v-.3l.1-.2v-.6l-.2-1.3.2-.7v-1.1c0-.3.2-.3.4-.3.2.1.2.1.2.5v-.1 2.9c-.1.1 0 .2 0 .2v1c.2.4.2.7.2 1-.1.5.1 1-.2 1.3v1.9c.2.3.2.8.2 1.2v6.3a5 5 0 0 1-.8 2v.3a7 7 0 0 1-.1 2.5v.4l-.1 1.3v1c-.3.5-.2 1-.2 1.5 0 .3-.6.6-.6.9.1.3 0 .6-.1.8v.3c0 1.4.5 2.8.5 4.2l.2.5c-.3.3 0 .4 0 .6v.8l.1.9v1l.2.7v1.4l.2.7v.8c0 .2.5.5.5.7v-1.6l-.1-.4.1-1-.1-.5v-.3a4 4 0 0 0 .1-1.7l-.1-.3v-.5l.3-.4c.1-.2.2-.5.4-.4l.1.6.2.5.1.5v1.3c.3.3.3.7.3 1v3.8l-.1.7v4.2c0 .3-.1.6.1.8v.8c.1.4-.1 1 .2 1.4v2c-.1.5.1.8.1 1.2v1.2c.2.2.2.5.2.8v.9c-.1.6 0 1.2.2 1.8v.5c-.1.6-.1 1.2.1 1.8v1c0 .3 0 .6.2.8v13.2l-.2.8v1.7l.2.2.1.2v.3c-.3.2-.3.7-.3 1v1.4l-.1.5.1.4v.3c-.2.1-.2.3-.2.5l.2.6v3.7c-.1.1-.1.2 0 .2v.3l-.1.2v.5c.2.1.2.3.2.5v1.6c0 .2.2.3 0 .5v.3l.1.4.1 1.2c.1.3.6.6.6 1 0 .2 0 .5.2.7v.2c-.1.6 0 1.2.1 1.7v.3c0 .7 0 1.4.2 2.1v1.3l.2 1v2.9c-.1.6.7 1.3.4 1.9.3.2 0 .4 0 .7 0 .2-.6.5-.6.8l-.1.5v.2l.1.3v.1c-.1.6-.2 1.2-.1 1.8a3 3 0 0 0-.2 1.6l-.2 1.1-.1 1v.6c0 .2-.7.2-.8.4v.6l-.1.5v2c-.2.3-.2.6-.2 1v2.1l-.1.3v.2l.1.4c0 .4-.4.7 0 1v2.5c0 .2.2.3 0 .5v.8h.2c.6 0 1.1 0 1.6.3h.5l4.5.4h.6l1.1.1h.3c.2.2.5.1.7 0h.1c.6.3 1.3.4 2 .3l7.2.7 1.5.1c.3 0 .8 0 1 .3h.6l.5-.1H40a3 3 0 0 0 2-.4h.9c.5-.1 1 0 1.5.1l1.2.1 6.8-.1a7 7 0 0 1 3.2.2h1.9c.4-.2 1-.3 1.4-.3h3.8c.4.3.7 0 1.2 0 .3-.2.7-.2 1-.2h.5c5.4 0 10.7-.2 16-.3 1.3-.2 2.6 0 3.8.3l-18 .3c.4 0 .7.1 1 .3h1.2l6-.2h3.2c.5 0 1 0 1.6.2l-8.6.2c-.5 0-1 .1-1.3.3-.6-.4-1.5-.3-2.3-.2h-.5c-.6-.1-1.1 0-1.5.2h-.3a9.7 9.7 0 0 0-4-.1l-15 .3h-3.5c-.6.2-1.2 0-1.7-.2h-.2l.2.2 2.3.2c.1 0 .3-.1.4 0l.5.1h.5l1.7.2 1 .3v.2H47l-1.3-.1-1.5-.1-.5-.2a1 1 0 0 0-.6-.1h-1l-.4-.1-1.3-.1-1.2-.1a4 4 0 0 0-.5 0h-1.2l-4.4.1h-.6c-.7-.1-1.4 0-2 .3h-.8c-.6.1-1.1 0-1.6-.1a2 2 0 0 0-1.5 0c-.5.1-1.1.3-1.7.2-.5.1-1 0-1.4-.2l-4.7.1c-.2.2-.5.3-.8.3-.4 0-.7-.1-1-.3a4 4 0 0 0-1.3 0h-4.1l-.2.5v1.5l-.3.1c-.2-.1-.3-.1-.3-.5v-1.8l-.5-.1-.1-.1v-.2c.1-.2.3-.2.6-.2l.1-.4-.1-.2v-1.6l-3.4-.3H7c-.3-.2-.7-.1-1 0l-1-.1c-.3-.2-.7-.2-1.1-.2l-.8-.1 7.5.3Zm70 2.1c.2-.1.3-.3.8-.3h.5c.6 0 1.2 0 1.8.3.3-.4.7-.2 1-.1l.7.1h4.1c.6-.2 1.2 0 1.8.1h.8a3 3 0 0 1 1.6-.3h.8c.8.5 2 .3 3 .3h2.3l2.8-.1h1.2c1-.2 2-.1 3 .2h1l20.2-.4c.7 0 1.3-.1 2-.4h.3c.5 0 .7.4 1.3.3.4 0 .7-.3 1-.3.3 0 .6 0 .8.2h.5a4 4 0 0 1 2.8 0h.9c.2-.2.5-.3.9-.4.3 0 .6 0 .9.3l.4-.1.3-.1h.4c.3.2.6.3 1 .2h.5c.6-.5 1.5-.4 2.3-.4 1-.1 2 0 3 .3h.7c.6 0 1.1 0 1.6-.3h.9c.4.2.9.2 1.4.2h3.5c.5-.1 1 0 1.4.1.3.1.7 0 1-.1l.3-.1h.2l.8.2h3.5a2 2 0 0 0 1.1-.3c.6-.2 1.2-.2 1.8 0l.4.2c1-.6 1.8-.2 2.7 0h.7c.7-.3 1.5-.4 2.3-.4h2.5l.4-.2c-.8 0-1.6 0-2.3-.4h-20.6a4 4 0 0 0-2 .4h-.2c-.5 0-.7-.5-1.3-.3l-1 .2-.8-.1c-.2-.1-.2-.1-.4 0l-1.4.2c-.5 0-1 0-1.4-.3h-.8c-.2.2-.6.2-.9.3l-.9-.3-.3.1-.4.1-.4-.1c-.2-.2-.6-.2-1-.1h-.4c-.6.4-1.5.3-2.3.3h-.7c-.7 0-1.5 0-2.1-.3h-.8c-.5-.1-1 0-1.5.2h-.8c-.4-.2-1-.3-1.4-.2H125c-.5 0-1-.1-1.4-.3a1 1 0 0 0-.5 0 1 1 0 0 0-.5.1c-.2.2-.3.2-.4 0l-.8-.2H118c-.4 0-.8 0-1.1.2l-.8.2c-.3 0-.6 0-.9-.2l-.4-.1c-1 .5-1.8.1-2.7 0h-.6l-2.2.3h-2.5l-.4.2h-.9c-.5-.5-1.8 0-2.4-.5h-.4c-.4.2-.9.3-1.3.2h-.7c-.3 0-.5.2-.7.3l-.7-.2c-.9-.2-1.8-.1-2.6.2h-.8c-.2-.2 0-.6.3-.5 1 .1 1.5-.3 2.3-.4h3.6a6 6 0 0 0 2.7-.2h.5c.1.2.3.2.5.2h.5a2 2 0 0 1 1-.3c.5 0 .8 0 1.1.2l.3.1c.8-.3 1.8-.4 2.8-.3h10c.5 0 1 0 1.4-.2.6-.1 1.2-.2 1.8-.1h3.4a4 4 0 0 1 1.7.3h1.7c1-.5 2.2-.5 3.3 0h1l2.3-.1.5-.1h.5c.8.2 1.8.2 2.6.2a3 3 0 0 1 2-.4h7.8c.4 0 1 0 1.3.3h.6c1.1-.3 2.4-.4 3.6-.3h12.4c.8 0 1.5 0 2.2.4h5.2c.8 0 1.5 0 2.1.2.7.2 1.4.2 2 .1h7.1l2.3.4h7.8a4 4 0 0 1 2.2.3c.3 0 .6 0 .8-.2l.5-.2h.6c.4.3.9.4 1.3.4h9.5c.7-.2 1.5 0 2.1.2h35.1a5 5 0 0 1 2.4.3h10c.4 0 .9 0 1.2-.3.6.5 1.5.3 2.3.3h.5c.5 0 1 0 1.5-.3h.2c.9.4 1.8.5 2.8.3h19.1a3 3 0 0 1 1.6.3c.5-.2 1-.3 1.6-.3h7.1a3 3 0 0 0 2-.3h.8c.5-.1 1 0 1.5.1.5.2 1 .2 1.4.1a4 4 0 0 1 1.7-.3c.5 0 1 0 1.4.3h4.5c.5-.4 1.3-.4 1.8 0h4.6l1.8.5.1.1v.2c-.2.2-.7.2-1 .2h-6.2c-.3 0-.7 0-1-.2-.4-.2-.8-.2-1.2-.2H304a5 5 0 0 0-2.4.4c-.3 0-.5 0-.8-.2h-.4c-.4.2-1 .3-1.4.2h-5.8a3 3 0 0 0-2 .3h-.7c-.6 0-1.1 0-1.6-.2h-8.4c-.9 0-1.7 0-2.5-.4h-1.8c-.4.2-.8.3-1.3.3h-3.7c-.4-.4-.7-.2-1.1 0H252a5 5 0 0 1-2.6-.3h-9.1c-.7-.1-1.5 0-2.1.3h-1.8c-.6-.3-1.2-.4-1.8-.3h-5.2c-.6-.1-1.2 0-1.7.3h-.2c-.7-.3-1.5-.4-2.3-.3h-13.7c-.7.1-1.4 0-2-.2a2 2 0 0 0-.8 0h-9.4c-.5 0-1.1 0-1.6-.4-.4 0-.5.3-1 .3h-.5c-.6 0-1.2 0-1.7-.3-.4.4-.7.2-1 .1l-.7-.1h-4.1a3 3 0 0 1-1.7-.3 2 2 0 0 0-.7 0c-.5.3-1 .3-1.6.3h-.7l-1.5.3h-3.7c-1 0-2 0-2.8.4a1 1 0 0 1-.4-.1l-.6-.1h-.5a2 2 0 0 1-1 .3c-.4 0-.8 0-1.2-.2h-.2a7 7 0 0 1-2.9.3H168l-4.5.1H159c-2.8.5-5.7.6-8.6.4-.6-.2-1.2-.2-1.8 0-1 .4-2.2.4-3.3 0H144a8 8 0 0 0-2.2.2H138c-.6.3-1.3.4-2 .3h-.6l-7.4.2c-.5 0-1 0-1.4-.2a1 1 0 0 0-.6 0c-1.2.3-2.4.4-3.7.3h-1.5l-10.6.2a6 6 0 0 1-3-.2h-5.4c-.6.2-1.4.1-2 0-.8-.2-1.5-.3-2.2-.2h-1l-3.2.1c-1 0-2.1.1-3.2 0L88 252h-2.5l-2.3.1h-2.6c-1 .2-2 .1-3-.2a2 2 0 0 0-.7.2l-.6.2-.5-.1c-.5-.2-1-.3-1.4-.2l-9 .2c-1 0-2.2.2-3-.3h-2l12.6-.2 9.8-.2-1-.3h-1.2l-.2.1h-.2.4Zm-69.2-1.6.1.4.1.2-.2.2v.6l.2.7h2.8c1-.1 2.1 0 3.2-.2.3 0 .7 0 1 .2.4.2.9.2 1.3.1h5.4l2.6-.1h.8c.7 0 1.4 0 2-.2l-3.3-.4c-.5 0-1 0-1.5-.3h-1.6l-1.9-.1c-.2-.2-.3-.1-.5 0l-.6-.1h-.2l-7.8-.7c-.6 0-1.2-.1-1.7-.3h-.2Zm319.5 1c.5-.3 1-.4 1.6-.3h3.1l-4.7.3Zm6.3-.4h-1.6l16.8-1.4c1.1-.2 2.2-.2 3.3.2h.9l9-.3c.5 0 1-.1 1.3-.3.6.4 1.5.2 2.2.2h.5c.6.1 1 0 1.5-.3h.2c1.3.3 2.6.4 3.9.1 4.9 0 9.7-.2 14.6-.4h2.8c.8 0 1.7-.3 2.3.2a3 3 0 0 1 1.6-.4l6.5-.2h.6c.7.1 1.4 0 2-.4h.7c.6 0 1.1 0 1.6.2h1.4c.5-.2 1-.3 1.7-.3.4 0 1 0 1.3.2l4.6-.1c.5-.4 1.3-.4 1.8 0h1.2c1.1 0 2.3-.2 3.4-.1a9 9 0 0 1 1.8.3l.1.2v.1c-.2.3-.7.3-1 .3h-3c-1 0-2.1 0-3.1.2a3 3 0 0 1-1-.2c-.4-.1-.9-.2-1.3-.1H413l-2.5.2H408c-1 0-2.1 0-3.2.4l-.7-.1h-.5c-.4.2-.8.2-1.3.2l-5.3.1h-.7a3 3 0 0 0-1.9.4h-.8c-.5.1-1 0-1.5-.1l-1.2-.1-6.5.2c-1 .2-2.2 0-3.2-.2h-1.8l-1.4.4h-3.7c-.4-.3-.7 0-1 0-.4.1-.8.2-1.2.1h-.4l-15.6.5c-1.2.2-2.4.1-3.5-.2h-1.2l-7.2.2h-.7c-.8 0-1.5 0-2.1.4h-1.9c-.6-.4-1.5-.2-2.3-.2v.1ZM513.9 8.6l.2-.6V6.6l.2-.1h.1c.2.1.2.1.2.5v1.7l.6.1v.3c-.1.2-.4.2-.6.2v1.8l.1.3 3.4.3h.3c.4.2.8.1 1.1 0l1 .1c.2.2.7.2 1 .2v.1l.8.1-7.5-.3v.2c-.1.5.1 1-.2 1.3v1.9c.3.3.2.8.2 1.2v6.3c-.1.7-.4 1.4-.7 2v.3a7 7 0 0 1-.2 2.3v.4c.1.4 0 .8-.1 1.2v1.3c-.3.4-.2 1-.2 1.4 0 .3-.6.6-.6 1 .1.2 0 .5-.1.8v.2c0 1.4.5 2.8.5 4.2l.2.5c-.3.3 0 .4 0 .6v.8l.1.9v1l.2.7v1.4c0 .3.2.3.2.7v.8c0 .2.5.4.5.7v-1.6l-.1-.4c.2-.2.1-.6.1-1 .1-.2 0-.4-.1-.5v-.3a4 4 0 0 0 .1-1.7l-.1-.3v-.5l.3-.4c.1-.2.2-.5.5-.4v.6l.2.5.1.5v1.3c.2.3.2.7.2 1v2.8l.1.4v.5l-.1.7v4.2c0 .3-.1.6.1.8l.1.8c0 .4-.2 1 0 1.3v2.1l.2 1.2v1.2c.2.2.2.5.2.8v.9c-.1.6 0 1.2.1 1.8v.5c0 .6 0 1.2.2 1.8v.9c-.1.3 0 .6.1.9v14.7l-.1.8v1.7l.2.1v.3c.1 0 0 .2 0 .2a2 2 0 0 0-.3 1.1v2.5l-.1.6.1.6v4.3l-.1.2v.2c.2.2.2.4.2.6v1.6c0 .2.2.3.1.5l-.1.3c0 .1 0 .3.2.3v1.4c.2.4.7.7.7 1 0 .3-.1.6.1.7v.3c0 .5 0 1.1.2 1.7v.3c-.1.7 0 1.4.1 2.1v1.5l.2 1v2.9c0 .6.8 1.3.4 1.8.4.3 0 .5 0 .7.1.3-.5.6-.5.8 0 .2 0 .4-.2.6v.2l.2.3c-.2.6-.2 1.3-.2 1.9-.1.5-.2 1-.1 1.6l-.2 1.1-.1 1v.5c0 .2-.7.3-.7.5-.2.2-.1.4-.2.6v2.5c-.2.3-.2.6-.2 1v2.9c0 .3-.4.6 0 1l.1 1.3v1.6l-.1.6v.7l.2.4v.3l-.1.2v.6l.1 1.3c.1.3-.1.4-.1.7v1.1c0 .3-.3.3-.4.3-.1-.1-.3-.1-.3-.5l.1.2v-4.2c-.2-.4-.2-.7-.2-1 .1-.5-.1-1 .2-1.3v-1.9c-.3-.3-.2-.8-.2-1.2v-6.3c.1-.7.3-1.4.7-2v-.3c0-.8 0-1.6.2-2.3v-.4c-.1-.4-.1-.8.1-1.2v-1.1c.3-.4.2-1 .2-1.4 0-.4.5-.7.5-1l.2-.8v-.3c0-1.4-.5-2.8-.5-4.2l-.2-.5c.3-.3 0-.4 0-.6v-.8l-.2-.9v-1l-.1-.7v-1.4l-.2-.7v-.8c0-.2-.5-.5-.5-.7v1.6l.1.4c-.2.2-.1.6-.1 1l.1.5v.3c-.1.5-.2 1.1-.1 1.7l.1.3v.5l-.3.4c-.1.2-.2.5-.5.4v-.6l-.2-.5c0-.2 0-.4-.2-.5v-1.3c-.2-.3-.2-.7-.2-1v-2.8l-.1-.4v-.6c.2-.2.2-.5.2-.7v-4.2c0-.3 0-.6-.2-.8v-.8c0-.4.2-1-.1-1.3v-2.1l-.2-1.2v-1.4a1 1 0 0 1-.1-.8v-.9c0-.6 0-1.2-.2-1.8v-.5c.1-.6 0-1.2-.1-1.8v-1c0-.2 0-.5-.2-.8V63.3l.2-.8v-1.7c0-.1-.1-.2-.3-.2v-.4c.3-.4.3-.8.3-1.2v-2.5l.1-.5-.1-.6v-3.7c.1-.1 0-.2 0-.2l-.1-.3.2-.2v-.5c-.2-.1-.2-.3-.2-.5v-1.6c0-.2-.2-.3 0-.5v-.3l-.1-.4h-.1V46c-.2-.3-.7-.7-.7-1 0-.2.1-.5-.1-.7v-.2c0-.6 0-1.2-.2-1.7V42c.1-.6 0-1.3-.1-2v-1.3c-.2-.4-.2-.7-.2-1v-2.9c.1-.6-.7-1.3-.4-1.9-.3-.2 0-.4 0-.7-.1-.2.5-.5.5-.8l.2-.5v-.3l-.1-.2v-.1l.1-1.8c.2-.6.3-1.1.1-1.6 0-.4.3-.7.3-1.1v-1l.1-.6c0-.2.7-.2.7-.4l.1-.6.1-.5v-2c.2-.3.2-.7.2-1v-2.4c.1-.1.1-.2 0-.2v-.4c0-.4.3-.7 0-1v-2.5c0-.2-.2-.3-.1-.5l.1-.6v-.2h-.2c-.6 0-1.2 0-1.6-.3a1 1 0 0 0-.5 0l-4.5-.4h-.7c-.2-.2-.7-.1-1-.2h-.3a1 1 0 0 0-.8 0c-.7-.2-1.3-.3-2-.2l-7.3-.7-1.4-.1c-.4 0-.8 0-1.1-.3h-.3l-.9.1h-6.1a3 3 0 0 0-2 .4h-.8c-.6.1-1.1 0-1.6-.1l-1.2-.1-6.7.1c-1.1.2-2.3.1-3.3-.2H468c-.4.2-.9.3-1.4.3h-3.8c-.4-.3-.7 0-1.1 0-.4.2-.8.2-1.2.2h-.4c-5.4 0-10.7.2-16 .3-1.3.2-2.6 0-3.8-.3l18-.3c-.4 0-.7-.1-1-.3h-1.2l-6 .2h-3.2c-.5 0-1 0-1.6-.2l8.6-.2c.5 0 1-.1 1.3-.3.6.4 1.5.3 2.3.2h.5c.6.1 1.1 0 1.6-.2h.2c1.3.3 2.6.3 4 .1l15-.3h4.1l-1.4-.2c-.1 0-.3.1-.4 0l-.4-.1h-.6l-1.7-.2-.9-.3V8h.8l1.2.1 1.6.1.4.2.7.1h1l.3.1 2.6.2c.5.1 1 .1 1.6 0l.3.1h1l3.5-.1h.6c.7.1 1.4 0 2-.3h.8c.5-.1 1 0 1.6.1.5.2 1 .2 1.4 0 .6-.1 1.2-.3 1.7-.2.5-.1 1 0 1.4.2l4.8-.1c.2-.2.5-.3.8-.3.3 0 .7.1 1 .3h5.3ZM9 5v-.2c.1-.1 0-.3-.1-.4v-.3L9 4v-.6l-.2-1.3.2-.7V.3c0-.3.2-.3.4-.3.1.1.3.1.3.5l-.2.1v4l.1.3h.1l.4.1.5.2.6-.1c.7-.3 1.4-.3 2.1 0h.2c1-.3 1.9-.4 2.8-.2h10.1c.4 0 1 0 1.3-.2.6-.2 1.2-.2 1.8-.2H33a4 4 0 0 1 1.8.3c.5.2 1.2.2 1.7 0 1-.5 2.2-.5 3.3 0h1c1 .1 1.9 0 2.8-.2l.4.1c1 .2 1.8.2 2.7.1a3 3 0 0 1 2-.3h7.7c.5 0 1 0 1.3.3h.6c.7-.2 1.6-.4 2.4-.4l1.2.1.2.1-.1.1h12.5c.8 0 1.5 0 2.2.4h5.2c.7 0 1.4 0 2.1.2.7.2 1.4.2 2 .1h7.2a9 9 0 0 0 2.3.3h7.8c.8 0 1.6 0 2.3.3l.7-.1.6-.2h.5c.4.3.9.4 1.4.4h9.4c.8-.2 1.5 0 2.2.3h35.1a5 5 0 0 1 2.4.2h9.9c.5 0 1 0 1.3-.3.6.5 1.5.3 2.3.3h1.2l.8-.2h.2c.9.3 1.8.4 2.8.2h19.1c.6-.1 1.2 0 1.7.3l1.5-.3h7.3a3 3 0 0 0 2-.4h.7c.5 0 1 0 1.6.2.4.2 1 .2 1.4.1a4 4 0 0 1 1.6-.3c.5 0 1 0 1.4.3h4.6c.5-.3 1.2-.3 1.7 0h4.7l1.8.5v.3c-.2.2-.6.2-1 .2h-6.1c-.4 0-.7 0-1-.2-.4-.2-.9-.2-1.3-.2h-8.6a5 5 0 0 0-2.4.3 3 3 0 0 1-.7-.1h-.5l-1.3.2h-6a3 3 0 0 0-2 .3h-.7c-.5 0-1 0-1.5-.2a4 4 0 0 0-1.2-.1h-7.3c-.8.1-1.7 0-2.4-.3h-.6a6 6 0 0 0-1.3 0c-.4.2-.8.3-1.3.3h-3.7c-.4-.4-.7-.2-1.1 0h-18.2c-.8.1-1.7 0-2.5-.3h-9.1c-.8-.1-1.5 0-2.1.3h-1.9c-.5-.3-1.1-.4-1.7-.3h-5.3c-.6-.1-1.2 0-1.7.3h-.2c-.7-.3-1.6-.4-2.4-.3h-13.6c-.7.1-1.4 0-2-.3a2 2 0 0 0-.8 0h-9.4c-.6 0-1.2 0-1.7-.3-.3 0-.5.3-1 .3-.7 0-1.5 0-2.2-.3-.4.4-.7.2-1 0h-4.8a3 3 0 0 1-1.6-.3 2 2 0 0 0-.8 0c-.5.2-1 .3-1.6.2h-.7c-.7-.3-1.4-.4-2.1-.3h-7c-1 .2-2 0-3-.3H56.7c-.7 0-1.3 0-2 .3h-.3c-.5 0-.7-.4-1.2-.3l-1 .3-.8-.1c-.2-.2-.3-.2-.5 0l-1.4.2c-.4 0-1 0-1.3-.3h-.9l-.8.2c-.4 0-.7 0-1-.2h-.3l-.4.2-.3-.1c-.3-.2-.7-.2-1-.2H43c-.6.5-1.4.3-2.2.3H40c-.7.1-1.4 0-2.1-.3h-.7c-.6 0-1.1 0-1.6.2-.3.1-.6.1-.8 0L33.3 6H30c-.4 0-1 0-1.3-.3a1 1 0 0 0-.6 0 1 1 0 0 0-.5.2c-.1.1-.2.1-.4 0l-.8-.2H23c-.4 0-.8 0-1.1.2L21 6c-.2 0-.5 0-.8-.2h-.4c-1 .5-1.8 0-2.7-.1h-.6c-.7.2-1.5.3-2.2.3h-2.5l-.5.2h-.8C10.3 6 10 6 9.7 6c0 .4 0 .7-.2.9v1.9c.3.3.2.8.2 1.2v6.3c-.1.7-.4 1.4-.7 2v.3a7 7 0 0 1-.2 2.3v.4c.1.4 0 .8-.1 1.2v1.1c-.3.4-.2 1-.2 1.4 0 .4-.5.7-.5 1l-.1.7v.3c0 1.4.5 2.8.5 4.2l.2.5c-.3.3 0 .4 0 .6v.8c0 .3.2.6.1.9v1l.2.7v1.4l.2.7v.8c0 .2.5.5.5.7v-1.6l-.1-.4c.2-.2.1-.6.1-1 .1-.2 0-.4-.1-.5v-.3a4 4 0 0 0 .1-1.7l-.1-.3V33l.3-.4c.1-.2.2-.5.5-.4v.6l.2.5.1.5.1.2v1.1c.2.3.1.7.1 1v2.8l.2.4v.6c-.2.2-.2.5-.2.7v4.2c0 .3-.1.6.2.8v.8c0 .4-.2 1 .1 1.3v2.1c-.1.5.2.8.2 1.2v1.4l.1.8v.9c0 .6 0 1.2.2 1.8v.5c-.1.6 0 1.2.1 1.8v1c0 .2 0 .5.2.8v13l-.2.9v1.7l.2.1.1.3v.2c-.3.3-.3.7-.3 1.1v2.5l-.1.6.1.6v3.7c-.1.1 0 .1 0 .2l.1.2-.2.3v.4c.2.2.2.4.2.6V88c0 .2.2.3 0 .5v.3l.1.3.1.2v1c.1.4.6.7.6 1 .1.3 0 .6.2.7v.3c-.1.6 0 1.1.2 1.7v.4c-.1.7 0 1.4.1 2.1V98c.2.4.2.7.2 1v2.9c-.1.6.7 1.3.4 1.9.3.2 0 .4 0 .6.1.3-.5.6-.5.8l-.2.6v.2l.1.3-.1 1.9c-.2.5-.2 1-.2 1.6l-.2 1.1v1l-.1.5c0 .2-.7.3-.7.5l-.1.6-.1.5v2c-.2.3-.2.6-.2 1v3c0 .3-.4.6 0 1v2.3c0 .3.2.4.1.5v1.2c-.1.1 0 .4 0 .4v.5l-.1.6c.1.2.2.3.2.7v.6c.1.3-.2.4-.2.7v1.5H11c-.2-.1-.2 0-.2-.4v-3l-.1-.6v-.7l-.1-1c.1-.3-.1-.9.1-1.3v-1.8c-.2-.3-.1-.8-.1-1.2v-6.3c.1-.7.3-1.4.7-2v-.4c0-.7 0-1.5.2-2.2v-.4c-.1-.4 0-.9.1-1.3v-1.1c.3-.4.2-1 .2-1.4 0-.4.5-.7.5-1l.2-.8v-.3c0-1.4-.5-2.7-.5-4.1l-.2-.6c.3-.2 0-.4 0-.6v-.7l-.1-1v-.9l-.2-.7v-1.4l-.2-.7v-.8c0-.2-.5-.5-.5-.7v6.1l-.3.5c-.1.2-.2.5-.4.4V97l-.2-.6-.1-.4v-1.3c-.3-.3-.3-.6-.3-1V90l.1-.7v-4.2c0-.3.1-.6-.1-.9v-.7c-.1-.4.1-1-.2-1.4v-2c.1-.5-.1-.8-.1-1.2v-1.2c-.2-.3-.2-.6-.2-.8V76c.1-.6 0-1.2-.2-1.8v-.5c.1-.6.1-1.2-.1-1.8v-1c0-.3 0-.6-.2-.8V56.9l.2-.8v-1.7l-.2-.1-.1-.3.1-.2c.2-.3.3-.7.3-1.1v-1.9l-.1-.4v-.2c.2-.2.2-.4.2-.6 0-.2 0-.4-.2-.6v-3.6l.1-.2V45l-.1-.2.1-.3v-.4l-.1-.6v-1.6c0-.2-.2-.3-.1-.5l.1-.3-.2-.3v-1.2c-.2-.4-.7-.7-.7-1-.1-.3.1-.6-.1-.7v-.3c0-.5 0-1.1-.2-1.7v-.3a5 5 0 0 0-.2-2.1V32l-.1-1v-2.9c0-.6-.8-1.3-.4-1.8-.4-.3 0-.5 0-.7-.1-.3.5-.6.5-.8l.1-.6V24l-.1-.3a6 6 0 0 0 .1-1.9c.2-.5.3-1 .2-1.6l.2-1.1.1-1v-.5c0-.2.7-.3.8-.5v-.6l.1-.4V14c.2-.3.2-.6.2-1v-2l.2-.3v-.2c-.2-.1-.2-.3-.2-.5 0-.3.4-.6 0-1V6.7c0-.3-.2-.4 0-.5V6c-.3 0-.7-.1-.9-.3l-.4.1c-.4.2-.9.2-1.3.2h-.8l-.6.3-.7-.3c-.9-.2-1.8 0-2.6.3L.8 6c-.2-.2 0-.5.3-.5 1 .1 1.5-.3 2.3-.3H7a6 6 0 0 0 2-.1Zm178.9 5.7h1.6l-16.8 1.4c-1 .2-2.2.2-3.2-.2h-1l-9 .3c-.5 0-1 .1-1.3.3-.5-.4-1.5-.2-2.2-.2h-.5a2 2 0 0 0-1.5.3h-.2a9.1 9.1 0 0 0-3.9-.1c-4.8 0-9.7.2-14.6.4h-2.8c-.8 0-1.7.3-2.3-.2a3 3 0 0 1-1.6.4c-2.2 0-4.3 0-6.5.2h-.6c-.7-.1-1.4 0-2 .4h-.8c-.5 0-1 0-1.5-.2h-1.4c-.5.2-1.1.3-1.7.3-.5 0-1 0-1.3-.2l-4.6.1c-.5.4-1.3.4-1.8 0h-1.2l-3.4.1a9 9 0 0 1-1.9-.3v-.3c.2-.3.6-.3 1-.3h3l3.1-.2c.4 0 .7 0 1 .2.4.1.8.2 1.3.1h2.8l2.5-.2h2.5c1 0 2.1 0 3.1-.4l.8.1h.5c.4-.2.8-.2 1.3-.2 1.8 0 3.6 0 5.3-.2h.7a3 3 0 0 0 1.9-.3h.8c.5-.1 1 0 1.5.1l1.2.1 6.5-.2c1-.2 2.2 0 3.2.2h1.8l1.4-.4h3.7c.4.3.7 0 1.1 0l1-.2h.5L169 11c1.2-.2 2.4-.1 3.5.2h1.2l7.2-.2h.8c.7 0 1.4 0 2-.4h2c.5.4 1.5.2 2.2.2v-.1Zm257-1c-.2.1-.3.3-.8.3h-.5c-.6 0-1.2 0-1.8-.3-.3.4-.7.2-1 .1l-.7-.1H436c-.6.2-1.2 0-1.8-.1a2 2 0 0 0-.8 0 3 3 0 0 1-1.6.3h-.8c-.8-.5-2-.3-3-.3h-2.3l-2.8.1h-1.2c-1 .2-2 .1-3-.2h-1l-20.2.4c-.7 0-1.4.1-2 .4h-.3c-.5 0-.8-.4-1.3-.3-.4 0-.7.3-1 .3-.3 0-.6 0-.9-.2h-.4l-1.4.3c-.5 0-1 0-1.5-.2h-.8l-1 .3-.9-.3-.3.1-.4.1h-.4c-.3-.2-.6-.3-1-.2h-.5c-.5.5-1.4.4-2.3.4-1 .1-2 0-3-.3h-.7c-.5 0-1.1 0-1.6.3h-.8c-.5-.2-1-.2-1.4-.2H370c-.4.1-1 0-1.4-.1h-.5a1 1 0 0 0-.5.1l-.3.1h-.2l-.8-.2h-3.5a2 2 0 0 0-1.1.3c-.6.2-1.2.2-1.8 0l-.4-.2c-1 .6-1.8.2-2.7 0h-.7c-.7.3-1.5.4-2.3.4h-2.5l-.4.2c.8 0 1.6 0 2.3.4h20.6c.7 0 1.4-.1 2-.4h.2c.6 0 .8.4 1.3.3l1-.2.8.1h.5l1.3-.2c.5 0 1 0 1.4.3h.8c.3-.2.6-.2 1-.3.2 0 .6.1.8.3l.4-.1.3-.1.4.1c.3.2.6.2 1 .1h.5c.5-.4 1.4-.3 2.2-.3h.7c.8 0 1.5 0 2.2.3h.7c.6.1 1.1 0 1.6-.2h.8c.4.2.9.3 1.3.2h3.5c.4 0 .9.1 1.3.3h.6l.5-.1c.1-.2.2-.2.4 0l.7.2h3.5c.4 0 .7-.1 1-.3h1.7l.5.2c.9-.5 1.7-.2 2.6 0h.6a9 9 0 0 1 2.3-.3h2.5l.4-.2h.8c.5.5 2 0 2.4.5h.5c.4-.2.8-.3 1.2-.2h.8c.3 0 .5-.2.7-.3l.7.2c.9.2 1.8.1 2.6-.2h.7c.3.2 0 .6-.3.5-.9-.1-1.4.3-2.2.4h-3.7c-.9-.2-1.8 0-2.7.2l-.4-.1a1 1 0 0 0-.5-.1h-.6c-.3.2-.6.3-1 .3s-.8 0-1-.2l-.3-.1c-.9.3-1.8.4-2.8.3h-10c-.5 0-1 0-1.4.2a5 5 0 0 1-1.8.1h-3.4a4 4 0 0 1-1.7-.3h-1.8c-1 .4-2.2.4-3.2 0h-1.1l-2.3.1-.4.1h-.5a10 10 0 0 0-2.7-.2 3 3 0 0 1-2 .3H374c-.4 0-.9 0-1.3-.2a1 1 0 0 0-.6 0c-1.1.3-2.3.4-3.6.3H356c-.8 0-1.5 0-2.2-.4h-5.2c-.8 0-1.4 0-2.1-.2-.7-.2-1.4-.2-2-.1h-7.3a11 11 0 0 0-2.2-.4h-7.8c-.8.1-1.6 0-2.3-.3a2 2 0 0 0-.7.2l-.6.2-.5-.1c-.4-.2-.9-.3-1.4-.3h-9.4c-.8.2-1.5 0-2.2-.2H275a5 5 0 0 1-2.4-.3h-9.9c-.5 0-1 0-1.3.3-.6-.5-1.5-.3-2.3-.3h-.4c-.6 0-1.1 0-1.6.3h-.2c-.9-.4-1.8-.5-2.8-.3H235c-.5 0-1.1 0-1.6-.3-.5.2-1 .3-1.6.3h-7.2a3 3 0 0 0-2 .3h-.7c-.5.1-1 0-1.5-.2h-1.5a4 4 0 0 1-1.6.3c-.5 0-1 0-1.4-.3h-4.6c-.5.4-1.2.4-1.7 0h-4.7l-1.8-.5v-.3c.2-.2.6-.2 1-.2h6.2c.3 0 .6 0 1 .2s.8.2 1.2.2h8.6a5 5 0 0 0 2.4-.4c.3 0 .5 0 .8.2h.4c.4-.2.9-.3 1.4-.2h5.9a3 3 0 0 0 2-.3h.7c.6 0 1.1 0 1.6.2h8.5a5 5 0 0 1 2.4.4h1.8a3 3 0 0 1 1.3-.3h3.7c.4.4.7.2 1.2 0h18.1a5 5 0 0 1 2.5.3h9.1c.8.1 1.5 0 2.1-.3h1.9c.5.3 1.1.4 1.7.3h5.2c.6 0 1.2 0 1.7-.3h.2a5 5 0 0 0 2.4.3h13.7c.6-.1 1.3 0 2 .2.2.1.5.1.8 0h9.3c.6 0 1.2 0 1.7.4.4 0 .5-.3 1-.3h.5c.6 0 1.2 0 1.7.3.4-.4.7-.2 1-.1l.7.1h4.1a3 3 0 0 1 1.7.3h.7c.5-.3 1-.3 1.6-.3h.7l1.5-.3h3.7c1 0 2 0 2.8-.4l.4.1.6.1h.5a2 2 0 0 1 1-.3c.5 0 .8 0 1.2.2h.2c.9-.3 2-.4 2.9-.3h1.4l4.4-.1 4.6-.1c2.8-.5 5.7-.6 8.5-.3.6.2 1.2.2 1.8 0 .5-.2 1-.3 1.7-.3.6 0 1.1 0 1.7.3h1a8 8 0 0 0 2.4-.2h3.7c.6-.3 1.3-.4 2-.3h.7l7.4-.2c.5 0 1 0 1.4.2h.5c1.2-.3 2.5-.4 3.7-.3h1.5l10.6-.2c1-.2 2-.1 3 .2h5.5c.6-.2 1.4-.1 2 0 .7.2 1.5.3 2.1.2h1l3.3-.1c1 0 2.1-.2 3.2 0l2.3.2h2.5l2.3-.1h2.6c1-.2 2-.1 3 .2.2 0 .5 0 .7-.2l.6-.2.5.1c.5.2 1 .3 1.4.2l9-.2c1 0 2.2-.2 3 .3h2l-12.6.2-9.8.2 1 .3h1.2l.2-.1h.2-.4Zm79.8 2.5c-.2.1-.5.1-.8 0h-.4l-1.2-.1h2.4v.1Zm-10.8-3H511c-1.1.1-2.2 0-3.2.2-.4 0-.7 0-1-.2a2 2 0 0 0-1.3-.1H500l-2.6.1h-.8l-1.7.1 3.1.3c.6 0 1 .1 1.6.4h1.6l1.8.1c.2.2.4.1.6 0h.8c2.6.4 5.2.6 7.8.8a5 5 0 0 1 1.7.3h.2c0-.1 0-.2-.2-.3v-.2l.1-.2.1-.6-.2-.7Zm-319.6 1.1c-.5.3-1.1.4-1.7.3h-3.1l4.8-.3Zm289-1.3h.5l.4.2h-.1l-.8-.2Z" style="fill:#ff0209;fill-rule:nonzero"/></svg>