<svg xmlns="http://www.w3.org/2000/svg" fill-rule="evenodd" stroke-linejoin="round" stroke-miterlimit="2" clip-rule="evenodd" viewBox="0 0 28 28"><path fill="#fff" d="M14 0a14 14 0 1 1 0 28 14 14 0 0 1 0-28zm0 2.2a11.8 11.8 0 1 1 0 23.6 11.8 11.8 0 0 1 0-23.6z"/><path fill="#fff" fill-rule="nonzero" d="M14 19.2a1.9 1.9 0 0 0-2 1.9c0 .5.2 1 .6 1.4.4.3.9.5 1.4.5a1.9 1.9 0 0 0 2-2c0-.4-.3-.9-.7-1.3a1.8 1.8 0 0 0-1.3-.5zm-.3-.8h.6a.6.6 0 0 0 .5-.5L16 8.3v-1c0-.7-.1-1.3-.5-1.6-.4-.5-.8-.7-1.4-.7a2 2 0 0 0-1.4.6c-.4.4-.6 1-.6 1.7l.1 1 1 9.6a.6.6 0 0 0 .6.5z"/></svg>