<svg xmlns="http://www.w3.org/2000/svg" xml:space="preserve" fill-rule="evenodd" stroke-linejoin="round" stroke-miterlimit="2" clip-rule="evenodd" viewBox="0 0 34 40" preserveAspectRatio="none"><style>:is(path,g){display:none}:is(path,g):target,g:target path{display:block}</style><path id="play" fill-rule="nonzero" d="M0 35.4V4.7C0 2.9 1 1.5 2.4.6 3.9-.2 5.7-.2 7 .8L31.8 16a4.7 4.7 0 0 1 0 7.9L7.1 39.3c-1.4.9-3.3 1-4.7 0a4.5 4.5 0 0 1-2.4-4Z"/><path id="arrow-down" fill="#bdbdbd" fill-rule="nonzero" d="M29.9 0 17 13 4 0 0 3.7l17 17 17-17L29.9 0Z"/><path id="globe" fill="#bdbdbd" fill-rule="nonzero" d="M17 34A17.4 17.4 0 0 1 0 17 17.2 17.2 0 0 1 17 0c4.5 0 8.9 1.7 12 5 3.1 3.2 5 7.5 5 12a17.5 17.5 0 0 1-17 17Zm0-3.5a21 21 0 0 0 3.3-6.7h-6.6a20 20 0 0 0 3.3 6.7Zm-4.5-.8a23 23 0 0 1-2.2-6h-5c1.6 2.9 4.2 5 7.4 6h-.2Zm9 0c1.5-.5 2.8-1.4 4.2-2.4a17 17 0 0 0 3-3.8h-5a25 25 0 0 1-2.2 6.2ZM3.7 20.3h5.8a23 23 0 0 1 0-6.6H3.7c-.6 2.2-.6 4.4 0 6.6Zm9.1 0h8c.3-2.2.3-4.4 0-6.6H13c-.3 2.2-.3 4.4 0 6.6h-.2Zm11.3 0h6.2c.4-1.6.5-3.3.3-5l-.3-1.6h-5.8a24 24 0 0 1 0 6.6h-.4Zm-.5-10.1h5A12.2 12.2 0 0 0 21.4 4c1 2 1.8 4 2.3 6.2Zm-10 0h6.7A20 20 0 0 0 17 3.5a21 21 0 0 0-3.3 6.7Zm-8.3 0h5c.5-2.1 1.2-4.1 2.2-6-3 1-5.6 3.2-7.2 6Z"/><path id="chevrons-right" fill="#ffab00" d="m22.1 28.5 10.6-10.6a4.3 4.3 0 0 0 0-6L22.1 1.2a4.2 4.2 0 0 0-6 6l7.6 7.7-7.6 7.6a4.2 4.2 0 0 0 6 6Zm-14.9 0L18 17.9a4.3 4.3 0 0 0 0-6L7.3 1.2a4.2 4.2 0 0 0-6 6L8.8 15l-7.7 7.6a4.2 4.2 0 0 0 6 6Z"/><path id="info" fill="#bdbdbd" fill-rule="nonzero" d="M17 33.8A17 17 0 0 1 0 17a17 17 0 1 1 17 17Zm0-32.3a15.4 15.4 0 0 0 0 30.7h.1c8.4 0 15.3-6.8 15.3-15.2v-.1c0-8.4-6.9-15.3-15.3-15.3ZM18.7 9c0 .8-.6 1.4-1.5 1.4-1 0-1.6-.6-1.6-1.4 0-.8.6-1.4 1.6-1.4.9 0 1.5.6 1.5 1.4Zm-.3 3.9v11.6H16V13h2.3Z"/><g id="simple-warn" fill-rule="nonzero"><path fill="#ffa805" d="M20.1 6.2a3.6 3.6 0 0 0-6.2 0L.4 30.3a3.5 3.5 0 0 0 3.1 5.3h27a3.6 3.6 0 0 0 3-5.3l-13.4-24Z"/><path d="M19.4 28.7v.2c0 1.1-1 2.1-2 2.1a2.1 2.1 0 0 1-2.2-2.3c0-1 1-2 2.1-2s2 1 2.1 2ZM16 22.3v-7c0-.8.6-1.5 1.4-1.5.8 0 1.4.7 1.4 1.5v7.2c0 .7-.6 1.4-1.4 1.4a1.4 1.4 0 0 1-1.4-1.6Z"/></g><path id="arrow-thebeast" fill="#fff" fill-rule="nonzero" d="m6 20.3 1.1 1h1.6l.1.8c0 .5.2.4.5 1l.6.8c.1.4.3.4.7.6.5.1.6.3.7.3l.8-.3c.2 0 .3.2.6.4l.7.8c.1.3.3.4.5.6l.5.5.2.4.1.6v.4l.4.2h.4L18 31h.2l.4.3a34.5 34.5 0 0 0 .6 1l.2.5c.1.3.3.3 1.1 1 .8.6.5.5 1 1l.6.4.5.5.6.6.9.8.9.8c.1.2.2.2.8.6l.8.7.6.6.2.2.1-.1.2-.2.4-.8-.2-.7v-.5l-.2-.5.2-.4v-.3s0-.8.2-1.2l.1-.6v-.1c-.3-.3-.1-.3-.9-.8-.8-.7-1-.7-1-1l-.3-.5-.1-.4s0-.3-.5-.6L25 31l-2.6-2.5H22c-.2 0-.3-.2-.3-.3v-.4l-.2-.6c0-.1 0-.4-.2-.4l-.5-.5-.5-.6-.7-.8c-.3-.2-.4-.4-.6-.4l-.8.3s-.1-.2-.6-.3c-.5-.2-.7-.2-.8-.6l-.6-.8c-.3-.6-.4-.5-.4-1l-.2-.7H14l-1.1-1c-.2-.1.2-.6.4-.8l.8-.7.9-.7c.3-.5.6-.6.9-.7l.7-.3h.5s.2 0 .2-.2h-.1l.1-.2c.4-.6.4-.4.5-1l.1-.6h-.1v.1h-.1v-.4l.1-.1h.1v.1l.2-.1.1-.2V14H18l-.1-.1h-.2l-.1-.1v-.1h.6v-.3l-.1-.2v-.1l-.1-.4v-.5l-.1-.2v-.2l-.1-.2-.1-.3V11l.1.4v.6h.1v.4h.1v.6l.1.1v.2l.2.5v.4h.1v-.4c0-.2 0-.3.1-.1v.1l.1.1h.2v-.4h.1v.4c1-.1 3.3.3 3.3.3l-1.3-1.6V12l.1-.2.4-.4.4-.2H23l.2-1.2 1.1-1 .5-.3.1-.1.4-.4h.1c.2 0 .4 0 .5-.2l.7-.5.8-.7v-.5l.1-.1.1-.2h.5v-.2l-.6-.1.3-.6-.4.3V4c-.2-.1-.2-.2-.2-.3l.1-.4v-.5l.1-.2V2c-.1-.1 0-.1 0-.1l-.1-.4V0v.1l-2.8 2.2.2 1.2c0 .2-1.2.4-1.2.4L22.4 5a8 8 0 0 1-1 .9l-1 .8-.7.7-.7.5-.5.3h-.1l-.4.3-.2.1-.4.3-1.1 1v.1l-.2 1.2H15l-.4.2-.4.4-.1.2v.6l1.2 1.6s-2.6-.5-3.3-.2h-.2c-.2.2-.3.2-.3.4l-.2.4c-.4.4-.1.3-.3 1-.1.6-.1.4-.5 1l-.2.3h.2l-.2.1h-.5l-.7.3c-.4 0-.6.2-1 .7l-.8.7-.8.7-.5.7ZM19.5 13v-.3l-.1-.2v-.2l.2-.3v.5l.2.6v.2c-.3.3-.3-.2-.3-.3Zm-.2-.2s-.1 0 0 0v-.2.1h.2v.2h-.2Zm-.6.2c.1-.2.4-.2.5-.1v.5H19l-.2-.5Zm-6.2 8.8c0 .2 0 .3-.2.2-.2-.1 0-.3.2-.2Zm0-1s-.1-.2 0-.2l.3.1c.2.4-.2.5-.3.2Zm-.1 2c-.2-.1 0-.4 0-.5.1 0 .2 0 .2.2l-.2.2Zm-.2.4.2.2c.1.2 0 .1 0 .2l-.2-.4Z"/></svg>