<svg xmlns="http://www.w3.org/2000/svg" xml:space="preserve" style="fill-rule:evenodd;clip-rule:evenodd;stroke-linejoin:round;stroke-miterlimit:2" viewBox="0 0 677 826"><path d="M0 0h677.7v677H0z" style="fill:#e2011a;fill-rule:nonzero"/><path d="M336.1 440c0-48.7 10.9-83.2 50.8-113.7-33.1-33.2-45.3-62.3-45.3-107 0-77.8 49.4-132.7 130.8-132.7 81.3 0 130.8 54.9 130.8 132.7 0 44.7-12.2 73.8-45.4 107 40 30.5 50.8 65 50.8 113.8 0 88.6-27.8 149-136.2 149C363.9 589 336 528.6 336 440Zm-97.5 141H132.8V214h-69v-62.3c47.4.7 78.5-19 95.5-65h79.3V581Zm233.8-210c-24.4 0-30.5 17-30.5 63 0 46.8 6 63 30.5 63 24.3 0 30.5-16.2 30.5-63 0-46-6.2-63-30.5-63Zm0-195c-22.4 0-27.8 11-27.8 57.7S450 291 472.3 291c22.4 0 27.8-10.8 27.8-57.5 0-46.8-5.4-57.6-27.7-57.6ZM606.9 27.2v5h-10.7v34h-6.3V32h-10.7v-5h27.7Zm43.7 39h-6.3V35.3h-.2L633.3 66H628l-10-30.6h-.2V66h-6.3V27h10l9.7 29h.2l9.5-29h9.8v39Z" style="fill:#fff;fill-rule:nonzero"/><path d="M0 826h677.7V0H0m664.1 663.5H13.6v-650H664v650Z" style="fill:#fff;fill-rule:nonzero"/><path d="M433.6 712.4h-9.3v8h-.3c-1.3-5-6.8-9.7-13.6-9.7-16 0-20.5 16.1-20.5 33.1 0 8.4 1.1 31.4 19.4 31.4 6.3 0 12.1-3.1 14.3-8.4h.2v8.2c0 4.4.5 14-12.2 14-5.2 0-9.7-2.1-10.1-7.9h-9.9c1.7 15.7 16.8 15.7 20.7 15.7 12.6 0 21.3-6.8 21.3-25.5v-59Zm-147.9 83.5h9.9V768h.2c2.2 5.3 7.4 8.8 13.2 8.8 16.3 0 20.5-20 20.5-34.3 0-18.6-5.6-31.9-20.5-31.9-6.8 0-12.3 4.7-13.6 9.4h-.3v-7.7h-9.4v83.5Zm318.6-52c0 17.6 4.5 33 22.7 33 18 0 22.6-15.4 22.6-33 0-17.8-4.4-33.2-22.6-33.2-18 0-22.7 15.4-22.7 33.1Zm-222.9 1V741c0-13.5-1.8-30.3-21-30.3-19.4 0-22.4 18.2-22.4 34 0 21.5 6.4 32.2 21.8 32.2 17.2 0 21.1-15.6 21.1-22.3h-9.8c0 4.7-1.3 14.6-10.7 14.6-12 0-12-14.6-12-24.2h33ZM43 775.3h11.5L65.1 724h.2l11 51.3h10.9l14.9-62.8H91.8L82 763.8h-.2l-10.5-51.4H59.7L49 763.8h-.2l-10.1-51.4H28.4L43 775.2Zm227.6 0v-12.4h-10.8v12.4h10.8Zm213-12.4h-10.9v12.4h10.8v-12.4Zm-36.4 12.4h9.8v-62.8h-9.8v62.8Zm52 0h10v-62.8h-10v62.8Zm80.7 0h10v-55h10.7v-7.8h-10.8V705c0-4.3 2.1-6 6.3-6h4.6v-8.4h-7.2c-9.5 0-13.6 5-13.6 14.4v7.4h-9.1v7.7h9.1v55.1Zm-57.3 0h9.9V732c0-9.2 7.2-12.7 12.4-12.7 9 0 9.3 7.9 9.3 12.7v43.3h9.9v-44.5c0-7.4 0-20-16.6-20-6 0-12.7 3.3-15.2 9.1h-.3v-7.4h-9.4v62.8Zm-403.5 0h11.5l10.6-51.3h.2l11 51.3h10.8l15-62.8h-10.4l-9.7 51.4h-.3l-10.4-51.4h-11.6L125 763.8h-.2l-10.1-51.4h-10.3l14.6 62.8Zm76 0h11.6l10.6-51.3h.2l11 51.3h10.8l15-62.8h-10.4l-9.7 51.4h-.3l-10.4-51.4h-11.6l-10.7 51.4h-.2l-10.1-51.4h-10.4l14.7 62.8Zm431.6-6c-10 0-12-11.8-12-25.4 0-13.6 2-25.3 12-25.3 10.6 0 12.6 11.7 12.6 25.3 0 13.6-2.1 25.4-12.6 25.4ZM295 743.8c0-14.3 1.8-24.6 12.7-24.6 9.2 0 11.5 9.6 11.5 23.4 0 16.2-2.4 25.8-11.5 25.8-10.6 0-12.7-12.4-12.7-24.6Zm116.7-24.6c10.6 0 12.7 12.4 12.7 24.6 0 12.9-2.1 23-12.8 23-9.9 0-11.4-12.8-11.4-23 0-15 2.3-24.6 11.5-24.6Zm-63 18V735c0-3.7 1.1-16.4 11.5-16.4 8.7 0 10.9 8.3 10.9 15.3v3.4h-22.4Zm150.6-34.4h9.8v-11.3h-9.8v11.3Zm-52.1 0h9.8v-11.3h-9.8v11.3Z" style="fill-rule:nonzero"/></svg>