<svg xmlns="http://www.w3.org/2000/svg" xml:space="preserve" style="fill-rule:evenodd;clip-rule:evenodd;stroke-linejoin:round;stroke-miterlimit:2" viewBox="0 0 16 16"><style>#plus:target{display:none}</style><path id="plus" d="M5.8 10.16v5.15c.19 0 .32-.03.32-.03l-.31.28V16h4.36v-3.93l-.18.16-.18-.26c-.18-.25-.18 0-.18 0v-.23c0-.2.05-.68.05-.68v-.56l.12-.32h-4v-.02Zm2.42 4.8h.13c.02.02.03.03.03.05l-.03.01v.06l-.05.02h-.02a.05.05 0 0 1-.03.01h-.11l-.02-.01-.03-.03V15l.01-.02h.02l.04-.01h.02c.01-.02.03-.02.04-.02Zm1.48-.03c.01.02.04.03.04.05a.34.34 0 0 1-.2.03c-.02 0-.03-.02-.05-.03.03-.06.13-.08.2-.05ZM7 14.55v.02l-.03.04c-.05.06-.09.04-.11.01-.05-.04-.06-.17-.1-.2l-.02-.03c0-.02-.02-.02-.02-.02l-.03-.01-.01-.02-.05-.01c-.01 0-.03 0-.04-.02l-.03-.01-.02-.02-.01-.02v-.05l.04-.06c.06-.06.1-.06.13-.03.06.04.1.17.12.22l.06.06.03.01.01.02.06.04.02.06v.02Zm.89-1.15h.04l.03.01c0 .02.02.02.02.02l.03.06v.07c0 .02 0 .04-.02.05 0 .01-.02.01-.02.03l-.03.04-.01.02-.06.03h-.09c-.01-.02-.01-.05-.06-.1v-.05l.02-.03.01-.03.1-.1h.02c0-.02.02-.02.02-.02Zm1.92-3.22v-.01ZM6.05 5.7l.11.15h4V.99C9.92.94 9.7.92 9.66.82c-.05-.13 0-.39 0-.39s.08-.17.05-.43H5.8v1.57c.08-.06.15-.05.28-.05.04.06.11.11.11.19 0 .03-.01.07-.04.1-.07.1-.23.06-.34.07H5.8v3.57l.25.25Zm2-2.45h-.02l-.01-.01H8l-.03-.03-.01-.03V3.1l.01-.05c.02-.02.04-.02.06-.02h.02c.01 0 .03 0 .04.02l.03.05c0 .02 0 .03.03.05a.1.1 0 0 1-.03.07l-.03.03h-.04Zm.54-.44c.04.01.06.01.07 0v-.03c-.02-.02-.06-.03-.07.03Zm.36-1.18h.01c.1.03.2.04.16.05-.09.03-.12 0-.16-.05-.1-.03-.22-.06-.22-.1l-.01-.07c-.14-.22.17-.13.17.09v.01l.05.07Zm-.37-.07c0 .02 0 .03-.02.05l-.01.01-.05.05-.04.01H8.4c-.02 0-.03-.01-.04-.03l-.03-.04v-.02c-.02-.01-.02-.03-.02-.04V1.5l.02-.05v-.01a.9.9 0 0 1 .03-.03l.04-.02h.06c.01 0 .03 0 .04.02.03.01.03.03.04.04v.02l.04.04v.04Z" style="fill:#fff;fill-rule:nonzero"/><path id="minus" d="M9.8 10.18H16V8.55c-.15.15.1-.1-.23.18-.36.28-.18-.23-.18-.23s.13-.3.18-.46c.08-.15 0-.36 0-.36s.2-.56 0-.74c-.18-.18 0-.43 0-.43s.2-.3.2-.66H14.8l-.05.03-.08.07h-.06c-.05.02-.09.02-.11.07.07 0 .44-.1.26.12-.05.07-.38.1-.34-.02-.12.06-.22.1-.33.17-.12.06-.2.06-.3.16a.3.3 0 0 1-.23.16c-.03 0-.05-.02-.07 0-.07-.01-.03 0-.1.02-.1.04-.17.13-.26.17-.04.04-.08.03-.13.04-.1.01-.08.03-.14.08h-.09l-.08.07a1.1 1.1 0 0 1-.29.17h-.09l-.07.02v.02l-.01-.01a.27.27 0 0 0-.07.03c-.12.1-.13.17-.27.2-.17.03-.3.14-.46.2-.03 0-.09 0-.15.02-.05.01-.11.06-.15.09-.04.03-.12.06-.16.1-.02 0-.02.04-.04.06-.02.02-.07 0-.1 0s-.01.02-.03.04l-.06.01-.04.04c-.03 0-.05-.03-.07-.01-.11.03-.23.08-.32.13l-.06.05h-.04l-.05.04c-.05.03-.08 0-.1 0-.03 0-.1.09-.13.12l-.1.12-.1-.03c-.13-.01-.2.03-.3.12-.01.01-.06.08-.1.06-.08-.05 0-.11.04-.14.04-.04.08-.03.13-.04.06-.02.1-.05.14-.08.1-.04.2 0 .28-.06.02-.02.02-.05.06-.09.04-.03.08-.02.1-.04.03 0 .03-.03.09-.04.03 0 .07.04.09.03l.05-.05c.06-.05.12-.1.2-.13l.11-.06.08-.06c.06-.02.07 0 .13 0 .1 0 .03.03.11-.07.07-.08.2-.16.3-.2a.37.37 0 0 1 .17-.08c.09 0 .1.01.2-.03l.29-.19h-.02c-.08-.06-.15-.24-.22-.28-.02-.02-.03-.04-.07-.04l-.02-.02c-.01-.02-.03 0-.05-.03-.01-.02-.01-.02-.06-.04l-.07-.08a.03.03 0 0 1 0-.03l-.01-.02s0-.04.02-.05c.09-.1.14-.08.2 0s.1.17.14.21c.02.02.04 0 .05.02l.02.03s.02-.02.03 0h.04l.05.03H12c.02.02.04 0 .05.03l.05.06v.03l-.01.04a.36.36 0 0 1 .23-.08l.1-.08.08-.07c0-.02 0-.04.02-.05.01 0 .02-.02.02-.05l.04-.03.04-.03.02.02s.02.02.01.06v.12l.08-.03a.39.39 0 0 0 .12-.06c.04-.03.09-.04.13-.08.12-.06.22-.14.33-.2.12-.1.25-.13.36-.2.06 0 .12-.02.15-.05.04-.03.07-.09.14-.11.02-.02.07 0 .11-.03l.14-.11c.1-.04.14-.08.2-.03.05-.1.17-.11.25-.17h-8.5l.12.25.33.36s-.56.07-.6 0c-.03-.1 0 .17-.21-.23-.2-.41.05-.16-.2-.41H2.44l.15.28L2 5.82H0v2.96l.46.28H0v1.12h9.8Zm3.63-2.84c0-.04.02-.05.04-.07l.02-.01c.02-.02.04 0 .06-.02.01.02.03 0 .03 0a.08.08 0 0 1 .06 0h.03c.04 0 .07 0 .1.02.03 0 .04.03.06.05.05.06.02.1.02.18-.14.08-.52.1-.42-.15Zm-.77.6-.06.04-.04.03c-.04 0-.06.01-.08.03l-.04.03-.06.05c-.05.01-.11.03-.16 0s-.04.03-.07 0l-.04-.05v-.01h-.01c.04 0 .06-.02.06-.06l.02-.01.04-.04.02-.01.04-.03a1.02 1.02 0 0 0 .1-.09c.03 0 .06 0 .08-.02l.04-.04c.04-.03.07-.02.1-.04.17-.02.18.07.06.2v.01Zm-.33-.3.04-.03c.02-.01 0-.04.02-.01h.01v.01l-.04.04c.02.02 0 .03 0 .03l-.02.02c.02.02 0 .03 0 .03l-.02.02-.04.03c-.05.07-.06.05-.04-.04l.09-.06c-.02-.02 0-.04 0-.04Zm-.3-.2.06-.05c.02-.02.03 0 .05-.02l.08-.02c.02 0 .04 0 .05-.02.03-.01.06-.01.08-.03.06 0 .1.02.16.04.03.04.04-.03.05.02 0 .03 0 .05.02.06 0 0-.03.01 0 .04h-.06l-.04.04-.02.02-.05.03c-.02.01-.05.01-.07.03l-.06.01c-.02.01-.05.01-.07.03l-.06.01h-.1c-.17-.01-.16-.08-.03-.2Zm-.45 1.01c.02-.01.02-.05 0-.03.12-.1.36-.16.47-.15.17.01.29.15.3.34l-.1.07c-.11.1-.3.25-.42.21-.12-.03-.32-.32-.26-.44Zm.59.57c0-.03-.06.01-.01-.05 0-.04.02-.06.04-.07l.02-.02.04-.03.02-.02.04-.03c.03.04 0 .1-.02.18a.14.14 0 0 0-.06.08c-.04.03-.04 0-.04 0l-.03-.04Zm-.13.17c0 .03-.02.05-.06.05-.07 0-.06-.08-.13-.09l-.02.02s-.02-.02-.04 0c-.03 0-.11.05-.1-.02 0 0 .1-.11.08-.13.02-.05.04-.03.06-.05.04 0 .05.02.08.06.03.03.05.05.07.05.02-.02.04 0 .06-.02.05.01.05.05 0 .13Zm-.43.32.1-.16c.07-.04.16-.05.27-.08.1 0 .13-.04.2-.09l.09-.07.02-.02c.16-.13.37-.2.32.07 0 .07-.05.14-.09.17-.16.13-.45.13-.6.26l-.06.05-.08.06c-.1.08-.22.3-.28.2-.01-.03.07-.33.12-.4h-.01Zm.65-3.29V6.2c-.01-.02 0-.04.01-.07v-.04c.04-.03.05-.07.07-.08l.08-.07c.04-.03.05-.05.09-.04.02-.02.06-.01.07 0l.02.03.03.04.02.02v.09c.02.02 0 .04.02.06v.03s.01.02-.01.04c.02.02 0 .03 0 .03-.02.02 0 .04-.03.05l-.02.02c.02.02 0 .04-.02.05a.1.1 0 0 1-.07.03c-.05.03-.08.03-.12.02a.03.03 0 0 1-.03 0c-.02-.02-.04 0-.05-.02l-.02-.02-.03-.04c.02-.02 0-.04 0-.04a.09.09 0 0 1-.01-.05Zm-.4.13c0-.03.02-.04.03-.05l.04-.04.06-.01c.01.02.03 0 .03 0 .02-.01.04 0 .09.03 0 .04 0 .07-.03.09l-.04.03-.08.02c-.02.02-.03 0-.05.02h-.04l-.01-.06v-.04Zm-1.26.5c0-.04.02-.05.05-.07l.04-.03h.07l.03.05.02.02c-.02.01 0 .03-.01.07l-.04.03-.04.03-.02.02-.07.04-.01-.02-.03-.04v-.04l-.01-.02s.02-.01.02-.05ZM1.63 7c-.07.1-.23.05-.34.07-.04 0-.14.06-.17 0-.02 0-.02-.02-.02-.03 0-.07.1-.2.14-.25.1-.1.17-.09.32-.09.04.06.12.12.12.2 0 .02-.02.07-.05.1ZM3.6 8.4c-.01.02-.01.04-.03.04H3.5l-.01-.02h-.02c-.01 0-.03-.01-.03-.03 0-.01-.02-.01-.02-.03V8.3c0-.03 0-.05.02-.06.02-.02.04-.02.06-.02h.01c.02 0 .03 0 .05.02l.03.06c0 .01 0 .03.03.04a.1.1 0 0 1-.03.07Zm.46-1.65c0 .01 0 .03-.02.04l-.01.01-.05.05-.04.02h-.06c-.02 0-.03-.02-.05-.03-.01-.02-.01-.04-.03-.05v.01l-.01-.05V6.7l.01-.04v-.02a.9.9 0 0 0 .03-.03l.05-.01h.06l.04.01.04.04v.02l.03.04v.05Zm0 1.25c.02-.14.15.04 0 0Zm.53-1.14c-.1.03-.13 0-.16-.05-.1-.02-.22-.06-.22-.1 0-.02 0-.05-.02-.07-.13-.22.18-.13.18.1l.06.07c.1.03.2.05.16.06ZM6.11 9.2v.02l-.03.04c-.06.06-.1.04-.12.02-.04-.05-.06-.18-.09-.21a.9.9 0 0 0-.03-.03c0-.02-.02-.02-.02-.02l-.03-.01L5.78 9h-.04c-.02 0-.04 0-.05-.02l-.03-.01-.01-.02-.02-.01v-.06l.04-.06c.06-.06.1-.06.14-.03.06.04.09.17.11.22l.06.06.03.01c0 .02.02.02.02.02l.06.04.01.06v.02Zm1-1.03v.05c0 .01 0 .03-.02.04l-.01.03c0 .02-.02.03-.03.04l-.02.02-.06.03h-.09c-.01-.02-.01-.04-.06-.09v-.06c0-.01.02-.01.02-.03l.01-.03.05-.05.05-.04c.01 0 .01-.02.03-.02l.01-.01h.04l.04.01.01.02c.02.01.03.04.03.06v.03Zm.35 1.5v.03l-.01.03-.05.02-.03.02h-.1l-.04-.02-.03-.03v-.06l.02-.01h.01l.05-.02h.01c.02-.02.03-.02.05-.02h.13l.03.05-.03.01Zm1.2-.01c-.04 0-.05-.02-.07-.03.03-.06.14-.08.21-.05.02.02.04.03.04.05a.3.3 0 0 1-.19.03Z" style="fill:#fff;fill-rule:nonzero"/></svg>