<?xml version="1.0" standalone="no"?>
<!DOCTYPE svg PUBLIC "-//W3C//DTD SVG 20010904//EN"
 "http://www.w3.org/TR/2001/REC-SVG-20010904/DTD/svg10.dtd">
<svg version="1.0" xmlns="http://www.w3.org/2000/svg"
 width="700.000000pt" height="700.000000pt" viewBox="0 0 700.000000 700.000000"
 preserveAspectRatio="xMidYMid meet">
<metadata>
Created by potrace 1.14, written by Peter Selinger 2001-2017
</metadata>
<g transform="translate(0.000000,700.000000) scale(0.100000,-0.100000)"
fill="#000000" stroke="none">
<path d="M2225 6284 c-671 -388 -1335 -772 -1475 -853 -187 -109 -261 -157
-277 -181 -23 -33 -23 -37 -23 -370 l0 -338 34 -6 c30 -6 36 -13 55 -62 12
-34 21 -79 21 -113 0 -56 -2 -59 -60 -127 l-60 -69 0 -477 0 -476 49 -12 c27
-6 75 -28 106 -47 l57 -36 -41 -39 c-33 -32 -45 -55 -66 -122 -19 -62 -34 -90
-60 -116 l-35 -34 0 -515 c0 -486 1 -518 19 -547 14 -24 183 -125 772 -466
415 -239 1079 -623 1475 -852 406 -235 737 -419 756 -422 45 -8 113 20 104 41
-8 22 27 88 133 247 62 95 102 145 128 161 21 14 42 22 46 20 5 -3 7 -35 5
-71 l-3 -66 44 -9 c31 -6 57 -5 83 4 26 8 41 9 50 1 10 -7 39 5 113 48 l100
58 0 40 c0 71 71 124 180 136 67 8 230 79 268 118 12 13 35 32 50 41 15 10 33
28 38 41 15 32 396 214 460 220 38 4 140 59 620 336 316 182 586 343 602 358
15 14 32 42 37 61 6 23 10 390 10 983 l0 946 -65 77 c-36 42 -65 79 -65 83 0
4 32 34 70 66 l70 59 0 606 c0 570 -1 608 -18 641 -16 29 -86 73 -488 305
l-469 272 -32 -15 c-34 -16 -43 -41 -43 -123 0 -54 16 -99 36 -99 13 0 47 -41
39 -48 -2 -2 -32 13 -66 34 -34 20 -68 37 -76 37 -10 0 -13 28 -13 126 0 81
-5 135 -13 151 -9 18 -127 91 -397 247 -212 122 -395 227 -407 234 -18 10 -31
10 -63 -1 -37 -12 -43 -12 -86 12 l-46 25 -87 -23 c-47 -13 -92 -24 -98 -24
-9 0 -13 17 -13 50 0 38 -4 50 -15 50 -23 0 -75 79 -75 114 0 17 -10 49 -23
70 -19 34 -55 58 -282 189 -235 136 -265 151 -315 154 l-55 4 -1220 -707z
m1450 -74 c13 -5 -24 -8 -100 -8 -75 0 -111 3 -95 8 34 11 170 11 195 0z m249
-7 c8 -5 -31 -8 -95 -8 -103 0 -137 7 -86 19 32 7 163 -1 181 -11z m-619 -16
c21 -16 15 -21 -37 -35 -43 -12 -48 -2 -18 28 24 24 30 24 55 7z m709 -13 c11
-4 16 -18 15 -48 -1 -22 -4 -32 -6 -21 -3 11 -14 32 -25 48 -19 27 -15 33 16
21z m-471 -34 c69 -24 91 -28 112 -20 40 15 65 12 66 -7 0 -11 3 -13 6 -5 6
14 39 16 48 2 3 -5 -3 -10 -14 -10 -42 0 -51 -10 -51 -62 l0 -50 34 21 34 21
113 -40 c62 -22 125 -40 141 -40 51 0 88 -27 113 -84 13 -29 35 -67 50 -85 33
-39 22 -63 -15 -33 -13 10 -33 17 -45 14 -20 -3 -16 -10 39 -68 33 -35 67 -64
75 -64 12 0 12 3 -1 18 -41 47 -25 88 18 45 26 -26 44 -23 44 8 0 14 7 19 26
19 21 0 24 -4 19 -20 -5 -15 -2 -20 13 -20 16 0 23 -15 41 -86 12 -48 20 -88
18 -91 -3 -2 -17 11 -31 29 -64 79 -67 81 -111 72 -22 -4 -62 -7 -88 -7 -40 0
-47 -3 -42 -16 4 -9 9 -31 12 -49 8 -46 18 -47 43 -7 26 42 33 43 48 10 17
-37 15 -59 -8 -80 -24 -21 -26 -35 -5 -35 8 0 21 -15 28 -32 8 -18 21 -39 30
-47 19 -15 23 -56 7 -66 -6 -4 -17 -2 -24 5 -11 8 -20 5 -41 -13 l-28 -24 12
-80 c15 -94 22 -107 49 -99 24 8 32 33 32 111 0 71 10 94 30 70 7 -9 21 -20
31 -25 16 -9 16 -6 -2 41 -10 29 -26 60 -35 71 -14 15 -19 43 -22 136 -2 83 0
113 7 102 6 -8 11 -34 11 -57 0 -35 3 -43 19 -43 10 0 24 -7 31 -15 7 -9 21
-13 31 -10 13 4 22 -2 33 -22 8 -15 26 -39 41 -53 l28 -25 -7 51 c-6 48 7 114
23 114 7 0 18 -29 37 -100 4 -13 22 -47 41 -75 27 -39 34 -57 30 -81 -5 -26
-1 -33 20 -43 35 -16 43 -7 43 48 0 63 22 85 40 41 15 -35 13 -35 46 -13 25
16 27 16 45 -8 l19 -24 0 23 c0 23 14 30 26 11 3 -6 19 -9 35 -7 16 3 29 2 29
-2 0 -3 -21 -46 -46 -94 -25 -48 -44 -92 -41 -99 2 -6 23 26 48 72 l44 83 8
-38 c4 -22 6 -82 5 -134 l-3 -95 -40 3 c-30 2 -36 0 -25 -7 8 -6 24 -11 36
-11 36 0 44 -20 44 -109 0 -90 -17 -211 -30 -211 -4 0 -33 21 -63 46 -57 47
-126 75 -181 73 -26 -1 -23 -3 24 -18 142 -45 217 -111 245 -214 15 -57 17
-83 9 -170 -5 -56 -7 -169 -6 -251 2 -82 1 -165 -3 -184 -6 -34 -7 -34 -51
-29 -56 6 -88 35 -109 98 -17 49 -68 105 -136 147 -34 21 -49 39 -112 138 -14
23 -41 52 -59 65 l-33 24 31 -40 c17 -22 49 -68 71 -103 29 -46 57 -74 109
-110 55 -37 75 -58 97 -101 35 -70 36 -101 3 -101 -15 0 -33 11 -45 26 -13 16
-21 21 -21 12 0 -24 56 -71 78 -66 11 3 24 3 30 -1 5 -3 26 -52 45 -108 l36
-102 -19 -133 c-11 -73 -26 -155 -34 -183 -14 -44 -13 -68 4 -260 12 -133 17
-228 12 -260 -4 -27 -5 -68 -1 -90 39 -214 59 -384 53 -432 -12 -98 -50 -78
-100 50 -26 67 -27 87 -8 160 4 18 -2 56 -16 107 -22 78 -22 81 -5 135 20 63
18 229 -4 280 l-12 30 -26 -48 c-15 -26 -28 -45 -31 -43 -2 3 1 35 7 72 7 36
9 79 6 94 l-6 28 -46 -49 c-49 -53 -63 -59 -63 -30 0 10 -7 25 -16 32 -15 12
-20 10 -38 -14 -12 -15 -42 -67 -68 -115 l-48 -87 0 43 c0 23 -4 42 -10 42 -5
0 -10 -25 -10 -55 0 -42 3 -53 14 -49 10 4 17 -12 25 -63 6 -37 14 -81 18 -98
6 -30 6 -30 19 15 7 25 27 61 43 80 27 31 30 32 31 14 0 -12 -9 -48 -19 -82
-13 -38 -17 -74 -14 -100 5 -38 4 -40 -16 -35 -18 5 -21 1 -22 -28 -7 -150 17
-282 71 -395 31 -64 50 -75 50 -29 0 40 18 38 50 -6 24 -34 30 -52 30 -96 0
-29 1 -53 3 -53 1 0 23 7 50 15 26 8 47 12 47 10 0 -2 -19 -26 -43 -54 -23
-27 -64 -87 -89 -133 -57 -101 -161 -361 -178 -442 -10 -51 -20 -68 -74 -125
-34 -36 -76 -87 -95 -112 -38 -54 -54 -59 -199 -59 -149 0 -190 29 -237 169
-33 100 -28 138 26 196 28 30 39 51 39 73 0 30 27 112 37 112 3 0 18 -10 35
-21 l29 -21 29 27 c42 40 53 75 48 159 -2 58 -8 82 -26 105 -12 17 -22 33 -22
36 0 3 16 5 35 5 33 0 35 2 41 40 4 25 12 40 21 40 20 0 27 -25 15 -60 -13
-37 1 -48 25 -20 12 14 30 20 56 20 38 0 41 -2 106 -74 16 -18 33 -26 56 -26
23 0 35 -6 42 -22 8 -19 12 -4 18 74 9 121 -1 237 -31 352 l-24 91 5 -87 c4
-85 -1 -102 -23 -75 -14 17 -35 190 -37 312 -2 55 -8 166 -15 247 -12 133 -11
150 4 172 9 14 16 35 16 46 0 20 -1 20 -22 6 -30 -22 -32 -21 -53 18 -16 29
-17 37 -6 50 18 22 6 50 -19 43 -17 -4 -20 0 -20 25 0 25 -3 28 -20 23 -19 -6
-19 -4 -9 19 13 28 25 32 49 16 11 -7 19 -4 31 12 l16 21 49 -37 c26 -20 54
-34 62 -31 7 3 19 5 27 5 7 0 16 10 19 23 l6 22 21 -24 c17 -21 22 -22 30 -10
5 7 9 17 9 21 0 15 33 38 54 38 17 0 26 -8 34 -32 l10 -33 1 42 c1 23 -4 65
-10 93 -9 41 -14 49 -24 40 -10 -9 -19 -3 -39 27 -14 21 -26 44 -26 51 0 7
-11 28 -25 47 l-26 33 36 22 c27 16 35 28 35 50 0 19 6 29 20 33 11 3 25 19
31 36 7 20 20 33 35 37 33 8 30 24 -4 24 -23 0 -32 7 -45 35 -23 48 -22 52 23
120 32 49 40 68 39 105 l-1 45 -19 -55 c-10 -30 -30 -68 -42 -84 -23 -28 -24
-28 -49 -12 -15 10 -33 14 -43 10 -16 -7 -17 -3 -12 29 6 37 -5 51 -17 22 -3
-8 -15 -15 -26 -15 -24 0 -24 3 -4 41 15 30 15 30 -6 19 -12 -6 -23 -10 -26
-8 -2 3 -10 38 -18 80 -14 75 -40 148 -51 148 -3 0 -3 -31 1 -69 5 -56 2 -83
-15 -139 -33 -110 -81 -149 -81 -66 0 44 -11 43 -42 -3 -48 -72 -109 -133
-132 -133 -23 0 -55 28 -75 68 -15 28 -50 29 -85 1 l-26 -21 11 29 c15 40 35
59 102 100 45 27 56 38 45 44 -9 5 -28 3 -46 -3 -33 -13 -62 1 -62 28 0 23
-57 17 -82 -9 -31 -31 -78 -60 -78 -47 0 5 17 28 37 51 l37 41 -39 -16 c-22
-9 -57 -28 -77 -41 -45 -30 -48 -30 -48 -7 0 17 115 128 155 149 11 6 56 21
100 33 193 53 188 51 173 66 -12 13 -20 12 -57 -1 -24 -8 -58 -15 -76 -15 -18
0 -66 -15 -106 -34 -41 -19 -93 -40 -116 -48 -34 -10 -45 -20 -55 -47 l-14
-35 -22 58 c-12 32 -22 80 -22 106 0 27 -3 55 -6 64 -12 32 -24 3 -24 -60 0
-64 0 -65 -30 -71 -63 -12 -56 -68 10 -82 34 -7 35 -8 36 -57 1 -27 7 -60 14
-73 9 -18 9 -29 1 -45 -10 -17 -5 -43 27 -144 22 -67 38 -122 36 -122 -1 0
-14 4 -27 9 -17 7 -26 19 -30 43 -3 19 -14 50 -26 68 l-20 33 -9 -24 c-6 -13
-15 -42 -21 -64 -16 -58 -27 -73 -43 -57 -9 9 -15 63 -20 170 -3 86 -11 186
-17 222 -6 36 -11 103 -11 149 0 88 -8 96 -30 28 -20 -64 -63 -73 -137 -27
-26 16 -61 32 -78 36 -28 7 -29 6 -16 -10 8 -10 32 -26 52 -37 21 -10 43 -28
49 -40 7 -11 27 -27 45 -35 60 -25 52 -47 -9 -24 -44 17 -30 -8 24 -41 52 -32
72 -60 84 -116 7 -30 5 -33 -26 -46 -31 -13 -36 -21 -51 -85 -9 -38 -17 -81
-17 -95 0 -24 -1 -25 -35 -14 -40 12 -42 18 -16 61 12 19 22 61 26 108 7 75 6
79 -29 151 -33 66 -116 167 -116 140 0 -5 23 -41 50 -78 50 -68 64 -118 41
-154 -14 -22 -77 5 -113 50 -17 21 -33 37 -35 35 -2 -2 7 -48 21 -102 16 -63
21 -101 15 -105 -6 -3 -9 -19 -7 -35 3 -27 1 -29 -27 -25 -60 7 -135 62 -135
99 0 22 -56 114 -111 183 -12 15 -29 50 -39 79 -24 71 -32 49 -14 -36 8 -38
17 -81 20 -95 8 -36 -20 -46 -53 -19 -14 11 -29 17 -34 14 -17 -10 -49 7 -66
37 -16 26 -18 27 -24 10 -6 -14 -14 -17 -33 -14 l-26 5 20 -43 c11 -24 20 -54
20 -66 0 -15 9 -24 32 -32 34 -12 68 -38 68 -53 0 -8 -59 -4 -118 8 -14 3 -28
17 -36 36 -8 18 -16 26 -20 19 -4 -6 -16 -11 -26 -11 -22 0 -40 -28 -40 -60 0
-20 1 -20 22 -6 31 22 58 19 93 -10 l30 -24 -24 -19 c-16 -12 -22 -24 -18 -35
8 -20 -5 -48 -39 -89 -36 -43 -76 -127 -60 -127 7 0 21 9 31 20 10 11 22 20
27 20 11 0 -7 -34 -46 -86 -17 -23 -36 -50 -42 -60 -9 -15 -11 -6 -11 48 0 37
-2 71 -6 74 -14 14 -36 -19 -43 -62 -5 -36 -3 -49 12 -65 15 -17 16 -25 7 -49
-8 -23 -8 -43 1 -84 11 -46 11 -56 0 -60 -9 -3 -14 -21 -14 -48 0 -41 -33
-257 -46 -305 -4 -13 -4 -23 -2 -23 3 0 19 39 37 88 17 48 40 98 50 111 18 24
18 24 25 -67 7 -80 5 -97 -13 -137 -18 -40 -18 -46 -5 -41 14 5 16 1 10 -35
-4 -23 -23 -91 -42 -151 -20 -60 -33 -112 -31 -115 3 -2 18 10 34 28 15 18 47
54 71 80 l42 46 0 134 c0 106 2 130 13 120 8 -8 12 -52 11 -149 -1 -137 -1
-137 -43 -247 -24 -60 -45 -134 -48 -163 -5 -48 -4 -52 13 -46 32 12 55 37 81
89 27 53 38 65 64 65 13 0 17 -18 23 -107 4 -60 17 -182 30 -273 l22 -165 68
123 c38 67 72 124 76 127 13 8 19 -36 9 -62 -5 -14 -18 -38 -29 -53 -26 -37
-25 -48 1 -24 27 24 49 67 49 94 0 31 28 36 56 10 29 -29 31 -59 3 -94 -20
-26 -20 -26 0 -26 16 0 21 -9 26 -55 8 -60 23 -73 69 -55 15 5 43 10 62 10 32
0 34 -2 34 -33 0 -21 -11 -48 -32 -77 l-32 -43 36 -66 c19 -36 39 -65 44 -64
5 1 16 4 25 8 12 5 24 -9 49 -58 l33 -63 54 4 53 4 0 -41 c0 -76 -51 -151
-112 -166 -40 -10 -36 11 9 50 37 32 37 32 15 40 -16 5 -29 1 -43 -11 -18 -16
-19 -16 -19 4 0 16 -8 22 -40 27 -50 8 -56 18 -25 35 16 9 25 22 25 38 l0 25
-24 -22 c-17 -16 -30 -20 -49 -16 -14 4 -30 4 -35 1 -10 -6 24 -85 40 -97 11
-7 -1 -41 -12 -34 -30 19 -10 -47 32 -106 12 -18 3 -69 -13 -69 -5 0 -12 7
-14 15 -15 48 -16 48 -27 37 -9 -9 -5 -33 13 -99 28 -100 47 -131 72 -116 16
8 14 14 -17 58 -29 40 -33 52 -24 69 11 20 11 20 20 -3 4 -12 24 -42 44 -64
29 -35 34 -47 29 -74 -8 -47 19 -59 77 -34 75 32 79 47 47 183 -10 43 -10 61
-2 69 8 8 20 -5 44 -52 54 -106 40 -220 -29 -234 -15 -4 -42 -13 -60 -21 -48
-21 -64 -18 -133 23 -35 20 -109 58 -166 85 -87 41 -109 56 -138 96 -50 67
-121 209 -136 267 -6 28 -26 82 -44 120 -18 39 -36 88 -40 110 -4 22 -28 96
-55 165 -26 69 -53 145 -60 170 -40 159 -101 296 -166 376 -19 22 -34 52 -34
66 0 13 -7 49 -16 79 -21 68 -15 182 20 394 34 206 47 370 35 424 -10 47 -31
91 -62 132 -22 31 -57 149 -57 194 0 16 10 50 21 75 16 32 21 63 21 110 -1 68
-55 306 -92 401 -11 30 -20 64 -20 77 0 30 32 92 72 139 21 25 12 19 -25 -16
-58 -57 -59 -57 -72 3 -10 48 -45 329 -45 367 0 19 14 75 30 125 17 49 34 114
38 144 l8 55 23 -45 c40 -77 60 -99 137 -151 42 -28 83 -64 93 -80 l18 -30 7
32 c4 23 1 38 -15 57 l-21 27 30 3 c16 2 46 -3 65 -11 l34 -15 -2 -68 c-1 -38
-8 -84 -15 -102 -15 -40 -11 -46 18 -26 20 14 22 24 22 99 l0 84 38 -5 37 -4
-38 17 -39 16 7 61 c4 46 2 66 -8 81 -14 18 -16 18 -36 -15 -27 -45 -26 -54 4
-70 24 -13 32 -30 19 -42 -3 -3 -18 1 -34 9 -16 8 -62 17 -102 20 -82 6 -117
20 -146 58 -21 27 -92 226 -92 258 0 10 25 83 56 162 l57 144 88 72 89 72 51
-22 c28 -11 55 -19 59 -16 10 6 0 55 -17 82 -16 24 -17 22 47 112 28 39 46 57
48 47 6 -29 147 120 141 150 0 4 29 26 66 50 66 43 188 95 253 109 27 6 32 4
32 -13 0 -10 -10 -24 -22 -30 -19 -9 -20 -11 -5 -11 16 -1 17 -6 12 -32 -9
-41 11 -30 31 17 12 27 23 36 70 51 l57 17 28 -33 27 -33 13 41 c7 22 18 41
25 41 7 0 51 -14 97 -30z m760 -150 c6 -35 6 -35 -8 -10 -8 14 -14 34 -15 45
0 30 17 5 23 -35z m-114 -6 c3 -16 1 -17 -13 -5 -19 16 -21 34 -3 29 6 -3 14
-13 16 -24z m-1389 -17 c0 -2 -12 -14 -27 -28 l-28 -24 24 28 c23 25 31 32 31
24z m1850 -191 c33 -34 40 -46 26 -46 -18 0 -126 105 -126 122 0 14 48 -23
100 -76z m-300 -37 c0 -5 -9 -9 -20 -9 -19 0 -26 11 -14 23 8 8 34 -3 34 -14z
m149 -18 c14 -22 14 -23 -3 -20 -10 2 -23 14 -27 27 -11 30 8 25 30 -7z
m-2266 12 c-7 -2 -19 -2 -25 0 -7 3 -2 5 12 5 14 0 19 -2 13 -5z m-213 -83
c-4 -23 -10 -44 -14 -47 -6 -6 1 46 10 75 8 27 11 9 4 -28z m-29 -93 c-5 -14
-14 -28 -19 -31 -5 -3 -2 10 6 29 18 39 28 41 13 2z m2663 3 c51 -23 52 -27
38 -150 l-7 -55 -38 83 c-35 78 -56 142 -45 142 3 0 26 -9 52 -20z m483 -6
c-3 -3 -12 -4 -19 -1 -8 3 -5 6 6 6 11 1 17 -2 13 -5z m200 0 c-3 -3 -12 -4
-19 -1 -8 3 -5 6 6 6 11 1 17 -2 13 -5z m-140 -10 c-3 -3 -12 -4 -19 -1 -8 3
-5 6 6 6 11 1 17 -2 13 -5z m76 -1 c-7 -2 -19 -2 -25 0 -7 3 -2 5 12 5 14 0
19 -2 13 -5z m-503 -83 c0 -29 -11 -50 -26 -50 -10 0 -14 15 -14 58 l1 57 19
-24 c11 -13 20 -31 20 -41z m-3050 6 c0 -2 -7 -7 -16 -10 -8 -3 -12 -2 -9 4 6
10 25 14 25 6z m-107 -99 c-20 -37 -38 -65 -40 -63 -2 1 13 33 34 69 20 37 38
65 40 63 2 -1 -13 -33 -34 -69z m-73 -82 c0 -2 -18 -14 -40 -25 -22 -11 -40
-18 -40 -15 0 2 17 13 38 24 42 23 42 23 42 16z m-103 -51 c-3 -3 -12 -4 -19
-1 -8 3 -5 6 6 6 11 1 17 -2 13 -5z m-225 -42 c-22 -20 -32 -42 -37 -75 -5
-34 -13 -50 -29 -58 -18 -9 -19 -8 -5 3 9 7 20 33 24 58 7 39 49 100 70 100 4
0 -6 -13 -23 -28z m-132 -167 c0 -2 -10 -9 -22 -15 -22 -11 -22 -10 -4 4 21
17 26 19 26 11z m-62 -42 c-44 -51 -43 -19 -48 -1033 l-5 -965 -48 -109 c-45
-104 -49 -126 -24 -126 7 0 29 -5 50 -11 l37 -10 0 -305 c0 -337 2 -353 61
-396 19 -14 255 -152 524 -308 270 -155 495 -287 500 -292 16 -16 1 -8 -525
297 -272 157 -506 296 -518 308 -46 43 -47 49 -52 376 l-5 315 -48 12 c-27 7
-51 15 -54 18 -3 3 16 56 43 118 l49 113 5 965 c5 1014 4 982 48 1033 8 9 17
17 20 17 3 0 -2 -8 -10 -17z m1955 -1121 c20 -28 37 -55 37 -58 0 -3 -12 -4
-26 -2 -17 2 -39 18 -57 40 -27 34 -29 40 -18 64 13 30 12 30 64 -44z m937 60
c0 -18 -78 -92 -96 -92 -14 0 -6 12 31 50 47 48 65 59 65 42z m1009 -51 c10
-6 11 -20 6 -52 -9 -60 -15 -79 -24 -79 -9 0 -51 104 -51 126 0 16 46 19 69 5z
m-1591 -233 c7 -7 12 -18 12 -25 0 -10 -6 -10 -25 3 -14 9 -25 20 -25 25 0 13
24 11 38 -3z m279 -88 c62 -35 84 -37 129 -9 l34 20 12 -25 11 -26 23 21 23
21 26 -52 c14 -28 50 -78 80 -110 67 -73 88 -111 79 -147 l-7 -28 31 28 c29
28 31 28 61 13 30 -16 31 -18 31 -91 0 -41 -2 -75 -5 -75 -13 0 -121 65 -128
77 -6 10 -13 10 -27 3 -10 -5 -30 -10 -43 -10 -32 0 -77 -36 -77 -62 0 -15 4
-18 18 -12 9 4 33 9 53 12 30 3 40 -1 53 -19 9 -13 16 -38 16 -56 0 -37 13
-49 30 -28 11 13 16 13 41 0 31 -17 53 -50 44 -65 -4 -6 -20 -17 -38 -26 -30
-16 -32 -16 -49 6 -17 21 -19 22 -37 6 -10 -9 -36 -20 -56 -23 l-38 -6 28 37
c15 20 25 39 22 42 -8 8 -47 -14 -79 -44 -15 -13 -33 -22 -40 -20 -22 9 -87
129 -109 201 -14 44 -19 79 -15 101 8 43 -10 85 -41 92 -16 4 -36 -2 -66 -22
-23 -16 -59 -36 -79 -46 -38 -17 -43 -28 -63 -128 -8 -40 -38 -101 -69 -143
-19 -25 -25 -28 -59 -23 l-38 6 18 -26 c10 -16 16 -42 14 -66 -2 -36 3 -45 52
-94 42 -42 61 -54 85 -54 54 0 58 -28 13 -91 -31 -44 -42 -54 -64 -52 -24 2
-31 -6 -57 -58 -31 -61 -38 -66 -71 -48 -19 10 -20 8 -13 -68 8 -94 14 -107
14 -31 0 61 9 75 55 80 27 3 29 0 37 -41 4 -24 9 -46 12 -48 8 -8 55 31 56 46
0 7 -10 29 -21 48 -26 41 -16 59 25 43 19 -7 32 -6 46 2 27 17 35 4 15 -26
-20 -31 -12 -51 15 -36 32 17 40 13 30 -16 -15 -39 -12 -90 6 -105 15 -12 21
-8 54 30 38 44 60 48 60 10 0 -11 5 -30 11 -41 10 -19 16 -15 85 58 l75 79 -7
-52 c-7 -59 9 -73 27 -26 6 16 18 36 26 46 20 22 33 7 33 -39 0 -17 6 -37 14
-43 25 -21 48 29 55 116 5 63 9 78 24 81 15 3 17 -5 17 -54 0 -77 -18 -130
-57 -172 l-32 -34 -26 31 c-26 30 -28 30 -55 16 -39 -20 -45 -19 -58 10 -17
36 -29 31 -54 -20 -20 -41 -25 -45 -59 -45 -33 0 -38 4 -48 33 l-12 32 -19
-25 c-11 -14 -22 -33 -26 -42 -8 -26 -16 -23 -82 32 -33 28 -63 50 -67 50 -4
0 -18 -9 -32 -20 -14 -11 -37 -20 -50 -20 -13 0 -41 -11 -61 -25 -46 -31 -53
-31 -91 1 -29 24 -31 30 -31 94 l0 69 -49 -6 c-55 -6 -49 -17 -72 119 -6 38
-15 66 -19 63 -9 -6 -30 56 -30 88 0 11 17 25 45 39 37 18 44 26 39 43 -3 11
-13 25 -21 30 -51 34 -50 31 -24 59 16 17 31 24 43 20 13 -4 18 0 18 13 0 10
9 29 19 42 l18 24 32 -22 c23 -17 32 -19 36 -9 3 7 12 33 20 58 22 63 42 91
61 83 8 -3 25 4 39 17 22 21 22 23 7 50 -16 27 -15 31 5 74 12 24 31 47 42 51
17 5 21 15 21 53 1 46 3 48 57 87 86 61 87 61 143 35 38 -18 53 -21 62 -12 9
9 6 18 -12 37 -21 22 -32 25 -92 25 -65 0 -70 -2 -104 -35 -19 -19 -38 -35
-42 -35 -4 0 -5 26 -2 57 l5 58 60 22 c33 12 64 22 69 22 5 1 33 -12 63 -29z
m-787 -30 c41 -19 31 -144 -16 -199 -14 -17 -24 -42 -24 -60 0 -23 -4 -29 -15
-25 -12 5 -15 -5 -15 -54 l0 -60 54 2 c50 2 54 0 64 -26 5 -15 17 -28 26 -28
29 0 19 -49 -19 -87 -30 -30 -35 -42 -35 -81 0 -52 -56 -192 -77 -192 -21 0
-26 21 -8 34 15 11 15 13 1 25 -10 8 -16 29 -16 53 0 25 -4 37 -10 33 -6 -4
-30 13 -54 37 -23 23 -50 48 -58 55 -46 34 -74 377 -35 421 9 10 17 25 17 33
0 25 22 39 59 39 42 0 101 51 101 87 0 21 2 22 23 12 12 -7 29 -15 37 -19z
m560 -50 c14 -26 -14 -139 -47 -187 -13 -19 -28 -56 -34 -83 -16 -73 -26 -82
-105 -89 -56 -5 -78 -13 -114 -38 -77 -55 -132 -53 -96 3 11 15 34 29 62 36
38 10 44 16 40 33 -4 16 7 28 57 60 51 33 63 46 70 77 10 41 99 141 136 153
16 5 20 12 15 31 -7 29 1 32 16 4z m-484 -75 c-3 -9 -10 -13 -16 -10 -12 7
-13 48 -3 59 11 11 27 -30 19 -49z m1649 -45 c4 -6 3 -25 0 -42 -8 -34 -17
-26 -29 25 -5 20 -3 27 8 27 8 0 18 -5 21 -10z m113 -399 c15 -22 14 -22 -14
-15 -42 10 -46 14 -33 30 15 18 28 14 47 -15z m-456 -130 c54 -43 64 -61 32
-61 -21 0 -17 -28 6 -35 11 -3 24 -14 29 -23 11 -20 26 -152 17 -152 -3 0 -12
12 -21 28 -16 27 -16 27 -10 -21 8 -64 32 -131 93 -260 58 -123 49 -138 -15
-26 -35 59 -43 69 -43 47 0 -15 -4 -29 -9 -32 -5 -4 2 -45 15 -93 13 -49 24
-89 24 -91 0 -2 -15 5 -32 16 -30 19 -36 33 -65 133 l-31 111 34 -5 c32 -5 34
-4 34 21 0 52 -63 214 -96 246 -17 17 -39 47 -49 66 -30 60 -39 67 -45 34 -5
-24 -10 -28 -30 -26 -14 2 -37 4 -52 4 -23 1 -28 5 -28 25 0 14 -9 36 -20 50
-20 25 -27 63 -12 63 4 0 18 -16 31 -35 32 -47 55 -49 30 -3 -8 15 -8 23 1 32
9 8 20 1 47 -29 19 -22 32 -33 27 -25 -4 8 -13 22 -21 31 -12 14 -8 18 27 32
24 9 40 22 40 32 0 19 0 19 92 -54z m578 -26 c0 -22 -15 -18 -28 8 -6 12 -21
38 -33 57 -21 35 -21 35 20 -7 22 -23 41 -49 41 -58z m-912 -76 c-37 -24 -46
13 -16 61 l23 35 3 -44 c2 -28 -1 -47 -10 -52z m200 -122 c2 -53 6 -65 17 -60
25 9 28 -25 4 -58 -21 -30 -23 -31 -36 -13 -7 10 -13 35 -13 56 0 25 -5 38
-13 38 -12 0 -21 21 -40 87 -2 8 50 22 68 18 6 -1 11 -31 13 -68z m-1298 -4
c0 -18 -4 -33 -9 -33 -11 0 -21 36 -21 75 1 29 1 29 15 11 8 -11 15 -35 15
-53z m1370 14 c0 -4 -5 -18 -11 -29 -9 -17 -13 -18 -20 -7 -11 17 -12 63 -2
73 8 7 33 -21 33 -37z m566 -72 c13 -31 24 -60 24 -65 0 -16 -30 -11 -37 6 -5
12 -7 13 -14 2 -6 -9 -11 -10 -19 -2 -13 13 -2 114 12 114 5 0 20 -25 34 -55z
m-1968 10 c9 -19 9 -31 0 -50 -18 -39 -28 -30 -28 25 0 55 10 64 28 25z m92
-116 c0 -38 -5 -55 -17 -65 -27 -20 -33 -17 -33 16 0 32 29 100 42 100 4 0 8
-23 8 -51z m1897 -83 c14 -31 29 -44 83 -70 63 -31 65 -33 64 -69 -1 -44 -51
-117 -65 -96 -12 20 -11 63 2 76 6 6 9 19 7 29 -3 14 -8 10 -21 -19 -20 -47
-34 -41 -43 18 -7 52 -24 70 -25 28 0 -15 -4 -36 -8 -46 -6 -18 -7 -18 -23 0
-8 10 -19 28 -22 40 -6 19 -11 21 -26 13 -15 -8 -19 -4 -29 35 -10 41 -9 48
10 74 32 43 73 38 96 -13z m-378 -151 c16 -38 32 -86 35 -105 l7 -35 -21 24
c-11 13 -27 48 -36 77 -8 29 -20 56 -25 59 -5 4 -9 23 -9 43 0 45 8 35 49 -63z
m-1523 23 c4 -6 10 -45 14 -87 4 -42 9 -82 11 -90 2 -7 -1 -15 -6 -17 -10 -4
-48 102 -60 169 -6 33 -5 37 13 37 12 0 24 -5 28 -12z m1944 -85 c0 -16 -25
-73 -32 -73 -9 0 -11 41 -2 64 6 15 34 23 34 9z m-2592 -768 c45 -26 82 -49
82 -51 0 -3 -3 -3 -7 -1 -116 66 -173 100 -173 103 0 3 3 3 8 1 4 -2 44 -26
90 -52z m190 -110 c45 -26 82 -49 82 -51 0 -3 -3 -3 -7 -1 -116 66 -173 100
-173 103 0 3 3 3 8 1 4 -2 44 -26 90 -52z m190 -110 c45 -26 82 -49 82 -51 0
-3 -3 -3 -7 -1 -116 66 -173 100 -173 103 0 3 3 3 8 1 4 -2 44 -26 90 -52z
m182 -237 c3 -73 9 -139 14 -146 4 -6 3 -12 -2 -12 -13 0 -22 77 -22 190 l0
96 -40 23 c-22 12 -40 25 -40 28 0 3 19 -6 43 -20 l42 -25 5 -134z m177 -154
c-5 -5 -57 13 -57 20 0 3 14 0 31 -6 16 -6 28 -12 26 -14z m-84 9 c-7 -2 -21
-2 -30 0 -10 3 -4 5 12 5 17 0 24 -2 18 -5z m154 -9 c-3 -3 -12 -4 -19 -1 -8
3 -5 6 6 6 11 1 17 -2 13 -5z m40 -10 c-3 -3 -12 -4 -19 -1 -8 3 -5 6 6 6 11
1 17 -2 13 -5z m46 -11 c-7 -2 -19 -2 -25 0 -7 3 -2 5 12 5 14 0 19 -2 13 -5z
m103 -47 c66 -75 83 -96 74 -96 -5 0 -17 12 -27 27 -10 15 -38 46 -63 70 -24
24 -40 43 -34 43 6 0 29 -20 50 -44z m154 -96 c8 -5 11 -10 5 -10 -5 0 -17 5
-25 10 -8 5 -10 10 -5 10 6 0 17 -5 25 -10z m150 6 c0 -2 -7 -7 -16 -10 -8 -3
-12 -2 -9 4 6 10 25 14 25 6z m-95 -26 c13 -6 15 -9 5 -9 -8 0 -22 4 -30 9
-18 12 -2 12 25 0z"/>
<path d="M3875 5949 c19 -33 50 -59 71 -59 31 0 21 36 -15 48 -14 6 -35 13
-45 18 -15 6 -17 4 -11 -7z"/>
<path d="M3830 5806 c0 -14 27 -39 85 -80 26 -18 27 -21 23 -101 -2 -64 0 -81
9 -73 16 13 26 6 61 -47 21 -32 31 -41 36 -30 3 8 13 15 23 15 14 1 12 5 -11
22 -39 29 -76 112 -76 170 0 26 5 50 10 53 6 4 29 -13 51 -37 33 -36 39 -39
33 -18 -17 62 -45 86 -129 114 -92 30 -115 32 -115 12z"/>
<path d="M3003 5733 c-11 -21 -23 -50 -27 -65 -5 -23 -3 -28 13 -28 11 0 25
-9 31 -19 13 -25 47 -36 65 -21 22 18 18 35 -10 50 -22 12 -24 17 -18 57 4 33
2 47 -8 54 -21 13 -24 12 -46 -28z"/>
<path d="M4110 5449 c0 -24 16 -41 35 -37 14 2 13 7 -9 27 -18 17 -26 20 -26
10z"/>
<path d="M3911 5379 c8 -90 19 -100 19 -17 0 41 -5 70 -13 76 -10 9 -11 -3 -6
-59z"/>
<path d="M2358 5395 c-3 -11 -9 -33 -12 -50 l-6 -30 16 28 c8 16 14 38 12 50
-4 21 -4 21 -10 2z"/>
<path d="M4094 5256 c-3 -7 2 -53 10 -102 26 -147 19 -161 -32 -59 -30 61 -44
76 -55 58 -3 -5 14 -41 38 -82 38 -66 42 -77 30 -95 -19 -30 -39 -130 -31
-159 3 -13 20 -38 37 -55 29 -28 32 -38 41 -128 5 -53 15 -109 21 -123 11 -25
12 -23 15 22 2 27 -4 78 -13 114 -9 36 -14 67 -12 69 2 3 16 -1 31 -7 35 -16
44 -4 23 32 -27 48 -23 59 38 107 l25 20 -51 88 c-34 61 -48 97 -45 114 2 15
-4 36 -16 53 -14 20 -19 39 -16 65 7 55 -23 108 -38 68z"/>
<path d="M2871 5148 c1 -40 4 -84 8 -98 7 -24 8 -24 15 8 9 38 -2 149 -15 158
-5 3 -9 -27 -8 -68z"/>
<path d="M4410 5010 c-15 -28 -16 -88 -1 -103 8 -8 11 -3 11 19 0 16 7 40 16
53 15 20 15 24 1 38 -13 14 -16 13 -27 -7z"/>
<path d="M4825 4812 c-3 -23 -3 -48 2 -57 8 -13 12 -8 23 25 12 36 12 43 -2
56 -14 15 -17 12 -23 -24z"/>
<path d="M2550 4807 c0 -14 -3 -40 -6 -58 -5 -32 -5 -33 10 -15 18 22 22 81 6
91 -6 3 -10 -4 -10 -18z"/>
<path d="M2356 4791 c-10 -15 -38 -290 -32 -306 6 -16 56 -21 56 -5 0 5 -7 25
-16 44 -21 42 -14 61 22 70 38 10 58 -16 49 -62 -4 -23 -3 -32 4 -27 6 3 11
-1 11 -9 0 -9 7 -16 16 -16 8 0 12 -4 9 -10 -3 -5 -21 -10 -38 -10 -18 0 -41
-8 -52 -16 -19 -15 -16 -16 37 -10 l56 6 -5 -39 c-7 -52 13 -63 22 -11 4 22 9
40 12 40 3 0 18 -9 35 -21 43 -31 46 -15 6 25 -34 34 -35 37 -26 80 7 34 6 51
-6 73 -9 19 -13 44 -9 69 4 30 0 45 -15 64 -17 20 -23 23 -33 13 -18 -18 -29
-16 -29 5 0 41 -57 82 -74 53z"/>
<path d="M2230 4671 c0 -60 -4 -121 -10 -135 -6 -17 -6 -26 0 -26 6 0 15 12
20 26 13 34 13 244 0 244 -6 0 -10 -43 -10 -109z"/>
<path d="M4607 4720 c23 -22 44 -53 48 -70 6 -28 25 -43 25 -20 0 6 5 10 10
10 6 0 10 -9 10 -20 0 -23 29 -85 36 -77 3 2 -5 28 -16 57 -24 62 -15 86 21
54 22 -19 22 -19 16 6 -4 14 -7 29 -7 34 0 4 -12 5 -26 2 -18 -5 -32 -2 -45 9
-10 10 -22 14 -27 11 -5 -3 -20 6 -32 19 -13 14 -31 25 -39 25 -10 0 -1 -15
26 -40z"/>
<path d="M3595 4710 c-3 -5 1 -10 9 -10 8 0 19 -8 25 -17 9 -17 11 -17 28 0
16 15 16 19 3 27 -20 13 -57 13 -65 0z"/>
<path d="M4035 4688 c-2 -7 -6 -33 -9 -58 -3 -25 -9 -60 -12 -79 -6 -32 -6
-33 15 -21 16 8 31 9 52 1 27 -9 29 -8 29 15 0 14 -5 34 -10 45 -9 15 -15 17
-30 9 -39 -21 -41 -4 -4 39 14 17 21 31 15 31 -6 0 -11 7 -11 15 0 18 -29 20
-35 3z"/>
<path d="M4826 4575 c-7 -19 -8 -55 -1 -55 2 0 16 5 30 12 29 13 28 25 -2 45
-18 12 -21 12 -27 -2z"/>
<path d="M3624 4487 c-20 -11 -20 -14 -6 -47 14 -33 15 -34 23 -13 5 13 22 31
39 41 16 10 27 22 23 25 -10 11 -56 7 -79 -6z"/>
<path d="M4597 4483 c11 -32 15 -35 24 -22 14 23 10 39 -11 39 -14 0 -18 -5
-13 -17z"/>
<path d="M3090 4475 c0 -3 9 -24 21 -47 18 -35 23 -39 31 -25 6 12 3 25 -13
47 -21 27 -39 39 -39 25z"/>
<path d="M3451 4413 c4 -27 8 -56 8 -65 1 -30 21 -20 21 10 0 15 9 44 19 65
l19 37 -37 0 -38 0 8 -47z"/>
<path d="M2782 4350 c0 -25 3 -54 8 -65 7 -16 9 -13 8 15 0 19 -4 49 -8 65 -7
27 -8 26 -8 -15z"/>
<path d="M4740 4302 c0 -59 1 -62 25 -62 30 0 30 2 7 62 -26 69 -32 69 -32 0z"/>
<path d="M4843 4305 c0 -22 2 -30 4 -17 2 12 2 30 0 40 -3 9 -5 -1 -4 -23z"/>
<path d="M2930 4141 c0 -49 27 -65 63 -38 11 8 15 20 11 35 -5 17 -14 22 -40
22 -27 0 -34 -4 -34 -19z"/>
<path d="M4218 4072 c24 -53 37 -66 28 -27 -4 17 -16 39 -27 50 -20 20 -20 20
-1 -23z"/>
<path d="M3899 4079 l-24 -20 25 8 c14 4 66 7 117 5 107 -3 133 12 35 22 -106
10 -128 7 -153 -15z"/>
<path d="M2586 3961 c-11 -12 -13 -21 -7 -25 15 -10 50 15 44 31 -7 18 -17 16
-37 -6z"/>
<path d="M2487 3603 c-9 -2 -15 -9 -12 -14 9 -14 39 -11 61 6 18 14 18 14 -6
14 -14 -1 -33 -3 -43 -6z"/>
<path d="M4624 3444 c-4 -11 -9 -22 -11 -26 -7 -14 43 -8 63 6 22 17 19 22
-18 31 -22 6 -29 3 -34 -11z"/>
<path d="M4423 3055 c0 -27 2 -38 4 -22 2 15 2 37 0 50 -2 12 -4 0 -4 -28z"/>
<path d="M4424 2595 c0 -55 1 -76 3 -47 2 29 2 74 0 100 -2 26 -3 2 -3 -53z"/>
<path d="M4254 1926 c-10 -26 15 -56 46 -56 25 0 30 4 30 24 0 18 -8 27 -31
35 -40 14 -39 14 -45 -3z"/>
<path d="M2961 1861 c2 -31 -2 -47 -13 -55 -15 -11 -15 -13 0 -23 13 -8 17
-24 15 -73 -1 -34 -6 -67 -12 -73 -26 -26 1 -107 35 -107 23 0 35 45 25 91 -8
37 -7 40 18 53 29 16 70 57 96 99 26 41 0 34 -46 -13 -64 -64 -83 -54 -93 50
-7 82 -29 127 -25 51z"/>
<path d="M4257 1821 c7 -55 -10 -58 -46 -9 -33 44 -42 37 -16 -12 11 -21 12
-36 5 -55 -13 -33 -13 -31 6 -49 14 -15 13 -16 -13 -16 -27 -1 -27 -1 -9 -15
12 -9 41 -15 70 -15 l51 0 -49 -35 c-52 -37 -52 -37 -107 7 -20 15 -39 28 -42
28 -2 0 -10 -13 -16 -28 -9 -22 -8 -37 4 -71 20 -58 20 -85 -1 -77 -9 3 -20 6
-25 6 -5 0 -9 6 -9 13 0 7 -11 28 -24 46 -25 33 -25 33 -30 10 -10 -44 -9 -64
2 -92 7 -16 12 -35 12 -44 0 -10 6 -13 16 -9 9 3 18 6 20 6 2 0 4 11 4 25 0
14 4 25 8 25 18 0 32 -26 32 -62 0 -36 -1 -37 -25 -28 -20 8 -27 6 -35 -10
-21 -39 1 -104 32 -94 10 3 28 2 40 -2 20 -6 19 -7 -10 -20 -21 -9 -32 -20
-32 -34 0 -28 -17 -25 -34 8 -18 32 -21 14 -4 -23 11 -25 13 -26 112 -23 l100
3 27 40 c20 30 29 57 33 108 l5 68 -31 17 c-17 9 -42 26 -56 38 l-25 20 29 23
29 23 9 -24 c8 -24 72 -75 81 -66 10 10 -67 118 -84 118 -10 0 -20 3 -24 6
-11 11 16 54 34 54 11 0 26 15 38 39 12 23 30 41 44 45 19 4 23 13 25 46 2 22
0 40 -4 40 -3 0 -19 -10 -36 -21 l-30 -22 7 24 c4 13 15 32 26 41 21 18 21 19
-41 50 -47 24 -49 23 -43 -21z"/>
<path d="M3075 1600 c-13 -21 6 -50 33 -50 49 0 53 14 12 38 -24 13 -41 18
-45 12z"/>
<path d="M3148 1531 c-14 -19 -19 -20 -68 -11 -67 13 -65 13 -49 -6 16 -19 63
-44 83 -44 8 0 27 10 42 23 21 19 25 27 17 41 -10 17 -11 17 -25 -3z"/>
<path d="M3350 1420 c0 -5 9 -14 19 -19 15 -9 20 -7 24 9 4 16 0 20 -19 20
-13 0 -24 -4 -24 -10z"/>
<path d="M3815 3469 c-24 -61 -41 -139 -34 -150 12 -19 56 34 65 77 7 37 -20
101 -31 73z"/>
<path d="M3879 3329 c-22 -22 -61 -100 -54 -108 14 -13 115 93 115 122 0 15
-41 6 -61 -14z"/>
<path d="M3213 2921 c-12 -11 -27 -36 -33 -56 -8 -24 -17 -35 -26 -31 -19 7
-18 -1 7 -41 21 -34 21 -34 36 -13 8 12 21 19 28 16 10 -3 15 10 18 47 3 29 6
61 8 71 5 27 -13 30 -38 7z"/>
<path d="M3256 2615 c4 -16 11 -39 15 -50 6 -17 8 -15 8 11 1 16 -6 39 -14 50
-14 18 -15 17 -9 -11z"/>
<path d="M3120 2511 c0 -11 -3 -26 -6 -35 -5 -14 -2 -14 27 -4 45 15 45 15 24
38 -23 25 -45 26 -45 1z"/>
<path d="M2743 2915 c0 -22 2 -30 4 -17 2 12 2 30 0 40 -3 9 -5 -1 -4 -23z"/>
<path d="M4145 2810 c43 -44 45 -45 45 -29 0 15 -56 69 -71 69 -7 0 5 -18 26
-40z"/>
</g>
</svg>
