<svg xmlns="http://www.w3.org/2000/svg" xml:space="preserve" fill-rule="evenodd" stroke-linejoin="round" stroke-miterlimit="2" clip-rule="evenodd" viewBox="0 0 1920 204" preserveAspectRatio="none"><g xmlns="http://www.w3.org/2000/svg" transform="matrix(-1 0 0 -1 1920 204)"><path fill-rule="nonzero" d="m354 132 4 2v1l-5-1 1-2Zm-4-32v1h1v-1h-1Zm-1 8-3 2c-3 2-2 4 0 6l4-5-1-3Zm0 22h1-1Zm-3 11h1-1Zm30-10 1-1h-2l1 1Zm-14 16 1 1v-1h-1Zm12-24-1 1 1 2 1-2-1-1Zm4 6h1v-1l-1 1Zm-19 15h1v-1l-1 1Zm-39-10h1v-1l-1 1Zm1-12a129 129 0 0 1 0 2v-2Zm3 31h1l-1-1v1Zm-14-54-2 1c2 2 2 6 6 6l2-2-1-4-5-1Zm6 17 2 2h1l-1-3-2 1Zm-5-23v1l2-1h-2Zm30 9-1 2h2v-2h-1Zm-3 13h1-1Zm0 19c3 0 3-2 2-4l-2 4Zm4-14 1 1c2-1 4-3 3-5-3 0-4 2-4 4Zm-18-25h1-1Zm-3 7v1l1-1h-1Zm202 9 5 4h1l-2-4h-4Zm45 2-1 1 1 1 1-1-1-1Zm-120 3-2 7 3 1 3-7-4-1Zm29 3 1-1-1-1v2Zm26-9v-1 1Zm-56 3h-1l-1 1 1 1 1-2Zm201-25-1 1 1 1 1-1-1-1Zm-43 13h1l-1-1v1Zm-27 0c0-1 0 0 0 0Zm-264 50-1 2h2v-1l-1-1Zm333-43h1l1-1h-1l-1 1Zm-57-12 1 1-1-1Zm15 44v1l1-1h-1Zm-162-23Zm-44 30v2l2-2-1-1-1 1Zm-8-31-1 1h2l2-1v-1l-3 1Zm9 3c3-5-1-8-3-11h-1v9l2 5v-1h1v1h-1l2 1h2l-1-1-1-3Zm-13 6-2 4c2 0 3-1 2-3v-1Zm15-18-5-1v2c2 0 4 2 5-1Zm-11 32-2 1 1 1 2-1-1-1Zm30-29v1-1Zm208-20v4l3 1-1-4-2-1Zm-197 41h-1c1 4 4 4 7 5l1-1c-1-4-5-3-7-4Zm4-20v-2h-3v3l2 2 1-3Zm-23-3v2l1 2 1-2v-3l-2 1Zm1 11h1v-1l-1 1Zm11-6v-1 1Zm-41 3v-1 1Zm39-10c1 2 2 1 3 0v-2l-3 2Zm-331 6-1 2h1v-2Zm16 22h-3 3Zm46-4 1 1v-2l-1 1Zm-43-4-1 1 1 1 1-1-1-1Zm-26 5-1 1 1-1Zm-3 0h1-1Zm10-4h-1v1h1l1 1 1-2h-2Zm58 24 1 2 1-2-1-1-1 1Zm-8-19v-1 1Zm0 4v2l2 3v-1l-1-3-1-1Zm-1-2v1l1-2-1 1Zm-12-14v1h1l-1-1Zm0-3h1v-1l-1 1Zm-20 20v1l1-1h-1Zm542-54s1 1 0 0ZM49 125h-4v1l4 1h1l-1-2Zm-1-8h-1l-7-2-3 1c7 4 15 4 22 6h2l-1-2-12-3Zm-8-13-3-1 3 1Zm0 16 1 1v-1h-1Zm-20-1-5-2-2 1-7 2H0v3l7 1h7c-4-1-3-2 0-3h2c4-1 10 3 11 3 2-1-4-5-7-5Zm26-7h-1l-1 2h1l1-2Zm-14 5h-2l1 1h1v-1Zm42 8h1v-1l-1 1Zm-1-3h2v-1h-1l-1 1Zm-23-7v1l1-1h-1Zm15 4v-1l-1 1h1Zm-14-3c2 1 3 2 5 0l-1-3-3 2-1 1Zm2-4v-1 1Zm11 12 5 1c-1-2-3-3-5-1Zm139 12h1v1-1h-1Zm69 1v2l1-2v-1l-1 1Zm1-18v-1l-1 2 2 2 2 2-1-3-2-2Zm-11 48v1-1Zm17-71v-1 1Zm3 5c-1 3 0 6 1 8h1c1-3 0-6-2-8Zm-20 22v-1 1Zm3-7-2 3 2 1 2-3-2-1Zm-1-10-1 1h1v-1Zm7-4-1 1 1-1 1-1-1 1Zm25 7v1l2 2v-2l-2-1Zm-13 45 1 1v-2l-1 1Zm9-28 2 1 2-3-2-1-2 3Zm0-31h-1v1l1-1Zm4 8-1 2 2-2h-1Zm-3-3 2-1-2-1-2 2h2Zm-99 28v1l1-1h-1Zm119-10v1-1c1 0 0 0 0 0Zm-115-2Zm-23 11-1 1 1-1Zm0-6v1l1-1h-1Zm-20 16h1-1Zm51-16 1-1v-2l-2 1 1 2Zm48-7c0 4 2 2 3 2l-1-4-2 2Zm-9-6v5l5-2 1-1c-1-3-4-2-6-2Zm-35 20c-1 0 0 0 0 0v-1 1Zm3-8v1l1 1v-2h-1Zm3 10 1 1v-3l-2-1 1 3Zm1308 26Zm5-7h1-2 1Zm-10 2c-1 0 0 0 0 0h1-1Zm1-7h-2v1l2-1Zm21 4 1 1h2l-2-1h-1Zm-15 2h1-1Zm55 9-1 2v3h3v-3l-2-2Zm42 0h1-1Zm-25 19 4 1 1-3-4-1-1 3Zm-43-3 1 1 1-1h-2c0-1 0 0 0 0Zm6-17-1 2v3l3-1-1-2-1-2Zm9 11v1h2v-1h-2Zm1-10v1-1Zm-132-2s-1 0 0 0c0-1 0-1 0 0Zm-5-11-1 2h2l-1-2Zm-53 20v-1h-1l1 1Zm-42 7c1 8 1 8 4 4-1-2-1-12-4-4Zm178-18h-1 1Zm-156 19-2 1 2 2v-3Zm14-4c3 1 3-2 4-4h-6l2 4Zm102-18 3 4h4l-5-5-2 1Zm37 1 1 1 1-1h-2Zm-75-2v1-2 1Zm16 1v1h1v-1h-1Zm13-8-4-1-2 2 3 4 7 1-1-2-3-4Zm-10 0-3 1v3l3-2v-2Zm-97 33Zm275-28v-1 1Zm252-6 5-1h-1c-1-1-3 1-4 1Zm-97-12h1-1Zm66 11-1 1h1v-1Zm-282 8s1 2 0 0ZM231 89h-1 1Zm-1 0v-1 1Zm1297 53s2 0 0 0Zm393-73Zm0-1v1-1Zm-19 71v1l2 1c2-1 1-3 0-4l-2 2Zm-152 29 1 2 2 1 2-1-1-1-4-1Zm-7-7v-1 1Zm-44 20v1l1-1h-1Zm28-29 1-2-3-2c-1 2 0 3 2 4Zm121-6 1 3 4-1-1-1-4-1Zm-173 3 1 1h1l-1-1h-1Zm10-12-3 2 3-2Zm-43 22h1-1Zm142-25v4l6-3h-2l-4-1Zm63 5h-1l1 1v-1Zm-12-3 1-1h-1v1Zm-2 19v-2h-1l1 2Zm-22-11-1 2h1l1-1-2-1h1Zm17-4v1h1v-1h-1Zm-914-20-1-1v3h1v-2Zm-82-17v1l1-1h-1Zm11 22h1l-1-1v1ZM346 94v-2h-1v1h1v1Zm479 8 1 2c3-1 3-5 3-8-4 0-6 2-4 6Zm-238-8v1h1l-1-1Zm224 4v1h1l-1-1Zm12 7 1-1-3 1h2Zm38 37h1l-1-1v1Zm-10-17c1 2 1 5 4 4l5-5-2-1c-1 3-5 1-7 2Zm17 2v-1 1Zm909 20v1l1 1v-2h-1Zm-249-5h-1v1l1-1Zm-689-38 12 21c-2 2-4 2-5-1l-3-3-1 3c-3 0-5 2-7-1 1-2 1-5 4-4 1 1 1 0 2-1l-4-2c-4-1-3-5-4-7-1-3 3-4 4-7l2 2Zm1 8-1-1-1 1 1 2h1v-2Zm9 7 1 1v-1h-1Zm-80-23-3 2c1 2 3-1 3-1v-1Zm-90 27-1 2h1l3-2h-3Zm22-31v1h1l-1-1Zm-38 29v-1 1Zm38-39v1-1Zm83 30h2-2Zm-112-5h-1l-1 1a162 162 0 0 0-2 5h2l3-4-1-2Zm7-11-3 6 2 4 3-6-2-4Zm1241 22-3 6c-7 10-10 9-10 9-1-3-5 1-8 1l-10-1c-7-5-14-1-21-1l-2 3v3l-2-2c-3-1-3-7-8-6h-1c-3 1-5 0-10-2l-1-1c-7-1-14-5-20 2l-1 1-1-1 1-6c-7-2-14 5-21 2l-1 1h1v8l-3-2v-3c-2 2-6 3-7 2s-1-3-2-2a207 207 0 0 1-2 4c-12-2-13 3-32 6-3 2-6-3-9-3l-4 1 3 3c3 1 1 2 1 4h-1 1a539 539 0 0 1 16 7v2l3-1-1-1 10 2c17 5-5 3-7 2l-25-6c-4-1-8-4-11-9-2-5-5-5-8-2-4 2-2 5 0 8v2c-7-1-7-10-10-4l-1 2-1-3c1-3 0-6-1-9h1l22-7 6-4c13-7 26-14 35-24l6-4c-4 0-6 1-6 4l-12 4c-13 8-26 16-40 22l-15 6-3-1-3-4-3-1 1 4-3 1c-5-2-9 0-12 4-4 1-7 2-9 4-8 1-14 5-21 8-4 2-7 4-9 8-2 0-4 1-5 3 1-5-1-8-5-9l-3-1h-4c-1-1 0-2 3-3l5-3-3-3-8 6-1 3-3 2h-1v-1c-1-2-2-3-4 0-3 2-4 3-7 3l-4 1a3292 3292 0 0 0-4 0v1s0-1 0 0l5 6h-5c-1-2-3-3-6-2-4 1-7 0-9-3l-4-3c-1 0 0 0 0 0-3-1-6 5-8-1v-1c2 0 2 0 3-2 1-1 2-3 4-2s2 0 3-2l5-2c4-1 8-1 2-3l1-1 5-4 1-1h-1l-4 3c-7 4-13 8-21 11l-5 1-2 1-29-5-3 1c0 1 2 1 0 1h-2c0-1 0 0 0 0v3l-3-2-1 1h-2l-1-1c-1-1 1 0 1-1l2-1 1-2h-3l-36-4c-3-1-3 1-5 1l-1 1a278 278 0 0 0-4 0l-1-1h-5v-1h-3l1 1-6-1s1 0 0 0-4 3-5 0l-9 1h-4c4-1 7-4 9-6l-3 1-7 3c-8 4-14 4-20 1l-6 1v-1 1l3 3c-1 3-5 6-9 6l-4-3c-1 2-3 4-5 2l-4-1 2 4 2 2-3 1-7-4-2 1v5l3 2h-1v1h-1l-1 2c-1 1-3 0-4-1-2-1 0-1 1-2l1-2c-3 2-5 1-8-1-1 0-3 0-3 3 0 1-16 6-29 7h-9c-3 1-8-2-10-2h-1c-5 1-9 6-13 6h-2c-20 1-36-2-44-2v-2l-3 2-2 1h-3c0-1-1-3-4-3 0 0 2 1 0 0-3 0-11 3-15 1-1 0 0 0 0 0-6-2-11-2-16-5l-3-1 2-2v-2h-4l-3 2-4-1-5-3-16-4 10 6 1 1h-1c-9 2-18 4-28 1-3-1-5 1-5 5v3c0 4-2 6-5 4l-4-3-10-10-6-3v6l-1 6-2-6c-4-5-9-6-13-2l-3 5c-4-2-8-8-13-5h-2c-1-1 0-5-2-2l-1 4-4-1c-1-4-4-3-5-2-2 1-5-2-5-1v-1h1-1c-2-2-4-3-6-2l-1 1h-1v-3c1-1 0-3-1-4l-11-6h-3c-3-7-8-8-13-11-2-1-6-3-8-2l-18 4c-5-1-10 3-15 1l4-7c4-3 8-7 17-2v-3c-1 0 0 0 0 0l4-3c5-4 10-4 18 1l2 1h2l-1-2-5-4-4-4 3-2h4c5 0 16-2 20-4h-20l-8 2c-7 5-14 9-22 12s-17 6-20 13l-3 2c-4 3-10 8-14 9-4 2-9-4-11-5h-1l-12-7 13-5v-2l-15 6-16-12c-6-7-11-13-14-20l-3-9h10l2-1-2-1-6-2c-5 0-7-3-9-7l-6-9-6-5-1-1h-1l-4-4c-6-3-9-7-11-12-2-4-4-9-10-11l-5-3 4 4 6 10c3 5 8 9 7 15 11 3 19 8 22 18l5 10c5 9 9 20 17 29l1 1c-6-5-12-9-14-5-2-2-4 7-6 4-2 1-5 1-3 5l2 5v3l-2-1-3-5c-4-10-5-10-13-6l-2-4h1-1c-1-3-4-4-7-4h-1l-7 2c-1 5-3 14-4 13v-2l4-11c-6 2-11 5-16 5v2l-1 6-2-1h-5l2-6-5-1-5-1v3c-2 0-3-1-3-2h-5c-5-1-8-3-11-9l-8-10-5-6h-1l-3-3-13-11-4-2h-1l1 1c3 3 7 6 7 11v1c-4 1-10 0-13 2-4 2-7 7-11 10l-2 1 1-2 1-1 5-7-7 3-3-1c-1-6-5-3-8-4 0-5-3-6-6-6-4 2-6 0-7-4l-2-1c-7-2-13 3-19 6l-2 2c-5 0-5 5-6 10h-1l-5-2c-1-6-3-10-9-11l-2-1-1-5-2 3-4-1-14 2-8-2c-4-2-8-2-12-1v-2l-1-3-2 2c-2 2-5 3-9 2l-35-6-25-4c3 4 8 3 12 4 6 1 11 2 14 6l-5-1 1 5c-1 2-3 2-5 1-3-4-8-5-12-4-3 1-5 1-6 4 0 2-1 0-2-1l-2 1c-1-1-1-1-1 1l-18 5 2 2h-2v-2a429 429 0 0 1-12 2h1c4 0 8 1 11 3l-5 1h5l5 3-6 3c0-2 0-5-3-5s-6 3-6 6l1 1c2 3 2 3 1 4l-1 1c-2-2-2-4-6-5-2-1-1-2 1-3 3-2 3-3 0-5l-6-4v-1a26 26 0 0 0 0 1c-1 2-2 2-4 2h-16l-2 2 2-1 2-1 2 2v2c-4-1-6-1-6 5 0 2-3 2-4 0-2-3-3-3-6 0-3 4-3 0-4-2l1-2h-1v2c-5 0-10-1-14 1l5 5c1 2-5-2-9-5l-4-2-9-7-2-2h-1c-2 0-4 2-6 0l-7-1c-2-1-2-1-2-3v-1l-1 1c-1 2-2 3-4 2l-19-5-13-2c2 2 4 2 7 3 3 0 7 1 7 7l7-1c2 0 6-1 8 4h2c2-3 3-2 5 1 0 1 1 1 1-1l2-1 17 4a57 57 0 0 1 6 4c-11-4-20 1-28 6-3 1-4 6-5 9 0 3 3 3 5 3l1 1h-4l-9-1c-1-1-2-2 1-5v-3l1-4-3 1-18-1-20-6-1 2-1-1h-3l-6-1 1 2-2-2-3 2v-1l-1 1h1l-1 3-2 2-2-2-1-5c-1-3-1-4 3-3v-1l-9-2-1-1-1 2h-2v1c0 2 2 2 3 2 2 0 3 1 1 3-3-2-5 1-7 2h-1 1l4 1 1 1-1 2v1l-2 5-3-4v-1l-1 1h1l-3 2c-5 0-4-5-5-7l-2-2-1 2c0 3 3 5 1 7l-1-2-2-3v1l-1 1-5 2-3-2c2 0 3 0 2-3h1l1-1v-1l-1 1v1h-1l-2 3-1-1 1 1-5 2c-3 1-5-1-4-4 1-2 0-4-1-5l-3-3-1-5c-2 1-5 2-6 4-2 3-3 3-4 0l-3-4v-1h2c4 2 4 2 5-3l1-1h-2l1 1-4-1-1-1h-2c-2 1-5 2-6 6 0 3-1 3-2 3-1 2-1-6-5-4h-3l-1-3v-1l3-6c1-3 3-6 2-9 1-1 2-3 1-4-1 1-2 3-1 4l-7 15-1 3v1l-7 7-2-7c2 0 5 1 6-1v-3h-10l-7 2v1h-3l-3 1v1l-1 1-1-1h1-13l1 2-4-1-2 1h-1l-1 1-3 3 1-3-13 3-2 2v1h-1l-2 1-4 3-1-3-7 2c-2 0-3 4-5 4-2 1-4-2-6-3h-4c-5 1-6 2-5 8l-1 7-3-8c-2-6-3-6-9-5-7 1-15-5-22-4l-3 2v-2l-1-1-1 1 1 2c-5-2-10-4-15-3-3 1-3 1-2 4 0 2 0 3-2 1l-3-1-4 3v-1h-1v1c-1 1-2 1-4-1l-5-2h-3c-8-6-16-12-26-16l-5-3c0 2 2 3 4 3l6 7 12 9-2 1c-18 0-26 5-39 0l-16-4-6 1h-2v1l-4-1v-1l-24-5-8 1-4-1-3 1-2 3-1-1c0-6-1-6-6-7-3-3-4 0-5 2l1 2c1-2 6 1 7 0 0 5 3 5 3 3v1-1 5l-1 2 6 1h-1 5l-2 1 2 1-1 1c-7-2-5-1-9-1l-9-5c-5 1-15 2-15-2l3-3c2-3 7-5 6-9l-8 6-1 1V54l8 10 4 3c8 2 16 6 24 4l-10-3c-8-2-15-5-19-13-1-3-3-6-6-8l-1-2V0h1920v68h-9v2h1l8-1v17l-2-1c-14-2-28-6-41-6l-22-1h-6c-7 3-16 4-17 9l9-3c7-3 14-4 28-2l15 1c12 0 24 3 36 7v28Zm-23-43v1-1Zm13-23v1h1l-1-1Zm-8 15c1 3 5 2 9 1 0-1 0-3-4-2l-5 1Zm0 13h-1v1l1-1Zm-6-13Zm0 0h-6c2 2 4 2 6 0Zm-8-6 4 2 2-3-3-1-3 2Zm-2 4Zm-19-44h6v-1l-6 1ZM34 45h-1l1 1v-1Zm5 22h-1v1l1-1Zm22-30 1 1 1-1h-2Zm-5 38 2 1h3l-2-1h-3Zm3 6h1-1ZM45 51h2-2Zm2 5v1l1-1h-1Zm2 31-3-2-2 3 2 2 3-3Zm2-6 1 4 3-3 1-3h-1l-4 2Zm1 11h-1 1Zm4-1 2-2h-3l1 2Zm3 3-1-3h-2l3 3Zm4-3v-2h-5l1 2h4Zm0-24 5 1c-1-2-3-1-5-1Zm6 8-4-2v2l1 1 3-1Zm3-6h-3l2 1 1-1Zm7 3-1-1h-1l2 1Zm31-1 1 1-1-1Zm-3 12c-1-2-3-3-6-3 1 3 3 4 6 3Zm7 6-4-4c-1 3 1 3 4 4Zm4-10-4-3h-1l-1 2 4 3h2v-2Zm7-12-1-1-1 1h2Zm5 16v-1h-1l1 1Zm25 1-1-2-2 1 2 2 1-1Zm4 2v-1 1Zm7 2 1 1v-1h-1Zm-5-23v1h3l-3-1Zm3 28-1-2-2 1 1 1h2Zm2-9-1-1v1h1Zm3 17-1-2-2-2 1 2 2 2Zm1 1-1-1 1 1Zm2-10-1-1-1 2h2v-1Zm1-5h-1l1 1v-1Zm8-2-1-1h-2l2 2 1-1Zm11-21h-1v1h1v-1Zm12 17-2 1 2-1Zm16 22h-2l-1 1h1l2-1Zm3-1v-1h-2v1h2Zm10-29v-4l-2 1c-1 2 1 3 2 3Zm3 20c-2-2 0-6-6-6v1l-2 1 5 5 2 1 1-2Zm0-14v-1h-1l1 1Zm3-6-1-2-3-1 2 2 2 1Zm5-13v1-1Zm0 23v-1h-1l1 1Zm1-3-1-1v2l1-1Zm1-37h-1v1l1 1v-2Zm6 18 1-2-1-2-2 1c-3 3-1 3 2 3Zm1 3 1-1-1-1v2Zm3 23-1-2-1 1 2 1Zm16-20h-1 1Zm3 22h-1l1 1v-1Zm1 6v-1l-1 1h1Zm4-44-1-1h-1l1 1h1Zm5 11h-4l2 1 2-1Zm14 23v-1l-2 1 1 1 1-1Zm1-41v-1h-1v1h1Zm31-4-2-2h-1l2 3 1-1Zm21 15 1-1-7-5h-1l1 4 6 2Zm2 29-1-1-2 1 1 1 2-1Zm0-25-5-1v4l3 2 1-2c3 0 3-2 1-3Zm20-3h1-1Zm-12 21 2 1 2-1-2-1-2 1Zm-3 6v-1 1Zm7 23-1-1v1h1Zm13-14-4 1c-4 3-7 1-9-2h2l-3-1v1l-2 3-1-4-4-1v1c-1 5 2 5 5 4v2c-1 2-2 3 0 4 2 2 3 1 5 0-1-1-3-3 1-3l6 1 3-1 1-5Zm2-15c1-1-1-2-1-3l-2 1c-1 1-2 2-1 3l2 1 2-2Zm14-14h1l1-1-2 1Zm-3 6 1-1-1 1Zm-3-26h1-1Zm-1 23 2 1 1-1-2-1-1 1Zm-1 38-1-1v1h1Zm6-11-9-1 1 3c1 2 1 2 3 0 1-1 4 1 5-2Zm-1-24c-4 3-4 5 1 6l3 1c1-4-2-5-4-7Zm11 9c-1-2-3-3-6-2 1 2 3 3 6 2Zm5-21h-3l-2 3 3-1 2-2Zm5-9h-1 1Zm48 47 1-1h-1v1Zm-8 1 1 1-1-1Zm-16-17h-1v1l1-1Zm23-1c-2-1-5-2-4 1h4v-1Zm8-28h-1v1h1v-1Zm9 37h-1v1l1-1Zm11-49h-1l1 1v-1Zm14 22v-3l-3 3h3Zm18-16-2-2-1 2 2 2 1-2Zm4 18h1l-1-1v1Zm3 24-3-1-1 1 1 1 3-1Zm2-15-1-1h-2l1 1h2Zm18 13Zm5 0-1-1-3 1h4Zm8 6-1-1-1 2h1l1-1Zm42-59 2 1 1-1h-3Zm3 19 1 1 1-1h-2Zm-4-20 1 1h-1v-1Zm-22 18 3 2 4-1-6-2-1 1Zm-11 37h-1v1l1-1Zm11-2h-1a667 667 0 0 0-4 2l5-2v1-1Zm16-7-3-2-2 1 2 2 3-1Zm13-8-11-2-22-5 1 2 7 3h10l5 2c2 0 6 0 8 2l2-2Zm19-31-1-1v1h1Zm5 20h-2l1 1 1-1Zm56-9-7-3-2 2 3 4 6-3Zm-4 10v-1 1Zm-5-22 3 2 2-1-1-1h-4Zm-13-6h2l-1-1-1 1Zm-25 9h-2v1h1l1-1Zm11 6h-1l1 1v-1Zm10-9 2 1v-1l-1-1-1 1Zm4 7-3-3h-1l2 4 2-1Zm1 8v-2l-2-1v2l2 1Zm2 0h-2v3l2-3Zm2-2h-1v2l1-2Zm4-10-1-1-1 1v1l2-1Zm1 32v1h-1 1v-1Zm0-37c0-2 0-3-4-2l-1 2c1 2 3 1 5 0Zm3 35-2 1v1h1l1-2Zm5-6c7-3 0-3-1-5l-5 1 1 4h5Zm5 14-1-2h-3l1 2h3Zm2-17v-1 1Zm5-35-1-1-1-1-1 1 1 1h2Zm8 45-1-1h-1l1 2 1-1Zm17-20-1-1-2 1c-1 1 0 1 1 2l2-2Zm4-13 2 2 2-2-3-2-1 2Zm0 15h1-1Zm13 9c-3-4-6-7-12-8l-2 3c4 1 8 2 9 5l1 2h3l1-2Zm15-12v-1h-1l1 1Zm2 1-2-1v1h2Zm5 24v-1h-1l1 1Zm1-33h-2l1 1 1-1Zm13 30h-1v1h1v-1Zm1-21-1-1v1h1Zm3-6-3-1 1 2 2-1Zm8-6c-1 0-1-2-3-2h-4l3 2h4Zm2 37-1-1h-2l1 1h2Zm6-37v-1h-1l1 1Zm9 0-1-1v1h1Zm7-10h-1v1h1v-1Zm6 24v-1l-1-1v1l1 1Zm5 1-2-1h-2l2 1h2Zm17 39-2-1h-2l3 2 1-1Zm6 2-2-2-1 1 2 2 1-1Zm4-19v-1l-1 1h1Zm3 23v1-1Zm8-55c-3-4-7-6-13-6 3 3 7 5 13 6Zm2 66h-1 1Zm3-44v-1h-1l-1 2 2-1Zm1-17-4-3c1 2 2 3 4 3Zm7 7c0-3-3-5-6-6 0 3 3 5 6 6Zm4 13-1-1-1 1 1 1v1h1v-1h-1l1-1Zm2-23v-1h-1v1h1Zm47 46 1 2h2l-1-1-2-1Zm-30-20 5 2 1-1-6-1Zm-15 9-1-1v1h1Zm3-17-3-2c-1 2 1 2 3 2Zm7 5Zm35-16-2-2h-2l1 1 2 1h1Zm48-10v1h1l-1-1Zm-21-15Zm-2 10c3 2 5 2 7 0h-7Zm-10 12h2l-1-1-1 1Zm-2 1Zm-6-5h-2 2Zm4-4-2-2-1 1 2 2 1-1Zm12 24c0-5-4-7-8-9l-3 1c-2 3-1 4 3 5l8 3Zm9-4-4-1c0 2 0 5-4 5l1 4c4 0 6-1 7-3v-5Zm0-12-5 2h-1c4 3-3 6 2 9l5-4c1-2-1-7-1-7Zm10-7h5l-1-2-4 2Zm7 5h-5l-1 1 5 1 1-2Zm14 18 6-9c-3-1-6-1-6 1v8Zm5 53-5 4c4 0 6-1 5-4Zm6-4c-4 0-6 1-6 4l6-4Zm3-66-1 1 1-1Zm3 34-1 1 1-1Zm2-35 1-3-4 2-1 2 4-1Zm2 28h-2l1 1 1-1Zm6 2h-1v1l1-1Zm5 16v1l1-1v-1l-1 1Zm-4-10h1l1-1-1-1-1 2Zm9 18-4-4-4 1 6 5 2-2Zm6-46v-1l-1 1h1Zm42 33h-2l1 1 1-1Zm6 43-1-1-1-1-1 1 2 2 1-1Zm15-1-3-1v2h1l2-1Zm4-39c-4-2-6-2-8 1 4 2 7 1 8-1Zm16-12 2 1v-2l-2-1v2Zm-9 13c-3-3-5-2-6-1l6 1Zm0-10 4 1v-3l-4 1v1Zm5 9c-3-2-4-1-4 1l4-1Zm8-1c-4-1-6-1-8 1 4 2 7 2 8-1Zm131 38h1v-1h-1v1Zm-6-31 1 1 2-1-2-1-1 1Zm-15 23 1 1v-2l-1 1Zm-4-4h2l-1-1-1 1Zm-38-2h2l-1-1h-1v1Zm-45 38-2 1 2 1v-2Zm13-23c-5-5-11-8-21-8 6 3 12 7 21 8Zm12 5c-2-3-6-5-12-5 3 3 6 5 12 5Zm18 6c-4-4-10-6-17-6 4 4 10 5 17 6Zm6 3-1-2-2 1 3 1Zm0-9-4-2-1 1 3 2 2-1Zm0 10 3 5h3c0-3-2-5-6-5Zm8-25 5-3-2-2-6 4 3 1Zm16 16-13-3-1 1c2 6 6 7 11 4l3-2Zm2-20h-4c1 2 3 2 4 0Zm27 37-25-13h-2l1 2c8 4 16 9 26 11Zm0-21-2-1-2 1 2 1 2-1Zm5 24-4-2c0 2 2 2 4 2Zm4 2-3 1-1 2 2-1 2-2Zm1-17v-1 1Zm1 16a48 48 0 0 0-1 0h1Zm0-9-1 1h1v-1Zm17-5-2 1v2l3-1-1-2Zm5-26 4 3 2-1-5-3-1 1Zm2 29-1-1-1 1 1 1 1-1Zm7 10-1-2-3-2-2 1 2 2 4 1Zm1 1h-1 1Zm6-36 1 1v-1h-1Zm4 42h-1l1 1v-1Zm1-36 4-1-8-3c-1 4 0 4 4 4Zm6 17h-1l-2 1 2 1 1-2Zm27-31v1h2l-1-1h-1Zm-19 3-1 1h1v-1Zm2 28h-1v1h1v-1Zm7-26h-2l-1 1-1 1h2l2-2Zm12 41-2-2-6 3 2 1 6-2Zm9-44h-1 1Zm14 10h-1v1h1v-1Zm8-12h-1v-1l1 1Zm1 12h-1v1l1-1Zm-1-12 1 3v1l2-1c3-2 0-3-3-3Zm20 3h-3l-6 2h7l2-2Zm7 25c0-2-2-3-5-3l3 6 2 1v-4Zm19 3-1-1-2 1h3Zm6-4h-3 3Zm5-3-1-1c-3-2-6-1-10 1h-1l-3 3h3c3-2 6-3 9-2l3-1Zm39-19-1-1-5 1-1 2h4l3-2Zm2 13h-2l1 1 1-1Zm4 5v-1l-1 1v2l1-2Zm4-24-3-1v2h2l1-1Zm7 8v3c3-1 3-2 0-3Zm2 16v-2l-4-1 1 2 3 1Zm25-5-1-1-3-1 2 2h2Zm1 1h-1 1Zm4-17-1-1h-1l1 1h1Zm6 25-4-3-2 1 3 3 3-1Zm9-18-4 2-1 1h3l2-3Zm7 1-1-1v1h1Zm30-19v1l1-1h-1Zm-23 25v1l1-1h-1Zm-1-7h1v-1l-1 1Zm5 11v-2h-5l-1 1-3 6 6-4v-1 1l3-1Zm1-17v-1l-1 1h1Zm5 3v-1l-1 1h1Zm3 6-2-1-1 3v1l3-3Zm1-16h-1 1Zm1 19v-1l-1 1h1Zm0-25-2 1v1h2v-2Zm3 36h-2v1l1 1 1-2Zm0-33h-1 1Zm3 8-1-1-1 2 2 1v-2Zm4 17h-1l-2 2 2-1 1-1Zm5-29Zm4 25h-2l-1 1h3v-1Zm13 6-3 2 1 2 3-3-1-1Zm23 14h-1 1Zm2 1h-2 2Zm5-27-2-1-2 2 2 1 2-2Zm16-25h-3v1l1 1 2-2Zm5 27h-1 1Zm1 26Zm9-24h1-1Zm2 22-1-2-3 1 1 2 3-1Zm3-32-1-1-1 1h2Zm18-46h2-2Zm6 55v-3l-3-3-4 2-1 4h8Zm3-58h-1v1l1-1Zm16 27-2-1-3 4 2 1 3-4Zm7-32-2 1v1l2-1v-1Zm10 37 3 1v-2l-2-1-1 2Zm7 18c-1-3-4 0-6 0l-6 2 8 2c2 0 4-2 4-4Zm13-5-2-1-3 1h5Zm1-23-1-1h-1l1 2 1-1Zm32-25-1-1v1h1Zm8 93 1-1h-1v1Zm-28-19-2-1 1 2-1 1h1-1l-2 2c1 0 0 0 0 0h-1 1c1 1 3 0 2-2h1v-1l1-1Zm0 0v1-1Zm36-6Zm3-62v-1h-1l1 1Zm5 24c-4 0-5 1-6 3l6-3Zm9-7c-4 1-6 2-6 5 4-1 6-3 6-5Zm17 4h1v-1l-1 1Zm3 28h-2l-6 1 1 1h2l5-2c1 0 1 0 0 0Zm8-15h2l-1-1-1 1Zm2 13-3 1h1l2-1Zm8 6h-2 2Zm7-31v-1h-2l2 1Zm10 1h-1v1l1-1Zm9 18h-1v1h1v-1Zm2-20v-1h-2l2 1Zm6 15v-1l-1 1h1Zm5-1-1-1h-1l1 1h1Zm25 14 2-1h-1l-1 1Zm-4-9-2-1v1h2Zm1 9v-1l-1 1h1Zm11 9-1-2c-1 2-6-1-7 0 0-4-2-4-3-4v1c0 6 1 6 6 7 3 3 4 0 5-2Zm3-17h-1 1Zm0-7h-1v1l1-1Zm8 13h-1l1 1v-1Zm1-24h-2 2ZM765 109l-3 1 2 2 3-1-2-2Zm-15 9h1-1Zm-12-15h-3v4l3 2 2-4-2-2Zm18 4 1 1-1-1Zm159 28-2 1 4 2v-2l-2-1Zm246 31v1h1v-2l-1 1Zm21 0 1 1 1 1v-2h-2Zm-113-18c0 2 3 1 3 0h-3Zm66 16v1h1l-1-1Zm-37-4 2-1-4-1 2 2Zm96 8v2l1 1 1-3h-2Zm100 5 1 6 2-1 1-3 1-3h-5v1Zm33 14 1 3 2-1v-3l-3 1Zm-75-17h2-2Zm-189-12-4-1 2 3h2v-2Zm182 7v1-1Zm-22 7h1-1Zm-168-20 1 1v-2l-1 1Zm-134-22v1-1c1 0 0 0 0 0Zm-42-1 2-1h-2v1Zm459 42v2-2ZM648 80l3 3c2 1 2-1 3-2l-6-1Zm231 45-1 2h1v-2Zm-4 11 1-1-1-2v3Zm3-9 1 2-1 2h-4c-3-4 0-5 2-7h1l1 3Zm-1 1h-1v1l1-1Zm174 6v1-1Zm-5 25v1l-1-1h1Zm-7-21-2 4 2 3 3-2v-3l-3-2Zm-170-16h-1 1c-1-3-3-2-5-2l-4 4 3 3 1 5 3-4 1-1-2-2 2 1 3-2-2-2Zm55 10v-1h-2l2 1Zm81 38 1 2v-3l-1 1Zm28-33-2 3 2 1 2-3-2-1Zm-24 18-1 2 5 1v-1c-1-3-2-5-4-2Z" /></g></svg>