<svg fill="none" xmlns="http://www.w3.org/2000/svg" viewBox="0 0 343 95" preserveAspectRatio="none"><path d="M29.1 80.4H29 29.2Zm6.2-66.2-.4.2.3.1.6-.1-.5-.2ZM40 79.5v.1h.4l-.4-.1Zm0 .2Zm2 1.1h.1-.7.6Zm16.8-66.1c-.3 0-1.1.4-1 .4.5.3 1 1 1.7 1 2.1 0 4.3-.3 6.6-.5.2 0 .8 0 1.5-.3.3-.2-1.3-.2-1.6-.2-1.5.2-3.1.3-4.6.3-.8 0-1.5-.2-2.3-.4-.2 0-.2-.2-.3-.3Zm-9 65.7H49l.5.1h.3ZM59.4 14l.5.1.5-.1a1 1 0 0 0-.4-.1l-.6.1Zm-44 66.2-2 .1h2.1Zm-2.2-47.5c-.1.2-.3.3-.3.5-.3 1-.5 2.1 0 3.2 0-1 .2-1.9.3-2.8v-.9Zm.8 47.7ZM9 46.2l-.3 1 .5.4.2-.9-.4-.5Zm-.1 34.5.8-.1.4-.2H9c-1 0-.5.2-.1.3Zm20.5-.3h-.2.2Zm-20-8.2.2.3v.1l.4-.4.3-.3v-.7l-.6.3-.3.4v.3Zm10.6 8-.3.1h.7l.3-.1H20Zm-4-41.8v2.4l.2-1.8-.3-.6ZM7.7 70.7H8l-.3-.6V70l-.3.1.1.6c.1.2.2 0 .3 0ZM70 11l-1.1-.2-1.8.3L70 11Zm177.5-.9 1.2.1c-.1-.1-.2-.3-.5-.4l-1.7-.3h-.2c.4.3.7.5 1.1.6Zm-12.8.8c.7 0 .3-.2-.4-.2l-2.6.1-1.5.3.9.3c1 0 2.2-.2 3.6-.5Zm-88.4.5.4-.2c-.1-.4-2.3-.5-2.3-.1 0 .2 1.2.3 1.9.3Zm-31-.8c.2-.1-.3-.3-.6-.3-3.2 0-6.7-.3-9.3.5h9.2c.3 0 .7-.1.8-.3Zm-46.4.2Zm5.5-.3L73 11c.8.1 1 0 1.4-.3Zm68.9.5h.4c0-.2-.5-.4-.9-.3-.3 0-.6.2-.5.3h1ZM326.7 0v.3V0Zm-30.6 11-.3.5h1l-.7-.4ZM64.9 80.8Zm212.2-69.4-.4-.1h-.7l.7.3.4-.2Zm8.1 0c1.2 0 1.9-.3 2.7-.3l-2.7-.3h-2.6l1 .2c-.6.2.7.3 1.6.3Zm-13.9.2c-1.3-.4-2.8-.6-5.1-.3l-.5.2 5 .1h.6Zm56-6.8v.5-.5ZM11 81.6c0 .3 0 .4 0 0ZM35.6 83h-1.7v.2h1.9l-.2-.2ZM6.7 71.5c.2 0 .4 0 .4-.2.1-.2-.2-.3-.5-.4-.3 0-.5.2-.5.4.3 0 .6 0 .6.2ZM63.2 9.6h1.4c-.7-.2-.3-.5-3.2-.5L46 9.7l-2.3.3 19.6-.3ZM25.7 83.3l-1.7.1h-.2c.6.2 1.3.3 2 .1l-.1-.2Zm-4.5-71.8a1 1 0 0 0-.4-.2l-.6.2.5.2.5-.2Zm47-.2h.4v-.1H68v.1Zm-43.7.7c1.3.2 2 0 3.4 0h.1c-1.7-.2-4.5-.7-5-.6-.4.1.5.4 1.5.6Zm-22.2 57h-.7l-.4.1.4.1c.3 0 .5 0 .7-.2Zm8.1-62.2c.3.4.4-.3.3-.8a5 5 0 0 0-.3-.8h-.3l-.1 1v1.2l.4-.6ZM13 44.8c0 1 0 2 .4 2.5 0-1 0-2-.4-2.5Zm189 37.4 1-.1c.2 0 0-.1 0-.3l-1.2.2c-.2 0 .1.1.1.2Zm-4.7-.1h2.6c-.2-.2-.5-.4-1-.4l-3-.1.2.1 1.2.4Zm-3.8-.7a17 17 0 0 0-1.1-.3 4 4 0 0 0-1.6 0c.7 0 1.3.2 2 .3h.8Zm2.4.2ZM210 14.4c-.5.1-.8.5-1.2.7l1.4.2 1.2-.2-.6-.4c.3-.4-.3-.4-.8-.3Zm26 66.3ZM174 15l-.9.3.9.3 1-.3-1-.3Zm-17.4 65.3.7.2.3-.2V80h-1.2c0 .1 0 .3.2.3Zm-31.9.7Zm40-66.8-1.2.1c.7.4 1 .2 1.3-.2ZM190.7 81h.2-.2Zm-9-67c-.4 0-.9.2-1.3.4l1.7.6h.4l.2-.3.2-.1h-.1c0-.3-.2-.5-1.1-.6Zm56.3 66.2c-1.4 0-1.4.2-1.8.3h2.4l-.6-.3Zm64.8-65.8-.4.2h1.7l-.2-.2h-1ZM265 15l-1.4-.8-1.4.2 1.2.6h1.6Zm2 0h-.1l-.1-.1c-.3 0-.5 0-.8.2.8.6 1 .5 1-.1Zm62.4 1.1.1-.8-.2-.3v.9l.1.2Zm-57 63.6-.8.2-.3.2-.3.2h2.1c0-.2-.4-.4-.6-.6Zm48.9 1.6a8 8 0 0 1-.8 0h.2l.7.2-.1-.2Zm-5-.3h-.5l-.2.2h.6c.1 0 .2-.1.1-.2Zm-65.5-63.9c.3-.3-1-1.1-.9-.3.1.3.6.6.9.3Zm-1.2-1.2s-.1-.2-.2-.1l-.4.2.4.3.2-.4Zm-1.7-.3.3.1c.2 0 .4 0 .3-.2 0-.2-.2 0-.3 0v-.1s-.2 0-.2.2Zm6 62.1c-.3-.7-.5-.7-1.9-.4.6.2.4 1.1 2 .4Zm4.7 1h-1v.3h1.3l-.3-.3Zm-13.3-1.2-.9-.3-.1.2v.1h1Zm-11.8 7Zm-25 1Zm-12.7-.3-1 .5h1.6l1-.5h-1.6Zm59.2-1.9.3.2h.6c-.2 0-.4 0-.6-.2h-.3Zm19.3.4-.1.4h1.3l-.3-.3-.9-.1Zm20.2 1.2Zm0 0c.3.2.4.4.8.4s1-.4 1.5-.5c-.3-.1-.4-.4-.8-.4s-1 .3-1.5.5ZM69 80.3l-.2.1.5.1.2-.1h-.5Zm-.8 1 1.5.7.4-.3-2.2-.8.3.4Zm8.2.5-2-.2v.1l.1.2c.6.1 1.2 0 2-.1Zm253.4-59v.7l.2-.1v-.9l-.2.2Zm5.4 27.6c0 .2.4.4.5.6 0-.3-.4-1-.5-.6Zm.5-39c-2.2.3-4.4-.3-6.2-.3h-.9l-.1-5c-.1-2.1.2-6 0-6-.3-.2-.4 1.3-.4 1.3-.1.4-.4.6-.4 1v7.2l-.2.7v.6l-.1 2h1.3c2-.2 4-.5 6.8-.6.6 0 3-.8 3.6-.8h3c2.9-.4-4.4-.5-6.4-.2Zm-8.3 1.4h-6.6l-1.6-.3c-3.4 0-5 .3-8.5.3h-5.2c-3.4 0-3.4.2-6.2 0-2.9-.2-5.3 0-8 0 .3 0-1.2 0-1.1.1-.1.3-3.6.2-4.4 0h-.5c-.2-.1-5.6.2-5.5 0 .3-.4-2.4-.4-6.3-.4-3.8.1-6.8 0-10 .2a13 13 0 0 1-3 0c-.3 0 .1.2.6.4.6.1 1 .3 1.4.5h-1.5c-2.2-.8-4.3-1.5-2.4-.2-1.7-.7-5.6 0-5.6 0s-6.7 0-6.3.1c.3.1-.4.2 1 .4 1.3.2-2.3.4-2.8-.2l-1.1-.2h-3l.6-.2 1-.2h-.2c-1-.4-3.2.3-3 .6h.8-2.6l-2.5.3.5.1h-4.4c-3 0-5.7-.2-9 .3h-.3l-6-.7h-4.4c-2.5-.2-4.4-.5-6.5-.1-.8.1-2.4 0-2.5-.2h-12.6c-.8 0-1.9.1-2.4.3a9 9 0 0 1-3.5.2c-2-.1-4-.2-4.9.6l-1 .1-.6-.1c.4-.5.3-.3-2.8-.3-2.8 0-3.7-.5-5 0l-2-.1c-.6-.5-2.6-.1-5.4.3h-1.5c-3.7-.4-3.2-.3-5.5-.2l-.1-.2-.3-.1h-1c-.2 0-.5.1-.4.3h.2c-1.4.1-2.6 0-2-.4l-1.6-.1-2-.1-6 .4c-5.8-.2-2-.5-7.8-.7a10 10 0 0 0-4.6.7l-3-.3c-2 0-3.5 0-4 .6l-2.1.3c0-.5-.2-1-3.6-.3-2.9-.5-4-.5-6 0l-2.7.7c-2.3.3-4.8-.8-7-1.2h-.7c-1.5-.2-2.4-.2-3.3.2-.3.2-1.7.3-2 .3-4.2-.5-3.2.4-4.2.6-2.2-.3-3.5.5-3.5.3.5-1-.9-1.6-4.8-1.8-1 0-2.5 0-3.2.2-2.2.4-2-.4-4-.2-1.2.2-2.1.7-3.9.5l.1-.3-3.8-.5v-.2l-.1.2h-6.3a49.6 49.6 0 0 1-7 .6l-2-.1h-6l-12 .3c-4.3.2-8.6 0-13.2.3l-3.4-.4c-1.2-.2-2.5-.3-3.8 0 .4.4 1 .8-1.4.9l.2 1.6c.3 1.2-.3 2.9-.2 3.3l-.2 3.4.1.6V23c.3.4.1 6 0 4.6-.1-1.3-.2-2-.3-.5l-.2 3.5v.4l-.1.6v.7V31l.1-.1v-.2l.2-.4.3 3.8v.8c-.3-.7-.6-.2-.5 1.5 0 1 .3 2 .5 3.2.1 1.8.2 3.7 0 5l-.3 3.7c-.2 1.5-.3 2.7.2 4l.1 1.7v2.7c.4 1.5.7 3.6.7 3.6h.1c-.2.5-.1 3 0 3.8 0 .2-.5.4-.2 1.2.3 1 .3 1.1-.1 3.7l-.2 1v1.5c0 .7 0 1.5-.2 1.9-.3 1-.1 2.3 0 3.6l.2-.6h.3v1.1c0 2.1-.5 2 0 3v.4c-.2 0-.2 0-.2.3h-1.3v-.5c0-.5-.2-.9-.3-1.3v1.4-.1.4c0-.4-.1-1-.3-1-.2 1.5-.1-10.5-.2-11.2l.6-8.8-.2-1.3c0-1.2 0-2.4.5-3.1v-1.3l-.5-3.9.2-3c0-3.1 0-5.1-.4-7.2l-.2-4.8c-.2-1-.3-8 .2-14.7 0-1.2.4-3.3.4-4.8v-1L8 15l-.6-.1c3-.5-2.6-.7 0-1.2-.8 0-1.5-.2-2.3-.1-1 0-2.6.2-2.8.3-.3.2.3.5.8.7.4.1 1-1 1.9-.1.3.3-2.8.9-4.5.8l-.6-.2c.3-.4 0-.9.6-1.4.5-.6 7.6-1 10-1h.6v-.7l.2-.6c0-3 0-3.2.2-4.4.4-4.3.6-1.8.6-1.8 0 .1-.2 1.3.2.3.3-.8.4 4 .8 5V12c-.1.3-.4.6-.4.3-.2-1.4-.4-1.8-.5-.5V13l8 .1c5 .1 13.7-1.3 20.4-1.3l16.2-.3-1 .3c.3.4.6.8 1.2 1 .5.3 1.4.2 2.2.3 0-.4-.2-.8.2-1 .7-.2.9-.4.8-.6l6.2-.1h.6l-.8.2h4l-.2-.1c3.4-.1 6.8-.1 9.4.4H88c2 0 3.3 1 4.8.4h2l5 .1c1.4 0 1.2 0 1.2-.3l.3-.4c.7 0 1.5.2 2 .3.4 0 .5.2.7.3h-.1l-.1.1.3-.1H107.6c1.2-.1 1.2-.3.7-.9h2c1 0 1.8 2.2 3.3 1h2.4c2.3.2 3-.2 4.2-.6.8.6 2.5.5 5.4.6h13.7c5.4.2 10.8.4 16.5.4 5 0 10 .3 15.4-.3h.8c2 .8 5.6.2 8.5.2 2 0 2.9.4 4 0 1.4.3 1.2-.3 4.2-.5h5.9l1.2-.1c2.2-.7 2 .3 4.7.2 1 0 2 .3 1.6-.2l.7-.2c1.3 0 2.5.3 3.8.3 4.5-.1 13.6.3 17.3.7.3 0-1.4-.4-.9-.4 0-.1 2.2.2 2.1 0-.1 0 1.6.5 1.7.4l.5-.3.9.1c1 .3 0-.2.9.1 2.8 1 2.6.6 7.5 0H237.5l2.9-.3c1.1-.3 3-1.4 4-1.5 2.5-.4 2.5-.5 3.6-.1.8.3 1-.2 1.2-.2.5 0 .6-.1.5-.2l5 .8.6.2a4 4 0 0 1 2 .3h.8l.1.1c.4.1 1.2.3 1.5.2.2 0 .4 0 .6-.2h2.4l-.7.3 1.6.3c.3 0 .6-.3.9-.4l-.5-.1h1.8c1.6 0 5.4.2 6.3.1 3.1-.3 7.3 0 8.6-.3-.3 0 8.5-.1 8.7 0h5l1.3-.2-.1.2h2l-.8-.4c3-.2 6.3 0 9.6 0l12.5-.3c3.4 0 2.5-.1 2.9-.3l3.3.2h1.5l.8.1v2-.2Zm-316 .7-1.3.1c.4.2.6.4 1 .4h.3v-.5ZM11 28h.1v-1.2l-.2.3c-.2 3.1 0 4.3.1 8.5l.2 1.5v-.8c.1-3.4-.3-5-.2-8.4Zm.7 16.5c.2 1.7.4 1 .5.5l.2-.6c-.1-1.8-.3-2.3-.5-1.4l-.2 1.5Zm2-30.6-1.2-.3v.5l1.2-.2ZM69.1 12h-.3.3Zm22 1.4-1.4-.3-.6.2 1.3.3.7-.2Zm4.6-.1h-.5l-1.5-.2h-.5.4l1.5.2h.6ZM332 49.6l.2-.2-.4-.1c-.5 0-.3.2-.3.5l.4-.1Zm.4-32.4s-.6-.2-.7-.1h-1v.1l1.6.3.1-.3ZM331.1 45h.7c-.2-.5-.5-.3-.7 0ZM326.5 81c0-1.5-.1-1.2-.4 0l-.1.3h.2V81h.3ZM154.2 14h-.8c.3.2.8.2 1.2.2.2 0 .3-.1.3-.2h-.7ZM66 80l-.7.4-.3.3.6.2c.8 0 .5-.5.4-.9Zm258.4 11.5V93h.2v-1.2c0-.3-.2-.2-.2-.2Zm13.6-8.3c-.7.1-1.3-.4-2.4.1a3 3 0 0 1-1.4 0l-.8-.2c-2.2 0-4 0-6 .3v.2a255 255 0 0 0-.4 8.8l-.2.5c-.2.5-.2-1-.1-1.4l-.1-2c0-1-.3 1-.5 2.3l-.3 2.7c-.1.1-.4 1 0-2 .3-2.4.4-5.7.8-8.8v-.2l-1 .1-.7.2c-2.3 0-2.4.4-2.8.8-.1.2-2 .1-2 0-.5-.5-1.3-1-4-1.2h-.8l-.6-.5-.8.2h-7.5l-3-.1c-3.2-.3-6.3-.2-9.3 0h-2.5c-1-.2-2.4-.1-3.3-.2-1.8-.3-1.4.3-2.5.3l-1.8-.3c-3.6-.2-7.3-.5-10.8-.5l-6.3.1-.1-.1h-.6v.1H263.3l-11.5.3-18 .8h-5.4.2c.1.4 1.4.5 2.3.7.7.2-2-.1-3.5-.5l-1.8-.1c-.3 0 .3.3-1 .1-4.2-.3-8 0-11.6.4-1 .1-1.7.5-1.8.8-.2.2 1 .3 2 .3h.2-4.9l.2-.1-.7-.2s0 .2.2.2c-.7-.1-1-.2.2-.5.2 0 .3 0 .4-.2l.3-.4-1.4.2c-2.5 0-4.9-.1-7.2-.3-6.6-.3-13-.9-19.6-1.2l-18.7-.7h-.3L157 82c-1.1 0-2.3.1-2.6.5-.3.3-1.1.3-1.8 0l-1-.3-4.2-.2h-4.3c-2.4 0-4.2.3-6.7.2l-6.6.1-14 .8c-.8 0-1.5.3-2.2.3l-2.4-.3h-1.8c-2.1 0-2.4.2-2.2.7v.6l-1.4-.8c-1-.4-1.5-.5-3.7-.4-3 0-6.3-.5-9.5-.5l-1 .2c-1.8-.1-13.4 1.5-14.1 1.7l-17.3 1-1-.2c.8.5 1.2.9.7 1a56.4 56.4 0 0 0-5-1.8c-2.3-.7-3.8-.9-5-1l-16.5-.8h-2.3l-12-.6h-3.5l-1.6-.2c-.5 0-.8 0-1 .2.1.9.2 1.8.1 2.7 0 .5-.3.8-.5 1.2v-.2l-.1-.4c-.3.2-.5.5-.7 1-.2.5-.9 5.4-1 3.8l-.1-1.8a9 9 0 0 0-.2-2.7c-.3-1.5-.3-2.7-.1-3l-1.6-.3s-10.4.4-6-.7c3-.8 4-.7 4-.7.3.2 2.2 0 3.2 0h1v.4l.1-.5h.3v.7c.2 0 .3.2.2.4l.4.1.8-.1-.2-1H14v.5l.2-.1v-.3h.2c2.9.4 5.7.1 8.6.1l.4-.2.3-.3.7.2c1.2.1 1.3.6 3.2.5h.6c1 0 2.1 0 3.8.3h.3c3 .2 5.9.6 8.5 0l.2-.1h.6l-.5.5a68 68 0 0 0 8.6-.3l-.2-.3.4-.1h.4v.1c.5 0 3 0 4.9.7 1.6.4 2.5-.4 3.8 0 1 .4 9.1.6 14.5.7l-1-.4c-1.4-.6-.5-1 0-1.5.2-.2.8 0 1 .3.2.2 18.4-.6 19.4-.1.8.4 2 .4 3.6.2s.8-.5 0-.7c-.2 0 0-.1 0-.2 2.6 0 2.9 1 3.9.4l.6-.2.2.3c-.1.5.5 1 2.9 1.2.6 0 1 .2 1.6.3h1l-.3-.3h1.3c2.3.1 3.9 0 5-.5a6 6 0 0 1 1.8-.2c4 .1 7.3-.3 10.8-.6 2-.2 3.6-.5 4.8-.9l.8-.1h.1l.1.2c-.5.4.1.7 2 .8h2.7l11.2-.3-1.9-.6h2c.6.2 1.5.3 2.8.2 1.2 0 2.5 0 3.6.3.5.2 1.2.2 1.8.3 1 0 2.4-.4 3 .1h.1c.4.4 2.5.2 3.8.3 3.9 0 8 .4 12 .5.7 0 1.9-.4 2 0l.1.1c.1.2 1.2.1 2.1 0h.5l14.9.5 1.9-.1c.6 0 .9-.2 2.2 0h.6l5 .1h.2c.3 0 1.6-.2 2 .1h3.7l11.4-.2h.5c.3-.3 1.9-.4 3.5-.4l1.7.2h-.1.1c.7-.1 1.3-.3 2.4-.1l1.3.1-.5-.4-1-.1 1.6-.1h1.4l.5.1s.2.1.2 0c0 0-.1.2 0 .2h.3l-.3-.1-.1-.1v-.2h2.2c1-.2 2 0 3.2 0 .7 0 1.5 0 1.4-.2 0 0 6.9-.5 12-.5h3.9l4 .3h.6c2 0 3.6-.5 5.4-.5h.8c8 0 14.8.4 18.1.4l.1.2 1.3-.1h-.2 1l1.1-.1c.2.1.6.2 1.7.2h.2c1.2 0 4.6-.2 6.3 0l6.5.5c3.2.4 6.4.6 9.8.5 3.7-.2 7.4-.3 11.3 0 1.3 0 2.1-.1 2.3-.4v-.3c0-.2.2-.3.5-.3l-.1.4c0 2 .3 1.5.5 1.8v-2h.3V81h.2v-6.3l-.1-9.5c-.2-2.8-.5-4.7-.8-7v-1.5l.1.5.1.9.5 3.3-.2-4.8v-2c.4-1 .3-3.7.3-5.6.3-.2.5-2.6.4-4.3v-.2l-.2-2c-.4-2.1-.5-2.5-.3-3.3V37.1c0-.9-.1-1.7-.5-2.6l1-.2.2-1.2.3-.4-.3-.3v-2.1l.1-.2.2-.4c-.3-1.7 0-5.3-.2-7.2l-.1-.9c0-2.7-.4-2.9-.7-3.3V16c.4-.5.7-1.1.9-3h1.2v6.4c-.1 1.6 0 2.5.3 2.6h.2c.2.1.3 1 .2 2.4a18 18 0 0 1-.6 3.7c.6.6 1 4.3.7 3.9l-.2-.2V34h.1a8.6 8.6 0 0 0-.5 3.3v1.1l-.1 1.2c.3 1 .2 1.1-.1 3.5l-.4 2.3c-.2 2.3-.2 5.3 0 7.8l.4 2c-.2 2.9-.6 5.2-.3 9.2v1c-.1.7-.4.5-.2 2 0 .4.2.4.3.5v2.5c-.3 1-.3 3-.2 3.9v3.6l-.1-.3a21 21 0 0 0-.2 3.6l1.2.3 4.2.8c.5.2 6.3.7 4.8 1Zm-10-53.5h.1Zm-316.9 53-.2-.1h-.3.5Zm.9-.2c-.1-.3-.3 0-.4-.3h.1v-.1h-.4l.1-.5h-.3l-1.6-.2c-1.3-.3-1.7 0-2.1.2l.4.1c.5 0 2.3.2 2.9 0 0 .4.4.5.6.5v.4l.7-.1Zm1-.4v.4-.4Zm39 .2 1.9.8c-.2-.5-1-.6-1.8-.8Zm1.9.8Zm33-2.5v.1Zm207.2.6Zm11.2 2.2Z" fill="#000"/></svg>