<svg fill="none" xmlns="http://www.w3.org/2000/svg" viewBox="0 0 316 74" preserveAspectRatio="none"><path d="M2.3 5.7c-.2-.3-.3-.6-.1-1v-.5c.4.4.3 1 .1 1.5Zm-.3 13 .4.7v-1a9 9 0 0 1-.3 0v.2-.1l.3.2-.1.1-.3-.2Zm0-3.8.2.2.2-.1v-.4l-.5-.1c0 .2.3.2.1.4Zm.1-10.6h.2c0-.3 0-.6-.2-.7l-.1.1v.4l.1.2Zm0-1.9L2 2l-.1.1.3.4Zm.2.8H2V3.6l.3-.2-.1-.1Zm-.1 23.7h.1v-.3h-.1v.3Zm-.6-24a.7.7 0 0 0 .3.4v-.5l-.2-.2-.1-.1V2.8ZM1.8 24v.2l.4.5.2-.7h-.6Zm.4-6.6c-.2.2-.1.3 0 .4l.2.1h.1-.1c-.2-.1-.3-.3-.2-.5Zm0-8.1.1.2.1.3h.1v-.8c-.2 0-.3.2-.3.3Zm0 1.3h.1v-.3.3Zm.2 16.9v-.3.3Zm-1.8 0 .1.3.2.2s.2 0 .2-.2V27l.1.2v-.8L.7 26l.3-.2v-.4c0-.3-.2-.6 0-.9l-.3-.2c-.2.1-.2.3 0 .4 0 .2-.2.5 0 .7-.3.1.2.4 0 .5-.3.2 0 .3 0 .4V26v.3c.1 0 .2.1.1.2v.2l-.3.1v.9Zm-.2 17 .1.6c.4 0 .3-.2.3-.4v-.5l-.4.4ZM1.6 28ZM1 43.8H1v-.1l-.1.1Zm.2-.4-.2.1.2-.1ZM.2 45v.2h.2v-.5l-.3.2Zm1 5.4c.4-.5.4-.5.3-.8l-.2.1v.7Zm-.4-3v.5l.1-.2v.1-.3H.7ZM2.4 26h.1l.2-.5c-.4.1-.4.3-.3.5ZM.8 24v.4c0-.1.3-.2 0-.4Zm.1 18-.1-.2v.3H1v1.2H1l.2-.5v.2-.2L1 42h.2c0-.1-.1-.2-.3-.1ZM1 23.3v-.2H.8v.6H1v-.4Zm0 17.3.2-.3H1l-.1.2ZM.6 39H.2v.4l.8.5v-.2l-.3-.1-.2-.6ZM209.9 1.8h-.1Zm-69.9.8Zm60-.3Zm-2.3-.6Zm-64.5-.4c.3 0 .3-.2.3-.3a3 3 0 0 0-.4 0l-.6-.3h-1.1c.4.4 1 .3 1.6.5l.2.1ZM281 .1ZM128 1.2h1.4v-.1H128.8c-.3 0-.4 0-.7-.2V1.2Zm84.8.5ZM1.2 51.5l.1.1h.1v.2-.1H2v-.1h-.4c-.4 0-.3-.2-.2-.3.3-.3.1-.4 0-.6l-.1.8ZM223.8.5ZM35 .2ZM2.6 22.1c-.2-.4 0-.8-.3-1.1.2-.3.2-.6.1-.8V20l-.3.6c.2.2 0 .4 0 .6v.7c0 .2-.2.6.2.9-.1.3.1.6-.3.9l-.1-.2-.2.3h.8v-1h.1l-.1-.4V22.1ZM2.3 2l.1-.2h-.2V2l.1.1ZM21.5.4h.2l-.2-.3H21c.1.2.3.3.5.3Zm1.4.5ZM3 10.3h.2L3 10H3l.1.3Zm-.3-.7.5.1c-.2-.4-.2-.4-.5 0Zm41.8-8.5c0 .1.1 0 0 0H44h.4Zm65.7-.1h.1Zm5 1ZM3.2 11.5l.1-.7-.6.1c.4.1.3.4.5.6ZM121.7 1ZM3.2 17.8v-.3H3v.3h.2Zm312 31.1v-.2l-.3.2.3.2v-.2ZM1.2 28.7c-.3-.1-.4 0-.6.3l.4.1.4.1v-.1l-.3-.4Zm312.6.5.2.2h.6c-.2-.2-.5-.3-.8-.2Zm-258 43.6Zm259-36.8v-.1Zm-1.3-2.8V33v.2ZM148.8 73.7h.4-.4Zm71.9.3h.1-.1Zm16.5-.5h.1Zm-93.5 0h.2-.2ZM2 36.7l-.2-.2v.4H2v-.2Zm.8 26.8.5.1c-.2-.4-.2-.4-.5 0Zm.3.7h.2l-.2-.4-.1.1.1.3Zm312.6-7.8v.3c-.2 0-.3.2-.1.5.1.2.1.5-.2.7l-.2-.6h-.1v1.1l-.4-.7c-.2.5-.2.5 0 .8h.4v.4c.1.3.2.7.1 1l.1.6.1-.4v-.5c.6.2.2.6.3.8.2.3 0 .7 0 1h-.2l-.2-.7-.4-.2v-.4l-.3.2v1c-.2.2-.2.4-.1.7 0 .4.1.6.3 1 0-.2.1-.3.2-.3h.5c.2.2.4.5.2 1l.1 1v.3l-.3.3.1-.6h-.6c.4.2.3.5.5.6l-.2.5-.1-.2c-.2.4-.2.5 0 .7-.2.3-.3.6-.6.8l.6.1v.6c-.8.3-.4.8-1.2 1 .3.3.8.4 1.3.4v.2l-.2.3h.4l.1.3v.4H314.2l.8.3v.2h-.2l-.2.2-.3.3a6 6 0 0 1-.5.3h-.1l-.1.1c.3.2.8-.1 1.2-.4-.1.2-.4.4-.8.6a5 5 0 0 1-1 .5l-.1.2c-.8.4-1.6.6-2.5.8H308.8l-.2.1h-2.3l-2.6.1c-.2 0-.4 0-.2.2h-.4l-.2-.4c-.3.2-.7.1-.6.3h-.4l-.7-.1-1.4-.1h-.7l-1.3.2h-.4c-.3-.1-.8-.2-1-.1-.8.2-1.6 0-2.4.1l.1-.1h-8c-1 .2-2 0-2.9 0h-1.8 1c-1-.3-1.6 0-2.5 0h.1l.1-.2-1 .1H277c-1 0-1 0-1-.3-.6 0-.7.2-1 .4l-.1-.3h-.9c0 .1-.2.2-.3.1-.8-.2-1.7 0-2.6 0h-4.4c-1-.2-1.7 0-2.5 0l-.4-.2h.3c1-.2 2-.3 3.2-.2l1.4-.1-1-.1-.8-.1c-.6.2-1.3.2-2 .1-.5 0-.8 0-1.2.2l.1-.3h-1.1l.4.2h-.8c-.7-.2-1.4-.3-2.3-.2l.1-.1h-.2l.4-.1c.7 0 1.3-.2 2 0l.5-.1c-.4 0-.7-.2-1.2 0 0 0-.6 0-.4-.3h-1.5v.1h-1v-.1l-.8.2h-.4l1.3.1c.4 0 .6.1.8.3-.6 0-1.1 0-1.4-.2H255.3l.4.1h-.9c-.5-.2-1 0-1.7 0 .3.3.7 0 1 .1v.3h.2-.3l-.5.2.6.3h-1.7v.2c-.5 0-.8.2-1.4.1h-.9c.8 0 1.6-.1 2.3-.3l-2.1-.2c-.2 0-.4.2-.8.1h-2.8.6-.1c-.5-.2-1-.2-1.4-.2H243l.2-.1c0-.2-.3-.2-.6-.3h.5-.3l-.1-.1-.2.1-.6.1.2.1-.5.1h.4c-.6.2-1 .1-1.6 0h.6l-.7-.1v.4h1.7l.7.1-1.1.1h1v.1h-.5c-.7.3-1.2.2-1.5 0h-.5c-.1-.1-.4-.2-.8 0-.4 0-1 0-1.4-.2h1v-.1H237.4l1.2-.3h-1.4l.1.2h-.8c-.6.1-1.2.2-1.7.1l-1.2.1h1.7c-.4.4-1 .1-1.5.2s-1 0-1.6 0v-.1l1.1-.1.3-.3h.7l-.2-.1h-4.6l.4.2v.3c-.4.1-.9.2-1.6.1h-3l-1 .1v-.1c0-.1.5 0 .1-.2l.4-.1c-1-.1-1-.1-1.5.1-.7.1-1.4-.3-2.2 0l.4.3h-.8l-.3-.3h-.7v.2h-.1l-1.7-.1h-.2l-.7-.1h.1-1.2c-.1-.2-.3-.2-.4-.3l-.2-.1a4 4 0 0 0-3.7 0c-.5.1-1 .2-1.5.1h.4l-1-.2h-1.8s-.1-.3-.4-.3c-.5-.2-1.1 0-1.7 0-1.5-.2-3-.1-4.6-.1-.4 0-.7 0-.8.3l-1.2.2h-.3c-.5-.3-.7-.7-1.5-.5h-.1l-.2-.1-.4.2-.4.2c-1 .2-2 .1-3 0-2 0-4.2 0-6.2.2h-2.4 1l-.1.1h-1l-1.8.1v-.1c-.5 0-.6 0-.8.2h-.3v-.1H170.5l-.3-.1h.2c1-.3 2.1-.4 3.3-.2l1.4-.1-1-.2h-.8c-.6.2-1.4.1-2 0-.5 0-.8.1-1.2.3v-.3h-1l.3.2h-.7c-.7-.3-1.5-.3-2.3-.3h.1-.2v-.1h.4c.6 0 1.2-.2 2 0 0 0 .3 0 .4-.2-.3 0-.7-.2-1.1 0-.1 0-.6 0-.4-.2H165l-.7.1h-.4l1.3.2c.4 0 .6 0 .8.2-.6 0-1.1 0-1.4-.2H161.8l.4.2h-.9c-.6-.2-1 0-1.7 0 .3.2.6 0 1 .1l-.1.3h.2-.2l-.5.2.5.2H159v.2c-.5 0-.8.3-1.4.2l-.9-.1c.8 0 1.6 0 2.3-.3l-2.2-.2c-.1.1-.3.2-.8.2h-2.7.6l-.2-.1-1.3-.1h-2.8l.3-.2-.6-.2h.5-.3l-.1-.1h-.2l-.6.2h.2l-.5.2h.4c-.6.2-1.1 0-1.6 0h.6l-.7-.2v.5h2.4l-1 .2h-1.2c-.5-.2-1-.1-1.5-.1h-.6l.6-.1v-.1h-1.7a53.6 53.6 0 0 1-.3-.2v.2h-.8c-.5 0-1.1.1-1.6 0l-1.2.1.7.1h.9l-.5.2h-1.3l-.9-.2h.8l.3-.3h.7l-.2-.2h-4.1l-1.2-.1c-1-.1-2.2-.1-3 .6h-.5l.4.1-.5.1h-1 .1c0-.1.5-.1.1-.2l.4-.1c-1-.2-1-.2-1.5.1-.8 0-1.4-.4-2.2 0l.4.2-.7.1c-.2 0-.2-.2-.4-.3h-.8s.1.1 0 .2h-.2c-.3-.2-.7-.4-1.2 0l-.5-.2h-.7c0 .2.5.2.9.3-.4 0-1.3 0-1.6-.2H122.4s0-.2.2-.3c.1-.1.2-.3 0-.3-.4-.1-.5 0-.5.2s-.2.2-.5.2h-5.5l.8-.3H113.6c-.4 0-1.1-.2-1.5 0-.5 0-1.2.1-1.6-.1l.4-.1-.6-.1v.3h-.4V73H109.2c-.5-.2-1-.4-1.5-.3h-.3c.5-.2 1-.1 1.6-.2l.4-.1c-.3-.1-.5-.1-.8 0h-1.2c-.2-.2-.7 0-1 0-.1-.1-.3-.1-.4 0l-.3-.1h-2.9a22.4 22.4 0 0 1-1.7 0h-1.4l-.7.1-.8.1-.3.2c-.2.2-.1.3.2.3.3 0 .6.2.8.3H99h.3l.5.3H99l-1.7.1.1-.3c.3-.5-.3-.3-.6-.3l-.7.2h-1c0-.1 0-.2-.2-.2l-.2-.1.5-.1h-1 .1c-.3 0-.5 0-.8.2-.4 0-.8.2-1.3.1l-.8-.1c-.4-.2-1 0-1.4 0a9 9 0 0 0-.4 0l-1.3-.2-1.6-.1c-.4-.2-1 0-1.3-.2-.3-.4-.7-.5-1.3-.6h-.2c-.2-.2-.6-.2-.9-.2-.6 0-1.1-.2-1.7-.3h-.7c-.6.1-1.4-.1-2 .3 0 .2-.3.3-.4.4a32.9 32.9 0 0 1 0 .1v.1h-1.7l.1.1.9.1h-.3 1.3l.4.3h-1c-.5 0-.8 0-1.2.2v-.3h-1l.3.1h-.7l-1.6-.2v-.1c.5 0 1-.2 1.5 0l.5-.2h-.5 1.5c-.3-.3-.7-.2-1-.2L74 72c0-.5-.7-.4-1.3-.4h-.5l-1.5.1h-.4c-1.2 0-2.3-.2-3.5.1-.3.1-.2.4-.6.5h1.1c.6 0 1.1-.5 1.7-.1l1.5.1 1.3.2h.1l.6.1.1.1c-.6 0-1.1 0-1.4-.2H68.3l.4.2h-.9c-.6-.2-1 0-1.7 0 .3.2.6 0 1 .1v.3h.1-.2l-.5.2.5.2h-1.6v.2l-.7.1H64l1.5-.3-2.2-.2c-.1.1-.3.2-.8.2h-2.7v-.1h.6-.2l-1.3-.1H56l.3-.2c0-.2-.3-.2-.6-.3h.5-.8.4-.2l-.6.1.2.2h-.5l.4.1c-.3 0-.5.1-.8 0H53.5h.6l-.7-.2v.2H53c-.5-.3-1.1-.4-.9-1 .5-.1 1 0 1.7-.2-.8-.2-1.6 0-2.4-.1-.2 0-.5-.3-.8-.2-1.5-.5-2.8-.7-4.4.2-1 .6-2.7.3-4-.2-1.3-.5-2.6-.7-4-.2-.7.3-1.7.3-2.4.1-2.6-.5-5.3-.4-8-.3l-10.5.3c-2.5 0-5 .2-7.6.7H8.1l.1.2-4 .2H3.5l-.2-.2-.6-.4-.2-.1-.2-.1.4-.5a4 4 0 0 1-.6.4l-.3-.2.4-.3.3-.2.2-.2v.1l.1.1.1.2H3l.1.2h.1v.1l.2.1.2.1h.2l-.7-.9H2.7v-.1l.1-.1-.8-.3h.9l.3.3h.5c-.3-.1-.4-.2-.4-.4v-.4l-.1-.2-.2-.2V69.2h-.1v-.3l-.1-.4V67H3l.1-.2-.4-.3v-.2c.2 0 .3.1.3.2l.1-.1-.4-.6v-.3l.3.2.1-.4c-.2-.2 0-.5-.4-.6h.6l-.2.6.3-.4v-1.3c.1-.5 0-.7-.3-1h-.5l-.2.3a2 2 0 0 1-.3-1l.1-.6v-1.1l.3-.1v.4l.4.1.2.7h.3v-.9c-.2-.3.3-.7-.3-.9v.6l-.1.4-.2-.7v-1.2.2c.4-.2.3-.5.2-.8 0 .1 0 .2-.2.3v-1l.2.6c.3-.2.3-.5.2-.8-.2-.2 0-.4.1-.5v-.2c.5-.2.5-.5.2-.9V55.2h-.2v.6l-.2-.6H3v-.3h-.2l.1-.1v-.5h.2l-.3-.4v-.2h-.1l-.1.5v-.8c-.1-.2 0-.5.1-.8v.4H3c0-.2 0-.4-.2-.5v-.4c-.4-.5-.7-.9-.6-1.3h.2v-.2c0-.2.2-.3.5-.5v-.3c-1.5.2-2-.9-1.6-1.4l.1-.2v-.5.3l-.1-.6H1v-2.1l.3.2c.3 0 .4-.2.4-.4l.1.3v-.1l.1-.1-.1-.1-.2-.4-.2.2-.2-.3-.1.2c-.3-.3 0-.6 0-1l.1.4.2-.4h-.2l.4-.4c-.3-.5-.2-1 0-1.5v-.1l-.2-.4h-.2v.1l-.5-.2v-.4h.4l.1.6.1-.3V41h.2l.2-.3.1-.4-.5-.3v-1c.2-.2.2-.5.1-.8a2 2 0 0 0-.3-.9l-.2.3H.5l.7-.3h.2c.6-.3 1.2-.6 1.2-1.1l-.1-.2V36L2 36v-.2l-.5-.3c-.1 0-.4 0-.7-.2V35H1v.2l.4-.1v-.4l-.3-.5v.5l-.2-.2c.1-.3 0-.4-.3-.6l.4.3-.2-.4-.2-.2c.1-.3.5-.6 0-1l-.4.3-.2-.5h.3c.2 0 .5.1.6.3V32l-.2-.6v-1.6l.1-.2v-.1H1c.2-.2.4-.2.5-.2.8-1.1 1.3-.7 1.8 0L3 29c-.3-.2-.3-.3-.2-.5l-.1-1V27l-.2-.7.2.2v-1h.6c-.1-.4 0-.8-.3-1.2l.1-.6.1-.2-.3-.8v-.4c.2-.2 0-.5.1-.7 0-.2 0-.4.3-.5V21c-.4 0-.3-.2-.5-.3l.5-.1v-.3c-.2.2-.2 0-.2 0l-.1-1.8.1-.4.1-.1v-.1l.2-1-.2-.2c.2-.2.4-.7.4-.9-.2.2-.3.5-.7.5 0-.2 0-.3.2-.4l.4-.8-.2-.3H3v-.4l.7-.2-.2-.5-.5.3c-.3-.3-.2-.6 0-.8L3 13v-.4l-.4-.6.1-.3.2.3c.2-.3.2 0 .3 0h.3l-.1-.5v-.7c0-.4-.2-.8 0-1 0-.5 0-.7-.3-1h-.5l-.2.2a2 2 0 0 1-.3-.8c0-.4-.1-.6 0-.8V6.3l.3-.1V6v.6l.5.1.1.7h.3c0-.3.2-.7 0-1v-.7c0-.3 0-.5-.3-.7V6.6L3 6.5v-.3l-.1-.6v-.3l.2-.3v-.1l-.2.1v-.8H3V4l.2-.2V3.3l-.1.2-.2.2.1-.4v-.1l.1-.1V3l.1-.1.6-.7-.8.6.1-.2-.2.2-.1.2-.2.4v-.2h-.2v-.4l.1-.2.1-.2.1-.2.1-.3.3.2.2-.1.3-.2.2-.2H4c0-.1 0-.2.2-.2l-.6.1.8-.3.7-.2 1 .1a7 7 0 0 1-1.2.3l-.2.1-.1.1-.1.1H4.8l.2-.1H5.3l.2-.2h.1l.2-.1h1.4c1.3.7 2.6 1 4.2.3 1.2-.5 2.6 0 3.8 0 .2 0 .2.3.5.3.6.2 1.1 0 1.7.1 1.5.2 3 0 4.6 0 .4 0 .7 0 .8-.3.5-.2 1-.2 1.5-.2.5.2.8.7 1.5.5.6.1.9-.1 1.2-.3 1-.2 2-.1 3 0a48.6 48.6 0 0 0 8.6-.4h2.2l1-.1h4.1c1.7 0 3.4 0 5-.6h.1a152 152 0 0 1 2.2-.1c.4.2 1 .3 1.5.2l2.5-.1h6c.3.1.7.2 1 .1a95.3 95.3 0 0 0 8 0H72l.2.1h.1a12.6 12.6 0 0 1 2 .3h7.1l.8.1c.2 0 .3-.1.5-.3a94.4 94.4 0 0 1 .6 0l-.5.3h.1l.8-.1c.7.2 1.4.4 2.1.4l1.9.2c1 .1 2.2.2 2.9-.5L91 1h-.3l.3-.2h1-.9.6C93.4.6 95 .4 96.7.5l.3.2c-.2 0-.4 0-.4.2h-.4c.4.3.9.2 1.4.2L97 1h.4c.3 0 .6.2.9-.1h.8l-.6-.1.1-.2c.2-.2.8 0 1.2 0l.2.1h-.1l.6.2-.1.3c-.1.2-.2.3 0 .4.3 0 .4 0 .4-.2s.2-.3.5-.3h3.6c2.7.2 5.4.3 8.2.3.7.2 1.3.6 2 .5a9.1 9.1 0 0 0 3.5.5c1.1-.2 2.2-.2 3.3 0l2-.2c.4 0 .8 0 1-.3.3-.2.2-.3-.2-.3-.5-.2-1.1-.3-1.6-.7-.3-.3-.3-.4 0-.7.5-.4 1.1-.3 1.7-.2l-.7.1c.8.1 1 .2 1.3 0 .5.2.7.5.4.8-.3 0-.2.2-.3.3-.3.5.4.3.6.3.6-.1 1.1-.3 1.7-.1.1 0 .2 0 .2.2.5.2 1 .1 1.5 0 .4 0 .8-.3 1.3-.2.2.2.5 0 .7.1.6.3 1.2 0 1.8 0 1 .3 2 .1 3 .3.4.2 1 0 1.3.3.3.3.7.5 1.3.5h.2c.2.3.5.2.9.2l1.7.4.7-.1c.6 0 1.4.1 1.9-.3.2-.2.5-.3.5-.6-.4-.2-.6-.5-1.3-.6-.4 0 0-.2 0-.4.5-.2 1-.2 1.6-.3.9 0 1.7-.3 2.3.4.2.1.5.1.8 0 .3-.4.9-.4 1.5-.4h.3c.9 0 1.5-.5 2.2-.5h3.2l2.9.4h-.7v.2h1l.1-.1h.5-.2l.6.1h-.1 2.9c.5.2 1 0 1.6 0v.1h.4c1.6.3 3.2 0 4.9.3l.8.1c.5.2 1.1.3.9.8-.5.2-1 .2-1.7.3.8.3 1.6 0 2.3.2.3 0 .6.2.9 0 1.5.6 2.8.8 4.3 0 1.1-.6 2.8-.4 4.1.1 1.3.5 2.6.8 4 .2.7-.3 1.7-.3 2.4 0 2.6.5 5.3.3 8 .2l10.4-.3c2.7 0 5.3-.2 8-.7 1.5-.3 3.2-.4 5-.3l8-.2 1.8-.2c3.9-.2 7.6.6 11.5.6l7.2-.1h3c2 0 4 0 6-.3 2-.4 4-.6 6-.5h1.2c3.4.3 6.7.2 10.1.1 5.5-.1 11 .1 16.4.3 2.2.1 4.4 0 6.6-.3 1.8-.1 3.7-.3 5.5 0h12l.1.1.2.1.1.2.2.1v.2l.1.1v.2l-1-.8v.1l.7.7.1.1v.1l.1.2.1.2v.2h.1l.2.3v.2l.1.2v.4l.1.2v1.6l.1.3v.1-.1l.1-.4V5c.3.2.3.4.3.7v1.7h-.3l-.1-.7-.4-.1V6l-.3.2v1.2c-.2.1-.2.4-.1.7 0 .3 0 .6.3.9l.2-.3h.5c.2.3.4.5.2 1-.1.2 0 .6.1 1V12h-.2c-.1 0 0-.3-.3-.1l-.2-.3c-.2.6-.2.6.3 1 .1.4-.6.7 0 1.2l.4-.3.2.5c-.3 0-.5 0-.6.2l-.1.4h.4l.2.3-.5.8c0 .1 0 .3-.2.4.5 0 .6-.2.8-.4 0 .2-.2.7-.4.9l.2.1a27.6 27.6 0 0 1-.2 1.1v.1l-.2.4.1 1.7c0 .2 0 .3.2.1v.3l-.5.1c.2.1.1.4.4.3l.1.3c-.3 0-.2.2-.3.4l-.1.8v.4l.3.7-.1.3c0 .2-.2.4 0 .5.2.4 0 .9.2 1.3h-.6v1c0-.2-.1-.2-.3-.3l.2.7v.5l.2 1c0 .2-.1.4.2.5V29.3c-.4-.7-1-1.2-1.7 0 .1-.3.1-.6-.2-.7-.3 0-.4.2-.5.4l.4.1.3.1-.5.1v.1h-.1v.3c-.1 0 0 .1 0 .1v.8h-.1v.7l.1.6v.4l.1.5c-.4-.5-.9-.7-1.5.3.3-.2.6 0 .9 0 0 .2.2.3.3.4v.1l.1.1v.1c.2.1.2.3.3.4l-.4-.2.4.7h.1v-.4l.3.4v.4l-.5.1.1-.1h-.1v.2l.7.1.5.3v.2l.3.2V36l.1.1v.2c.1 1.3-4.3 1.3-3 2.8 0 .2 1.3.7 2.4 1.3l-.1.4-.2.4a1 1 0 0 0-.9-.2h-.4l.2.2h.1c.5.2 1 .5 1.1.7-.3.5-.4 1 0 1.5l-.5.5-.1-.2c-.1.2-.3.3-.2.5-1 1-2.3 2.2-.7 3.4h.4s0 .2.3.3v-.4h.3l.1.5.2-.3v.5h-.1v.2c-.5.5 0 1.6 1.5 1.4v.3c-1.2.8-.7 1.2-.1 2v.8-.3h-.1a1 1 0 0 0-.2.9V55l-.2-.1c-.3 0-.4.1-.5.3V55v.1h-.2l.2.2.2.3h.2l.1.2.2-.2c.2.3 0 .6 0 1l-.2-.4-.2.4h.8l-.1-1c0-.2 0-.4.3-.4v.6l.2-.6h.1v.2c.1 0 0 .1 0 .2.4.3.4.6-.1.8Zm-2-13-.2.1.2-.1Zm-.7-1 .3-.3v1.2h.2l.1-.6v.2l.1-.8s0-.3-.3-.2l-.2-.3c-.4.2-.2.5-.2.8Zm.4-1.8h.1v-.3l-.1.3Zm-.8 2.2v.5c.2-.2.2-.3 0-.5Zm1.5-6.3.1.4h.2v-.2l-.3-.2Zm1.3-19v.3h.2v-.3h-.2Zm-.8 7.3.2-.7h-.6v.2l.4.5Zm.1 2v-.2.3Zm.1.5v.3-.3Zm.3-1.9c-.4.1-.4.3-.3.5h.2v-.5Zm0-4.8c0-.2-.1-.4-.4-.6 0 .3-.2.5-.1.6V21.9c0 .3-.2.6.1.9 0 .3.2.6-.2 1a4 4 0 0 0-.2-.3l-.2.3h.9c0-.5.2-1 0-1.4 0 0-.1-.1 0-.2.2-.3 0-.7 0-1v-.5l.2-.1V20v.5Zm-1-15.1h.1V5h-.1v.5Zm.5 12c-.1.2-.1.3 0 .4l.2.1h.1v-.1l-.3-.4Zm.2-.2V17l-.2.1h.2Zm0 2.2v-1l-.3-.1c-.2.4.3.7.4 1.1Zm.4-9.9.4.1c-.2-.4-.2-.4-.4 0Zm.3.4h-.2l.1.3h.2l-.1-.3Zm-.4.9c.3.1.2.4.4.6l.1-.7-.5.1Zm-.5-1.5.2.2v.3h.1v-.8l-.3.3Zm.1 1v.3-.3Zm-.4 4c0 .3.3.3.2.5l.1.2.3-.2v-.3l-.6-.1Zm0-10.3h.2v.2h.2l-.1-.7c-.2 0-.3.2-.3.3V4Zm.4.1v.5c-.3.5-.2.7 0 1 .2-.6.3-1 0-1.5Zm-.8-1.8.1.2v.2l.1.2V3l.4.4.3-.2v-.1l-.2-.1V3l-.2-.2-.2-.2h-.2l-.1-.2Zm-.2 25.3-.1.2.3.2.1-.1-.3-.3Zm-.5-4h.4l-.2-.6h-.1v.6Zm.2 3-.4.1v.9l.1.2.2.2.3-.2v-.2c.2-.7-.2-1.4.1-2.1-.3-.4-.1-.8-.2-1.1l-.3-.2c0-.1.3-.2 0-.4v.4c-.2.1-.2.2 0 .4 0 .2-.2.5 0 .7-.2.1.2.4 0 .5-.4.3.3.3.1.5v.3Zm-.7-2h.1v-.5h-.1v.5ZM2.6 7.3l-.1.7.1-.7Zm.2.6v.3c.2-.1.4-.3 0-.3ZM1 29.3l.1.1h.2l-.2-.1Zm.1 4V33v.2Zm.5-1.2c0-.2-.3-.3-.1-.4l-.2-.2c-.1 0-.2 0-.3.2v.2l.6.2Zm.6-2.7c-.3-.2-.5-.3-.8-.2l.2.2h.6Zm.2 6.6v-.1ZM2 40.5c.2.3.2.4.1.6v.3l.5-.6-.6-.3Zm.1 4.5v.3c.2 0 .1-.1 0-.3Zm-.3-4.2v.2H2l-.1-.3h-.1Zm.2 3.7-.2-.1.2.1Zm.4 3.6v-1l-.3-.1c.1-.2.3-.3.1-.6-.2.6-.3 1.1 0 1.7l-.5-.4.1-2-.1.6-.2-.2v.4h.1l.1 1-.3-.1v1.5H2c.4 0 .3.2.2.3-.3.2-.1.4 0 .6v-1.7Zm.5.6a7 7 0 0 0-.3.3l.3.1v-.4Zm.4 1.1H3v.1l.3-.1Zm0-28v.5-.4Zm-.2 37.5-.3.2H3l.2-.2Zm-.5 2-.1.6.1-.7Zm.2.5v.3c.2-.1.4-.3 0-.3Zm.6-4.1v-.5c-.1.1-.2.3 0 .5Zm0 14.5-.2-.3-.3-.1a1 1 0 0 0-.4-.1h.2l.2.2.2.1.1.1h.2Zm3-1.4.4.1h-.2l-.2-.1ZM5.1 55.6l.2.8c0-.3.3-.6-.2-.8ZM5 17.1V17v.2ZM4 2.7V3l-.1.2.5-.6-.2.1-.2.1ZM4 2h.2-.3v.1h.1Zm0 69.5c0-.3-.4-.5-.7-.8v.2l.2.2.2.2.3.2Zm1.5.8s.2-.2 0-.3l-.1-.1-.2-.1-.1-.1-.2-.1h-.4v.1l.2.1.2.2h-.2l-.3-.2h-.2l-.3-.2.2.2.1.2h.2l.6.4h.5Zm1.4 0-.2-.1-.2-.1H5.8l-.2.2h-.2.2l.2.1.4.1h.6c.2-.1.1-.2 0-.2ZM8.1 2.5l-1.3.2H8l.2-.2Zm46.4 70.3h-.1v.2l.1-.2Zm13.9-.4.9.1h.1l-.2-.2-.8.1ZM64.1 1l1 .1.1-.2-1.1.1Zm-7.7 71c.2.3.5.1.8.1-.3-.1-.6 0-.8 0Zm7.3.7H57.8c1 .1 2 .2 2.8 0l-.5.3h-3.6 1l-.2.1h2.5-.3l2.6.1V73H62v-.1c0-.2.4-.2.6-.1.4.2.7 0 1 0h.1Zm.2-.3c.6.2 1 .2 1.4 0-.4-.2-.8 0-1.4 0Zm.8.6h-.6.6Zm.8-.2-.2-.1h-1.1c.7.2.8.2 1.3 0ZM66.1 1c-.2 0-.2-.2-.7 0h.7Zm.8.3h-.8.8Zm6-.3-.4-.2h-5.9l-.5.2c.3.1.6.1.8 0h1.2c.3.2.7 0 1 0 .4.3.5-.2.9 0h.3l.2.1h2l.3-.1ZM75 71c-.4 0-1-.3-1.3 0H75Zm.3-68.6h-.3.3Zm1 70.3-.3-.2.2.2Zm1-.6h-1 1Zm13.4.3h-.4.4Zm4.3-71.2h.4-.4ZM93.9.9l.5.1-.5-.1Zm-1.2 71.4h-.2l-1.1.2h.8l.5-.2Zm5.8 0c-.4.2-.9 0-1.3 0l-1.7.1c-.8 0-1.6.1-2.2-.2l-.6.3H94l-1 .2.7.2.3-.3H98.3l.2-.3ZM99 1.4h-.9 1Zm.4-.4-.2-.1h.2Zm1 70.1h-.3.3Zm1.3-68.7-1.3.1c.4 0 1 .3 1.3 0Zm7.7 69.7h-.8.8Zm.6.3h-.6c.1 0 .2.2.6 0Zm1.4.1-1-.1v.2h1Zm8.2.6-2 .2h1.9l.1-.2Zm1.5 0h-.7l-.2.2h.2l.7-.1Zm.7.2H121.6 121.9Zm4.6-.3c-.4 0-.4.2-.8.1l-.3.1.3.2h.5l.2-.4Zm15 0h.5v-.1h-.5Zm1.3.3-.6-.1h-1c.6.2 1 .2 1.6 0Zm.7 0c-.2-.3-.2-.3-.8-.1.3.1.6.2.8 0Zm14.2-71c.4.3.7.2 1.3.1-.6-.2-.9-.2-1.3 0ZM148 72.8h-.2v.2h.1v-.2Zm1.3 0h-.5.5Zm1-69.6h.4l1.5-.1h.4c1.2 0 2.3.1 3.5-.1.4-.1.2-.4.6-.6l-1.1.1c-.6-.1-1.1.4-1.7 0h-2.1L150 2l-.3-.5c-.3.1-.4.3-.5.5v.3h-.2c-.6-.1-1.2.3-1.8 0h-1c.3.4.7.3 1 .3l1.7.1c0 .6.7.5 1.3.5Zm6.9 69.5H151.4c1 .1 1.9.2 2.8 0l-.6.3H150h1l-.1.1h2.5-.4l2.7.1V73h-.2v-.1c0-.2.4-.2.6-.1.5.2.8 0 1.1 0h.1Zm1 .3h-.7.7Zm.8-.2-.2-.1h-1.2c.7.2.9.2 1.4 0Zm1.4-71.4h-.9.8Zm2.5 71-.3-.1-.7.1.8.1h.2Zm3.6-69.7c-.3-.2-.5 0-.8 0 .3.1.5 0 .8 0Zm2 68.3c-.4 0-1-.3-1.3 0h1.3Zm.4-68.6h-.4.4Zm1 69.7h.9-1Zm0 .6-.4-.2.3.2Zm2.5-.2.4-.1c-.4-.2-.9-.1-1.4-.1l.6.1H170l.1.1.9.1h-.3 1.3c.2 0 .6 0 .5-.1Zm1.6-.2h-.5.4Zm1.1.3-.4-.1h-.1l.5.1Zm1.8 0h1.2l-1.2-.1Zm1.3.5c-.7-.2-.8-.2-1.3.2-.5 0-1-.3-1.5 0H177.4c.2-.2.5-.2 1-.2Zm.3-.7c-.2 0-.5-.3-.5 0h.5Zm3.2.5h-.7v.2h.3l.4-.2Zm1.7.2h-.7l-.3.2c.6 0 1 0 1-.2Zm.9-.7h-.5.4Zm9.3-1.3h.4-.4Zm-1.8 1.4c.3.1.6.2 1 .1-.3-.2-.7-.1-1 0Zm-5.7-.2h-.1l-1.2.2h.9l.4-.2Zm2.5.6h-1 1Zm2.6-.3h.5l.2-.3c-.4.2-.8 0-1.2 0l-1.8.1c-.7 0-1.5.1-2.2-.2l-.5.3h1.1l-1 .2.7.2c.3-.1.4-.2.3-.3h3.9Zm1.7.3-1-.1c-.1 0-.2 0-.3.2l1.3.1V73Zm1.4-.2s0-.2-.2-.2l-.6-.2c-.2 0-.4.1-.3.2l.5.1h-.2l-.7.1.7.2c.4 0 .7 0 .8-.2Zm.4-.4-.2.2-.1.2h1c.1-.2-.3-.3-.7-.4Zm7.4-.2h.9-.8Zm.8.3c-.2-.1-.5-.1-.8 0h-1.1c-.3-.2-.8 0-1 0-.5-.3-.5.2-.9 0h-.3l-.3-.1h-2l-.3.1.4.2H202.6l.4-.2Zm.7 0h-.7c.2 0 .3.2.7 0Zm1.3.1-1-.1v.2h1Zm15 .5c-.3 0-.4.2-.7.1l-.3.1.3.2h.4l.3-.4Zm6.3.8v-.4c-.2.2-.8.2-1 .3h1Zm.7-.6h-.4.4Zm.9.5h-.6.6Zm.5-.2c0 .1 0 .2-.2.3.7-.1.7-.2.2-.3Zm1-.2-.5-.1h-.5l-.5.1h1.5Zm5.6-.4h.6-.6Zm1.3.4-.5-.1h-1.1c.6.2 1.1.2 1.6 0Zm.8 0c-.2-.3-.3-.3-.9-.1h.1c.3.1.5.2.8 0Zm4.5-.5h-.2v.2h.1l.1-.2Zm1.3 0h-.5.5Zm8-.1h-6c1 .1 2 .2 2.8 0l-.5.3h-3.6 1l-.2.1h2.5-.3l2.7.1-.1-.3h-.1v-.1c0-.2.4-.2.6-.1.4.2.7 0 1 0h.1Zm1 .3h-.7.6Zm.7-.2-.2-.1h-1.1c.7.2.8.2 1.3 0Zm4-.4-.3-.1-.8.1.9.1h.1Zm5.6-1.4c-.4 0-1-.3-1.3 0h1.3Zm.3-68.6h-.3.3Zm1 69.7h1-1Zm0 .6-.3-.2.2.2Zm2.5-.2.4-.1c-.4-.2-.8-.1-1.4-.1l.7.1h-2.2l.2.1.8.1h-.3a88.3 88.3 0 0 0 1.8-.1Zm1.6-.2h-.5.5Zm1.2.3-.5-.1.4.1Zm1.8 0h1.1l-1.1-.1Zm1.3.5c-.8-.2-.8-.2-1.3.2-.5 0-1-.3-1.6 0h1.9c.2-.2.5-.2 1-.2Zm.3-.7c-.3 0-.6-.3-.6 0h.6Zm3.2.5h-.8v.2h.3l.5-.2Zm22-.3h1.2v-.2h-1l-.1.2Zm-1.6-.5h.8-.8Zm-8.2-69.6c.4 0 1 .3 1.3 0h-1.3Zm-.3 68.6h.3-.3Zm-1.9 1.4c.3.1.6.2 1 .1-.2-.2-.6-.1-1 0Zm-8.3.6h-.7l-.3.2c.6 0 .9 0 1-.2Zm.8-.7h-.4.4Zm1.3 1a43.7 43.7 0 0 0 0 0Zm.6-1.1h-.2l-1.1.2h.8l.5-.2Zm.9 1-.6-.1h.6Zm.3-.7-1 .1.7.2.3-.3Zm1.3.3h-1 1Zm.9.4h-.7.7Zm1.6-.7h.6l.2-.3c-.4.2-.9 0-1.3 0l-1.7.1c-.8 0-1.6.1-2.2-.2l-.6.3h1.2l1 .1h2.8Zm.4.4 1.4.1V73l-1.1-.1-.3.2Zm1.6.3c-.5-.1-.7 0-.8 0h.8Zm2.2-.7c.1-.1-.2-.2-.7-.3l-.2.2-.1.2s0-.2-.2-.2l-.6-.2c-.3 0-.4.1-.4.2l.6.1h-.2l-.7.1.7.2c.4 0 .7 0 .8-.2h1Zm.7 1.1c-.5 0-1-.3-1.4 0h1.4Zm.9-1h-.2l-.4.1h.2l.4-.1Zm.4.9h-.4l.1.1.3-.1Zm.4-.3h-.6.6Zm1.6.1H292v.1c.4 0 .8.1 1.1-.1Zm-.5-.2h-.5.5Zm1.8-.5c.6-.2 1.2 0 1.8-.2l.4-.1h-1.9c-.3-.2-.7 0-1 0-.5-.3-.5.2-.9 0h-.3l-.2-.1h-2l-.3.1.3.2H294.3Zm.3.8c-.2-.2-.5-.2-.9-.2v.1h.9Zm2.3-.5h-.3l-.9.2 1.2.1V73Zm.3-.6h-.6c.2 0 .2.2.6 0Zm7 .9h-.5l-.3-.1h-5.9l.5-.2h-.6v.4h5.3l.2.1h.8-.7.4l.3-.1h.1l.3-.1Zm4.4-.3h-1l-.1.1h-.2a3 3 0 0 0-.3 0l-1.5.2h3V73Zm2.3-43.4v-.2.2Zm-.1 15.2-.2-.7c0 .2-.3.6.2.7Zm-.5 28.2.4-.2H310a1 1 0 0 0-.4.1l-.2.2h.4l.4-.1Zm1 .2h-.5l-.2.1h-.2l.1.1h.4l.4-.2Zm.3-.6h-.4v.1h.3l.1-.1Zm2.6-3.3v.2l.1.1v.5c.1 0 .2 0 .3-.2l.1-.2v-.2l-.2-.2-.3-.1Zm0-19.3v.4c.2-.1.2-.3 0-.4Zm-.6.4c.3-.5.3-.5.2-.8l-.2.1v.7Zm.2 4.8v.3-.3Zm-.1-2.8.5.3-.1 2.1c0-.2 0-.4.2-.6v.1-.4l-.1-1 .3.2c-.1-.5 0-1 0-1.6h-.5v.1h-.2c-.3 0-.2-.2-.1-.3.2-.3 0-.5 0-.7h-.1v1.8l-.1.9s.2 0 .3.2c-.1.2-.3.3-.1.5.2-.5.3-1 0-1.6Zm.4 3.6h-.2.2Zm0 3.7v-.3h-.1v.3h.1Zm1.4 4.4-.1-.3-.2.1.1.3h.2Zm-.4-.6.4.1c-.2-.4-.2-.4-.4 0Zm-.4 1v-.2h-.1v.3Zm-.2-1.2.2.2v.3h.1V63l-.3.3Zm.1-4.3v.3c-.3.2-.2.4 0 .6.2-.3.3-.6 0-1Zm-.1 0h.1c.1-.2.2-.3 0-.5-.3.2-.3.2-.1.5ZM303 73.5ZM2.8 56.6v-.8c-.2 0-.2.2-.2.2.2.3 0 .4 0 .6h.2Zm311.5-16.1c.2.3.2.4.1.6v.3l.5-.6-.6-.3ZM13.3 73H13h.1Zm301.2-24.4Zm1 1.3a8 8 0 0 0 0-.1h-.2l.1.1Zm-.5 8.5ZM2.8 20.1v.1ZM25.3 73Zm-23-8.4v-.3.3Zm0 2.4h.1v.2h.1v-.4l-.1.2Zm.1-4-.2.3.1.2.1.3h.1V63ZM2 69.7l-.1.1v.3c.2 0 .3 0 .4-.2v-.2l.1-.2-.2-.2-.3-.1V69.6l.1.1v.1Zm-.4-.9c.2.2.5.3.8.3V68c-.3.3-.1.7-.8.8Zm.2-9.1Zm.4-8.2Zm0 7.8c-.2.2-.1.4.1.6.2-.3.2-.6 0-1l-.1.4ZM1.8 50l.1.4c.2-.1.2-.3-.1-.4Zm.5 7.7c-.2.5-.2.5 0 .8v-.8ZM2.2 59h.1c0-.2.2-.3 0-.5-.4.2-.4.2-.1.5Zm.2-2.4v-.2l-.1-.2-.2.4h.3Zm98.9 17.1Zm-7.8 0 1.1-.1a50.5 50.5 0 0 0-1 0Zm.8 0h.6-.6ZM10.2 73Zm79.5.3-.2.2h.7-.3l-.2-.2Zm-13-.1.4.2c.8 0 1.5-.2 2.3 0 0-.2.4-.4 0-.4h-.2l-2.2.1h-.2ZM23 72.5ZM2 55.5h.1l.2.3V55H2v.5Zm81 16.7Zm31.9 1.2h-.2a48.5 48.5 0 0 1 .9 0h-.7Zm-7.2-.7Z" fill="#000"/></svg>