<svg fill="none" xmlns="http://www.w3.org/2000/svg" viewBox="0 0 1597 167" preserveAspectRatio="none"><path d="m1495.6 161.8.5.4h.6l.3-.2.1-.1.2-.3.2-.4v-.5c-.7-1.2-1.9.3-1.9 1ZM1493.9 160v-.1l-.2-.2-.1-.2h-.2l-.1.2-.1.1V160.1h-.1v.4c0 .2.2.2.3.2h.3l.2-.3v-.5ZM1583.2 151.5l.3.2.3-.1.2-.2v-.5c-.4-.8-.7.2-.8.6ZM1520.5 160h-.4l-.1.2v.2h-.1v.2c.2.2.4.7.8.3.2-.1.2-.3.2-.4l-.2-.4-.3-.1ZM1464.8 164.3c-.4 0-.6.1-.8.4v.4c-.6 1.6.9 2 1.6.6v-.1c-.2-.6 0-1.3-.8-1.3ZM1010.5 127.5c-1.1-2.7 2.8.2 0 0ZM1010.5 121c.2-.3 0-.4-.2-.5l-.1-.3h-.5c-.3 0-.6-.1-.6.3v.1c-.2.3-.3.5-.2.8l.4.4c.6.3 1 0 1-.5.1 0 .2-.1.2-.3ZM1006.9 132.2c0 .8 1.4.7 1.4 0 .1-1-1.5-1-1.4 0ZM996.6 128c-.6.2 0 .6.3.7.3-.3.2-1-.3-.7ZM1000.7 128.3c-.1-.4 0-.8-.6-.9-.4 0-.7 0-.9.5-.3 1 1.1 1.3 1.5.4ZM1021.3 133.3l-.4-.4-.2-.5-.7-1.7-.5-.8c-.3-.4-.6-.9-1.3-.6-1 .4.2 1.4.4 2l.5 1.1.3.8-.2.4.2.3c-.2.4-1.2.7-.8 1.3.4.6 1-.2 1.3 0 .6 0 .3.5.5.8.2.3.6.5 1 .3.4-.7-.3-1-.4-1.5 0-.8.7-.8.3-1.5ZM994 128.2c-.5.5.4.4.7.3 0-.3-.5-.6-.7-.3ZM1007.8 128.1c.3.5.9.3 1 0-.2-1-1.4-.6-1 0ZM1018.4 125.1c-.2-.2-.6-.7-1-.5-.1 0 0 .5-.2.7-.6.6-1.8.6-2.7 1-1.5.6-.3 1.5.7.7l.7.3c.3 0 .4-.1.5-.4.2 0 .4-.2.5-.3.5-.2 1.1-.1 1.5-.4.5-.3.3-.7 0-1ZM970 122v-.3h-.1v-.1l-.4-.2-.2.4v.4h.1l.2.2H969.9l.1-.1v-.3ZM1015.7 136.5l-.4.2c-.3.3-.8.6-.8 1 .4 0 1-.3 1.3-.7v-.5ZM1030.6 128.1l-.1-.1-.3-.1-.1.2v.5l.1.1h.2v-.1l.2-.1v-.4ZM999.6 120.1v.2h.3v.1h.6l.2-.2v-.5l-.2-.2h-.4a1 1 0 0 0-.3.1l-.3.3v.2ZM996.5 127.8v-.8l-.3-.3-.2-.2h-.1l-.4-.2h-.5l-.2.2v.5a1.9 1.9 0 0 0 .5.5c.1.1.3.3.5.3l.3.1H996.4v-.1ZM993.2 127.6l-.2-.2-.4-.2-.2.3v.4l.1.1h.6l.1-.1V127.6ZM994 122.2v.1h.1l.1.1h.1l.1.1h.4l.1-.2.1-.1V121.4h-.1l-.2-.1h-.2v.1h-.1l-.1.1-.1.2-.2.1v.1l-.1.2v.1ZM1002 121.5l-.1-.1h-.2l-.1.1v.1l-.1.1v.1l-.1.2-.1.3v.2c.3.6 1-.2.8-.7v-.3ZM996.1 122.6h.1v.1h.5l.1-.1h.1v-.1l.1-.1h.1V121.6l-.1-.1h-.3c-.1 0-.7.6-.7.8v.2h.1ZM996.2 124c-.6.3-.6.8-.4 1.3.2.4.8.7 1.4.5.7-.3.7-.8.5-1.2-.4-.5-1.3-1-1.5-.7ZM1005 127.4a1 1 0 0 0-.4.6l-.1.1v.4h.1l.2.2.4-.1c.3-.3.3-1 .1-1.3l-.3.1ZM991.7 129.2l-.2-.3a3 3 0 0 0-.3-.3l-.4-.3a3.2 3.2 0 0 0-.5-.3H989.7l-.3.1v.2l-.1.1v.2a1 1 0 0 0 .1.3v.1l.2.2a2.8 2.8 0 0 0 .6.6h.1l.3.2.3.1h.6l.2-.2.1-.3v-.2l-.1-.2ZM1009.3 123l-.1-.2h-.1l-.1-.2h-.1l-.1-.1h-.2l-.1-.1h-.2v.1h-.1l-.1.3v.5l.3.2h.6l.1-.1.3-.2v-.2ZM1001.6 134.8v-.1l-.1-.1h-.3a.7.7 0 0 0-.3 0l-.2.2v.1l-.2.2-.1.3v.8h.1l.2.2h.2l.2-.1.1-.1.1-.1.1-.1.1-.2.1-.3v-.7ZM1004.2 123.5v-.2l-.2-.2-.1-.2-.1-.1-.2-.1h-.3c-.2 0-.3.2-.3.3l-.2.5a4.2 4.2 0 0 0 .1 1h.1l.3.1h.4c.2 0 .3-.2.3-.3v-.1l.2-.3v-.4ZM1254.6 142c.2 0 .3.3.4.3.2.1.3.2.7 0 0 0 .2 0 .3-.2l.3-.3v-.1l.1-.3V140.8c-.6-1.2-1.8.3-1.8 1.1ZM1252.8 140l-.1-.2h-.1v-.1h-.2l-.2.1v.2h-.1v.6c0 .2.1.3.2.3H1252.6l.1-.1.1-.2v-.2h.1v-.3ZM1279.4 140.1H1279.1v.1l-.2.2v.4c.2.2.4.6.8.2l.2-.3-.2-.4-.3-.2ZM1111.9 151.6c-.5 0-.8.3-1 .7l-.1.4c-.6 2 1.2 2.5 2 .7h.1c-.3-.8 0-1.7-1-1.8ZM1196.2 144c.3.3.9.7 1.4.7l.5-.1.1-.1.1-.2-1-.4h-1.1ZM1190 128c0-.2-.1-.2-.2-.3h-.4l-.1-.1h-.8v.1c-.2 0-.3.2-.5.3l-.2.3v.4l.1.2h.1l.2.2H1189.3l.1-.1.3-.2.4-.3V127.8ZM649 129.9c-.4 0 .3 0 0 0ZM821.4 122.9c0-1 1 .3 0 0ZM863.6 144.4h-.1v.3h.4v-.3h-.2ZM894.3 138.2v-.2c-.3-.6-1.2-.7-1.7-.6-1 .2-.3.4-.9 1-.6.7-1.4.5-1.6 1.5.5 0 1.1-.2 1.6-.1.8.2.5.5.8 1.1.2.6 1.3 1.6 1.6.5v-.3l-.2-1.4v-.1c0-.4.4-1 .4-1.4ZM892.1 146.3l-.1-.2h-.1l-.1.2-.1.1v.2h-.1v.5h-.1v.1c.8.7.4.6.6 0v-1ZM889.1 137.8l-.1-.2-.1-.1-.2-.2h-.1l-.3-.2h-.5v-.1h-1.3l.3.5.5.4c.3.1.6 0 .8.2.2 0 .4.6.5.6.4.2.5 0 .6-.2v-.5l-.1-.2ZM885.5 135.5a1.4 1.4 0 0 0-.6-.4H884.6l.6.9.3-.1v-.4ZM890.6 151.5l.3.2.3-.1.2-.2v-.5c-.4-.8-.7.2-.8.6ZM818 125v-.2l-.2-.3-.3-.2h-.1c-.1 0-.3 0-.4.2l-.1.4v.4l.1.3.2.3.2.1H817.7c.1 0 .2 0 .3-.2l.1-.4v-.5ZM845.2 134.5l-.2-.3H844.1l-.1.1h-.3l-.4.2-.1.1v.1h-.1v.1c0 .2.1.2.3.3l.2.1h1l.4-.2.1-.2V134.4ZM854.2 134c-.5-.3-1.2-.2-1.4.2l.4.3c.4.1 1 0 1.3-.3l-.3-.3ZM865.5 121.6h.6l-.6-.4v.4ZM842.3 123.6h-.1l-.2-.2h-.4l-.3.2h-.1c0 .2-.2.2-.2.3l-.1.1-.2.2v.2l-.2.2v.4l.4.6h.6l.4-.2.1-.1.3-.3v-.2l.2-.2V124l-.2-.4ZM877.5 125.5c.2.2.6.7 1 .3.5-.6-1-1.4-1-.3ZM883.7 124.6h.3v-.3c-.1-.1-.2.1-.3.3ZM835.4 130.8c-.1-.2-.2-.2-.4-.3v-.1c-.2 0-.3-.1-.3-.2h-.1l-.4-.3c-.2-.3-.4-1.2-.8-1.6-.2-.2-.5-.2-.9.2l-.3.4v.4l.1.1.3.2.4.2.2.1h.2l.2.2c.2 0 .2.1.3.2.2.2.3 1.1.6 1.5.2.2.4.2.8-.2l.2-.3v-.5ZM884.9 126.8c-.8.3-2.4 1.1-2.7 1.9.7 0 1-.7 1.5-1 .4-.3.8-.3 1-.6l.2-.3ZM877 129.5l-.2-.2h-.4l-.5.1v.5c0 .5 0 .9.6.6.2 0 .3-.2.4-.3v-.7ZM880.4 128.8l-.2-.1h-.5l-.3.3V129.3h.7l.3-.2V128.7ZM869.4 126.7l-.3-.4h-.1l-.3-.1-.3.1v.5l.1.3v.3l-.2.1a3.2 3.2 0 0 0-.2.4v.1l-.1.1c0 .4.3.4.5.3l.4-.3.5-.5v-.1l.1-.3v-.1l-.1-.4ZM700.2 125.5c-.5 0-1.5.5-1 1.2-.1 1.3 3 1.8 2.3-.1-.2-.6-.7-1-1.3-1ZM708.6 127.7c-1.3.2 0 1.6.9 1.7.6-.7.1-1.9-1-1.7ZM706.2 124.4c-1.2.4-.3 1.7.6 1.7.6-.6.8-2.3-.6-1.7ZM741.4 119c-.5-.4-.6-.3-1.2 0-.2 0-1 .3-.5.5.3.1.7 0 1-.1.4 0 .7-.2.7-.4ZM740.1 121l-.3 1.3c-.2.4-.7.7-.4 1.2.2.8.9-1.2 1-1.4l.1-1c.2-.4.9-.5.9-.8 0-.9-1.2.4-1.3.6ZM709 136.1c-.8-.6-1.3 1-.4 1.4 1 .4 1.3-1 .5-1.4ZM705.5 133.8c-.1.5-.3 1 0 1.6 1 .3.5-1 .2-1.6h-.2ZM711 139.7c-.5 1 .6 1.2 1.2.7 0-.6-.7-1.5-1.2-.7ZM769.1 127c1-.4-.3-1-.9-.9 0 .6.2 1.2 1 .9ZM768 122.6c.3-.6.7-1.2-.1-1.2a3 3 0 0 0-1.5.7c-.8 1.2 1.1 1.9 1.7.5ZM737.6 124.5c.1.3.6.4.8 0 .2-.2 0-.4-.1-.7-.5-.1-1 .3-.7.7ZM768.5 132.3s-.3 0-.4.3c-.2.7.1.3.5.5l1.2-1.7c-.6.3-1 .3-1.3 1ZM768.8 129.8c1-.2 0-1.4-.4-1.7-.3.3-.7.2-.7.8 0 .3.8 1 1.1 1ZM710.1 132.1l-.1.2h.3v-.2h-.2ZM734.5 127.2v-.2c-.3-.5-1-.5-1.3-.5-.9.2-.3.4-.7.8-.5.5-1.2.4-1.3 1.2.4 0 .9-.2 1.3 0 .5.1.4.3.6.8.2.5 1 1.3 1.3.4v-.2l-.2-1.2.3-1.1ZM732.8 133.6l-.1-.1h-.2v.2l-.1.2v.2l-.1.1v.2c.6.4.3.4.5 0v-.8ZM730.4 126.8l-.1-.1v-.1l-.2-.1h-.1l-.2-.2h-.4l-.4-.1h-.7c0 .3.4.6.7.7l.6.1.4.6c.4.2.5 0 .5-.4v-.2l-.1-.2ZM727.5 125l-.2-.2h-.3v-.1h-.2l.5.7h.2l.1-.2v-.1ZM731.6 137.8h.5l.1-.2V137.3c-.3-.7-.6.1-.6.5ZM695.5 124.2l-.2-.2h-.7l-.3.1h-.3v.1l-.1.1v.2l.1.2h.2l.1.1H695.1l.2-.2.2-.1v-.2ZM702.6 123.8c-.3-.2-1-.1-1 .2 0 .1.1.2.3.2.3.1.7 0 1-.2 0 0-.1-.2-.3-.2ZM720.7 120.3l-.1-.2h-.7c0 .6 0 1.2.5 1l.3-.3v-.5ZM723.5 119.7l-.2-.1h-.4l-.2.2V120.1H723.3l.2-.1V119.6ZM562 142c.2 0 .3.3.4.3.2.1.3.2.7 0 0 0 .2 0 .3-.2l.3-.3v-.1l.1-.3V140.8c-.6-1.2-1.8.3-1.8 1.1ZM651 126.4v-.1h-.2l-.1.1v.1l-.1.1v.2l-.1.2v.4c.7.6.3.5.5 0v-.3l.1-.3v-.4ZM649.5 131.7l.3.1H650.1l.1-.1.1-.2v-.1h.1v-.3c-.5-.9-.8.1-.8.6ZM586.8 140.1H586.5v.1l-.2.2v.4c.2.2.4.6.8.2l.1-.3-.1-.4-.3-.2ZM254.4 156l.5.4h.6l.4-.2v-.1l.2-.3.1-.1.1-.3v-.5c-.6-1.3-1.8.2-1.9 1ZM252.7 154.1l-.1-.3h-.4l-.1.1v.1l-.1.1v.2l-.1.2v.2l.3.2H252.5l.1-.1.1-.2v-.1l.1-.1v-.3ZM160.5 130.3c-.9-.7-1.4 1-.4 1.3 1 .5 1.3-1 .4-1.3ZM157 128c-.2.5-.4 1-.1 1.6 1.1.2.5-1 .2-1.7h-.2ZM162.5 134c-.6.8.6 1 1.1.6 0-.6-.7-1.5-1.1-.7ZM223.6 158.4c-.4 0-.6.2-.7.5l-.2.3c-.4 1.6 1 2 1.7.6-.2-.7.1-1.4-.8-1.4ZM13.4 136l.4.5h.7l.3-.2.1-.1.2-.2v-.2l.2-.3v-.2l-.1-.3c-.6-1.2-1.8.3-1.8 1ZM38.2 134.3h-.3l-.2.2v.4c.2.2.4.7.8.3l.2-.4-.2-.4-.3-.1ZM419.3 151.6c-.5 0-.8.3-1 .7l-.1.4c-.6 2 1.2 2.5 2 .7h.1c-.3-.8 0-1.7-1-1.8Z" fill="#fff"/><path d="m0 0 1.3 122.2 1-1s1-.8 2-.7c1 .1 2.2.2 2.6.7.4.5 1 1 1.4 1.2.3.2 1.1 1 1.6.9.5 0 .3.4 1-.3.6-.7.7-1 1.1-1.2l1.8-.3s.2 0 .6.5l.8.9c.8.6 1 .6 1.3 1l.7.8c.2.3 0 .5.6.4.7 0 .8-.3 1.4-.3.6 0 .6-.1 1 .2l.7.7c.2.1.4.5.6.5l.9-.5.9-.2c.1 0 .6.1.8.3.3.2.4.6.8.6h1c.4 0 .7.2 1 0 0-.3 0-.7.4-.8l1.6-.2c.2 0 .5.4.7.5.1 0 .2.3.8.3.6 0 .5.3 1 0 .4-.4 1.5-.8 1.8-.8h1.5l1.3.3.6.3 1.3.8c.4.2-.2.4.8.4s1 .2 1.5-.2c.6-.4.6-.2 1-.7.3-.6-.3-.6.6-.8l1.4-.2c.2 0 .4-.1.9.1l1 .6c.4.4.4.3.8.5.5.3 1 .7 1.6.8.7.2.5.4 1 .2.7-.3 1-.3 1.2-.7l.6-.6c.3-.3.9-.5 1-.6l.6-.3.8-.3s.6-.2.7 0a8.4 8.4 0 0 0 1.6.8l1.4-.2.5-.4 1-1.2s-.3 0 .1-.3l.8-.7c.3 0 1.1-.3 1.3-.2.3.2.4.4 1.1.7l1.5.5c.2.2.7.3 1.2.3s1.2 0 1.4.2c.2 0 .4.3.8.3l1.7.2c.4.1.7 0 1.1.2l1 .5.6-.4s.1-.2.3-.2l1 .4s.8.2 1 0c.2 0-.4 0 .6-.5l1.5-1 1.4-.3.5.1a143.2 143.2 0 0 1 2.5 1.1h3.2c.4 0 1.1-.2 1.8.1.7.3 0 .2 1.4.7l2 .7c.8.2 1.3 0 1.8.4.4.3.2.5 1.1.8l1.7.5 1.4.2.8-.2 1.5-.5c.5 0 .1-.9 1.4-.2 1.3.7 2 1.4 2.2 1.6.2.2-.2 0 .4.6.5.7.4.7 1 1.1.7.4.4.6 1.4.9 1 .2.8.5 1.8.3s-.3.1 1.6-.5l2-.7c.7-.2.5-.3 1.1-.3l1.2.2c.6.2.2.6 1 .2.7-.3.2-.4.9-.5.7 0 1.8 0 2 .4l.8.7h1l.2-.3s-.3-.7.5-.4c.8.2 1.4.5 1.4.3.1 0-.5-1-.3-1l1.6-.7s-.6-.3.6-.2c1.3 0 2.2-.2 2.5 0 .3.2 1.3.4 1.3.4s.3 0 .5-.2c.3-.2-.3-.1 1-.8l2.2-1.1 2-1 2.6-.7c.2 0-.1-.3.7 0 .8.3 1.2 0 1.5-.1.4 0 .2-.6 1.2-.1 1 .4.7.1 1.1.7.4.5-.3.5.7.6 1.1.2 1.6.5 1.8 0 .2-.3.2-.6.4-.6.1 0 .3-.5.9-.2.6.3.4.2 1 .8l1 .8c.7.5.3.5 1.3.7 1 .2 1.4.4 1.7-.1.2-.6-.3-.5.4-1l.9-.7.7-.6 1-.2s.4-.3 1-.2l1.2.4c.3.2.1.2.7.3l1 .3c.1 0 0 .3.7 0s.8-.5.8-.5l-.7-.8 1.7.3s1.5.4 1.6.3c0-.1.1-.6.8-.4.6.3.7.3 1.3.8.6.6.5.8 1.2.9.7.1 1.4 0 2 .2l.7.3c.9.4.4.3 1.8.7v-.3c0-.4 0-.7.2-1l.1-.3.2-.4.1-1.2c0-.2.2-.3.3-.5v-.7l.2-.3v-.5l.2-1.3.2-.2.2-.6c0-.5-.1-.8.1-1.3.3-.6.4-1.4.6-2l.2-.5.1-.7.1-.7v-.6c.1 0 0-.1 0-.2l.2-.2v-.2l.1-.2.5-1.4v-.3l.1-.1v-.3c0-.2.2-.2.3-.3v-.7c0-.2-.2-.5-.1-.6l.3-.3c.4-.4.4-.7.4-1.2l.1-.5c.3-.1.4.4.3.5l-.2.6v.6c-.2.4-.6.6-.6 1 0 .2.1.3 0 .4v.4l-.1.4c0 .2-.3.2-.3.3v.3l-.1 1-.1.4v.4c0 .3-.2.3-.3.5-.3.3-.2 0-.1.5 0 .4 0 1-.2 1.5 0 .2 0 .4-.2.6-.2.3-.4.4-.4.8l-.2 1.5c.5-.2 1.1 0 1.5 0 0 0 .2 0 .3-.2l.3-.1.3-.2h.4l.1.1.2.3c.1.5-.1.6-.5.6s-.8-.2-1-.1h-.2v.1l-.2.1-.1.1-.2.2-.2.1-.2.1h-.5v-.1c.3.2 0 .3 0 .5V123l.1.3.1.2V123.8h-.4c-.3-.2-.4-.3-.4-.5 0-.3.3-.6.3-.8v-.3h-.2l-.2.8c0 .4 0 .4-.2.7v.5l-.2.6-.2 1.5c0 .6-.2 1-.3 1.6l-.2.4c1 .3 1.1.4 1.7.4l1.3-.2 1.4-.2c.6 0-.3-.7 1.4.2 1.7 1 1.4.9 2 1 .4.2.4.3 1 .3.7 0 .5-.2 1.7-.2 1.1 0 .7-.4 1.6 0l.8.4c.7.5 1 .6 1.6.8l2.1 1 1.6.8c.5.4-.2 1 1.6 1.2 1.8.3.7.8 2.1.3 1.4-.6 1.5-.8 1.8-.8l1.5-.5 1.8-.2c.3 0 2.1.4 2.4.1.4-.3.6-.8.7-1 .2-.1.6-.5 1.4-.4.8.1 1.5.1 2 .6l1.4.7c.3.3 0 .4.9.5l2.3-.1s-.2-1 .8-.3l1.5 1.3c.3.4.2.6 1.2 1l1.9.6 2.1 1 2.4 1 1.5.3 2.6-.1s1-.6 1.3-.6c.1-.1.7-1 1.9-.3s.4.4 2.4 1.1l2 .8c1.6.6 2.3.7 3 .7l1.3.2.4-.5c.3-.4.7-.5 1-.6l.4-.3c.8-.6-.2-.9 1.6-.9s1.9.5 2 0c.3-.5.5-1.6.5-1.6s-1-.1 0-.2l2.1-.1c.5 0 .9-.2 1.3-.5s-.4-.6 1-.6c1.5 0 1.5 0 2-.2.5-.1.9-.2 1.1-.5.3-.3-.3-.6 1-.6a16 16 0 0 0 3.9-1c.2-.1.9-.3 2-.4 1 0 1.2-.2 1.7 0l1 .3s3 1.3 3.8 1.8c.8.4 2.8.8 3.1-.2.4-1 .4-1.3 1.3-1.5.8-.1 1-.8 2.2-.1 1.2.7 1.5.4 2.1 1 .6.7 1.3 1.3 1.9 1.2.6 0 1-.5 1.6-.5.7 0 1.3-.2 2.5 0 1.1.3 1.8.1 2.4.7.6.5.7.8 1.4 1.1l1.3.6c1 .2.4-.3 1.7.6 1.4.8 1.1.9 2.4 1 1.3.2.1.1 1.7 0 1.6 0 .7-.7 2 0 1.2.9 1.5.7 1.8 1.3.4.7 1 2.6 1.9 3l2 1c1.4.7.8 1.6 2.4 1l2.5-1c1.1-.3 1.7-.6 2.4-.5l1.4.4c.6.1 1.6-.8 1.6-.8l4.6 4.3s.8 1 1.2 1.2c.4.1 2-.4 2.2-.4.2 0 1.1-.8 1.7.1.7 1 1 1.6 1.4 1.8.4.2 2 0 2.6 0 .6-.2.4-.4 1.3-.4l2.6-.2c.5 0 .9-.5 1.5-.5.7 0 1.3-.5 2.8.2 1.5.7.3.7 2.2 1.3 2 .6 2.1 1.3 2.5.6.3-.8-.3-1.7 1.3-1.4 1.6.3 1.7.5 2.5 1.2.9.6 1 1 2.7 1.5 1.8.5 1.1.8 2.5.3 1.5-.5 1.1-.4 2-1 1-.5 1.7-1 3.1-.8 1.4 0 1.7.1 2.6.2 1 0 .7.8 1.2-.1.5-1-.2-1.4 1-1 1.2.2 1.7.5 2.4.4.7 0 .4.7 1.3-.6 1-1.3 0-1.6 1.5-1.7 1.4-.1.8-.3 2-.2 1.3.1 1.7 0 2.7.3 1 .2 1.3.7 2 .4.8-.3.5-.3 1.9-.7 1.3-.5 1-.7 2.8-1 1.6-.4 1-.6 2.8-.5 2 .1 1.4-.1 2.8-.2 1.4 0 4 1.3 4 1.3l2.5.4 3 1.3c.2 0 1.1.8 2.1.3s1.5-1 1.6-1c.1 0 1.2.3 1.9 1 .7.9.7 1 1.5 1.4.8.4 1.6.4 2.9.4h3.6c1-.2 1.9-.2 2-.8 0-.6.1-2 1.4-.8 1.4 1.1 1.2 1.3 2.1 2 1 .6 1.3 1.1 1.5.6.3-.5.3-1.4 1.2-1.3 1 .2.8 0 2.4.8 1.6.8 2.3 1.2 3 .4.8-.8.4-1 2.1-1.4a12 12 0 0 0 3.3-.8c.7-.4.5-.7 2.2-1.1 1.7-.4 3.9-.7 4.4 0 .5.7 1.6.2 2-.1.2-.3 1.1-.6 1.8-.4.6.2 2.6.9 3.4 1.4l2.7 1.5c.8.4.7.5 1.5.7.8.2.6.3 2-.3 1.4-.5 1.8-.6 2.2-.6.3 0 3-.2 3.6-.1.6 0 2 .2 2.6.6l.9.5c0-.2.3-.4.6-.6.8-.3 1.7.4 2.4.6.3.2 1 .1 1 .6v.2c0 .2-.2.3-.3.4a5 5 0 0 1-1.1.7l.3.2c1.2.9 1.9 1.2 3 1.5l.6.4.1-.4c.3-.6 1-.8 1.6-.7l.5.1h.7c1.6 0 1.8-.6 3.2 0a7 7 0 0 0 2.6.7c.7 0 1.1-1.1 2-.3.8.7-1 1.2 1.7 1.1 2.7 0 1.4 0 3.5-.5 2.2-.5 2.8-.5 3.4-1.2.7-.7 1-.8 2.3-1.6l3-1.6c2-.8 2.7-1.3 3.2-1.4.4-.2.8-.6 1.9-.4 1 0 2-.2 3 .4l2.3 1.2c1.3.7.3.7 2 .9 1.9.1 1.8.7 2.3-.2.6-.8-.6-1 1.4-1.4 2-.5.7-.8 2.4-.5 1.7.2 2-.1 3.4.4 1.5.6 1.2 1 2.9 1.3 1.6.3.2.7 2 .2 1.7-.4 2-.6 2.4-.8l1.7-.7 4.6-1s-2.2-.2 1.7-.2c4-.1 3.7.2 4.8-.3 1-.5.8 0 1.4-.8.5-.6.4-1.5 1.3-1 .9.7 1.3 1.3 2 1.3s1-.2 1.3-.5c.2-.3.1-.6 1-.6h3c.5 0 .7-.7 1.5-.1s1 1.3 2.4 1.6l3 .3c2 0 2.4.1 2.6-.2.3-.3-.3-1 1.1-.7 1.4.4 1.8 1 2.8.8 1 0 2.3-.4 2.5-.6.1-.3 1.3-.4 3.2-.3a7 7 0 0 0 3.5-.5c1.1-.3 2-1 2-1l6-2.9s1-.7 1.3-.7c.4 0 1-.3 2.6-.5 1.5-.2 3.2-1 3.6-1l.3-.3v.2l.3.3h.1a.4.4 0 0 0 .3-.1c.4.3.6.4 1 .4.3 0 .5.6 1 0 .4-.6 1-1 1.2-1.1.2-.2 1.3-.8 1.4-1 0-.2-.6-.2.5-.5 1-.4 1.5-.8 2.7-1 1.1-.1 1.4-.3 2.2-.3.8 0 2 0 2.4-.3l1.6-1.2.9-.3V135.3l.1-.3.1-.1.2-.2v-.1l.3-.2.1-.1.2-.1h.2l.2-.1h.1l.2.1h.1l.2.5a7 7 0 0 1 1.5-.5l2.5.6 1.3-1s.3-.8 1.6-.8h2c.2 0 .8-1.5 1.4-1.5.6 0 .6-.5 2-.4l3.8.1c.6 0 1.2-.1 1 .6 0 .7.8 1.3 1.5 1.2.6-.2 2.2-.4 2.4-.7.1-.3.8-1.1 1-1.3l2.4-.5s1.5-.3 3.2-.2c1.7 0 2.2.2 3.1.8 1 .7 2.1 1 2.1 1l1.5-.5c.6 0 .8.3 1.8.5 1 0 2.5.2 2.6 0l.6-.8 3.1-.8c.2 0 2-.3 3.7-.3 1.6 0 2.1-.2 2.5-.7.4-.4-1.5-.3.8-.6 2.4-.3 2.1-.3 3.4-.3l3.7-.2s.5-.2 1-1c.5-.6 1-1.5 1.6-1.7l1.6-.8a7 7 0 0 1 1.7-.3 6 6 0 0 0 1.1-.8s.4-.6 1-.3l1.4.8s-.7.7 1 .5l2.8-.4c.8-.1.3-.4 1.2-.2.9.2.1.8 1.4 0 1.3-1-.2-.9 1.3-1 1.4-.1 2.9.2 3.7.2.8 0 1 0 1.7-.5.8-.5.5-.7 2.4-.4 1.9.4.8.6 1.9.4a7.5 7.5 0 0 0 2.5-1.3s1.2-.5 2-.5c.6 0 1-.2 2 .1 1 .3 1.8.6 2.7.6.8 0 2 0 2.5-.5.4-.5.7-.6 1.1-.7.4 0 .7-.6 2.2.3 1.4 1 1.5 2 2.4 1.5 1-.6 2-1.6 2.3-1.6.2 0 2.1.2 2.9.7l2 1s1.5-.4 2.6-.5c1 0 1.1.2 2-.1l1.8-.8 1.4-1 3-.2c1 0 1.1 0 2 .3l1.8.3c0 .3.2.6.6 1 .3.3 1.3 1.1 1.8.8.3-.2 0-.8 0-1.1v-.6l3 1 2 .4h.2c.2-.6.6-1.2.6-1.8v-.7c0-.5-.4-1.4 0-1.3l.9 1.1.2.8c0 .3-.1.5-.4 1v.3l.6-.2h.1v-.1l.1-.1c.2-.2.2-.5.4-.3v.2h.1s.9-.7 1.8-.8c1 0 1.7.2 2.3.4.3.2 1.2.3 1.8.2v-.2l.2-.2.4-1.4v-.3l.1-.1v-.3c0-.2.3-.2.3-.3V116.6l.2-.3c.4-.4.4-.6.4-1.2l.1-.5c.4-.1.4.4.4.5l-.3.6v.6c-.2.4-.6.6-.6 1l.1.4-.1.4-.1.4c0 .2-.2.2-.3.3v.3l-.1 1-.1.3c.2-.3-.2-.5.8-.8 1.2-.4 1.9-.4 2.7-.4h1.8s0 .6.4.7c.3 0 .7-.5.7-.8 0-.2 0-.8.6-.8h2.2l.6.4c-.5.3-1 .6-1 1 .5 0 .8-.6 1.2-.8.5.1 1 .3 1.2.5l2 .6 2.3-.2 2.7-.2 1.9-.8c.2-.3 1.3-.8 1.4-.8.1 0-.4.3.1 0l1.7-1.5s0 1.4.2 1.4l1.3.1 1 .5c.3.2.8.6 1.9.8v.1c0 .4 0 .6-.2.8h-.5c-.8.5-.6 1.2-.2 1.6a7 7 0 0 1-.5.7c-.3.4-.7.7-.7 1.3 0 .5.6.5.7 1l.8.9c-.2-1 .4-2 .4-2.7 0-.6-.1-.8.3-1.4.3-.4.9-.7 1-1.1l-.1-1c.7.2.6 0 1.9.4 1.5.5 1.5 1 1.9.4.4-.5 1.1-.9 1.5-1l1.5-.5c.4-.1 1.7-.6 3-.6 1.4 0 1.2-.1 3 .1 1.7.3 1 .3 2 .3s1.5 0 1.9-.3c.4-.4-.2-.8 1.3-1 1.6-.3.5-.5 2.7-.7h2.7c.7 0 2.6-.1 3 .1l2.7 1.1c1.4.7 1.2 1 3 1.1 1.7.2 1.1.4 1.8.2s0-.4 1.4-1l1.3-.5 3.1 2 1 .6c.4.4.7.6 1.5.7H792.9c1 .2.4.5 1.6.2 1.3-.2 2.4-.6 2.4-.6s0-.2 1 .7c1.1 1 .6 1 1.8 1 1.1.1 1.3.2 2.3-.4 1-.6 2.1-1 2.5-1.5.4-.5.5-1.3 1.5-1.5 1-.2 1-.1 2-.1s1.4.2 1.8-.4c.4-.5.2-1.4.9-1 .6.5 2.3 1.3 2.5 1.6.2.2.1.5.9 1s1.4.5 1.8.9c.5.3.4 1.8 2.3.6l3-2.2c.5-.1 3-.2 3.3-.1l1.1.4c.3 0 0 .5 1.5.3 1.6-.2 1.7 0 1.8-.4 0-.4 1.2-.3 2.3.1 1 .5.7.6 1.6.5 1-.2 1.4-.8 2-.8.5 0 1.8-.2 2.8 0 1 .3.8.3 1.4.7.6.4 1.8 1 3 .7 1.1-.3 4 0 4 0s1 .2 1.7 0 2.2 1.8 2.6 1.8c.4.1.8.7 1.7 0 .8-.6.5-.6.8-.6.4 0 1.7.2 2 .4.3.2-.4 1 .7.3l1.7-.9s1.1.5 1.3.4c.2-.1.4-.6.9-.9.5-.2 0-.2 1.1-.4 1.1-.1 2.7-.4 2.9-.6.1-.2-.5-.7.3-.6.9 0 1.5 0 1.9-.7.4-.7.6-.8.9-1 .2-.1-.4-1 1.3-.6 1.8.4 1 .5 2.9.7 1.8.2 1.3.3 2.5 0 1.2-.2.9.6 2.5-.8 1.7-1.5 1.4-1.4 2-1.7.7-.2.8-1 1.7-.5.8.5-.6.4 1.5 1 2 .7.3 1.5 2.4.8l3.9-1.5c1-.4.6-.3 1.5-1 .8-.6.6-.9 1.5-1.1l2.8-.7 1 .7 1.3.7 1-.8s.7.8 1.5 1.2c.8.4 1.6.8 2.2.7.5 0 1.1-.7 1.8 0 .6.6 1 1 1.2 1.4.3.3.6.5 1.3.8.7.2 1 .1 1.7.2l2.5-.3 1.5-.7 1.9-.8s.8-.8 1.4-.3l1.1 1c.5.5.8 1 1.3 1 .4.1 1.8.7 3 .4 1.3-.3 1.5-.6 2-.7.6-.2 2.1-.8 2.3-.7.2.2 0 .3 1.6.7 1.6.4 2 .3 2.6-.2.7-.5-1.1-1.3 1.1-.6 2.3.7 2.2 1 3 1.2.9.3.8-.6 2 .4l2.2 1.6c1.1 1 1.1 1 1.8 1.4.6.5-.9 1.7.6.5 1.5-1.1.5-1.4 1.5-1.4l3 .2 3.5-.4c.2-.2-.8-.8.3-.4 1.2.4 2.3.9 3.1 1.7.9.8.5 1 1.5 1.1 1 .2 1.4.8 2.5-.6 1.2-1.5 1-2 1.8-1.8a30.9 30.9 0 0 0 5.6 0c1.1 0 2.3.2 2.9-.2.5-.4 1-1.5 1-1.5s2-.7 3-.1c.9.5 1.3 1 2 1.1.6.3.8 0 1.2 0l2-.2c.5 0 .8 0 1.3-.4.6-.4 1.3-.9 1.5-.9.3 0-.2.5 1.2 0 1.4-.4 1-.3 2.1-.8 1-.4.7-.9 1.3-.5.7.4 2.2.7 2.5 1l1.3.7 1.7.5 2.5.9c.3 0 3.3.6 3.6-.2.3-.9.4-1.5 1-1 .6.6-.2 1.2 1.4.8 1.5-.4 1.4-.3 2-.8.8-.6-1.6-1 1.3-.7 2.8.4 3.5.1 3.9.7.4.7-1 1.5 1.5 1.8l4 .5c.3-.3.4-.5.5-.4l-.2.4c.6-.1 1.3 0 1.8-.6.6-.7 1.2-1.6 2.3-.7l1.8 1.4-.3.1-1.4 1.6c1.3-.4 2.7 0 4 .1.3.7 1 .9 1.5.2v-.2h.6c.3 0 .7 0 1.1.3.9.5 1.4 1.5 2.2 1.6.7 0 3.2-1.1 3.8-2.1 0 0 .2 0 .3.2.7.6.4 1 1 1.4.4.3.8.8 1 .4 1.2.4 2.5 1 3 .3l.4-.6c.3.2.7.5 1 .5.6 0 .5-.3 1-.5l1.5-.4c.6.5.8.7 1.9 1l3.7.7c.2 0 1.6.2 2.5 0 .8-.4-.2-.8 1.3-.5 1.4.3.2.2 2 .4 1.8.3 2.9.5 3-.2.1-.7-1-1 1-.9 1.8.2 2.9 0 3.4.3l2 .8c.4.3.2.8 1.6.6 1.4-.2 2.5-.7 2.7-.3.2.3-.2.7.8 1.3.9.5.6 1.8 1.5.3 1-1.5-.4-1.6 1.6-2.1 2-.6 2.3-.3 2.5-.7.2-.3.3 0 1-.8.6-.9-1.7-1 1.2-1 2.8-.1 2.6-.5 3.6-.1s2.2.6 2.2.6l1.6.6c.4.3 1.3.6 2.2.6.8 0 1.9 0 2-.4.1-.4.5-.9 1.4-.7.8.3 1.4-.5 1.5-.5.1 0 .2.3 1.7.7 1.5.3 1 .8 2.8.5 1.7-.3 3 .1 3.1-.7.3-.7-1.2-1 .5-.9 1.8 0 2.2.3 3 .2.8 0 .2 0 1.5-.6s-.1-1.1 2-.6c2 .6 3.2.8 3.5 1 .3.2-.8.7 1.6.5 2.3-.2 2.2-.6 2.4-1 .2-.5-.8-.5 1.3-.7 2.2-.2 2-.4 2.8 0 .9.5 1 .8 2 1.1 1 .3 2 .5 2.3 0 .5-.7-.8-1 1-1 1.7 0 1.7-.6 3 .3 1.2.9.3.7 1.8 1.4 1.4.6 1.5 1.5 2.4.7 1-.9 1.3-1.5 1.3-1.5s1.3-.5 1.8 0l1.5 2s0 .4 1 1c.9.6.5.8 1.5.7l3-.4.2.8c0 .2.5.7.5.7s1-1.3 1-1.1l1.3 1.1 1.6-1.2s1.4.3 1.8.7c.3.5.7-1 1.3-.8l1.5.6h2.5s1 .2 1.6 0c.7 0 2-.1 2.2.2.2.3 0 .6.8.9.9.3 1.2 1.4 2.6.7 1.5-.8 1.4-1.1 1.7-1.6.3-.6.4-1.5 2.2-.8 1.7.8 1.3.5 2.5 1.5s1 2.4 2.1 1.1c1.2-1.2 1.4-2 1.5-2.3.2-.3 0-.5 1.4-.4h.5c0 .5.2 1 .8.9.4.2 1 0 1.3-.3.3.2.4.4 1.5.1 1.5-.4 1.7-.5 2-1.2.4-.8.4-1.6 1.6-1.3.9.2 1.6.4 2.5.8-.2-.4-.3-.8-.2-1.3.3-.5 1.3-1.3 1.8-1.3.6 0 .8.7.9 1.4h-.1l-.2-.1H1173.3l-.2-.1h-.7l-.1.2c.5.4 1 .8 1.5.8 0 .3-.1.7-.3 1v.1c.8.5 1.5.9 3.2.9 2.2 0 3-.2 4 0 1.1.1 1.2.9 2 .1.7-.8-.4-1.3.8-1.6 1.3-.2 1.8-.5 1.8-.5l1.3.1c.3.1.6 0 1.2.5.6.4 0 .6 1.5.8l2.8.4c1.3 0 1-.3 2 0l2.4.7c1 .2 1.3 0 2.6.8l-.1.1v.5c0 .2.2.3.3.4.3 0 .8-.2 1-.5 1.3.5 2.4.7 2.4.7s-1.4.3 1 .2l2.7-.3s2 1.7 3.2 2.3l2.2 1.4c1 .6.2 1 2 .6s1 .3 2-.8c1-1-.7-1.5 1.4-1.3 2.1.3 2.3 1.2 2.5 1.2.3 0 1-1 1.1-1 .2 0 .6-.3 1.5 0 .8.3 1.8 1.2 2 1.2.1 0 .6.4 1.2.2.6-.3.2.1 1.3-.9 1-1 .8-1.4 1.4-1.4.6 0 .7-.2 2 0 1.3 0 2 .3 3.2-.1 1.4-.4 0 .4 1.7-.7 1.8-1.2 1.5-1.2 2.9-1.8 1.4-.7.7-.7 2.7-1.1 2-.4 3.6-1 4.3-.4.7.5.4.7 1.3 1 .8.4.8.8 1.8.4s.3-.8 1.1-.6c1 .3 1.7 1 2.4 1.4.7.3-.6 2 1.5.5 2.2-1.4 2.2-1.7 2.5-1.8.3-.2 1-.6 1.8-.7l3.3.3c.6.1-.5.8.3.8s.8.1 1.6 0c.8-.2 1-.8 1.3-1l2.2-.3 3 1.3 2.5.7c1.3.3.5-.1 3 .4 2.7.6 3.5 1 4.3 1 .7-.2 1.9 0 2.7.3.8.5.5 1 1.4 1h2.8c.9 0 .7-.4 2.5.4 1.8.9 1.9.8 3 1.3l3.6 1.5c.6.3 0 .3 1.1.3 1 0 1.2-.3 1.5-.5.2-.3-.9-.6 1.1-.4 2 .3 3.2.6 4.2 0 1-.5 1.3-1.1 1.3-1.1s1-1.4 2.4-.4c1.3 1 1.9 1.4 2.4 1.6l1.6.2c3 .3 5.9 2.3 5.9 2.3s.5.4 1.4.7c1 .4 2 .4 2.9 1 .8.6.4 1.3 2.6 1.4 2.3.2 4.6.2 4.3-.6-.2-.8-.3-.8 0-.8.5 0 2 .3 2.8.8 1 .5 1 .6 1.7.8.7.2 2.3.2 3 .8.5.6 0 1.1 1.8 1 2-.2 1.6-.6 2.8-1.4 1.3-.7 1.9-.3 3.6-1.8 1.8-1.4 1-.9 3.3-1.8 2.3-1 2.2-1 3-1.1l2.1-.7 4.2-.6h2s.5-.1.8-.6c.3-.4.5-.7.8-.7.2 0 1.3.1 2 .5.5.4.3.4 1 .8.6.3.8.3 2 .3s1.5.3 1.6.4c.2 0 2.2.8 2.2-.1 0-1 0-1.2.2-1.2.1 0 .4-.4 1.7 0l3.7 1c.2 0 0 .2.6.4h3c1.3.1 1.7 0 2.5.2.7.1.5 0 1.2.6.7.5.4.6 1.6.9 1.2.3 2 .4 2.9.8l1.9.9c1.5.7 2 1 3 1 1 .1 0-.2 1.9 0 1.8.3 3.3.1 3.4 1 0 .8.5 2.9 1 3.2.6.4.6.6 1.7 1 1.2.3 1.6.5 2.9.5 1.3 0 2.9.4 3.7 0 .7-.6.7-1.1 1.7-1.1s1-.5 1.8.3l2.7 2.7c.3.3-.2 0 0 .2.2-.1.3-.2.3-.4a1 1 0 0 1-.5-.4c-.3-.6.1-.9 0-1.4v-2l.5-.5c.8-.4.9.4.8 1v.4c.1 0 .4 0 .6.3.3.4.2 1 .3 1.5.2.4.4.4.3.8 0 .3-.5.8-.8 1l-.4.4 1.3.8c.6.2 2 .2 2 .2s2 0 2.8.5c.8.5 1.1.6 3 1 1.8.5 2 0 2.2 0 .2-.1.8-1 1.7-.7 1 .3 3-.3 3-.3l2 .5c.2 0 2.2-.2 2.8.3.7.5-.4.6 1 .7 1.5 0 2.4-.5 2.4-.5l1.3.5c.6.3 2.7 1 3.1 1.3.5.3 1.8 1.2 3 1 1-.3 1-.6 1.5-.8.5-.1 0-.6 2-.4 1.8.3 3.5-.3 3.7-.5.1-.3-1.4-.4 1.6-.5 3 0 2.7.5 4 0 1.5-.6 1.7-.7 2-1.6.3-.9 0-1.2 1.1-1.2 1 0 2 .2 2.3.4.5.2.8-1 1.5-.7l2 .7c.5.2 2.1 1.3 2.3.4.2-.9.4-1.6.9-1.6h.5c.2-.5.6-1 .8-1.1.7-.8 1.2-.7 2.2-.7.3.5.8.8.8 1.3 0 .3 0 .5-.3.8-.1.2-.3.3-.4.3.5.2 1 .2 1.3-.1.6-.7-.8-1.6.9-1.7 1.7 0 2-.6 3 0l1.8 1.1c1.6 1 2.9 1.2 3.4 1.3l2.5.7c.7.3 1.5.4 2 .4.3 0 .9-.5 1-.5.1 0-.3-1 1.4.2 1.7 1.3 1.7 1.4 2.4 1.7.6.3.5.6 2.5.6l4.8.2c1.6-.1 1.8-.9 1.8-1 0-.2 0-.7 1-.2 1 .4 1.5.4 2 1 .4.5-.9.8 1 .9 2 0 2.6-.4 2.6-.4s-.5-.5.2-.4c.7 0 1-.1 1.8.4.8.6-.6 1 1.2.7 1.8-.4 2.3-.2 3.1-1 .8-.8 1.5-1 3-1.3 1.6-.3 1.6-.6 2.8-.8 1.3-.2 1.4-.5 2.3-.2 1 .2 1.2 2 2.8.8 1.7-1.3 1.5-1.4 2-1.4.4 0 1-.6 2.7.1 1.6.8 3.8 1.4 4.2 1.9.4.4.3.5 1.2 1 .8.3 1.3.9 1.6.9.2 0 3 0 3.1-.3.1-.2-.5-.8.3-.8h2.2l1.6.3c.6.1 2.1 0 2.4.2.2 0 .3 0 2.1 1.2s2.2 1.7 2.8 2c.5.1.4.4 1 .5h1c2 0 2.8.3 3 0 .2-.4.5-.8 1-.8.7.1 1.7.3 2.1.6.4.3 1.4-.3 1.4-.3l2.5.7c.4.1.8-.3 1.2.3.4.6-1.3 1 1 1 2.3.2 2.5.5 3.2 0l1.2-1.4s3.7 0 5-1.2c1.3-1 1.2-1.2 2.3-1.8l3-1.3 1.6-.7c.7-.4 2.5-.7 2.5-.7h2.3c.2 0 3.6.8 4 1.1l1 1c.5.2.3.4 1.6.5 1.2.2 3-1 3-1V0H0Zm7 119v.3l-.1.1-.2.2-.3.2H6a1 1 0 0 1-.6-.5v-1l.1-.1.2-.2.3-.2h.4l.3.1c.2.1.3.2.3.4v.1l.1.3v.3Zm4 .8c-.6.2-.9 0-1.2-.4-.7-.2-1.5-.4-1.5-.6 0-.2 0-.4-.2-.5-.8-1.6 1.4-1 1.4.6l.3.5c.8.2 1.4.3 1.1.4Zm116.2 6.2c-1.4 0-2-1.3-.6-2 .6-.3 1.3 0 1.4.6.3.8-.3 1-.8 1.4Zm7.4-43.8h1c-.2.8-1 1-1 0Zm3.2 25.3c-1 0-2.3-1.5-1-2 .6-.1 1.4.5 1.6 1 .1.8-.1.5-.6 1Zm1.3-34.1c-1 0-.2-1.4.4-.9.3.3-.2.8-.3.9Zm1.7 24c-1.6.4.3-1.6 0 0Zm19.7 17.8.1-.2c.1-.1.1-.5.3-.3l.2.6v.3l-.4.1c-.2 0-.3.1-.3.2l-.1.1c-.2.3-.3.3-.4-.2v-.3c.2-.2.4 0 .6-.3Zm0 2.3c-.3 0-.3-.3-.5-.5 0-.2 0-.3-.2-.3 0-.3.2 0 .2-.2h.2c.1 0 0-.2.2 0v1h.1Zm-1.8 0a1 1 0 0 1-.3-.7c0-.8.7-1.7.7-2.5v-.7c0-.6-.4-1.4 0-1.3l.9 1.1.2.8c0 .3-.2.5-.4 1-.2.3-.2.5-.2.8v.6c0 .9-.2 1.7-1 .9Zm3.5 7.6v.1l-.1.2v.1a1.3 1.3 0 0 1-.3.3l-.2.2h-.3c-.3 0-.4-.2-.6-.4 0-.6 1-1.8 1.4-.8v.3Zm1.1-6.3-.1.2v1.2l-.1.3v.2l-.2.3c-.4.7-.6.5-.8-.2v-.4l.1-.2v-.5l.1-.3c0-.3.2-.4.4-.6.2 0 0-.2.2-.1h.4Zm-.5-.6c-.6.5-1.2.5-1.9.1v-.5c0-.7.1-1.6.5-1.9.4-.3 1.8-.2 2 .3l.1.2c0 .5-.4 1.5-.7 1.8Zm1.2 2.7v-.2h-.1v-.1l-.1-.2v-.1l-.1-.1V119.9c-.1-.3 0-.2.2 0V120.3l.1.1v.5s.1 0 0 0Zm1.5-.8V120.4l-.2.2v.3l-.1.1-.1.3a1 1 0 0 1-.5.5c-.2 0 0 .2-.2.1h-.2v-.1h-.2v-.1l.2-.2V120.8l.2-.3v-.2l.2-.3v-.2c0-.2.1-.3.2-.3.5-.6.7-.4.7.4v.1Zm.8-34.4c-.7.6-1-.2-1.2-.7l-.7-1.5c.3-1.3 1 .6 1.1.7.4.3 1.6.8.8 1.5Zm1.5 3.3c-.2.1-.3.2-.5 0-.4-.3.7-1.2.5 0Zm.1 2.5c-1.1-.6-.3-2.4 1-1.3.9.8 0 2.3-1 1.3Zm1.2 33.5-.1.4-.2.2H168.2l-.3-.2-.2-.2-.2-.3v-.6c0-.2.2-.3.3-.4l.2-.2h.4l.2.2.1.1.2.2v.1l.2.4v.3Zm.3-2.3v.3h-.1l-.4.3a.7.7 0 0 1-.2-.3v-.5l.1-.2.2-.1h.2l.1.2V122.7Zm1.7-28c1 0 1 1.2.4 1.8-.6-.1-1-.2-1-1 0-.4 0-.8.6-.8Zm-.2 22.8v.2h-.2l-.1.1h-.1l-.3-.1v-.4l.1-.1v-.1l.1-.1v-.1H170.8l.2.2v.3Zm8.4 13.3h-.2l-.2-.1.2-.3.2.2v.2Zm25.8 1.4c.3 0 .7 0 1 .3l.2.3c-.4.3-1.3-.2-1.2-.6Zm30.8 1.3a2 2 0 0 1-.6.2c-1 .3-1.4 0-1.8-.7a3 3 0 0 0-1-1c-.3-.3-.8-.5-.6-1l.2-.3c.3-.2.7 0 1 .2l1.5.4c.5.2.7.9 1 1.3.3.5.5.7.3.9Zm1.2-2.7-.2.2v.2l-.1-.1-.2-.1-.3-.1-.2-.1-.3-.2h-.2l-.3-.2h-.2l-.3-.3c-.4-.6 0-1.2.7-1h.4l.2.2.3.1h.1l.3.2c.3.2.4.6.4.9l-.1.3Zm5.1-64v.1H241.8s-.2 0-.3-.2l-.1-.2v-.1l-.2-.3v-1.3h.1l.2-.1h.4v1.1l.2.4v.6Zm54.6 64c-.5-.2-.8-.4-.7-.9.2-.5.5-.7 1-.7v.1a2.8 2.8 0 0 0 .5.5h.1l.2.2c-.3.5-.5.9-1.1.7Zm1.5 6.8c-1.8.3-.6-2.4.4-1.6.7.6-.1 1.4-.4 1.7Zm3-16.7h-.2v.1h-.5v-.4h.2l.3-.1.1.1V121Zm12.4.7c0 .2-.3.3-.5.4-.2 0-.5.2-.6.4-.1.2-.3.9-.6.8v-.6l.1-.4.1-.2c.2-.2.7-.4 1.2-.5.1-.6 1-1.9 1.2-1.7l-1 1.7h.2v.2ZM315 148l-.3.3-.3.2h-.3l-.1-.2-.2-.1v-.9l.6-1h.2v-.1h.3c0 .4.3 1.3 0 1.8Zm0-4.5c-.2-.2-.4-1.3-.3-1.6.3-.8.8-.3 1.3.1 1.2 1 0 2.6-1 1.5Zm1.6-12.7s-.1.2-.3.2H316l-.2-.2h-.1l-.2-.2v-.1h-.2v-.4h.1l.1-.1h.1l.1-.1h.6l.2.1v.1h.1l.1.2v.5Zm2.1 13.3.2 1.8c-1.4-.3-1.8-1.7-.2-1.8Zm.2-14.9a.7.7 0 0 1-.3-.2v-.7l.1-.3v-.1l.2-.2h.1l.2-.1h.4a.7.7 0 0 1 .3.3v.3l.1.2v.3l-.2.1-.2.3h-.2c-.1.1-.3.2-.5.1Zm.5 13.7c0-.7 1-1.8 1.1-.6 0 .7-.5.9-1 .6Zm9.4-10.6-.1.1.1-.2v-.5l-.1-.3v-.1l-.1-.1-.1-.1h-.1l-.1-.2h-.4c-.4.3 1.4-1.4 1.3-1l.1.2.1.1.2.1v.1h.5l-1.3 2ZM377 83.3l.2-.3v-.1l.2-.2c.3-.4.2-.5.4-.3 0 .1 0 .3.2.5h-.1v.2h-.1l-.1.2-.2.2-.1.1h-.1v.1h-.2l-.2-.2.1-.2Zm-1 9v-.2c.3-.4.5-.6.8-.2.1.1 0 .6.2.8l.6.5c.3.3.4.8.3 1.2l-.7-.4-.4-.2-.3-.3-.3-.3v-.1l-.2-.2V92.3Zm-3.3-1c-.6-.2-1.3-.6-1.3-1.2l.1-.3 1-1v-.1l.4-1.4.1-.2c.8-.8 1.3.5 1.3 1.1 0 .6-.4.8.2 1.3.4.4 1 .5 1.5.7-.6.8-1.3.3-2 .6-.9.3-.3.8-1.3.5Zm2.1 15.6v-.3l.2.1-.2.2Zm.1-2.7.4-.2h1c.7-.1 1.3-.5 1.9-.3-.6.6-2.4.6-3.3.5Zm3.8-7.4h-.1l-.2-.3-.1-.3v-.4h.4c0 .4 0 .8.2 1.1h-.2v-.1Zm1-17.1v-.3l.2-.1.1-.1h.4l.2.3c-.2.4-1 1.1-1 .2Zm.3 24.9-.1-.2v-.2h.1l.3-.1a1 1 0 0 1 .5 0l.1.3v.2h-.1l-.4.3a2.1 2.1 0 0 1-.3-.2l-.1-.1Zm.3 3.3c.5-.2.7.5.7.7-.4 1-1.5-.4-.7-.7Zm1.7-52.5.1-.3c.2-.3.4-.5.8-.5.9 0 .6.8.8 1.4-.8 1.5-2.2 1-1.7-.5Zm2.2 50.1v.3h-.5l-.1-.1-.2-.2-.1-.2v-.4l.3-.2.5-.2c.7 0 .4.5.1 1Zm5.7 12.2-.3-.6.5.2-.2.4Zm.9-7.4-.1.2h-.1l-.2.2-.3.1-.3.2v.4l-.1.3-.1.1-.2.1h-.2v-.1a.7.7 0 0 1-.3-.3V110.6l.3-.3.7-.2h.2l.3-.1h.3v.3ZM402 97.8H401.7v-.4l.4.1V97.7Zm3.8 13.5-.2-.4c.6 0 1.3.1 1.5.7-.3.4-1 0-1.3-.3Zm8 14v.2l-.2.2-.1.1-.2.1-.2.2h-.2l-.3.1H411.8l-.1-.2-.1-.2v-.7h.1l.1-.2.3-.2.1-.1.4-.2h.5c.6 0 .6.2.7.5v.5Zm2-10v.1h-.1l-.3.2-.5-.1h-.1a3.8 3.8 0 0 1-.6-.3l-.4-.1v-.4c.1-.2.2-.3.4-.3a1.8 1.8 0 0 1 .6 0l.5.3c.2 0 .3.2.3.3l.1.3Zm7.3 10h-.1v.2a2 2 0 0 1-.5.2c-.5.2-.8 0-.9-.3V123.6l-.2-.4v-.1l-.2-.3v-.1l-.2-.4v-.5l.4-.3c.8-.3.9.3.8 1v.3l-.1.6v.2h.1a2.2 2.2 0 0 0 .3.4l.2.2.2.3.2.3V125.1Zm4.3 18.7c-.7 1.4-2.1 1.4-2.2-.3 0-.2 0-.4.2-.6a1 1 0 0 1 1-.6c1 .2.8.8 1 1.4v.1Zm3.8 1.6-.1.3-.3.3v.1l-.5.2h-.5a.8.8 0 0 1-.4-.4V145l.2-.3.2-.2h.1l.3-.2h.4l.2.2h.1l.2.3.1.4v.2Zm2-8.5c-.8-.7-.5.8 0 0Zm1.2-37.9v.1l-.2.1h-.1l-.1.1H433.7l-.2-.4v-.4l.3-.3c.6-.1.6.4.7.7v.1Zm3.8 37.3v.6l-.1.1-.3.4h-.4l-.1-.1a.6.6 0 0 1-.2-.3v-.9c.1-.1.2-.3.4-.3l.3-.1h.2v.1l.1.2.1.3Zm9.8 12.1c-.3.7-1.3 1-1.8.5l-.1-.3-.1-.4.1-.5.2-.2.2-.1h.5l.1.1.2.1.2.2.2.2.1.1.2.3Zm4-7c.2 0 .3.2.3.4s0 .4-.2.7v.2l-.4.4h-.1l-.2.1H451v-.2l-.2-.1v-.2l-.2-.2v-1.1l.1-.2.8-.1.4.2Zm.2 6.2c-.6.5-1.8.8-2 .2l.1-.5.1-.2.2-.2.2-.2v-.6h.1l.1-.2h.4l.2.2.1.1.1.1v.2h.1l.1.2.4.5c0 .2-.1.3-.2.3Zm19.8-18.3c-.2.4-.4.5-.6.6l-.5-.2c-.2-.3-.4-.6-.3-1V128.2l.3-.2v-.2c.2 0 .3-.1.3-.2.7.4.6.8.9 1.3-.2.2-.2.3-.2.5Zm-3.8-12-.3.6c-.4.7-1 1.8-1.5 1.8-.7.2-2.2-.7-2.2-1.4v-.3c.3-.5 1.4-1.4 1.8-1.6 1-.3 1.7 0 2.2.8Zm-4.1-.7c0 .2-.1.3-.2.3-.1.2-.2.2-.3.2h-.4v-.1l-.1-.3V116.5h.1c0-.2.1-.2.2-.3h.1l.5-.1.1.5Zm.5-1.9v-.4l.1-.4.4-.4h.7l.3.2v.2l.2.2v.1l.1.2v.9l-.2.2-.4.4h-.1l-.4.1-.3-.1-.2-.3-.2-.4v-.4Zm-4-2.3v-.4h.1l.1-.1.2-.1h.4l.2.4v.2l-.2.1v.1h-.1l-.1.2h-.1l-.2.1h-.1l-.1-.1v-.4Zm-3.8 41.2-.2.3c-.7 0-1.1-.4-1.6-.8v-.2h1.4v.1h.2v.1l.2.1v.4Zm.7-12.2v.1l-.1.3a1 1 0 0 1-.4 0l-.3-.1-.2-.2v-.2l.2-.1.3-.2h.4v.1l.1.1v.2Zm.3-31.3v-.3l.2-.2.2-.2.4-.2.5-.1c.6 0 .6.4.8.8-.4.8-2.1 1.6-2.1.2Zm2.5 41.2c0 .2-.2.3-.3.4l-.3.1H459l-.2-.1-.2-.3v-.4c0-.2.1-.3.3-.3l.3-.2h.8v.1l.2.2.1.2v.3Zm.5-11-.4.5c-.2.3-.5.5-.8.4l-.3-.1a.6.6 0 0 1-.2-.3v-.7a1.3 1.3 0 0 1 .5-.5c.3-.2.8-.4 1-.3l.2.1v.8Zm1-4.7-.1.1-.1.1-.2.2-.2.2h-.1l-.2.1h-.2l-.1.1h-.4l-.2-.2-.3-.4v-.7h.1l.1-.2.2-.2.4-.1h.7l.1.2c.1 0 .2 0 .2.2h.1l.2.6Zm-.2-21.4-.1-.1v-.1c.1 0 .2 0 .2-.2l.2-.3v-.1l.2-.2c0-.1 0-.3.2-.4l.1-.2.3-.4v-.1l.4-.4c.6-.3 1.1 0 1.3.5v.6l-.1.1v.1l-.2.2-.1.2-.2.3-.2.2-.2.3a1.1 1.1 0 0 1-1.5.2l-.3-.2Zm3 35.8-.1.2-.2.3-.3.2h-.3a1 1 0 0 1-.3-.4 1 1 0 0 1-.2-.3v-.2l.2-.3h1.2v.5Zm3.7-27.5c0 .1 0 .3-.2.5-.3.6-.8 1.4-1.3 1l-.3-1.7c0-.5 0-.8.2-1 .1-.3.5-.5 1-.9l.7-.8.2-.7c.6-1 1.7-1.5 2.1-.1l-.1 1c-.4.8-1.7 1.5-2.1 2.4l-.2.3Zm3.8 20.5v.6l-.2.6-.1.3-.3.3v.2h-.8l-.3-.1v-.1l-.2-.3V144l-.1-.3v-.6l.1-.5v-.1l.2-.3v-.1l.2-.4.3-.2h.3l.4.1.2.3.2.4v.8Zm1.3-3.4a2.6 2.6 0 0 1-.4 1l-.2.1h-.4a1 1 0 0 1-.6-.3v-.1l-.2-.4V139.1l.1-.3.1-.2c0-.2.1-.2.2-.3a1.6 1.6 0 0 1 .3-.3l.2-.2H473.1l.2.4v.2l.1.4v.8Zm1 5.4v.1h-.1l-.1.1h-.2l-.2-.3a.5.5 0 0 1-.2-.3v-.2l.3-.2h.6v.8Zm3.3 2.4a2.4 2.4 0 0 1-.2.5l-.2.3-.4.2h-.3l-.3-.1-.2-.5v-.8c0-.3 0-.5.2-.7v-.1l.1-.2.1-.1h.2v-.1l.3.1.4.5a1.4 1.4 0 0 1 .2.6v.4Zm0-28-.2.3c-.4.5-1.7.9-2.2.5-.7-.4-.7-1.6-.4-2.3 1-.3 3.4.3 2.7 1.6Zm.7 3.2c.2-.5 1.2-1.3 1.7-1.3.6 0 .9.6 1 1.3h-.5l-.1-.1h-1v.2c.4.4.8.7 1.5.7 0 .4-.2.7-.3 1-.3.7-.8 1-1.4.7-.4-.7-1.3-1.6-1-2.5Zm.1 18v-.2h-.1v-.4l.1-.2h.6v.1c.2 0 .3.1.3.2v.2c0 .1 0 .2-.2.3l-.2.1h-.4v-.1Zm2.2 7c-.2.5-.7.7-1.5.2-.6-.5-.7-1.3-.4-1.8.2-.5.9-.9 1.6-.5.6 0 .7 1.3.3 2Zm.8-4.6h-.5l-.2-.2-.2-.2V141.8H481.6l.1.1h.2v.1l.2.1.2.3v.2l-.4.3-.3.2Zm2 1.6v.1l-.2.2-.1.1-.2.2H482.3l-.1-.1h-.1l-.1-.1-.1-.1v-.1l-.1-.1V144.5c0-.1 0-.2.2-.3.1-.1 1.2 0 1.2.2.2 0 .2.1.2.2v.1Zm4.5 2.5-.2.2a1 1 0 0 1-.3.2H487.1l-.2-.2-.1-.2-.1-.3v-.6l.2-.2.4.1.4.2.2.4v.4Zm5.6-12.8-.5.6c-.9.9-1.5.8-2.5.2-.6-.4-.8-.4-1.6-.6-.5 0-1.1 0-1.2-.7v-.5c.2-.4.8-.3 1.2-.4.6 0 1.4-.4 2-.3.6 0 1.2.6 1.7.9.7.3 1 .4.9.8Zm45.4-7.8c-.5.7-1.6.5-2.4.5-.3 0-1 .4-1.2 0v-.2c0-.5.6-1.5.9-1.7.7-.8 1.3-.7 2.2-.7.4.5.9.8.9 1.4l-.4.8Zm13.6 9.3-.1.5-.3.2h-.2l-.2-.1-.2-.3-.1-.3-.1-.3v-.1l.1-.4c.1-.2.3-.2.4-.2.2 0 .3 0 .4.2l.2.3.1.5Zm3-11v.3h-.1l-.2.2c-.1.2-.2.2-.3.2h-.4a1 1 0 0 1-.6-.5v-.1l-.1-.3v-.3c0-.2.1-.2.2-.3v-.1l.2-.2.3-.2h.3c.2 0 .3 0 .4.2.2 0 .3.2.3.3v.1l.1.3v.3Zm.3 8.6c0-1 1 .3 0 0Zm2.5-8.3c-.7-.1-1.5-.3-1.5-.6 0-.1 0-.3-.2-.5-.8-1.5 1.3-.9 1.3.6v.1l.4.5 1.1.3c-.6.2-.8 0-1-.3h-.1Zm124.8-37.1h1c-.3.8-1 .9-1 0Zm3.1 25.3c-.9 0-2.2-1.6-.8-2 .5-.2 1.3.4 1.5 1 .1.7-.1.5-.7 1Zm1.4-34.2c-1 0-.2-1.4.4-.9.3.4-.2.8-.4 1Zm1.7 24c-1.6.5.3-1.5 0 0Zm25.5-11.7c-.7.6-1-.2-1.2-.7l-.8-1.5c.3-1.2 1 .6 1.2.7.4.3 1.5.9.8 1.5Zm1.5 3.3c-.2.2-.3.2-.5 0-.5-.3.7-1.1.5 0Zm.1 2.5c-1.1-.5-.3-2.4 1-1.3.9.8 0 2.3-1 1.3Zm3.6 5c-.6 0-1-.2-1-.9 0-.5 0-.8.5-.8 1.2 0 1.1 1.2.5 1.7Zm214.7-35.5v.1H934.4l-.2-.2-.2-.2v-.1l-.2-.3V65l.1-.2.2-.1h.4l.1 1.1.1.4v.6Zm85.5 53.5c.2 0 .4 0 .6.2 0 0-.2 0-.3.2l-.3-.4Zm49.4-37 .2-.3v-.1l.2-.2c.3-.4.3-.5.4-.3 0 .1 0 .3.2.5l-.2.2-.1.2-.1.2h-.1l-.1.1h-.1v.1h-.2l-.1-.2v-.2Zm-1 9v-.2c.3-.4.5-.6.8-.2.1.1 0 .6.2.8l.6.5c.3.3.4.8.3 1.2l-.7-.4-.4-.2-.3-.3-.3-.3v-.1l-.2-.2V92.3Zm-2-1.5c-.9.3-.3.8-1.3.5-.6-.1-1.3-.6-1.2-1.2v-.3l1-1v-.1l.4-1.4.1-.2c.8-.8 1.3.5 1.3 1.1 0 .7-.3.8.2 1.4.4.3 1 .4 1.5.6-.6.8-1.3.3-2 .6Zm.8 16c0 .1 0 .1 0 0v-.2l.2.1-.2.2Zm.1-2.6.4-.2h1c.7-.1 1.3-.5 1.9-.3-.6.6-2.4.6-3.3.5Zm3.8-7.4-.3-.3-.1-.3v-.4h.4c0 .4 0 .8.2 1.1h-.2v-.1Zm1-17.1v-.3l.2-.1.1-.1h.4l.2.3c-.2.4-1 1.1-1 .2Zm.3 24.9-.1-.2v-.2h.1l.3-.1h.4c.2.1.2.2.2.3v.2h-.1l-.4.3-.2-.2-.2-.1Zm.3 3.3c.5-.2.7.5.7.7-.4 1-1.5-.4-.7-.7Zm1.7-52.5.1-.3c.2-.3.4-.5.8-.5.9 0 .6.8.8 1.4-.8 1.5-2.2 1-1.7-.5Zm2.2 50.1v.3h-.5l-.1-.1-.2-.2-.1-.2v-.4l.3-.2.5-.2c.7 0 .4.5.1 1Zm5.7 12.2-.3-.6.5.2-.2.4Zm.9-7.4-.1.2h-.1l-.2.2-.3.1-.3.2v.4l-.1.3v.1l-.3.1h-.2v-.1a.7.7 0 0 1-.2-.3l-.1-.2v-.7l.3-.3h.1l.6-.2h.2l.3-.1h.3v.3Zm11.1-12.6H1094.3v-.4l.4.1V97.7Zm3.8 13.5-.2-.4c.6 0 1.3.1 1.5.7-.3.4-1 0-1.3-.3Zm10 4v.1h-.1l-.3.2-.5-.1h-.1l-.5-.2h-.1l-.4-.2v-.4c.1-.2.2-.3.4-.3a1.8 1.8 0 0 1 .6 0l.5.3c.2 0 .3.2.3.3l.1.3Zm18.6-16-.2.1h-.1l-.1.1H1126.3l-.2-.4v-.4l.3-.3c.6-.1.6.4.7.7v.1Zm33.8 18.1-.3.7c-.4.7-1 1.8-1.5 1.8-.7.2-2.2-.7-2.2-1.4v-.3c.3-.5 1.4-1.4 1.8-1.6 1-.3 1.7 0 2.2.8Zm-4.1-.6c0 .2-.1.3-.2.3-.1.2-.2.2-.3.2h-.4v-.1l-.1-.3V116.5h.1c0-.2.1-.2.2-.3h.1l.5-.1.1.5Zm.5-1.9v-.4l.1-.4.4-.4h.7l.3.2v.2l.2.2v.1l.1.2v.2l.1.3v.4l-.3.2-.4.4h-.1l-.3.1h-.1l-.3-.1-.2-.3-.2-.4v-.4Zm-6.8-4.6v-.3l.2-.2.2-.2h.1l.3-.2.5-.1c.7 0 .6.4.8.8-.4.8-2.1 1.6-2.1.2Zm3.6 2.5h-.1l-.1.1v.1h-.2l-.1.1h-.1l-.1-.2v-.7l.2-.1.1-.1h.4l.2.4v.1l-.2.2Zm.2 1.6-.1-.1v-.1c.1 0 .2 0 .2-.2l.2-.3v-.1l.2-.2c0-.1 0-.3.2-.4l.1-.2.3-.4v-.1l.4-.4c.6-.3 1.1 0 1.3.5v.6l-.1.1v.1l-.2.2-.1.2-.2.3-.2.2-.2.3a1.1 1.1 0 0 1-1.5.2c-.2 0-.3-.2-.3-.2Zm6.7 8.3c0 .1 0 .3-.2.5-.3.6-.8 1.4-1.3 1l-.3-1.7c0-.5 0-.8.2-1 .1-.3.5-.5 1-.9l.7-.8.2-.7c.6-1 1.7-1.5 2.1-.1l-.1 1c-.4.8-1.7 1.5-2.1 2.4l-.2.3Zm9.3-3-.1.2c-.4.5-1.7.9-2.2.5-.7-.4-.7-1.6-.4-2.3 1-.3 3.3.3 2.7 1.6Zm61.4 7c-.5.7-1.6.5-2.3.5-.4 0-1 .4-1.3 0v-.2c0-.5.6-1.5.9-1.7.7-.8 1.3-.7 2.2-.7.4.5.9.8.9 1.4l-.4.8Zm16.7-1.8-.2.4-.2.2c-.1.2-.2.2-.3.2h-.4a1 1 0 0 1-.6-.5v-.1l-.1-.3v-.3c0-.2.1-.2.2-.3v-.1l.2-.2.3-.2h.3c.2 0 .3 0 .4.2.2 0 .3.2.3.3v.1l.1.3v.3Zm3.8.8c-.6.2-.8 0-1-.4-.8-.1-1.6-.4-1.6-.6 0-.1 0-.3-.2-.5-.8-1.6 1.3-1 1.3.6v.1l.4.4c.7.2 1.4.3 1.1.4Zm40.5 6.6v-.4l.6.4h-.6Zm75.8-.4c-1.5 0-2-1.2-.6-2 .6-.2 1.2 0 1.4.6.2.8-.3 1-.8 1.4Zm7.4-43.7h1c-.3.8-1 .9-1 0Zm3.1 25.3c-.9 0-2.2-1.6-.9-2 .6-.2 1.4.4 1.5 1 .2.7 0 .5-.6 1Zm1.4-34.2c-1 0-.2-1.4.4-.9.3.4-.2.8-.4 1Zm1.7 24c-1.6.5.3-1.5 0 0Zm28-7.2c1 .8.2 2.3-.9 1.3-1.1-.5-.3-2.4 1-1.3Zm-1-1.2c-.2.2-.3.2-.5 0-.5-.3.7-1.1.5 0Zm-2.3-4.8c.4.3 1.5.9.8 1.5s-1-.2-1.2-.6l-.8-1.5c.3-1.3 1.1.5 1.2.6Zm-1.4 37.3v-.3h.1v-.3l.1-.3.1-.2.1-.3v-.2l.3-.3c.5-.5.7-.3.7.4v.4l-.2.2v.3l-.2.2v.3a1 1 0 0 1-.5.4c-.2 0 0 .2-.2.1h-.2l-.2-.1v-.1l.1-.2Zm0-1v.3h-.2v-.1l-.1-.2v-.2l-.1-.1-.1-.2c0-.3 0-.3.2 0l.1.1V126.2h.1v.2Zm-1-1.1v1.3l-.2.4c-.4.6-.6.4-.8-.3V126l.1-.3v-.5l.5-.5c.2-.1 0-.2.1-.2h.4V125.2Zm-.3-1.2c-.6.5-1.3.6-1.9.2v-.6c0-.7 0-1.6.5-1.9.4-.3 1.8-.2 2 .3v.2c0 .5-.4 1.5-.6 1.8Zm-2.3-.7c-.3 0-.4-.3-.6-.4v-.4c-.1-.3 0 0 0-.2h.3c0 .1 0-.2.1 0l.1.4V123.4Zm0-2.3v-.1c.2-.2.2-.5.4-.3l.2.6v.3h-.5l-.2.2-.1.2c-.2.3-.3.2-.4-.3v-.3c.2-.2.4 0 .6-.2v-.1Zm-1.9 2.3a1 1 0 0 1-.2-.7c0-.8.7-1.7.7-2.5v-.3l-.1-.4c0-.5-.4-1.4.1-1.3l.8 1.1.3.8c0 .3-.2.5-.4 1-.2.3-.2.5-.2.8v.6c0 1-.2 1.8-1 1v-.1Zm3.6 7.6v.1l-.1.3a1.3 1.3 0 0 1-.3.3l-.2.2h-.3c-.3 0-.4-.1-.6-.3 0-.7 1-1.9 1.4-.9v.3Zm5-4-.1.1-.3.2-.2.1H1407.5l-.2-.1c.3.2.1.3 0 .5V128.7l.1.1v.2l.1.3V129.6h-.3c-.3-.2-.4-.4-.4-.5l.3-.9V128l-.2.2c-.2.2-.2.4-.2.7 0 .3-.1.4-.3.7v.5l-.2.6-.2 1.5c0 .6-.2 1-.3 1.6l-.2.6c0 .3.1.5 0 .8l-.1.4v.7c-.2.4-.1.6-.5.7.2.4 0 .9 0 1.3v1.1c-.1.4-.3.2-.4 0-.2-.2 0-.7 0-1v-.4l.1-.3c0-.2.2-.3.1-.5-.2.2-.8 1.6-1 .5 0-.3.7-1.4 1-1 0-.5.2-1 .3-1.4 0-.5.3-.9.2-1.4 0-.4-.1-.8.1-1.1l.2-.2.1-.4c.2-.4 0-.8.2-1.2l.2-.6c.2-.3 0-.3 0-.6l.3-.4v-.4c0-.4 0-1 .2-1.3 0-.2.2-.2.2-.3l.1-.6c0-.5 0-.7.2-1.2.3-.7.3-1.4.5-2l.3-.6v-.7l.2-.7s-.2-.1-.1-.2l.1-.3v-.2l.2-.3s-.1-.1 0-.2v-.2c.3-.4.4-.9.5-1.3v-.3l.1-.1v-.4l.3-.2v-1.4l.2-.2c.4-.4.5-.7.4-1.2 0-.1 0-.5.2-.5.3-.2.3.3.3.5s-.2.3-.3.5v.7c-.1.3-.5.6-.5 1v.4l-.1.4v.4l-.3.2v.4l-.2.9-.1.5v.4c0 .2-.1.3-.3.4-.3.4-.1 0 0 .5l-.2 1.5-.2.7c-.3.3-.4.3-.5.7l-.1 1.5h1.4l.3-.1h.1l.2-.2h.1l.3-.1h.4l.2.3c.2.6 0 .7-.4.7l-1-.2-.2.1h-.1l-.2.2Zm1.9 4-.1.4-.3.1h-.6l-.2-.2-.2-.2-.2-.3v-.5l.2-.5h.1l.2-.2H1409.5l.1.1.2.2.3.3.2.4v.4Zm.3-2.3-.1.2-.4.3a.7.7 0 0 1-.2-.3v-.7h.1l.2-.1h.1l.2.2V128.5Zm1.5-5.3v.1l-.1.2h-.3l-.3-.1v-.5h.1v-.1l.1-.1.1-.1h.2l.1.3.1.3Zm-.5-21.9c0-.5.1-.8.6-.8 1.2 0 1.2 1.2.5 1.7-.6-.1-1-.2-1-.9Zm8.8 35.2h-.2v-.3l.3.1v.2Zm25.8 1.4c.4 0 .8 0 1 .3l.2.3c-.3.3-1.2-.2-1.2-.6Zm43.1 6.7-.1.3-.2.3-.4.2h-.3a1 1 0 0 1-.6-.5v-.2l-.1-.3v-.3l.1-.3.2-.3.3-.1h.4l.4.1.3.3v.8Zm3.9.8c-.6.2-.9 0-1.1-.4-.8-.2-1.6-.4-1.6-.6l-.1-.6c-.8-1.5 1.3-.8 1.3.7l.4.5c.7.2 1.3.3 1 .4Z" fill="#fff"/></svg>