<svg fill="none" xmlns="http://www.w3.org/2000/svg" viewBox="0 0 1596 181" preserveAspectRatio="none"><path d="M1402.4 23.5h-1c0 .9.8.7 1 0ZM1407.6 38.6c-1.5.4.3-1.6 0 0ZM1404.6 48.7c.5-.5.8-.2.6-1-.2-.5-1-1-1.5-1-1.3.5 0 2 .9 2ZM1406 14.6c.1-.1.6-.5.3-.9-.5-.5-1.4 1-.3 1ZM1438.3 37.7c.7-.5.7-1.8-.4-1.8-.5 0-.7.4-.6.9 0 .7.4.8 1 .9ZM1434.6 30.2c.2-1.2-1-.3-.5 0 .2.2.4.1.5 0ZM1434.8 32.7c1 1 1.8-.5.9-1.3-1.2-1-2.1.7-1 1.3ZM1433 27c.8-.8-.2-1.3-.7-1.6 0-.1-.8-2-1.1-.7l.7 1.5c.2.5.5 1.3 1.2.7ZM959.5 1.3a9 9 0 0 0 .1.4V2l.3.2.2.2H960.5v-.7l-.1-.4-.1-1.2a.7.7 0 0 0-.4 0l-.2.2-.1.2v.9ZM1091 26.7c1 .3.5-.3 1.2-.6.8-.2 1.5.3 2-.5-.4-.2-1-.3-1.4-.7-.5-.5-.2-.7-.2-1.3 0-.7-.4-2-1.3-1.2l-.1.3-.4 1.4c-.3.4-.8.7-1 1.1v.3c0 .6.7 1 1.2 1.2ZM1095.4 19.1h.2l.1-.1.2-.2.1-.1.1-.2.1-.1v-.1h.1l-.2-.5c-.1-.3 0 0-.4.2l-.1.3-.2.3-.1.3v.2ZM1099 14.9c0-.2-.2-.2-.3-.3h-.5l-.1.1v.1l-.1.2c0 1 .7.2 1-.1ZM709.8 23.5h-1c0 .9.8.7 1 0ZM713.4 14.6c.1-.1.6-.5.3-.9-.6-.5-1.4 1-.4 1ZM326.2 56.3l.1.1a.5.5 0 0 0 .4 0l.1-.1v-.5h-.3l-.2.2V56.3ZM161.2 17.6h-1c0 1 .8.8 1 0ZM166.4 32.7c-1.5.5.3-1.5 0 0ZM164.8 8.8c.1-.2.6-.6.3-1-.5-.5-1.3 1-.3 1ZM197.2 31.8c.6-.5.6-1.7-.5-1.7-.5 0-.6.3-.6.8 0 .8.4.8 1 1ZM193.4 24.4c.2-1.2-1-.3-.5 0 .2.2.4.1.5 0ZM193.6 26.9c1 1 1.8-.6.9-1.4-1.2-1-2 .8-1 1.4ZM192 21c.7-.6-.4-1.1-.8-1.5-.2 0-1-1.9-1.2-.6l.7 1.5c.2.5.6 1.2 1.2.7ZM427.4 33H427.8v-.2l-.3-.2-.1.3v.2ZM485.5 45.4c-.2-.4-.1-.8-.8-.8a1 1 0 0 0-.5 0l-.3.2h-.1l-.2.3-.1.1-.1.4c0 1.4 1.7.5 2-.2ZM500.9 55.7c.6.3 1.8 0 2.2-.5l.1-.3c.7-1.2-1.7-1.8-2.7-1.5-.3.7-.3 1.9.4 2.3ZM490.3 50.7l.1.4.2.2.3.2h.1l.3-.1h.1l.4-.4.3-.3V50a2.3 2.3 0 0 0-.2-.4v-.2l-.2-.1-.2-.2-.3-.1h-.5l-.3.4-.1.4v.5a1.8 1.8 0 0 0 0 .5ZM486.3 48.2v.1h.1v.1h.2l.1-.1h.1l.1-.1V48l.2-.1v-.2l.1-.1-.1-.4H486.5l-.1.1v.1l-.1.3V48.1ZM489.9 53.5l-.1.3c0 .7 1.5 1.5 2.2 1.4.6 0 1.2-1 1.5-1.8l.3-.7c-.4-.8-1.2-1.1-2.1-.8-.5.1-1.5 1-1.8 1.6ZM487 49.5l.2.1.3.3.4.1c.4.1.8 0 1.1-.3l.2-.3.2-.3.2-.2.2-.3v-.1l.1-.2v-.1c.2-.2.2-.4.1-.6-.1-.6-.7-.8-1.2-.4l-.4.3-.1.2-.3.3-.1.2-.2.4-.1.2v.1l-.2.3c0 .2-.1.2-.2.2l-.1.1ZM489.1 51.5l-.3.3V52.5l.2.2h.2c.1 0 .2 0 .3-.2l.2-.3v-.7l-.6.1ZM398.4 26.7c1 .3.5-.3 1.2-.6.8-.2 1.5.3 2-.5-.4-.2-1-.3-1.4-.7-.5-.5-.2-.7-.2-1.3 0-.7-.4-2-1.3-1.2l-.1.3-.4 1.4c-.3.4-.8.7-1 1.1v.3c0 .6.7 1 1.2 1.2ZM402.8 19.1h.2l.1-.1.2-.2.1-.1.1-.2.1-.1v-.1l-.1-.5c-.1-.3 0 0-.4.2l-.1.3-.2.3-.1.3v.2ZM401.8 28.2v.2l.1.2.2.2.1.1.3.2a7.5 7.5 0 0 0 1.2.7c0-.4-.1-1-.4-1.3-.1-.1-.5-.2-.6-.4l-.1-.8c-.4-.5-.6-.3-.8.1v.3l-.1.2V28.2ZM404 31.5l.1.3.2.3.3.2-.2-1.1h-.4v.2ZM406.4 14.9c0-.2-.2-.2-.3-.3h-.5l-.1.1v.1l-.1.2c0 1 .7.2 1-.1ZM439.4 50.3l.4.2.6.2.6.1h.3V50.1l-.4-.3-.5-.2h-.6c-.2 0-.3 0-.4.2v.4ZM432.8 47c-.3-.7-1-.9-1.6-.8 0 .1 0 .3.2.4.3.4 1 .6 1.4.3ZM415.6 53.1l.2-.4-.5-.2.3.6ZM459.3 34.7h.1l.2.1h.1l.2-.1v-.1l.2-.1v-.2c-.1-.2-.1-.8-.7-.6l-.3.3v.4c0 .2.1.2.2.3ZM406 43.3c-.8.3.3 1.7.8.7-.1-.2-.3-.9-.8-.7ZM400.4 42.2c0 .1.1 0 .2 0l.2-.1-.3-.1v.2ZM446.6 57.7l.1.4.1.1.2.3.2.5v1.7c.1.3.4.4 1 .3l.3-.2.1-.1.1-.1v-.4l-.2-.3-.2-.3-.2-.2-.1-.1-.2-.2-.1-.3v-1c.2-.6.1-1.2-.7-.9l-.3.2-.2.2v.4ZM404 39c-.7-.2-1.3.3-2 .3h-1l-.4.3c.9 0 2.7 0 3.3-.5ZM409.3 40l-.2.3v.6l.2.1h.1l.5.1V41c.3-.5.6-1 0-1h-.5v.1ZM406 39.5h-.3l-.1.1v.4h.1l.2.1.2.2a.8.8 0 0 0 .5-.3v-.4h-.2a1 1 0 0 0-.4-.1ZM414.6 46.6a2.3 2.3 0 0 0 0 .3l.3.3h.4V47l.1-.4.1-.2v-.1l.3-.2.3-.2h.2v-.1l.2-.1v-.4H415.5l-.6.2-.1.1-.2.2-.1.3v.4Z" fill="#FF0040"/><path d="M1593.2 60.1c-1.3 0-1-.3-1.5-.5-.5-.3-.7-.7-1-1-.5-.3-4-1.1-4.1-1.1h-2.3s-1.8.3-2.5.7c-.8.3-.4 0-1.6.7l-3 1.3c-1 .6-1 .7-2.3 1.8-1.3 1.1-5 1.2-5 1.2s-.6.8-1.2 1.3c-.7.5-.9.3-3.2.2-2.3-.2-.6-.5-1-1-.4-.7-.8-.3-1.2-.4l-2.5-.7s-1 .6-1.4.3c-.4-.3-1.4-.5-2-.6-.6 0-.9.4-1 .8-.3.3-1.2 0-3 0h-1.3c-.4-.2-.4-.4-.8-.5-.6-.3-1-.8-2.8-2-1.8-1.2-2-1.1-2.2-1.2l-2.3-.2c-.6-.1-.5-.2-1.6-.3h-2.3c-.7 0-.1.6-.2.8 0 .2-2.9.3-3.1.3-.3 0-.8-.6-1.7-1-.8-.4-.7-.5-1.1-1-.4-.4-2.6-1-4.3-1.8-1.7-.7-2.2-.2-2.7-.1-.5 0-.2.1-1.9 1.4-1.6 1.2-1.8-.6-2.8-.8-1-.3-1 0-2.3.2-1.2.2-1.2.5-2.7.8-1.6.3-2.3.5-3.1 1.3-.9.8-1.3.6-3.1 1-1.8.3-.4-.1-1.2-.7-.8-.5-1.1-.4-1.8-.4-.7-.1-.2.4-.2.4s-.7.4-2.6.4c-1.9 0-.6-.4-1-1-.5-.5-1-.5-2-1-1-.4-1 .1-1 .3 0 .1-.2.9-1.8 1l-4.8-.2c-2 0-1.9-.3-2.5-.6-.7-.3-.7-.4-2.4-1.7-1.7-1.2-1.3-.2-1.4-.2-.1 0-.7.5-1.1.5-.4 0-1.2-.1-2-.4-.7-.3-2-.5-2.5-.7-.4-.1-1.8-.4-3.3-1.3l-1.8-1.1c-1-.6-1.3 0-3 0s-.3 1-1 1.7c-.3.4-.9.3-1.5 0-.5.2-1.2.1-1.7.1-.3 0-1 .4-1.2 0V54.5a3 3 0 0 1-.4 0c-.5 0-.7.7-.9 1.6-.2.9-1.8-.2-2.3-.4l-2-.7c-.7-.2-1 .9-1.5.7-.4-.2-1.3-.4-2.3-.4-1 0-.9.3-1.2 1.2-.2.9-.5 1-1.8 1.6-1.4.5-1.1 0-4.1 0-3 .1-1.5.2-1.6.5-.2.2-2 .8-3.8.6-1.9-.3-1.4.2-1.9.3-.5.2-.5.5-1.6.7-1 .3-2.4-.6-2.9-.9-.4-.3-2.5-1-3.1-1.3l-1.3-.5s-1 .5-2.4.5a3 3 0 0 1-.3 0v-.8c0-.5-.2-.2.1-.6.2-.1.3-.2.3-.4v-.4l.1-.5c0-.3 0-.6.2-1v-.2c0-.1.2-.1.2-.3v-.4l.2-.4v-.4c0-.4.4-.6.5-1V51l.3-.6c0-.2 0-.6-.3-.5-.2 0-.2.4-.2.5 0 .5 0 .8-.4 1.2l-.3.3.1.6v.7l-.3.3v.7a9 9 0 0 1-.5 1.4l-.2.2v.2l-.1.2v.2l-.1.3v1.1c-.1 0 .1-.2-.3-.5-.6-.4-2.6-.3-2.8-.3l-2-.5-.5.1-.2-.6c-.2-.2-.2.1-.3.3l-.1.1c-.2.3-.5.1-.6.3v.2h-.3c0-.2 0-.3.2-.5.2-.5.4-.7.4-1l-.3-.8-.8-1.1c-.5 0-.1.8-.1 1.3v.7c0 .4-.2.9-.4 1.4-.9-.3-1.5.5-1.7.6-.2 0-.4.5-2.3 0-1.8-.4-2-.5-3-1-.8-.5-2.7-.5-2.7-.5s-1.5 0-2-.2c-.4-.2-1-.5-1.5-1h-1l.1-.6V54l-2.7-2.7c-.8-.8-.8-.3-1.8-.3s-1 .5-1.7 1c-.8.5-2.4.1-3.7 0-1.3 0-1.7-.1-2.9-.5-1.1-.3-1.1-.6-1.7-.9-.5-.3-1-2.4-1-3.2-.1-.9-1.6-.7-3.4-1-1.9-.2-.9.1-1.9 0-1 0-1.5-.3-3-1-1.6-.7-1-.5-1.9-1-.9-.4-1.7-.4-2.9-.7-1.2-.4-1-.4-1.6-.9-.7-.5-.5-.5-1.2-.6-.8-.2-1.2 0-2.4-.1s-2.4 0-3.1-.2c-.7-.1-.5-.3-.6-.3l-3.7-1c-1.3-.5-1.5 0-1.7 0-.2 0-.3.3-.3 1.2v.2c.7-.1 1.7.6 1 1.4-.7.7-2.3-.2-1.5-1v-.2l-1.6-.3c-.1-.2-.4-.4-1.6-.4-1.2 0-1.4 0-2-.4l-1-.7c-.7-.4-1.8-.5-2-.5-.3 0-.5.3-.8.7-.3.4-.9.7-.9.7l-2-.1-4 .6s-1.5.5-2.3.6l-2.9 1.2c-2.3.9-1.5.3-3.3 1.8-1.7 1.5-2.3 1-3.6 1.8-1.2.8-.8 1.1-2.8 1.3-1.9.2-1.3-.4-1.9-1-.6-.6-2.2-.5-3-.7l-1.6-.8c-.9-.6-2.4-.8-2.7-.8-.4 0-.3 0 0 .8.2.8-2.1.7-4.4.6-2.2-.2-1.8-.8-2.6-1.4-.8-.6-2-.6-2.9-1l-1.4-.7s-2.8-2-6-2.4a47.8 47.8 0 0 0-1.5-.2c.4.1-.5 0 0 0-.5 0-1.1-.6-2.4-1.5-1.3-1-2.4.3-2.4.3s-.2.7-1.3 1.2c-1 .6-2.2.3-4.2 0s-.9.1-1.1.4c-.3.2-.4.5-1.5.5-1 0-.5 0-1-.3l-3.7-1.5c-1.1-.5-1.2-.4-3-1.3-1.8-.8-1.6-.4-2.5-.4h-2.8c-.9 0-.6-.5-1.4-1-.8-.4-2-.5-2.8-.4-.7 0-1.5-.3-4.1-.9-2.6-.5-1.8-.1-3.1-.5l-2.6-.6-2.9-1.4-2.2.4c-.2.2-.5.8-1.3 1h-1.6c-.8 0 .3-.7-.3-.8l-3.3-.3c-.9 0-1.5.4-1.8.6-.3.2-.3.4-2.5 1.9-2.1 1.5-.8-.3-1.5-.6-.7-.2-1.5-1-2.4-1.3-.8-.2-.1.1-1.1.6-1 .4-1 0-1.8-.4-.9-.4-.5-.5-1.3-1-.7-.6-2.3 0-4.3.4s-1.3.4-2.7 1c-1.4.7-1.1.7-2.9 1.8-1.7 1.2-.3.4-1.7.8-1.3.3-1.9.1-3.2 0h-2c-.6 0-.3.6-1.4 1.5-1 1-.7.5-1.3.8-.6.3-1 0-1.2 0-.2 0-1.2-1-2-1.3-1-.3-1.3 0-1.5 0-.2 0-.8 1-1 1-.3 0-.5-1-2.6-1.2-2.1-.2-.3.2-1.4 1.3-1 1.1-.2.4-2 .8-1.8.5-1 0-2-.6-1-.5-1.1-.7-2.2-1.4s-3.2-2.4-3.2-2.4-.3.2-2.7.3c-2.4.2-1-.1-1-.1s-2.1-.5-3.5-1.2c-1.4-.8-1.6-.6-2.7-.9l-2.4-.6c-1-.3-.7 0-2 0-1.2 0-1.3-.3-2.7-.5-1.5-.1-1-.3-1.6-.8-.6-.4-.9-.3-1.2-.4h-1.3l-1.8.4c-1.2.3 0 .8-.8 1.6s-.9 0-1.9-.2c-1-.2-2 0-4 0-1.8 0-2.5-.4-3.4-.8-.3.4-.8.7-1.3.4-.1-.4-.4-.7-.6-1.1l-2.6-.8c-1.2-.3-1.2.5-1.6 1.3-.3.7-.5.8-2 1.2-1.5.4-1.2-.1-2-.3-.7-.3-.8-.3-2.1-.4-1.3-.2-1.2.1-1.4.4-.1.2-.3 1-1.5 2.3-1.1 1.3-1-.1-2.1-1.1-1.2-1-.8-.7-2.5-1.5-1.8-.8-1.9.2-2.2.7-.3.5-.2 1-1.7 1.6-1.5.8-1.7-.3-2.6-.6-.9-.3-.6-.6-.8-1-.1-.2-1.5-.2-2.2 0h-1.7l-2.4-.2s-1-.2-1.5-.5c-.6-.2-1 1.2-1.3.8-.4-.4-1.8-.7-1.8-.7l-1.7 1.2-1.2-1.2-1 1.1s-.5-.4-.5-.6c0-.1 0-.7-.2-.8l-3 .4c-1 .1-.6-.2-1.6-.7-1-.6-.9-1-.9-1l-1.5-2c-.5-.5-1.8 0-1.8 0s-.3.6-1.3 1.4c-1 .9-1 0-2.4-.7-1.5-.6-.6-.4-1.9-1.3-1.2-1-1.2-.3-3-.3-1.7 0-.4.3-.9 1-.4.5-1.3.3-2.3 0-1-.3-1.1-.6-2-1-.9-.5-.6-.3-2.8-.1-2.2.2-1.2.2-1.3.6-.2.5 0 .9-2.5 1-2.3.3-1.2-.2-1.5-.4-.3-.2-1.4-.4-3.5-1l-.5-.1c0-.2-.1-.4-.3-.5l-.6-.4-.1-.8c-.4-.5-.6-.3-.8.1v1l.2.2.2.2.3.3h.1v.1c0 .1-.1.3-.5.5-1.3.5-.7.5-1.5.6l-3-.2c-1.7 0-.3.1-.5 1-.2.7-1.4.3-3.1.6-1.7.2-1.3-.2-2.8-.5-1.5-.4-1.6-.7-1.7-.7 0 0-.7.7-1.6.5-.8-.2-1.2.3-1.3.7-.1.3-1.2.4-2 .4-.9 0-1.8-.3-2.2-.6a11 11 0 0 0-1.7-.6l-2-.6c-1.1-.4-.9 0-3.8 0-2.8.1-.5.2-1.1 1-.7.9-.8.6-1 1-.3.2-.5 0-2.5.6-2 .5-.7.6-1.6 2-1 1.6-.6.2-1.5-.3-1-.5-.6-.9-.8-1.2-.2-.4-1.3.1-2.7.3-1.4.1-1.2-.3-1.7-.6-.4-.3-1.3-.6-1.9-.8-.5-.2-1.6-.1-3.5-.3-2-.1-.8.1-1 .9 0 .7-1 .5-2.9.2l-2-.4c-1.5-.3-.5 0-1.4.4-.8.3-2.2 0-2.4 0-.2 0-2.5-.3-3.7-.6-1.3-.4-1.3-.6-2.3-1.3-1-.7-1.4-.1-2.1 0-.7 0-.8.4-1.4 1.3-.7.8-2.3-.1-3.6-.5-1.2-.4-.5-.8-1.5-1.7-.9-.8-1-.3-1.7-.7l-1.8-.8c-.9-.3-1.4 0-1.8 0-.4.2-2.6 1.2-3.4 1.1-.8 0-2-.8-2.7-1.1-.8-.4-1-.8-2.1-1.6-1.1-.9-1.7 0-2.3.7-.6.6-1.3.5-1.8.6h-.2l-.7 1.1h.2v.2l-.5.3-.6.4c-.2.2-.4 1-.7.9v-.6l.2-.4v-.2c.3-.3.8-.5 1.2-.6 0-.3.4-.8.7-1.1l-4-.5c-2.5-.3-1-1.2-1.4-1.8-.4-.6-1.1-.3-4-.7-2.8-.4-.5.1-1.2.6-.6.6-.5.4-2 .9-1.7.4-.9-.2-1.5-.7-.5-.6-.6 0-1 .9-.2.8-3.2.3-3.6.2l-2.4-.9-1.7-.5c-.5-.2-1.1-.5-1.4-.8-.3-.3-1.8-.6-2.4-1-.6-.3-.3.2-1.3.6l-2.2.9c-1.4.4-.8 0-1.1 0-.3 0-1 .4-1.5.8-.6.5-.9.4-1.4.4l-2 .2c-.3 0-.5.3-1.2 0-.6-.2-1-.6-2-1.1-1-.6-3 .1-3 .1s-.5 1.1-1 1.5c-.5.4-1.7.1-2.9.2l-2.4.1-3.1-.1c-1-.1-.6.3-1.8 1.8-1.2 1.4-1.5.8-2.5.6-1-.1-.7-.3-1.5-1.1-.9-.8-2-1.3-3.1-1.7-1.2-.4-.2.2-.3.4a18.8 18.8 0 0 1-6.5.2c-1 0 0 .3-1.5 1.4-1.5 1.2 0 0-.7-.5l-1.7-1.4-2.2-1.6c-1.3-1-1.2-.1-2-.4-.9-.2-.8-.5-3-1.2-2.3-.7-.5.1-1.1.6-.6.5-1 .6-2.6.2-1.6-.4-1.5-.5-1.6-.7l-2.3.7c-.6.1-.7.4-2 .7-1.2.3-2.6-.3-3-.4-.5 0-.8-.5-1.4-1l-1-1c-.6-.5-1.4.3-1.4.3l-2 .8-1.4.7-2.5.3c-.7 0-1 0-1.7-.3-.7-.2-1-.4-1.3-.7l-1.3-1.4c-.6-.7-1.3 0-1.8 0s-1.4-.3-2.2-.7c-.7-.4-1.5-1.2-1.5-1.2l-1 .8-1.2-.7-1-.7-2.8.7c-1 .2-.7.5-1.6 1.1-.8.7-.5.6-1.5 1l-3.9 1.5c-2 .7-.3 0-2.4-.7-2-.7-.6-.6-1.5-1.1-.8-.5-1 .3-1.6.5-.6.2-.3.2-2 1.7-1.7 1.4-1.4.6-2.5.9-1.2.2-.8.1-2.6 0-1.8-.3-1-.4-2.8-.8-1.8-.4-1.1.5-1.4.6-.3.2-.5.3-.9 1-.3.8-1 .8-1.8.7-.9 0-.2.4-.4.6-.2.2-1.7.5-2.8.6-1.1.2-.7.2-1.2.4-.5.3-.7.8-.9.9l-1.3-.4-1.6.9c-1.2.6-.4 0-.7-.3-.4-.2-1.7-.4-2-.4-.3 0 0 0-.9.6-.8.7-1.3.1-1.6 0-.4 0-2-2-2.7-1.8-.7.2-1.7 0-1.7 0s-2.8-.3-4 0c-1.2.2-2.3-.3-3-.7-.6-.4-.3-.4-1.3-.7-1.1-.2-2.3-.1-2.9 0-.6 0-1 .6-2 .7-.9.2-.6 0-1.6-.4s-2.2-.5-2.2-.1c-.1.4-.2.2-1.8.4s-1.2-.2-1.5-.3l-1.2-.4-3.2.1c-.5.2-1.2 1-3 2.2-2 1.2-2-.3-2.3-.6-.4-.4-1-.4-1.9-.9-.7-.5-.6-.8-.9-1-.2-.3-1.8-1.1-2.5-1.6-.6-.4-.5.5-.9 1-.3.6-.7.4-1.7.4h-2c-1 .3-1.1 1-1.5 1.6-.4.4-1.5.9-2.5 1.5s-1.3.5-2.4.5c-1.1 0-.6-.2-1.7-1-1-1-1-.8-1-.8s-1.1.4-2.4.6c-1.3.3-.6 0-1.6-.2h-4a8 8 0 0 1-1.9 0c-.7-.1-1-.3-1.5-.7l-1-.6-3-2-1.4.5c-1.3.6-.6.8-1.3 1-.7.2-.2 0-2-.2-1.7-.2-1.5-.4-2.9-1.1l-2.6-1.1c-.5-.2-2.4 0-3-.2l-2.7.1c-2.3.2-1.2.3-2.7.6-1.6.3-1 .7-1.4 1-.4.5-.9.4-1.9.4-1 0-.3 0-2-.3-1.7-.2-1.5 0-2.9 0-1.3 0-2.7.4-3 .5l-1.5.5c-.4.1-1.1.6-1.6 1-.4.5-.4 0-1.9-.4l-2.4-.5c-1.4-.2-2-.7-2.4-.9-.5-.3-.7-.4-1-.4l-.4-.1c-.2-.4-.7-.7-1-.9v-.6l-.2.2c-.3-.5-.8-1.1-1-.2l.4.7-.9.7c-.5.4 0 0-.1 0-.1.1-1.2.6-1.5.9-.2.2-1.8.8-1.8.8l-2.7.3h-2.2s-1.7-.3-2.1-.5l-2-1c-.2-.2-1.6 0-2.2 0-.6 0-.6.5-.6.8 0 .2-.5.7-.8.7-.2 0-.3-.7-.3-.7h-1.8c-.8 0-1.5 0-2.7.4-1 .3-.6.6-.8.8v.4c0 .2-.2.2-.3.4-.3.3-.2 0-.1.5 0 .5 0 1-.2 1.5 0 .2 0 .5-.2.7-.2.3-.4.3-.4.7l-.2 1.5c.5-.2 1.1 0 1.5 0l.3-.1.3-.2.4-.2h.3l.1.1.2.3c.1.6-.1.7-.5.6h-1.2l-.2.1-.1.1-.2.2-.2.2h-.2l-.1.1H714.9l-.1-.2v.1c.3.2 0 .2 0 .4V37l.1.3.1.2V37.7c0 .1 0 0 0 0h-.4c-.3-.1-.4-.3-.4-.5 0-.3.3-.6.3-.8V36l-.2.1-.2.8c0 .3 0 .4-.2.6v.5l-.2.6-.2 1.5c0 .6-.2 1-.4 1.6l-.1.7v.7l-.2.4v.7c-.1.4 0 .6-.4.8.2.4 0 .8 0 1.2l-.1 1.2-.4-.5v-1l.2-.2v-.6c-.1.2-.8 1.7-1 .6 0-.3.7-1.4 1-1l.3-1.5c.1-.5.3-.8.2-1.4 0-.3 0-.7.2-1l.1-.3.2-.4.1-1.2c0-.2.2-.3.3-.5v-.7l.2-.3V37l.2-1.2c0-.2.2-.3.2-.3l.2-.6c0-.5-.1-.8.1-1.3.4-.6.4-1.4.6-2l.2-.5.1-.7.1-.7v-.6c.1 0 0-.1 0-.2-.5 0-1.3 0-1.7-.2-.5-.3-1.3-.5-2.2-.4-1 0-1.8.7-1.8.7v.6l-.4.1-.3.1-.1.2c-.2.3-.2.2-.4-.3v-.2h-.2v.8l.2.3.1-.2h.2c.2.1.1-.2.2 0l.1.4V31.5c-.3 0-.3-.2-.5-.4l-.1-.4h-.3c0 .8-.2 1.7-1 .8a1 1 0 0 1-.2-.7v-.5a13 13 0 0 0-2.1-.5c-.5 0-1.6-.4-3.2-1-1.5-.6-1 0-1.8 0s-1.2 0-2.2-.3a5 5 0 0 0-2-.4c-1 0-2.6.3-3 .4-.4 0-.8.5-1.5.9-.6.4-1 .5-1.8.8-.8.3-.9 0-2 .1-1 0-2.6.4-2.6.4l-2-1c-.7-.4-2.6-.6-2.8-.6-.3 0-1.4 1-2.3 1.5-1 .6-1-.5-2.5-1.4-1.4-.9-1.8-.4-2.1-.3-.4.1-.7.2-1.1.7-.5.5-1.7.5-2.5.5-.9 0-1.7-.3-2.8-.6-1-.3-1.3 0-2 0s-1.9.3-1.9.3-1.4 1.1-2.5 1.4c-1.2.2 0 0-2-.4-1.8-.3-1.6-.1-2.3.4-.8.5-1 .6-1.7.5-.8 0-2.3-.3-3.8-.2-1.4.1 0 0-1.2 1-1.3.8-.6.2-1.4 0-1-.2-.4 0-1.2.2-.8 0-1.1.2-2.8.4-1.7.1-1-.5-1-.5l-1.5-.9c-.5-.2-1 .4-1 .4l-1 .7c-.2 0-1.3.2-1.7.4l-1.7.7c-.5.3-1 1.2-1.5 1.9s-1 .8-1 .9l-3.7.1c-1.3.1-1 0-3.4.4-2.3.3-.5.1-.8.6-.4.5-.9.8-2.5.7-1.7 0-3.6.3-3.7.3l-3.1.8-.6.8c-.1.2-1.7 0-2.7 0-1-.2-1.1-.5-1.7-.5-.5 0-1.5.4-1.5.4s-1.2-.3-2-.9c-1-.6-1.5-.8-3.2-.8-1.8 0-3.2.2-3.2.2l-2.4.5c-.2.2-.9 1-1 1.3-.2.2-1.8.5-2.4.7-.7.1-1.6-.5-1.5-1.2.2-.7-.5-.5-1-.6l-3.8-.1c-1.4 0-1.5.5-2 .4-.6 0-1.2 1.5-1.3 1.5h-2.1c-1.4 0-1.6.7-1.6.8l-1.3 1-2.6-.6a7 7 0 0 0-1.3.5v.2l-.1.2-.1.3-.1.1-.3.3v.1l-.5.2h-.6l-.4-.5-.9.4-1.6 1.1c-.5.4-1.6.4-2.4.4l-2.2.2c-1.2.2-1.7.6-2.7 1-1 .3-.5.3-.5.5s-1.2.8-1.4 1c-.2.1-.8.5-1.2 1.1-.5.6-.7 0-1 0-.5 0-.6-.2-1.2-.7-.6-.4-.4.2-.8.2s-2 .8-3.6 1l-2.5.5c-.4 0-1.3.7-1.4.7l-6 3-2 1a7 7 0 0 1-3.5.4c-2-.1-3 0-3.2.3-.2.2-1.4.5-2.4.6-1 .1-1.5-.4-2.8-.8-1.4-.3-1 .4-1.2.7-.2.3-.6.2-2.6.2s-1.7 0-3-.3c-1.4-.3-1.6-1-2.4-1.6-.8-.6-1 0-1.5 0l-3 .1c-.8 0-.7.3-1 .6-.3.3-.5.5-1.2.5s-1.2-.7-2.1-1.2c-1-.6-.7.2-1.3 1-.5.6-.3.2-1.4.7-1.1.5-.9.2-4.8.3-3.8 0-1.6.2-1.7.3l-4.5 1-1.7.6-2.5.8c-1.8.5-.4 0-2-.2l-.6-.2a3.7 3.7 0 0 0 .5-1l.2-.4c.4-1 1.7-1.6 2-2.5.2-.2.3-.5.2-.9-.4-1.4-1.6-1-2 0v.1l-.3.7a2 2 0 0 1-.7.8c-.5.4-.9.6-1 1a2 2 0 0 0-.2.9l.1.8a6 6 0 0 0-1-.6c-1.5-.5-1.8-.2-3.5-.4-1.3-.2-.8-.1-1.5.2h.4v-.1h.6l.1.1V58l-.2.3c-.4.5-1.7.4-1.3-.4h-.5c-2 .6-.8.7-1.4 1.5-.6.9-.4.3-2.2.2-1.8-.2-.8-.2-2-1l-2.4-1.1c-1-.6-2-.3-3-.4-1.1-.1-1.5.3-2 .4l-3 1.4-3 1.6c-1.5.8-1.7 1-2.4 1.6-.6.7-1.2.6-3.4 1.2-2.1.5-.8.4-3.5.5-2.6 0-.9-.4-1.7-1.1-.9-.8-1.3.3-2 .3a7 7 0 0 1-2.6-.7c-1.4-.6-1.6 0-3.2 0h-.5c.4.3.4.7.1 1.2-.3.6-1 1.2-1.8.9-.6 0-.7-.6-.7-1.1l-.7-.4c-1-.3-1.7-.6-3-1.5l-.3-.3c-.7.2-1.1.2-1.6 0l.2-.2.1-.2.1-.1V60c-.1-.3-.1-.5-.7-.6a1 1 0 0 0-.4 0l-.2.1h-.1v-.4l-.8-.4c-.5-.4-2-.5-2.6-.6h-3.7a9 9 0 0 0-2.1.7c-1.5.6-1.2.5-2 .3-.9-.2-.8-.3-1.5-.7l-2.7-1.5c-.8-.5-2.8-1.2-3.4-1.4-.7-.2-1.6 0-1.9.4-.3.3-1.5.8-2 .1-.4-.7-2.6-.5-4.3 0-1.7.4-1.5.7-2.2 1.1-.7.4-1.6.5-3.3.8-1.8.3-1.3.6-2 1.4-.8.8-1.5.4-3.1-.4s-1.5-.6-2.4-.8c-.9-.1-1 .8-1.2 1.3-.3.5-.6 0-1.5-.7-1-.7-.8-.8-2-2-1.4-1.1-1.6.2-1.6.9 0 .6-1 .6-2 .7-.9.2-2.3 0-3.6 0-1.2.1-2 .1-2.8-.3-.8-.4-.8-.5-1.5-1.3a3.2 3.2 0 0 0-2-1.1s-.4.5-1.5 1c-1 .5-1.9-.3-2-.3l-3.1-1.3-2.4-.4s-2.7-1.3-4.1-1.3c-1.4.1-.9.3-2.8.2-2-.1-1.2 0-2.9.4s-1.4.6-2.7 1c-1.4.6-1.1.6-1.9.8-.7.3-1-.2-2-.4-1-.3-1.4-.2-2.7-.3-1.2-.1-.6 0-2 .2-1.5.1-.5.4-1.5 1.7-1 1.3-.7.6-1.3.6-.7.1-1.2-.2-2.4-.5s-.5.1-1 1c-.5 1-.3.2-1.2.1l-2.6-.1a4 4 0 0 0-1.9.2l.4-.6c0-.2.3-.3.6-.4l.5-.4v-.2h-.2l1-1.6c0-.2-1 1-1.2 1.7-.4 0-1 .2-1.1.5l-.1.2-.1.3V58.5l-1 .5c-.9.6-.6.4-2 1-1.4.5-.8.2-2.5-.3s-1.9-.9-2.7-1.6c-.8-.6-1-.8-2.5-1-1.6-.4-1 .5-1.4 1.3-.3.7-.5 0-2.4-.6s-.7-.6-2.2-1.3c-1.6-.7-2.1-.2-2.8-.2-.6 0-1 .6-1.5.5l-2.7.1c-.8 0-.6.3-1.3.4a7 7 0 0 1-2.5.1c-.5-.2-.8-.9-1.4-1.8-.6-1-1.5-.1-1.7-.1-.2 0-1.8.5-2.2.4-.5-.2-1.2-1.2-1.2-1.2l-4.6-4.3s-1 1-1.6.7l-1.4-.3c-.7 0-1.3.2-2.4.5l-2.5 1c-1.6.6-1-.3-2.4-1l-2-1c-.9-.4-1.5-2.3-1.9-3-.4-.6-.7-.4-1.9-1.2-1.2-.8-.3 0-2 0-1.5 0-.3.1-1.6 0-1.3-.2-1-.3-2.4-1.1-1.3-.9-.8-.4-1.7-.6-.9-.3-.6-.2-1.3-.6-.7-.4-.8-.6-1.4-1.1-.6-.6-1.3-.4-2.5-.7-1.1-.3-1.8 0-2.4 0-.7 0-1 .4-1.6.5-.6 0-1.3-.5-2-1.2-.5-.6-.8-.4-2-1-1.2-.8-1.4 0-2.2.1-.9.2-1 .5-1.3 1.5-.4 1-2.3.6-3.1.1l-3.9-1.8-1-.2c-.4-.2-.6 0-1.7 0a6 6 0 0 0-2 .4l-1.4.5c-.4.2-1.3.4-2.5.5-1.2 0-.6.3-1 .6-.2.3-.5.4-1 .5l-2 .2c-1.4 0-.6.3-1 .6-.5.3-.9.4-1.3.5h-2.1c-1 .2 0 .3 0 .3l-.4 1.6c-.3.5-.3 0-2.1 0s-.8.3-1.6.9l-.1.1h1c.3.4.8.8.8 1.3 0 .3-.1.5-.4.8-.6.7-1.6.4-2.4.5-.3 0-1 .4-1.2 0V49c0-.3.1-.7.4-1l-1.2-.3c-.7 0-1.4-.1-3-.7l-2-.8c-2-.6-1.3-.4-2.4-1-1.2-.8-1.8.1-2 .2l-1.3.6-2.5.1s-1 0-1.5-.3l-2.4-1-2.2-1-1.8-.6c-1-.4-1-.6-1.2-1-.2-.3-.5-.4-1.5-1.2-1-.9-.8.2-.8.2s-1.5.2-2.3 0c-.8 0-.6-.1-1-.4l-1.2-.7c-.6-.5-1.3-.5-2.1-.6-.8 0-1.2.3-1.4.5l-.7 1c-.3.2-2.2-.1-2.4-.2l-1.8.2-1.6.5-1.7.8c-1.4.5-.3 0-2-.3-1.9-.3-1.3-.8-1.8-1.2-.5-.4-1-.5-1.5-.8l-2-1c-.7-.2-1-.3-1.7-.8l-.8-.4c-.9-.4-.5 0-1.7 0-1.1 0-1 .2-1.6.2-.7 0-.6 0-1.1-.2l-2-1c-1.6-1-.7-.3-1.3-.3l-1.4.2-1.4.2c-.5 0-.5 0-1.6-.4V37.3l-.2.5v.7c-.1.4 0 .5-.4.7.2.4 0 .9-.1 1.2 0 .3.2.9 0 1.2l-.4-.4v-1l.2-.3v-.5c-.2.2-.8 1.6-1 .5 0-.3.7-1.4 1-1l.3-1.4.2-1c-1.4-.4-.9-.3-1.8-.7l-.8-.3c-.5-.1-1.2 0-2-.2-.6-.2-.5-.3-1.1-.8-.6-.6-.7-.6-1.3-.9-.7-.2-.7.3-.8.4l-1.6-.3-1.7-.3.7.8s0 .3-.8.5c-.8.3-.6 0-.7 0l-1-.2c-.6-.2-.4-.2-.7-.4l-1.1-.4c-.7-.1-1.1.2-1.1.2l-1 .2-.7.6-.9.7c-.7.5-.2.4-.4 1-.3.5-.8.3-1.7.1-1-.2-.6-.2-1.3-.7l-1-.8c-.6-.6-.4-.5-1-.8-.6-.3-.7.1-1 .2l-.3.7c-.2.4-.7 0-1.8 0-1-.2-.3-.2-.7-.7-.4-.6-.2-.3-1.1-.7-1-.5-.8 0-1.2 0-.3.1-.6.5-1.5.2-.8-.3-.5 0-.7 0l-2.7.8-2 .9-2 1.1c-1.4.7-.8.6-1 .8l-.6.2s-1-.2-1.3-.4h-2.5c-1.2 0-.6.2-.6.2l-1.6.6c-.2 0 .4 1 .3 1.1 0 .2-.6-.1-1.4-.3-.8-.2-.5.5-.5.5s-.1.2-.3.2h-.9l-.7-.7c-.3-.3-1.4-.4-2.1-.4-.7.1-.2.2-1 .5-.7.4-.3 0-1-.2-.6-.3-.5-.2-1-.2-.7 0-.5.1-1.2.3l-2 .7c-1.9.6-.6.3-1.6.5s-.9 0-1.8-.3c-1-.3-.7-.5-1.4-.9-.6-.4-.5-.4-1-1-.6-.7-.3-.5-.4-.7-.2-.2-1-.9-2.2-1.6-1.3-.7-1 .1-1.4.2l-1.5.5-.8.2c-.5 0-.9 0-1.5-.2l-1.6-.5c-1-.3-.7-.5-1.1-.8-.5-.3-1-.2-1.8-.4l-2-.7c-1.4-.5-.7-.4-1.4-.7-.7-.3-1.4 0-1.8 0h-3.2c-.3 0-.6-.4-.6-.4l-1.9-.8c-.5-.2-.5 0-.5 0l-1.4.3c-.2 0-.4.3-1.5.9-1 .6-.5.5-.6.6h-1l-1-.5c-.2 0-.3.2-.3.2l-.6.4-1-.5c-.4-.2-.7 0-1-.2-.5 0-1.4 0-1.8-.2-.4 0-.6-.3-.8-.3l-1.4-.1c-.5 0-1-.2-1.2-.3-.2-.2-.8-.3-1.5-.6s-.8-.5-1-.6c-.3-.2-1.1 0-1.4.1l-.8.7c-.4.3 0 .2-.2.4l-1 1-.4.5s-1 .3-1.4.2c-.5 0-.6-.3-.6-.3s-.9-.4-1-.6c-.1-.1-.7.1-.7.1l-.8.3-.6.3c-.1.2-.7.3-1 .6-.3.2-.4.2-.6.7-.3.4-.5.3-1.1.6-.6.2-.4 0-1-.2a4 4 0 0 1-1.7-.7l-.9-.6-1-.6c-.4-.2-.6 0-.8 0l-1.4.1c-.9.2-.3.2-.7.8-.3.5-.3.3-.9.7-.6.4-.4.3-1.5.2-1 0-.4-.2-.8-.4l-1.3-.8-.6-.3c-.3 0-.8 0-1.3-.2-.4-.2-1.2 0-1.5 0-.3 0-1.4.3-1.9.7-.4.3-.3 0-.9 0-.6 0-.7-.2-.8-.3-.2 0-.5-.4-.7-.5l-1.6.2c-.4.1-.3.5-.5.7-.2.3-.5.1-1 .1H25c-.4 0-.5-.4-.8-.6-.2-.2-.7-.3-.8-.3a6 6 0 0 0-1 .2c-.2 0-.6.4-.8.5l-.6-.5-.7-.7c-.4-.3-.4-.2-1-.2s-.7.2-1.4.3c-.6.1-.4-.1-.6-.3l-.7-.9-1.3-1-.8-1c-.4-.4-.6-.4-.6-.4L12 30c-.4.1-.5.5-1.2 1.2-.6.7-.4.2-.9.3-.5 0-1.3-.7-1.6-1-.3-.2-1-.6-1.4-1.1-.4-.5-1.6-.6-2.6-.7-1 0-2 .7-2 .7l-1 1-.4 1H0v148.7h1596v-121s-1.9 1.2-3 1h.2ZM713 35.4V35.1l.1-.2v-.3l.1-.2.2-.3v-.2l.2-.3c.5-.6.7-.4.7.4v.4l-.1.2-.1.3-.1.1v.3a1 1 0 0 1-.6.5c-.2 0 0 .2-.2.1h-.2l-.1-.1v-.1l.1-.2Zm-.4-1.5.1.1v.1l.1.2v.5s.1 0 0 0v-.2h-.1l-.1-.2v-.2l-.1-.1v-.2c0-.3 0-.2.2 0ZM4.4 38.3c0 .2 0 .3-.2.5l-.2.1h-.4v-.1l-.3-.2v-.3l-.1-.1v-.8l.5-.1.4.1.2.3v.1l.1.4Zm3.3-2.5c0-.9 1 .3 0 0Zm6.9 37.6c0 .2 0 .3-.2.4-.4.4-.6 0-.8-.3v-.4l.2-.1.2-.1h.1l.3.1.2.4Zm7.2-29.2-.2.3c-.4.4-.6.4-.8.2-.3-.4-.5-1.3-.6-1.5l-.2-.2h-.1l-.2-.1h-.2l-.3-.2-.3-.1-.3-.2-.1-.2v-.4l.3-.4c.4-.4.7-.4 1-.1.3.3.5 1.2.7 1.5l.3.3h.2l.2.2.1.1a2.6 2.6 0 0 1 .4.3l.1.3v.2Zm6.4-5.9-.4.2h-.6l-.5-.6v-.4l.2-.2V37l.3-.2v-.1l.3-.2v-.1l.3-.1h.7v.1a1 1 0 0 1 .4.6v.2l-.1.2-.1.3-.1.1-.3.3v.1Zm2.7 9.8H29.6a1 1 0 0 1-.2-.3V47.4l.1-.1.3-.1h.4v-.1h1l.2.2V47.8l-.2.2-.3.1h-.1Zm8.6-.7a1 1 0 0 1-.4-.3c.1-.4 1-.5 1.4-.2l.3.2c-.4.3-.9.4-1.3.3Zm10.7 10.2h-.4v-.2l.1-.1H50.1v.3Zm1.6-23.5.6.4h-.6v-.4Zm2.5 7v-.2l.1-.2.2-.2v-.2l.2-.2v-.4l-.1-.3v-.1l.2-.2h.4v.1l.3.3v.1l.2.4v.4l-.1.2-.5.4-.4.3c-.2.1-.5.1-.5-.2Zm9 2H63c-.1.2-.2.3-.4.3-.5.3-.6-.1-.6-.6v-.5l.4-.1h.1a.5.5 0 0 1 .4 0l.1.2v.7Zm.5-4.7c-.1-1.1 1.5-.3 1 .3-.4.4-.9-.1-1-.3Zm3 3.4-.1.1-.3.3a1 1 0 0 1-.4 0h-.3v-.4l.3-.3h.5l.2.2v.1Zm3.4-4.6v.3H70c0-.2.2-.4.2-.3Zm-1.7 4.4c.3-.8 1.9-1.6 2.7-2l-.2.4c-.2.3-.6.3-1 .6-.5.3-.9 1-1.5 1Zm3.4 7v.2h-.1l-.3.1c-.2-.3-.4-.7-.7-.9h.3a1.6 1.6 0 0 1 .4.2l.2.2.2.2v.1Zm3 3c-.2 0-.3-.5-.5-.7l-.8-.1c-.2 0-.4-.2-.5-.4l-.3-.6H73.9l.1.1h.3l.2.1.2.1.2.1.2.1v.2l.2.2v.7c0 .2-.1.3-.5.2Zm1.4 11c.3.1-.4 0 0 0Zm1.4 1.6-.2.2-.3.1h-.3c0-.5.3-1.5.8-.7v.3Zm.8-4.7v.4l-.1.3c-.2.5.1.6-.6 0V59.6h.1V59.2l.1-.1h.1V59h.1l.2.1v.3Zm.3-5.7c-.3-.6 0-.9-.8-1.1-.5-.2-1.1 0-1.6 0 .2-.9 1-.8 1.6-1.4.6-.6-.2-.8.9-1 .5 0 1.3 0 1.6.6v.2c0 .5-.3 1-.3 1.4l.2 1.5v.3c-.4 1-1.4.1-1.6-.5Zm41.9-4.9v.2l-.1.2-.1.2-.2.2a1 1 0 0 1-.4.2 1 1 0 0 1-.3 0h-.3c0-.2-.1-.3-.3-.5V49.1l.2-.1v-.2l.2-.1v-.2h.2l.1-.2h.2v-.1h.5v.1c.2.1.2.2.3.4v.2Zm2 8.3v.2l-.3.1h-.2l-.1.1h-.5l-.2-.1-.2-.2V57l.1-.1.3-.1h1l.2.1v.2Zm6.5-3.3c0 .3.3 1 0 1.1-.5.3-1.6-.6-1.8-.8-.7-.7-.6-1.2-.6-2.1.6-.5 1.1-1.2 2-.4.6.5.4 1.5.4 2.2Zm-2.7-17.3c.7-.9 2.4.2 1.6 1-.8.8-2.3 0-1.6-1Zm0 22.8c-.4-.6.5-1 1-1 .7 0 1.1.3 1.3 1 .6 1.8-2.4 1.4-2.3 0ZM129 57a1 1 0 0 1-.3-.2c0-.3.7-.4 1-.2.2 0 .3 0 .3.2-.3.2-.7.3-1 .2Zm3.6 11.2c-.3-.6-.1-1 0-1.7h.3c.2.6.8 2-.3 1.7Zm1.3-9.3c-.9 0-1.8-1.3-.6-1.8 1.4-.5 1.2 1.2.6 1.8Zm5.3-12.1h-.4v-.4l.4.4Zm-1.2-7.3c.7.7-.8 1.3-1.3.9-.5-.8.9-1.3 1.3-.9ZM136 70.2c-1-.4-.5-2 .4-1.3.8.3.6 1.8-.4 1.3Zm.8-8c-.9 0-2.2-1.6-.9-1.8 1-.1 1.5 1.1.9 1.7Zm.9 3h-.3V64.8H137.6v.2Zm.7 7.3c.5-.8 1.2.1 1.1.7-.5.4-1.7.2-1.1-.7Zm3.8-21.3-.1.2v.1l-.4.4-.4.2c-.1.1-.3.1-.4-.1v-.2l.2-.1.1-.2v-.1l.2-.2V50.9l-.1-.3c0-.2 0-.2.2-.2h.3l.2.3v.1l.2.3v.1Zm5.4 1.6h.3v.1l.1.1.1.3v.3h-.1c0 .1-.1.2-.3.2-.5.3-.4-.4-.4-.9h.3Zm1.7-2.7c-.3.3-.7-.1-.8-.3 0-.8 1.2-.2.8.3Zm1.5 2.5-.2.2a1 1 0 0 1-.3.1h-.3V52.5l.2-.3h.4l.2.1v.1Zm8.8 17.7v.1l-.2.1-.2.1h-.3c0-.4.3-1.2.6-.5v.2Zm-5-12.7.2.2.1.2v.1h-.3l-.5-.6h.5v.1Zm-1-8.7v.2h-.2l.2-.2Zm.8 2c-.2.5-.6.4-1 .6-.3.3-.7.8-1.2.9.2-.6 1.6-1.3 2.2-1.6Zm3.4 9c0 .4 0 .6-.5.4l-.4-.5-.6-.1c-.3-.1-.6-.5-.7-.8h1.1l.3.1.3.1v.1l.2.1.1.1v.2l.1.1v.2Zm2.4 6.7v.5c-.3.5 0 .5-.6 0v-.4h.1v-.2l.1-.2H160v.3Zm.2-4.5c-.2-.5 0-.7-.6-.9h-1.3c.2-.7.8-.6 1.3-1 .5-.6-.1-.8.7-.9.4 0 1 0 1.3.4v.3l-.3 1v.1l.2 1.1v.3c-.3.8-1.1 0-1.3-.4Zm5.3-4.8c-.2.3-.6.3-.8 0-.3-.5.3-.9.7-.7.1.3.3.5.1.7Zm2.2-3.5c-.2.4 0 .7-.2 1.1 0 .1-.7 2.1-1 1.3-.2-.4.3-.8.4-1.1l.4-1.4c0-.2 1.3-1.5 1.2-.6 0 .2-.7.4-.8.7Zm.2-1.7c-.4.2-.8.3-1 .2-.6-.2.2-.5.4-.6.7-.2.7-.3 1.2 0v.1l-.6.4Zm4.2 1c-.1.5-.7.7-1 1.2-.4.5-.3.8-.3 1.3 0 .8-.6 1.8-.4 2.7l-.8-.9c-.1-.4-.7-.4-.7-1 0-.5.4-.8.7-1.2l.5-.7c-.4-.4-.6-1.1.2-1.6h.4c.2-.3.3-.4.3-.8 0-.3-.8-1.2-.2-1.4.6-.1 1.4 2 1.3 2.4Zm.3-5.5c0 .3-.6.8-.8 1-.4.4-.1.3-.6.5l-1-.1c-.2-.6.2-.7.4-1a1 1 0 0 1-.5-.5c-.4-.6.1-.9 0-1.4-.2-.6-.2-1.3 0-2l.4-.5c.9-.4 1 .4.9 1l-.1.4c.2 0 .5 0 .7.3.3.4.2 1 .3 1.5.1.4.4.4.3.8Zm22.5 14c0-.5.3-.5.7-.7.4.3 1.3 1.4.4 1.7-.4.1-1.1-.6-1.1-1Zm.8 4.3c-.3-.2-.7.2-.4-.6 0-.2.3-.1.3-.2.4-.6.7-.6 1.3-.9l-1.2 1.7Zm.6-6.1c-.8.3-1-.3-1-.9.7-.2 2 .4 1 .9ZM195 54c.9 0 .5.7.2 1.3 0 .2-.2.4-.4.5v-.3l-.2-.2v-.1h-.7v.1h-.1l-.3.1v.1h-.1c-.1-.2 0-.4.1-.7a3 3 0 0 1 1.5-.8Zm5.1 44.3c-.7 1.5-2.1 1-1.7-.6l.2-.3c.1-.3.3-.5.7-.5.9 0 .6.8.8 1.3v.1Zm28.4-5.3v.1l-.2.2-.3.1h-.1c-.1 0-.2 0-.3-.2V92.7h.1v-.2h.1v-.1h.4l.2.3v.4Zm3.5.8v.1a1.6 1.6 0 0 1-.2.4l-.1.3h-.1a1 1 0 0 1-.4.3h-.6l-.5-.5c0-.8 1.3-2.3 1.8-1l.1.3Zm9.4-49.3-.3-.2-.2-.3c0-.2-.1-.3 0-.4v-.3h.1c0-.1 0-.2.2-.2h1a1.2 1.2 0 0 1 .2.2l.2.2v1l-.2.2h-.7l-.3-.2Zm.1 1.6c0-.8 1.5-.9 1.5-.1.1.9-1.5 1-1.5 0Zm2.5 3.5c-.2-.3-.2-.6-.2-1s0-.7-.2-1l-.3-.4c-.5-.8-.3-1.8.8-1.4.3.1.5.3.6.5.4.7.2 1.8.6 2.5l.2.2.2.4c.3.4.6 1.1.1 1.3l-1.3-.6-.5-.5Zm5.1 5.4c-.2.4-1.5 1-2 .7v-.1l-.3-.7c-.5 0-1.2 0-1.5-.4-.2-.4-.3-1.5 0-1.8.4-.5 1.2-.2 1.8.4.3-.3.7-.5 1.2-.5l.3.5c.3.6.7 1.4.5 1.9Zm1.7-5c-.1.4-.4.5-.8.5-.7 0-.5-.5-.7-1 .4-.8 1.8-.5 1.5.5Zm4.5-.9c.3 0 1.2-.1.8.4-.3.3-.9 0-.8-.4Zm-2.2 0c.4 0 1 .5.4.7-.6.3-.7-.4-.4-.7Zm-.3 11.8h-.1l-.2-.2v-.1l-.1-.2v-.1c0-.1 0-.3.2-.4.1 0 .2 0 .3.2l.2.1v.7h-.2Zm21.8 7.7-.2.1h-.3l-.3-.2h-.1l-.3-.1c-.1-.2-.3-.2-.4-.3l-.2-.3-.2-.3-.2-.3V67l.1-.2.3-.3h.3a1.4 1.4 0 0 1 .4.1l.4.2v.1c.2 0 .3.1.3.2l.1.1a3 3 0 0 1 .3.3l.2.3.1.3v.4l-.2.2h-.1Zm1.7-2.3v.1l-.1.1h-.6v-.4c0-.2 0-.3.2-.4a1 1 0 0 1 .3.2l.2.2v.2Zm3.5-6.3h.2l.2.1v.2l.1.3v.2h-.1l-.1.1-.2.1-.1.1h-.5l-.1-.3c0-.2.5-.8.6-.8Zm-2.7.4.1-.2.2-.2.2-.1h.2v-.1h.2l.1.1V61l-.2.1-.2.1h-.4V61l-.2-.1v-.1h-.1V60.4Zm0 6.3c.2-.3.8 0 .7.3-.3 0-1.2.2-.7-.3Zm2.1-.3a1 1 0 0 1-.3 0 2.2 2.2 0 0 1-1-.8V65l.1-.1h.1l.5-.1h.4v.1l.3.2.3.3a1.3 1.3 0 0 1 0 .4v.5h-.3Zm.8.7c-.3 0-.9-.4-.3-.7.6-.2.6.5.3.7Zm.3-2.9c-.6.2-1.2 0-1.4-.4-.2-.5-.2-1 .4-1.4.3-.4 1.2.1 1.5.7.2.4.2.9-.5 1.1Zm2.3-5.8.3-.2.3-.2h.3c.1 0 .2 0 .3.2v.5l-.1.1-.2.1h-.5l-.2-.1-.1-.2v-.2Zm-.3 8c.2-.4.5-.5.9-.5.7 0 .5.5.6 1-.4.8-1.8.5-1.5-.5Zm2.5 7.6-.1.2v.1l-.2.2v.1l-.2.1-.2.2H283.8l-.1-.1-.1-.1-.1-.3v-.7l.1-.1.2-.2.2-.2h.1l.2-.1h.3l.1.1v.4l.1.3v.1Zm-.4-13v-.5l.1-.2.2-.2V60h.4v.1l.1.2c.2.5-.4 1.4-.8.7Zm2.8 1.7v.1l-.3.3h-.7l-.1-.1V63l-.1-.4v-.5a1 1 0 0 1 .4-.8h.5l.1.2.1.1.1.3.1.1v.8Zm1.1 4.4h-.6V67l-.1-.3.2-.4a1.6 1.6 0 0 1 .3-.3l.3-.1c.2.3.2 1 0 1.3Zm9-13.9c.7-.5 1.4.3 2 .5 1 .3 1.7.1 2.6.4.4.1 2.9 2 1.3 2-.5 0-.9-1.1-1.5-1.3l-1.9-.1-1.7-.5-.3.2h-.6V54c-.3-.3-.3-.5.1-.7Zm-2.4 3.2c.1-.2.3-.3.6-.4h.7v.4c.1.8-1 1.2-1.5.5 0-.2.1-.4.3-.5Zm-4.9 14.3c0-1 1.5-1 1.4 0 0 .7-1.4.8-1.4 0Zm1-4c-.5-.8.7-1.2 1-.2-.2.4-.8.6-1 .1Zm1.2-4.8-.4.1h-.3l-.2-.2v-.1l-.1-.1V61h.2l.1-.1h.4l.1.2h.1l.1.1.2.2v.1l.1.2-.3.2Zm.2-1.6a1 1 0 0 1-.4-.4c-.2-.3 0-.5.2-.8v-.1c0-.4.3-.4.6-.3h.5v.3c.3.1.5.2.3.5 0 .2-.1.2-.2.3-.1.5-.5.8-1 .5Zm1.2 5.7c-1-2.7 2.8.2 0 0Zm4-1.2c.9-.4 2.1-.4 2.7-1 .2-.2 0-.6.2-.7.4-.2.8.3 1 .5.3.4.6.8 0 1.1-.4.3-1 .2-1.5.4l-.4.3c-.1.2-.3.4-.6.4l-.7-.3c-1 .8-2.2 0-.7-.7Zm.9 10.4.3-.2v.5c-.1.4-.8.7-1.2.7 0-.4.5-.7.9-1Zm3.2-1.5c-.4-.6.6-1 .8-1.2l-.2-.4.2-.4-.3-.8-.5-1c-.2-.7-1.4-1.7-.4-2.1.7-.3 1 .2 1.3.6l.5.8.7 1.7.2.5.4.4c.4.7-.3.8-.2 1.5 0 .6.6.9.3 1.5-.4.2-.8 0-1-.3-.2-.3.1-.7-.5-.9-.3 0-.9.7-1.3.1Zm2-11.2c-.8-.2-1.3-1.1-2.1-1.6-.5-.3-.8-.4-1.2-.4h-.6v.3c-.4.6-1.2.5-1.4-.2-1.3-.1-2.8-.6-4-.1l1.4-1.6c.7-.3.6-1.2 1.5-1.4 1-.2 1.6.6 2.4 1 .4.3.9.5 1.3.6l.4-.4c.2-.5.5-1 1.2-.8.3 0 .5.2.6.5l.1.4.4.4.4-.3s.3-.5.7-.3l1.2.7s-.5.4.6.3c.4-.1.7-.2.9 0l.2.2c.4 1-3 2.8-4 2.7Zm7.2-1-.1.2-.2.2-.1.2H310.3s0 .1-.1 0c-.3.8-.8.2-1.3-.2-1.1-1 .2-2.6 1-1.4l.2.5h.2l.1-.1h.5v.2h.1V61.5Zm2.8 5.4-.1.2-.3.1V67l-.1-.2V66.6h.4l.1.1V67Zm.5-4.4c-.4 0-1.1-.5-1.4-.9-.5-.4-.4 0-.6-.7-.2-.3 0-.9 0-1.2.6-.5.8 0 1.3.3.1-.3.3-.6.5-.7.7-.6 1.2 0 1.9-.3.6-.2 1.6-.3 2.5-.2l.8.5c.6 1-.4 1.3-1.2 1.2h-.6c.1.3 0 .6-.3 1-.4.3-1.3.4-1.9.6-.4.2-.4.5-1 .4ZM396.1 92c-1 1.8-2.7 1.3-2.1-.7l.1-.4c.2-.4.5-.7 1-.7 1 0 .8 1 1 1.7v.1ZM471 67v-.1l.3-.3c0-.2.2-.2.3-.3h.2l.3-.1h.5l.3.1h.1l.2.2c.2.1.2.2.2.3v.2l-.1.1-.4.3s-.1.2-.3.2l-.3.2h-.8l-.1-.1-.2-.1-.2-.2V67Zm9.5 15.5 1 .4v.2h-.2c-.1.2-.3.2-.5.2-.5 0-1.1-.4-1.4-.7.3-.2.7-.2 1-.1Zm1.8-16-.4-.4v-.5l.3-.3h1.1l.4.3c-.2.4-1 1-1.4.8Zm2.6-5.3V61l.4-.4c.2 0 .3-.2.5-.4l.6-.2h.6v.2l.3.1V61l-.1.2-.2.3-.2.2-.2.2-.2.1-.3.1h-.2a1 1 0 0 1-.6 0c0-.2-.2-.4-.3-.5l-.1-.2v-.2ZM536.1 79v.1l-.2.2-.3.1c-.2 0-.3 0-.4-.2V78.7h.1v-.2h.1l.1-.1H535.9l.2.3.1.3v.1Zm3.5.7v.2a1 1 0 0 1-.1.4l-.2.2-.1.1a1 1 0 0 1-.3.2c-.4.2-.5.1-.7 0l-.4-.4c0-.8 1.2-2.3 1.8-1v.3Zm23.5-.5c0 .1 0 .2-.2.3-.4.5-.6 0-.8-.2V79l.1-.2h.4l.3.1.2.4Zm7.2-29.3-.2.4c-.4.4-.7.3-.9.1-.3-.4-.4-1.2-.6-1.5l-.2-.1-.3-.2h-.1l-.3-.2-.3-.1-.3-.2-.1-.2V47.6c0-.2.1-.3.3-.4.4-.4.7-.4.9-.2.4.3.5 1.2.8 1.5l.3.3.1.1.3.1v.1h.1l.3.3.2.3v.2Zm9 4h-.9l-.2-.1a1 1 0 0 1-.3-.3v-.2l.2-.1.3-.2h.5l.2-.1h.7l.2.2V53.5l-.2.2-.3.2h-.1Zm8.7-.8a1 1 0 0 1-.4-.2c.1-.4 1-.5 1.4-.3l.3.3c-.4.2-1 .3-1.3.2Zm10.6 10.3h-.3v-.3l.1-.1h.2v.4Zm1.7-23.6.5.5h-.5v-.5Zm2.4 7v-.1l.1-.1a4.6 4.6 0 0 1 .4-.5V45c0-.1 0-.2.2-.2l.3.1h.1l.3.4.2.4v.1l-.1.3v.2l-.5.4-.5.3c-.2.1-.4.1-.4-.2Zm9 2v.1l-.4.3c-.6.2-.6-.2-.6-.7v-.4l.4-.2h.4v.1l.2.1v.7Zm.5-4.7c0-1 1.6-.2 1 .4-.3.3-.8-.2-1-.4Zm3 3.5v.1l-.3.2a1 1 0 0 1-.4.1h-.3v-.4l.3-.4h.2l.3.1.2.1v.1Zm3.5-4.6v.2h-.2c0-.1.1-.4.2-.2Zm-1.8 4.3c.3-.7 2-1.6 2.8-1.9l-.2.4-1 .5c-.5.3-.9 1-1.5 1Zm3.5 7.1-.1.1-.4.1-.6-.8h.3a1.6 1.6 0 0 1 .3.1l.3.2v.1l.1.2Zm3 3c-.2-.1-.3-.6-.5-.7-.3-.2-.6 0-.8-.2-.2 0-.4-.2-.5-.4-.2-.1-.3-.3-.3-.5H622.5l.4.1h.1l.3.2h.1l.2.2.1.1.1.2v.2l.1.2v.3c0 .3-.2.4-.6.2Zm1.4 11c.3 0-.4 0 0 0Zm1.4 1.5v.1l-.2.2h-.3v.1l-.4-.1c0-.5.4-1.5.8-.6V70Zm.7-4.6V66c-.2.6.1.6-.6 0v-.7h.1V65h.1v-.2h.2l.2.1v.4Zm.3-5.8c-.2-.5 0-.8-.7-1-.5-.2-1.1 0-1.6 0 .1-1 1-.8 1.6-1.4.5-.6-.2-.9.8-1 .6-.1 1.4 0 1.7.5v.3l-.3 1.3v.1l.2 1.4v.3c-.4 1-1.4.1-1.7-.5Zm42-4.8v.1l-.2.3v.1l-.2.2-.1.1a1 1 0 0 1-.3.2 1 1 0 0 1-.4 0l-.2-.1-.3-.4V55l.1-.2v-.1a2 2 0 0 1 .6-.5l.1-.1H669l.2.4V54.8Zm2 8.2v.2l-.3.1-.3.1h-.8l-.1-.3V62.7H670l.3-.1h.8l.1.1v.2Zm6.5-3.3c0 .3.3 1 0 1.2-.5.2-1.6-.6-1.9-.9-.6-.7-.5-1.2-.5-2 .6-.5 1-1.3 2-.5.6.6.3 1.5.4 2.2ZM675.4 38c.6-.2 1.3 0 1.5.6.2.8-.4 1-.8 1.4-1.5 0-2.1-1.3-.6-2Zm-.4 4.4c.7-.8 2.4.2 1.5 1.1-.7.7-2.2-.1-1.5-1Zm0 22.9c-.4-.7.5-1.2 1-1.2.6 0 1 .5 1.3 1 .6 2-2.4 1.5-2.4.2Zm2.7-2.5a1 1 0 0 1-.3-.2c0-.3.7-.4 1-.2.2 0 .3.1.3.2-.3.2-.7.3-1 .2Zm3.6 11.2c-.3-.5-.1-1 0-1.6h.2c.3.6 1 1.8-.2 1.6Zm1.3-9.3c-.9 0-1.8-1.3-.6-1.7 1.4-.6 1.2 1 .6 1.7Zm5.3-12.1h-.5v-.4l.5.4Zm-1.2-7.2c.7.6-.8 1.2-1.3.8-.6-.7.8-1.3 1.3-.8ZM684.4 76c-.9-.5-.4-2 .5-1.4.8.3.6 1.8-.4 1.4Zm.9-8.1c-.9 0-2.2-1.5-.9-1.7 1-.2 1.5 1 .9 1.7Zm.8 3H685.8v-.3H686.1v.3Zm.8 7.3c.4-.8 1.1.1 1.1.7-.5.5-1.7.2-1.1-.7Zm3.7-21.3v.3l-.4.4-.4.3c-.2 0-.3 0-.4-.2v-.1l.2-.2v-.2h.2v-.9l.1-.2H690.2v.1c.2 0 .3.2.3.3l.1.3v.1Zm5.5 1.7h.2l.2.1V59.4l-.3.3c-.6.2-.4-.4-.5-1h.4Zm1.6-2.8c-.2.3-.6-.1-.7-.2 0-.9 1.2-.2.7.2Zm14.4-23.1V33.7l-.1.4v.5l-.1.2-.1.3c-.4.7-.7.5-.8-.2V33.9l.1-.2v-.3c.1-.3.3-.4.4-.5.2-.2 0-.3.2-.2h.4Zm-1.9-2.9c.4-.3 1.8-.2 2 .3l.1.2c0 .5-.4 1.5-.7 1.8-.6.5-1.2.5-1.8.1v-.5c0-.7 0-1.6.4-1.9Zm.8 8.9V39.4l-.1.1-.1.2-.1.1-.3.2h-.3c-.2 0-.3-.2-.6-.4 0-.6 1-1.8 1.5-.8ZM708 76V76.4H707.3c0-.4.3-1.2.6-.5v.2Zm-5-12.7c.2 0 .2.1.3.2l.1.2v.1l-.3.1-.5-.7h.2l.2.1Zm-.9-8.7v.2h-.2s.1-.3.2-.2Zm.8 2c-.2.5-.6.4-1 .7-.4.2-.7.8-1.2.8.2-.6 1.5-1.3 2.1-1.5Zm-3.6 1.7v.1l-.2.1a1 1 0 0 1-.4.2l-.2-.1V58.4l.2-.3h.4l.2.1v.2Zm7 7.4c0 .3-.1.5-.5.4-.1 0-.2-.5-.4-.6h-.6c-.3-.2-.6-.5-.7-.8h1.3l.1.1h.3v.2h.2v.2l.2.1V65.7Zm2.3 6.7v.5c-.2.4.1.5-.5 0v-.5l.1-.2.1-.1V72H708.7v.3Zm.3-4.6c-.2-.5 0-.7-.6-.9H707c.1-.7.8-.6 1.3-1 .4-.5-.2-.7.7-.9.4 0 1 0 1.3.5v.2l-.3 1v.1l.2 1.2v.2c-.3.9-1.1.1-1.3-.4Zm5.3-4.7c-.2.3-.7.2-.8 0-.3-.5.2-1 .7-.7 0 .2.3.4.1.7Zm4.9-31.7V31.2l.1-.2h.1v-.1h.2l.2.2v.6l-.2.1h-.2l-.3-.1v-.1Zm-1.6 5 .1-.2.2-.1h.2l.1.2.1.2V37l-.1.1-.4.2a.7.7 0 0 1-.2-.3v-.4Zm-1.1 23.2c-.2.3-.1.7-.2 1 0 .2-.8 2.2-1 1.3-.3-.4.3-.7.4-1l.4-1.5c0-.2 1.3-1.5 1.2-.6 0 .3-.7.4-.9.8Zm.2-1.7c-.4.1-.8.2-1 .1-.6-.2.2-.5.4-.6.6-.2.7-.3 1.2 0v.1c0 .2-.3.4-.6.4Zm.7-18.4h-.3l-.2-.2h-.1l-.2-.2-.1-.3-.1-.3v-.2l.3-.5.3-.2h.3l.2.2.1.1.2.3.2.4v.7l-.3.2h-.2Zm3.5 19.4c-.2.4-.8.7-1 1.1-.5.6-.3.8-.4 1.4 0 .8-.6 1.8-.4 2.7l-.7-1c-.1-.3-.7-.4-.7-.9 0-.6.4-.9.7-1.3l.4-.7c-.4-.4-.6-1 .3-1.6h.4c.2-.2.3-.4.3-.8 0-.3-.8-1.2-.2-1.3.6-.2 1.4 1.9 1.2 2.3Zm.3-5.5c-.1.3-.6.8-.8 1-.4.3-.1.3-.6.4l-1-.1c-.3-.5.1-.7.4-1a1 1 0 0 1-.5-.5c-.4-.5 0-.9 0-1.4-.2-.5-.2-1.3 0-2l.4-.5c.9-.4 1 .4.8 1v.4c.2 0 .4 0 .7.3.2.4.2 1.1.3 1.5.1.4.3.4.3.8Zm6.8-9h.2V44.9h-.2l-.1-.1v-.3Zm16.5 27.2c-.4-.2-.7.2-.4-.5 0-.2.2-.2.3-.3.4-.6.7-.5 1.3-.8l-1.2 1.6Zm.2-3.3c-.3.1-1-.6-1-1-.1-.5.3-.5.6-.7.5.3 1.4 1.5.4 1.7Zm.3-2.8c-.7.3-1-.3-.9-.9.6-.2 2 .5 1 .9Zm-1-4.4-.4.5v-.3l-.2-.2-.1-.1h-.3l-.4.1-.3.2h-.2c0-.2 0-.4.2-.7a3 3 0 0 1 1.5-.7c.8 0 .4.6.2 1.2Zm4.9 43c-.7 1.5-2.2 1-1.7-.5l.1-.4c.2-.3.4-.5.8-.5.9 0 .6.8.8 1.4Zm5-58c.4 0 .9 0 1 .3.2 0 .2.1.3.3-.3.3-1.3-.2-1.2-.6Zm7.9 90.3-.2-.2c-.2-.3-.2-.6 0-1 .5-.7 1 0 1.6.1v.1c.8 1.4-.4 2.3-1.4 1ZM777.1 99v.2l-.1.1-.1.1H776.6l-.3-.1v-.7l.1-.1v-.1h.2v-.1h.2l.1.1.1.2.1.4Zm.9-43.8c-.4 0-1 .4-1.3 0V55c0-.5.6-1.4.9-1.7.7-.7 1.3-.6 2.2-.6.4.4.9.8.9 1.3 0 .2-.1.5-.4.8-.5.6-1.6.4-2.3.5Zm2.7 44.6v.1a1.6 1.6 0 0 1-.2.5l-.2.2a1 1 0 0 1-.4.3h-.6l-.5-.4c0-.8 1.2-2.3 1.8-1.1l.1.3v.1ZM793.9 64l-.1.4-.3.2h-.4v-.1l-.2-.2a1.6 1.6 0 0 1-.2-.6v-.2l.1-.4.4-.2h.1l.3.2.2.3v.1l.2.4Zm3-11.2v.4h-.1l-.2.3-.3.2h-.4a1 1 0 0 1-.6-.5V53l-.1-.3v-.3l.2-.3.2-.3.3-.2h.3l.4.2c.2 0 .3.2.3.3v.2l.1.2v.4Zm.3 8.7c0-1 1 .3 0 0Zm3.6-7.9c-.6.2-.8 0-1-.3-.8-.2-1.6-.4-1.6-.6 0-.2 0-.4-.2-.6-.8-1.5 1.3-.9 1.3.6v.1l.4.5 1.1.3Zm3.3 45.5-.1.4c-.4.4-.6 0-.9-.3v-.4l.2-.1.3-.1.4.1.1.4Zm7.2-29.3v.1c0 .1 0 .2-.2.3-.4.4-.6.4-.8.2-.3-.4-.4-1.3-.6-1.5l-.2-.2h-.1l-.2-.1h-.2l-.2-.2-.4-.2-.2-.1V68l-.2-.2V67.4l.3-.4c.4-.4.7-.4 1-.2.3.4.5 1.3.8 1.6l.3.3.3.2h.1l.4.3.2.4v.1Zm6.4-5.8-.4.2h-.6l-.5-.6v-.2l.1-.2.1-.2.1-.2.2-.2v-.1l.3-.2h.1l.2-.2h.7l.1.1a1 1 0 0 1 .3.7V63.2l-.2.3-.1.1-.2.3-.1.1Zm2.7 9.8h-1.2a1 1 0 0 1-.2-.3v-.2l.1-.2.4-.1.3-.1h1l.2.2V73.5l-.1.2-.3.1h-.1Zm8.6-.7a1 1 0 0 1-.4-.3c.2-.4 1-.5 1.4-.3l.3.3c-.4.3-.9.4-1.3.3Zm10.7 10.2h-.4V83l.1-.1H839.8v.3Zm1.6-23.5.6.4h-.6v-.4Zm2.5 7v-.2l.2-.2.1-.3h.1l.1-.3v-.4l-.1-.3V65c0-.2.1-.2.3-.2h.3v.1c.2 0 .3.2.4.3v.1l.1.4v.4l-.1.2-.4.4-.5.3c-.2.1-.4.1-.5-.2Zm9 2h-.1c0 .2-.2.3-.4.3-.5.3-.5-.1-.5-.6V68l.4-.1h.3l.2.2c.2.3.2.5 0 .7Zm.5-4.7c0-1.1 1.6-.3 1 .3-.4.4-.8-.2-1-.3Zm3 3.4v.1h-.1l-.2.2a1 1 0 0 1-.4.2h-.1l-.3-.1v-.4l.3-.3h.5l.2.2.1.1Zm3.5-4.6v.3h-.3c.1-.2.2-.4.3-.3Zm-1.8 4.4c.3-.8 2-1.6 2.7-2 0 .2 0 .3-.2.4-.2.3-.6.3-1 .5-.4.4-.8 1-1.5 1Zm3.4 7v.2h-.4l-.6-.8h.2l.4.1.3.3v.2h.1Zm3 3c-.1 0-.3-.6-.5-.7l-.8-.1-.5-.4-.3-.6H863.6l.4.2.4.1v.1l.3.1v.2l.2.1v.8c0 .2-.1.3-.5.2Zm2.8 12.5v.2l-.1.1h-.1l-.2.1h-.4c0-.5.4-1.5.8-.7v.3Zm.8-4.6v.7c-.3.5 0 .6-.7 0v-.4l.1-.2V85l.1-.1v-.1h.1v-.1h.4v.5Zm.3-5.7c-.3-.6 0-.9-.8-1.1-.5-.2-1 0-1.6 0 .2-1 1-.8 1.6-1.4.6-.6-.1-.9.9-1 .6 0 1.4 0 1.6.5v.3l-.3 1.4.3 1.5v.3c-.5 1-1.5.1-1.7-.5Zm60.4-37.9a2 2 0 0 1-.5.3c-1 .3-1.4 0-1.9-.7a3 3 0 0 0-1-1c-.3-.3-.7-.5-.5-1 0-.2.1-.3.2-.3.3-.2.6 0 1 .1.4.2 1 .2 1.5.5.4.2.6.9.9 1.2.4.5.6.7.3 1Zm1.3-3v.3l-.2.3-.1.1-.2-.2h-.4l-.2-.2h-.3l-.2-.2a3 3 0 0 1-.3-.1l-.1-.1-.3-.2c-.5-.6 0-1.2.7-1.1h.2l.1.1.3.1.2.2h.2l.2.2c.4.2.5.5.4.9Zm4 6c0-.1 0-.2-.2-.2l-.2-.3c0-.2-.1-.3 0-.4v-.3h.1l.1-.2H934.9l.2.2h.1l.2.2v1l-.2.2h-.7l-.3-.2Zm.2 1.6c0-.8 1.5-.9 1.5-.1.1.9-1.5 1-1.5 0Zm2.4 3.5v-1l-.3-1-.3-.4c-.5-.8-.3-1.8.8-1.4.3.1.5.3.6.5.4.7.2 1.8.6 2.5l.2.2.2.4c.3.4.6 1.1.1 1.3l-1.3-.6-.5-.5Zm5.2 5.4c-.2.4-1.5 1-2 .7v-.1l-.3-.7c-.5 0-1.1 0-1.5-.4-.2-.4-.3-1.5 0-1.8.4-.5 1.2-.2 1.8.4.3-.3.7-.5 1.2-.5l.3.5c.3.6.7 1.4.5 1.9Zm1.7-5c-.1.4-.4.5-.8.5-.7 0-.6-.5-.7-1 .4-.8 1.8-.5 1.5.5Zm2.4 10.8-.1.1h-.4l-.2-.2v-.1l-.1-.2v-.1c0-.1 0-.3.2-.4.1 0 .3 0 .3.2h.1v.1l.1.3v.2Zm.3-11c-.6.3-.6-.4-.4-.7.4 0 1 .5.4.7Zm2.6-.3c-.3.3-.9 0-.8-.4.3 0 1.2-.1.8.4Zm73.2-11.7v.1l.1.2.1.1.2.1h.1l.1.1h.2l.2-.1-1.4 2v.1-1.1h-.1v-.2h-.2V39h-.2V39h-.3c-.4.2 1.3-1.4 1.2-1Zm-8.6 12.4c0 .8-.6 1-1.1.6 0-.6 1-1.7 1-.6Zm-2-13.9v-.1l.1-.2.1-.1.2-.2.2-.2h.4a.7.7 0 0 1 .4.3v.8l-.1.2-.3.2-.1.1-.5.1a.7.7 0 0 1-.3-.3l-.1-.2v-.4Zm.2 15.8.2 1.7c-1.5-.2-1.8-1.6-.2-1.7Zm-3.4-14 .2-.2h.7l.2.1h.1l.1.2.1.1-.1.4-.3.3h-.3V39l-.3-.1-.1-.1-.2-.1v-.1l-.1-.1V38.2Zm-.6 11.8c.2-.9.8-.3 1.3.1 1.1 1 0 2.6-1 1.5-.2-.3-.4-1.3-.3-1.6Zm-1 5.8.1-.4.6-1 .1-.1h.1c.1-.1.2-.1.2 0 0 .4.3 1.3.1 1.8l-.2.3h-.1l-.2.1h-.4l-.2-.2v-.5Zm-13.2-26.9.1-.1.2-.1h.3v.5h-.5V29ZM992 54c1 .2 1.7 0 2.6.3.4.1 2.9 2 1.3 2-.5 0-.9-1.1-1.5-1.3l-1.9-.1-1.7-.5-.3.2h-.6V54c-.3-.3-.3-.5.1-.7.7-.5 1.4.3 2 .5Zm-.4-9.7c.6.5-.2 1.3-.5 1.6-1.7.3-.6-2.5.5-1.6Zm-2.6-6.1c.3-1.1 1.5-.8 1.8 0-.3.6-.5 1-1.2.8-.5-.1-.8-.3-.6-.8Zm-1.4 18.4c.1-.2.3-.3.6-.4h.7v.4c.1.8-1 1.2-1.5.5 0-.2.1-.4.3-.5Zm-12.3 2 .3-.2.3-.2h.3c.1 0 .2 0 .3.2v.5l-.1.1-.2.1h-.5l-.2-.1-.1-.2v-.2Zm-2.8 1.6h.2l.2.1v.2l.1.3v.2h-.1l-.1.1-.2.1-.2.1h-.5v-.3c0-.2.5-.8.6-.8Zm-5.2 8.6-.2.1h-.3l-.3-.2h-.1l-.3-.1c-.1-.2-.3-.2-.4-.3l-.2-.3-.2-.3-.2-.3V67l.1-.2.3-.3h.3a1.4 1.4 0 0 1 .4.1 2.2 2.2 0 0 1 .5.3l.2.2.1.1a3 3 0 0 1 .3.3l.2.3.1.3v.4l-.2.2h-.1Zm1.7-2.3v.1l-.1.1H968.3v-.4c0-.2 0-.3.2-.4a1 1 0 0 1 .3.2l.2.2v.2Zm.8-5.9.1-.2.2-.2.2-.1h.2v-.1h.2l.1.1V61l-.2.1-.2.1h-.4V61l-.2-.1v-.1h-.1V60.4Zm0 6.3c.2-.3.8 0 .7.3-.3 0-1.2.2-.7-.3Zm2.2-.3a1 1 0 0 1-.4 0 2 2 0 0 1-.6-.5l-.3-.4-.1-.2V65l.2-.1.5-.1h.4v.1c.2 0 .2.1.3.2l.3.3a1.3 1.3 0 0 1 0 .4c.1 0 .1.1 0 .2v.3h-.3Zm.7.7c-.3 0-.9-.4-.3-.7.6-.2.6.5.3.7Zm.3-2.9c-.6.2-1.2 0-1.4-.4-.2-.5-.2-1 .4-1.4.3-.4 1.1.1 1.5.7.2.4.2.9-.5 1.1Zm2 2.2c.2-.4.5-.5.9-.5.7 0 .5.5.6 1-.4.8-1.8.5-1.5-.5Zm2.5 7.6-.1.2v.1l-.2.2v.1l-.2.1-.2.2H976.4l-.1-.1-.1-.1-.1-.3v-.7l.1-.1.2-.2.2-.2h.1l.2-.1h.3l.1.1V74.1Zm-.5-13v-.2h.1V60.5l.1-.2.2-.2V60h.4v.1l.1.2c.2.5-.4 1.4-.8.7Zm3 1.7-.1.1-.3.3h-.7l-.1-.1V63l-.1-.4v-.5a1 1 0 0 1 .4-.8h.5l.1.2.1.1.1.3.1.1v.8Zm1 4.4s-.2.1-.4 0h-.2V67l-.1-.3.2-.4.3-.3.3-.1c.2.3.2 1 0 1.3Zm1.7 3.6c0-1 1.5-1 1.4 0 0 .7-1.4.8-1.4 0Zm1-4c-.5-.8.7-1.2 1-.2-.2.4-.8.6-1 .1Zm1.2-4.8-.4.1h-.3l-.2-.2v-.1l-.1-.1V61h.2l.1-.1h.4l.1.2h.1l.1.1.2.2v.1l.1.2-.3.2Zm.2-1.6a1 1 0 0 1-.4-.4c-.1-.3 0-.5.2-.8v-.1c0-.4.4-.4.7-.3h.4l.1.3c.2.1.4.2.2.5 0 .2-.1.2-.2.3 0 .5-.5.8-1 .5Zm1.2 5.7c-1-2.7 2.8.2 0 0Zm4-1.2c.9-.4 2.1-.4 2.7-1 .2-.2 0-.6.2-.7.4-.2.8.3 1 .5.3.4.6.8 0 1.1-.4.3-1 .2-1.5.4l-.4.3c-.1.2-.3.4-.5.4l-.8-.3c-1 .8-2.2 0-.7-.7Zm.9 10.4.3-.2v.5c-.1.4-.8.7-1.2.7 0-.4.5-.7.9-1Zm3.2-1.5c-.3-.6.6-1 .8-1.2l-.2-.4.2-.4-.3-.8-.5-1c-.2-.7-1.4-1.7-.3-2.1.6-.3 1 .2 1.2.6l.5.8.8 1.7.1.5.4.4c.4.7-.3.8-.2 1.5 0 .6.7.9.3 1.5-.3.2-.8 0-1-.3-.2-.3.1-.7-.5-.9-.3 0-.9.7-1.3.1Zm2-11.2c-.7-.2-1.3-1.1-2-1.6-.6-.3-1-.4-1.3-.4h-.6v.3c-.4.6-1.2.5-1.4-.2-1.3-.1-2.8-.6-4-.1l1.4-1.6c.7-.3.6-1.2 1.5-1.4 1-.2 1.6.6 2.4 1l1.3.6.4-.4c.2-.5.5-1 1.2-.8.3 0 .5.2.6.5l.1.4.4.4.4-.3s.3-.5.7-.3l1.2.7s-.5.4.6.3c.4-.1.7-.2.9 0l.2.2c.4 1-3 2.8-4 2.7Zm7.2-1-.1.2-.2.2-.1.2H1002.9s0 .1-.1 0c-.3.8-.8.2-1.3-.2-1.1-1 .1-2.6 1-1.4l.2.5h.2l.1-.1h.5v.2h.1V61.5Zm2.8 5.4-.1.2-.3.1V67l-.1-.2V66.6h.4l.1.1V67Zm.5-4.4c-.4 0-1-.5-1.4-.9-.5-.4-.4 0-.6-.7v-1.2c.6-.5.8 0 1.4.3 0-.3.2-.6.4-.7.7-.6 1.2 0 1.9-.3.6-.2 1.6-.3 2.5-.2l.8.5c.6 1-.4 1.3-1.2 1.2h-.6c.1.3 0 .6-.3 1-.4.3-1.3.4-1.9.6-.4.2-.4.5-1 .4Zm81.8 29.4c-1 1.8-2.7 1.3-2.1-.7l.1-.4c.2-.4.5-.7 1-.7 1 0 .8 1 1 1.7v.1Zm18-58.6v.2l-.2.2-.2.1-.1.1-.3.1-.1.1-.3.1H1104.6V34h-.2v-.8h.2V33l.3-.3h.2a2.2 2.2 0 0 1 .5-.3h.4c.6.1.6.3.6.6l.1.5Zm9.3 0h-.2v.1a2 2 0 0 1-.4.3c-.6.1-.8 0-1-.3V31.8l-.1-.4v-.2l-.3-.2v-.1l-.2-.4V30l.1-.1.3-.2c.9-.3 1 .3.8.9v1.2h.1a2.2 2.2 0 0 0 .2.3l.2.3.3.3.1.2v.4Zm4.2 18.7c-.6 1.4-2 1.4-2.1-.4l.1-.5a1 1 0 0 1 1.1-.6c.9.2.8.8 1 1.4v.1Zm3.8 1.6v.2l-.1.1a1.5 1.5 0 0 1-.3.4l-.4.2h-.5a.8.8 0 0 1-.4-.4l-.1-.5v-.4l.2-.3.3-.2.3-.2h.4a.6.6 0 0 1 .3.2l.3.3V53.7Zm2-8.5c-.8-.8-.5.7 0 0Zm3.9-.4v-.4l.4-.4h.5l.1.1v.1l.1.1V45.3l-.4.4h-.4v-.1a.6.6 0 0 1-.3-.3v-.5Zm4.9 15.2c0 .2-.2.3-.4.5l-1.2.7c-.7.2-1 .1-1.5 0l.2-.2v-.2l.2-.1-.1-.5c0-.3 0-.5-.6-.6a1 1 0 0 0-.5 0l-.1.1h-.2l.1-.5c.1-.2.3-.4.7-.5.8-.4 1.6.3 2.3.6.3.1 1 0 1.1.5v.3Zm4.2-4 .1-.2.3-.2H1139.7l.1.1.2.1h.1l.2.2.1.1.2.2.2.4c0 .2-.2.3-.4.5 0-.3-.3-.5-.8-.3l-.3.2-.1.2h-.1l-.2-.4V56Zm.8 7.5c-.3.7-1.1 1.3-1.8 1-.8 0-.8-1.1-.6-1.6.3-.6.9-.9 1.5-.8 1 .1 1.2.8.9 1.4Zm3.7-13.4V50l.1-.2v-.2l.1-.1h.7l.5.2.2.5-.1.6-.1.2-.3.4-.1.1h-.5l-.1-.1-.2-.1V51l-.1-.2V50Zm-.4 6v-.5l.2-.2.2-.2s0-.2.2-.2v-.6l.2-.2h.4l.1.1v.1l.2.1.1.2v.1l.2.2c.1.2.3.3.3.5 0 .1 0 .2-.2.3-.5.6-1.8 1-1.9.2Zm13 2V58l.2-.2.3-.1h.8v.8h-.1c0 .2-.1.2-.2.3l-.2.1h-.4a1 1 0 0 1-.3-.3 1 1 0 0 1-.1-.3V58Zm-6.5 3.8-.1.2c-.7 0-1.2-.3-1.7-.8l.1-.1H1149.3l.2.2.1.1v.4Zm.8-12.2v.1l-.2.2a1 1 0 0 1-.3 0H1149.6l-.2-.2v-.2l.1-.2H1150.5V49.8Zm2.7 9.9-.2.3-.3.2h-.8l-.1-.2c-.2 0-.2-.1-.2-.2v-.1l-.1-.2v-.2l.3-.3.3-.2H1152.6l.2.1.1.1.1.1.1.1v.5Zm.6-11.1-.5.6c-.2.2-.5.4-.8.3h-.2a.6.6 0 0 1-.3-.4v-.6h.1a1.3 1.3 0 0 1 .5-.6c.3-.2.7-.4 1-.3l.1.2v.8Zm.9-4.6-.2.2-.1.2h-.1l-.2.2h-.1l-.2.1H1153.1l-.2-.1h-.1l-.2-.4v-.8l.2-.1.1-.2h.1l.3-.2h.5l.3.1v.1c.2 0 .2.2.3.2v.1l.2.5Zm8.9-7.4.3-.4.3-.4c.7.4.5.9.8 1.4-.1.2-.2.3 0 .5-.3.4-.5.5-.7.6l-.5-.2c-.1-.4-.4-.6-.3-1v-.5h.1Zm-.5 14.8v-.6l.2-.3v-.1l.3-.4.2-.2h.4l.4.1.2.3.1.4v.1l.1.5v.8l-.1.5-.2.4-.2.3-.1.1c-.2.1-.3.2-.5.1h-.3l-.2-.2-.3-.4v-1.5Zm3 15.6v.1l-.1.1-.4.3-.3.2-.3.1h-.9l-.2-.1v-.1l-.2-.2v-.4l.3-.3.3-.3h.2l.3-.1h.5l.3.1h.1l.3.2.1.3Zm.3-19a2.6 2.6 0 0 1-.4.9l-.3.2h-.4a1 1 0 0 1-.5-.3l-.1-.2-.1-.3V47.3l.1-.4v-.1l.1-.1.1-.2a1.6 1.6 0 0 1 .3-.4h.3l.1-.1h.4l.3.4v.2l.1.4v.8Zm1 5.3v.2h-.4l-.3-.2a.5.5 0 0 1-.1-.4v-.1l.3-.3h.5l.1.4v.4Zm13.4-11.6c.2-.4.7-.4 1.2-.4.6 0 1.3-.4 2-.4.6 0 1.1.7 1.7 1 .6.3 1 .4.8.8l-.5.6c-.9.8-1.5.8-2.4.2-.7-.4-.8-.4-1.6-.6-.6-.1-1.2 0-1.3-.7v-.5Zm-2.3 16.3h.2l.3-.1.3-.1H1179.9V58l-.1.3c-.4.6-1.8.5-1.4-.4Zm.3 4.2h-.2a1 1 0 0 1-.6 0l-.2-.5-.2-.2V61l.4-.4c.2 0 .3-.2.5-.4l.6-.2h.6v.2l.3.1V61l-.1.2-.2.3-.2.2-.2.2-.2.1-.3.1Zm-2.6-9.6.2.3v.2l-.1.2h-.2c0 .2 0 .2-.2.3h-.5l-.1-.1h-.2v-.1h-.2V53h-.1v-.4l.1-.3c.2-.2 1.2 0 1.3.1Zm-2.7-2V50.2l.1-.2H1174.4l.3.2.2.1.1.2v.2c0 .2-.2.3-.3.4l-.3.2H1173.8v-.1h-.2V51l-.1-.1v-.1l-.1-.2v-.1Zm-4.5 4.8.2-.8.2-.2v-.1h.2l.1-.1h.2l.2.1.3.5a1.4 1.4 0 0 1 .2.6v.4l-.1.4v.1l-.3.3-.3.2h-.3l-.3-.1-.3-.5v-.8Zm2.5-6.4v-.1l-.1-.1V48h.7l.3.3v.2l-.2.2-.2.2h-.4l-.1-.2Zm.2 5.4c.3-.6 1-.9 1.7-.5.5 0 .7 1.2.3 2-.3.5-.8.8-1.5.2-.7-.4-.7-1.2-.5-1.7Zm1.5 28.2 1 .4v.2h-.1c-.2.2-.4.2-.6.2-.5 0-1.1-.4-1.4-.7.3-.2.7-.2 1-.1Zm1.8-16-.4-.4v-.5l.3-.3h.6a1.4 1.4 0 0 1 .5 0l.4.3c-.2.4-1 1-1.4.8Zm6-11.2-.2.3a1 1 0 0 1-.3.1h-.5v-.2l-.2-.1V55h-.1v-.6l.2-.2h.4l.1.1.3.2.3.3v.4Zm47.8 23.8v.1l-.2.2-.3.1c-.2 0-.3 0-.4-.2V78.7h.1v-.2h.1l.1-.1H1228.5l.2.3.1.3v.1Zm3.5.7v.2a1.6 1.6 0 0 1-.1.4l-.2.2-.1.1a1 1 0 0 1-.3.2c-.3.2-.5.1-.7 0l-.4-.4c0-.8 1.2-2.3 1.8-1v.3Zm13.3-35.7c0 .2 0 .4-.2.5l-.2.2H1244.7l-.1-.1h-.1l-.2-.3V44h-.1v-.9l.5-.1.4.1.2.4.1.5Zm3.3-2.5c0-.9 1 .3 0 0Zm6.9 37.7c0 .1 0 .2-.2.3-.4.5-.6 0-.8-.2V79l.1-.2h.4l.3.1.2.4Zm7.2-29.3-.2.4c-.4.4-.7.3-.9.1-.3-.4-.4-1.2-.6-1.5l-.2-.1-.3-.2h-.1l-.3-.2-.3-.1-.3-.2-.1-.2V47.6c0-.2.1-.3.3-.4.4-.4.7-.4.9-.2.4.3.5 1.2.8 1.5l.3.3.1.1.3.1v.1h.1l.3.3.2.3v.2Zm6.4-5.9-.4.3h-.6l-.5-.7v-.4l.2-.2V43l.2-.3h.1l.3-.3.3-.2h.6l.2.1a1 1 0 0 1 .2.7V43.3l-.2.3v.2l-.3.2-.1.1Zm2.7 9.8h-.3l-.3.1h-.4l-.2-.1a1 1 0 0 1-.3-.3v-.2l.2-.1.3-.2h.5l.2-.1h.7l.2.2V53.5l-.2.2-.3.2h-.1Zm8.6-.7a1 1 0 0 1-.4-.2c.1-.4 1-.5 1.4-.3l.3.3c-.4.2-1 .3-1.3.2Zm10.6 10.3h-.3v-.3l.1-.1h.2v.4Zm4.1-16.6v-.1l.1-.1a4.6 4.6 0 0 1 .4-.5V45l.2-.2.3.1h.1l.3.4.2.4v.4l-.2.2-.4.4-.5.3c-.2.1-.4.1-.4-.2Zm9 2v.1l-.4.3c-.6.2-.6-.2-.6-.7v-.4l.4-.2h.4v.1l.2.1v.7Zm.5-4.7c0-1 1.6-.2 1 .4-.3.3-.8-.2-1-.4Zm1.7 80.3-.3.3-.3.3-.2.1h-.2v-.8h.1a2 2 0 0 1 .3-.5l.3-.2.4-.2h.5l.2.3-.9.8Zm1.3-76.8v.1l-.3.2a1 1 0 0 1-.4.1h-.3v-.4l.3-.4h.2l.3.1.2.1v.1Zm3.5-4.6v.2h-.2c0-.1.1-.4.2-.2Zm-1.7 4.3c.2-.7 1.9-1.6 2.7-1.9l-.2.4-1 .5c-.5.3-.9 1-1.5 1Zm3.4 7.1-.1.1-.4.1-.6-.8h.3a1.6 1.6 0 0 1 .3.1l.3.2v.1l.1.2Zm3 3c-.2-.1-.3-.6-.5-.7-.3-.2-.6 0-.8-.2-.2 0-.4-.2-.5-.4-.2-.1-.3-.3-.3-.5H1315l.4.1h.1l.3.2h.1l.2.2.1.1.2.2v.7c0 .3-.2.4-.6.2Zm1.4 11c.3 0-.4 0 0 0Zm1.4 1.5v.1l-.2.2h-.3v.1l-.4-.1c0-.5.4-1.5.8-.6V70Zm.7-4.6V66c-.2.6.1.6-.6 0v-.7h.1V65h.1v-.2h.2l.2.1v.4Zm.3-5.8c-.2-.5 0-.8-.7-1-.5-.2-1.1 0-1.6 0 .1-1 1-.8 1.6-1.4.6-.6-.2-.9.9-1 .5-.1 1.3 0 1.6.5v.3l-.3 1.3v.1l.2 1.4v.3c-.4 1-1.4.1-1.7-.5Zm42-4.8v.1l-.2.3v.1l-.2.2-.1.1a1 1 0 0 1-.3.2 1 1 0 0 1-.4 0l-.2-.1-.3-.4V55l.2-.2v-.1a2 2 0 0 1 .5-.5l.2-.1h.5c.2.1.2.3.3.4V54.8Zm2 8.2v.2l-.3.1-.3.1h-.8l-.1-.3V62.7H1362.7l.3-.1h.8l.1.1v.2Zm16.7-10.4h-.5v-.4l.5.4Zm-1.2-7.2c.7.6-.8 1.2-1.3.8-.5-.7.8-1.3 1.3-.8ZM1368 57.9c.6-.4 1-1.2 2-.4.6.6.3 1.5.4 2.2 0 .4.3 1 0 1.2-.5.2-1.6-.6-1.8-.9-.7-.7-.6-1.2-.6-2Zm-.4 7.4c-.3-.7.6-1.2 1.1-1.2.6 0 1 .5 1.3 1 .6 2-2.4 1.5-2.4.2Zm2.8-2.5a1 1 0 0 1-.3-.2c0-.3.7-.4 1-.2.2 0 .3.1.3.2-.3.2-.7.3-1 .2Zm3.6 11.2c-.3-.5-.1-1 0-1.6h.2c.3.6 1 1.8-.2 1.6Zm1.3-9.3c-.9 0-1.8-1.3-.6-1.7 1.4-.6 1.2 1 .6 1.7Zm1.9 11.4c-1-.5-.5-2 .4-1.4.8.3.6 1.8-.4 1.4Zm.8-8.1c-.9 0-2.2-1.5-.9-1.7 1-.2 1.5 1 .9 1.7Zm.8 3h-.2v-.3h.2v.3Zm.8 7.3c.4-.8 1.2.1 1.1.7-.5.5-1.7.2-1.1-.7Zm3.7-21.3v.3l-.4.4-.4.3c-.2 0-.3 0-.4-.2v-.1l.2-.2v-.2h.2v-.9l.1-.2H1382.8v.1c.2 0 .3.2.3.3l.2.3v.1Zm5.5 1.7h.2l.2.1V59.4l-.3.3c-.6.2-.4-.4-.5-1h.4Zm1.6-2.8c-.2.3-.6-.1-.7-.2 0-.9 1.2-.2.7.2Zm1.6 2.5v.1l-.2.1a1 1 0 0 1-.4.2l-.2-.1V58.4l.2-.3h.4l.2.1v.2Zm3.8 5 .2.2.1.2v.1l-.3.1-.5-.7h.2l.2.1Zm-1-8.7v.2h-.2l.2-.2Zm.8 2c-.2.5-.6.4-1 .7-.4.2-.7.8-1.2.8.2-.6 1.5-1.3 2.2-1.5Zm5.1 19.4V76.4H1400c0-.4.3-1.2.6-.5v.2Zm-1.8-10.3c0 .3 0 .5-.4.4-.1 0-.2-.5-.4-.6h-.6c-.3-.2-.6-.5-.7-.8h1.3l.2.1h.1l.2.2h.1v.2l.2.1V65.7Zm2.4 6.7v.5c-.2.4.1.5-.5 0v-.5l.1-.2.1-.1V72H1401.3v.3Zm.3-4.6c-.2-.5 0-.7-.6-.9h-1.3c.1-.7.8-.6 1.3-1 .4-.5-.2-.7.7-.9.4 0 1 0 1.3.5v.2l-.3 1v.1l.2 1.2v.2c-.3.9-1.1.1-1.3-.4Zm5.3-4.7c-.2.3-.6.2-.8 0-.3-.5.2-1 .7-.7.1.2.3.4.1.7Zm2.2-3.5c-.2.3-.1.7-.2 1 0 .2-.8 2.2-1 1.3-.3-.4.3-.7.4-1l.4-1.5c0-.2 1.3-1.5 1.2-.6 0 .3-.7.4-.8.8Zm.2-1.7c-.4.1-.8.2-1 .1-.6-.2.2-.5.4-.6.6-.2.7-.3 1.2 0v.1c0 .2-.3.4-.6.4Zm4.2 1c-.2.4-.7.7-1 1.1-.5.6-.3.8-.4 1.4 0 .8-.5 1.8-.3 2.7l-.8-1c-.1-.3-.7-.4-.7-.9 0-.6.4-.9.7-1.3l.4-.7c-.3-.4-.6-1 .3-1.6h.4c.2-.2.3-.4.3-.8 0-.3-.8-1.2-.2-1.3.6-.2 1.4 1.9 1.2 2.3Zm22.7 8.5c0-.6.4-.6.7-.8.5.3 1.4 1.5.4 1.7-.3.1-1-.6-1-1Zm.9 4.2c-.4-.2-.7.2-.5-.5.1-.2.3-.2.4-.3.4-.6.7-.5 1.3-.8l-1.2 1.6Zm.5-6.1c-.7.3-1-.3-.9-.9.7-.2 2 .5 1 .9Zm-2.7-4.9a3 3 0 0 1 1.5-.7c.8 0 .4.6.2 1.2l-.4.6v-.3c0-.2-.1-.2-.2-.3l-.1-.1h-.3l-.3.1h-.1l-.3.2h-.1c-.1-.1 0-.4.1-.7Zm6.6 43.6c-.7 1.4-2.2 1-1.7-.6l.1-.4c.2-.3.4-.5.8-.5.9 0 .6.8.8 1.4Zm28.3-5.4v.2l-.1.1-.1.1H1469.2l-.3-.1v-.7l.1-.1v-.1h.2v-.1H1469.5v.1l.2.2v.4Zm3.6.8v.1a1.6 1.6 0 0 1-.2.5l-.2.2a1 1 0 0 1-.4.3h-.6l-.5-.4c0-.8 1.2-2.3 1.8-1.1l.1.3v.1Zm13.2-35.7-.1.4-.3.2h-.4v-.1l-.2-.2-.1-.3a1.3 1.3 0 0 1-.1-.3v-.2l.1-.4.4-.2h.1l.3.2.2.3v.1l.1.4Zm3.3-2.5c0-1 1 .3 0 0Zm7 37.6-.2.4c-.4.4-.6 0-.9-.3v-.4l.2-.1.3-.1.4.1.1.4Zm7.1-29.3v.1c0 .1 0 .2-.2.3-.4.4-.6.4-.8.2-.3-.4-.4-1.3-.6-1.5l-.2-.2h-.1l-.2-.1h-.1l-.3-.2-.4-.2-.2-.1V68l-.2-.2V67.4l.3-.4c.4-.4.7-.4 1-.2.3.4.5 1.3.8 1.6l.3.3.3.2h.1l.4.3.2.4v.1Zm6.4-5.8-.3.2h-.7l-.4-.6v-.4l.1-.2.1-.2.2-.2.1-.1.2-.2h.1l.3-.2H1510.7l.1.1a1 1 0 0 1 .3.7V63.2l-.2.3-.1.1-.2.3-.1.1Zm2.7 9.8h-1.2a1 1 0 0 1-.2-.3v-.2l.1-.2.4-.1.3-.1H1513.5l.1.2V73.5l-.1.2-.3.1h-.1Zm8.6-.7a1 1 0 0 1-.3-.3c0-.4.9-.5 1.3-.3l.3.3c-.4.3-.9.4-1.3.3Zm10.7 10.2h-.4V83l.1-.1h.2v.3Zm1.6-23.5.6.4h-.6v-.4Zm2.5 7v-.2l.2-.2a3.2 3.2 0 0 0 .3-.6v-.4l-.1-.3V65c0-.2.2-.2.3-.2h.3v.1c.2 0 .3.2.4.3v.1l.1.4v.4l-.1.2-.4.4-.5.3c-.2.1-.4.1-.5-.2Zm9 2h-.1c0 .2-.2.3-.3.3-.6.3-.6-.1-.6-.6V68l.4-.1a.5.5 0 0 1 .4 0l.1.2c.2.3.2.5 0 .7Zm.5-4.7c0-1.1 1.6-.3 1 .3-.4.4-.8-.2-1-.3Zm3 3.4v.1h-.1l-.2.2a1 1 0 0 1-.4.2h-.1l-.3-.1v-.4l.3-.3h.5l.2.2.1.1Zm1.7-.2c.3-.8 2-1.6 2.7-2 0 .2 0 .3-.2.4-.2.3-.6.3-1 .5-.4.4-.8 1-1.5 1Zm3.4 7v.2h-.4l-.6-.8h.2l.4.1.3.3.1.2Zm3 3c-.1 0-.3-.6-.5-.7l-.8-.1-.5-.4-.3-.6h1.3l.4.2h.1l.3.1.1.1.2.1v.2l.2.1v.8c0 .2-.1.3-.5.2Zm2.8 12.5v.2l-.1.1h-.1l-.2.1h-.4c0-.5.3-1.5.8-.7v.3Zm.8-4.6v.7c-.3.5 0 .6-.7 0v-.4l.1-.2V85l.1-.1v-.1h.1v-.1h.4v.5Zm.3-5.7c-.3-.6 0-.9-.8-1.1-.4-.2-1 0-1.6 0 .2-1 1-.8 1.6-1.4.6-.6-.1-.9.9-1 .5 0 1.4 0 1.6.5v.3l-.3 1.4.3 1.5v.3c-.4 1-1.5.1-1.7-.5Z" fill="#FF0040"/></svg>